<?xml version="1.0" encoding="utf-8"?>
<svg xmlns="http://www.w3.org/2000/svg" viewBox="-57.2104 931.8634 96.6413 170.4462" width="96.6413px" height="170.446px">
  <path style="stroke-width: 3; fill: rgb(158, 255, 46);" d="M 7.311 948.336 L -27.355 948.185 L -27.355 936.179 C -18.182 930.301 -2.847 930.55 7.334 936.179 L 7.311 948.336" transform="matrix(1, 0, 0, 1, 0, -1.1368683772161603e-13)"/>
  <path d="M 7.304 949.836 L -27.362 949.685 L -28.855 949.678 L -28.855 948.185 L -28.855 936.179 L -28.855 935.348 L -28.164 934.916 C -18.574 928.92 -2.472 929.144 8.06 934.866 L 8.836 935.288 L 8.834 936.182 L 8.811 948.339 L 5.811 948.333 L 5.832 937.07 C -3.939 931.947 -17.04 931.7 -25.855 937.007 L -25.855 946.691 L 7.318 946.835 Z" style="" transform="matrix(1, 0, 0, 1, 0, -1.1368683094535245e-13)"/>
  <path style="stroke-width: 3; fill: rgb(158, 255, 46);" d="M 37.263 1091.679 C 22.38 1105.879 -31.488 1105.72 -51.75 1092 C -63.713 1068.071 -53.607 973.83 -44.429 951.938 C -33.933 939.74 14.899 937.49 29.181 951.617 C 35.851 963.499 43.167 1064.382 37.263 1091.679 Z" transform="matrix(1, 0, 0, 1, 0, -1.1368683772161603e-13)"/>
  <path d="M 38.298 1092.764 C 30.489 1100.056 12.784 1103.789 -5.225 1103.809 C -23.224 1103.829 -42.178 1100.218 -52.591 1093.242 L -52.917 1093.023 L -53.091 1092.67 C -65.129 1068.326 -55.044 973.459 -45.812 951.357 L -45.716 951.128 L -45.565 950.959 C -39.926 944.62 -24.542 940.73 -9.074 940.405 C 6.385 940.08 22.707 943.282 30.237 950.55 L 30.385 950.693 L 30.49 950.882 C 37.254 963.077 44.649 1064.486 38.73 1091.995 L 38.631 1092.453 Z M 27.969 952.526 C 21.14 945.782 6.139 943.087 -9.012 943.406 C -24.155 943.724 -38.132 946.987 -43.134 952.732 C -52.234 974.801 -62.197 1066.902 -50.581 1090.98 C -40.662 1097.575 -22.949 1100.831 -5.228 1100.81 C 12.483 1100.79 28.637 1097.603 35.892 1090.912 C 41.608 1063.195 34.519 964.891 27.968 952.526 Z" style="" transform="matrix(1, 0, 0, 1, 0, -1.1368683094535245e-13)"/>
  <g style="" transform="matrix(1.5205270051956177, 0, 0, 1.5205270051956177, 4.811828136444092, -552.9161987304689)">
    <path style="fill: none; stroke-linecap: round; stroke: rgb(255, 0, 0); stroke-width: 1.31533px;" d="M -19.899 1018.42 L -12.943 1030.85"/>
    <path style="fill: none; stroke-linecap: round; stroke: rgb(255, 0, 0); stroke-width: 1.31533px;" d="M -17.077 1017.05 L -8.589 1032.22"/>
    <path style="fill: none; stroke-linecap: round; stroke: rgb(255, 0, 0); stroke-width: 1.31533px;" d="M -14.379 1015.46 L -4.111 1033.81"/>
    <path style="fill: none; stroke-linecap: round; stroke: rgb(255, 0, 0); stroke-width: 1.31533px;" d="M -10.791 1015.46 L -0.523 1033.81"/>
    <path style="fill: none; stroke-linecap: round; stroke: rgb(255, 0, 0); stroke-width: 1.31533px;" d="M -6.313 1017.05 L 2.175 1032.22"/>
    <path style="fill: none; stroke-linecap: round; stroke: rgb(255, 0, 0); stroke-width: 1.31533px;" d="M -1.958 1018.42 L 4.998 1030.85"/>
  </g>
  <path style="fill: none; stroke-width: 2px; stroke-linecap: round;" d="M -34.617 1047.872 C -23.371 1035.707 8.625 1035.751 18.382 1047.726" transform="matrix(1, 0, 0, 1, 0, -1.1368683772161603e-13)"/>
  <path d="M -35.296 1048.606 C -35.702 1048.231 -35.726 1047.598 -35.351 1047.193 C -29.496 1040.968 -18.319 1037.759 -7.56 1037.746 C -2.177 1037.74 3.248 1038.51 7.879 1040.036 C 10.201 1040.801 12.402 1041.785 14.288 1042.943 C 16.181 1044.105 18.905 1046.874 18.905 1046.874 C 18.964 1046.917 18.905 1046.874 18.905 1046.874 C 19.186 1047.093 19.327 1047.447 19.276 1047.799 C 19.225 1048.152 18.988 1048.45 18.656 1048.58 C 18.324 1048.71 17.948 1048.653 17.671 1048.429 C 17.671 1048.429 17.655 1048.412 17.671 1048.429 C 17.671 1048.429 17.023 1047.676 16.692 1047.341 C 16.361 1047.006 16.026 1046.697 15.655 1046.383 C 14.913 1045.754 14.126 1045.19 13.241 1044.647 C 11.466 1043.557 9.478 1042.669 7.253 1041.935 C 2.789 1040.465 -2.317 1039.739 -7.558 1039.746 C -18.048 1039.759 -28.492 1042.61 -33.883 1048.55 C -34.258 1048.956 -34.891 1048.98 -35.296 1048.605 Z" style="" transform="matrix(1, 0, 0, 1, 0, -1.1368683094535245e-13)"/>
  <path style="fill: none; stroke-width: 2px;" d="M 19.073 1042.6 C 20.161 1045.55 19.138 1050.01 17.182 1052.02" transform="matrix(1, 0, 0, 1, 0, -1.1368683772161603e-13)"/>
  <path d="M 20.011 1042.254 C 20.586 1043.898 20.634 1046.028 20.247 1047.868 C 20.053 1048.79 19.739 1049.741 19.359 1050.543 C 18.975 1051.352 18.085 1052.448 18.085 1052.448 C 18.051 1052.508 16.374 1051.432 16.349 1051.466 C 16.349 1051.466 16.847 1050.89 17.036 1050.605 C 17.228 1050.317 17.388 1050.03 17.551 1049.687 C 17.879 1048.996 18.119 1048.27 18.289 1047.457 C 18.631 1045.827 18.647 1044.252 18.133 1042.946 Z" style="fill: none;" transform="matrix(1, 0, 0, 1, 0, -1.1368683094535245e-13)"/>
  <path d="M 19.213 1040.887 C 20.13 1042.531 20.634 1046.028 20.247 1047.868 C 20.053 1048.79 19.841 1049.798 19.359 1050.543 C 17.949 1052.719 14.152 1053.426 14.127 1053.46 C 14.127 1053.46 16.847 1050.89 17.036 1050.605 C 17.228 1050.317 17.388 1050.03 17.551 1049.687 C 17.879 1048.996 18.119 1048.27 18.289 1047.457 C 18.631 1045.827 19.213 1040.887 19.213 1040.887 Z" style="" transform="matrix(1, 0, 0, 1, 0, -1.1368683772161603e-13)"/>
  <path d="M 19.65 1040.643 C 20.596 1042.373 21.126 1046.043 20.737 1047.971 C 20.543 1048.893 20.296 1049.986 19.779 1050.815 C 18.21 1053.093 14.375 1053.867 14.427 1053.86 L 12.747 1054.076 L 13.784 1053.096 C 13.822 1053.06 16.469 1050.567 16.62 1050.327 C 16.802 1050.056 16.944 1049.801 17.099 1049.472 C 17.415 1048.81 17.637 1048.139 17.799 1047.354 C 18.137 1045.746 18.716 1040.828 18.716 1040.828 L 18.899 1039.271 Z M 18.778 1047.559 C 18.601 1048.399 18.342 1049.181 18.002 1049.901 C 17.832 1050.258 17.654 1050.576 17.452 1050.881 C 17.228 1051.207 16.631 1051.744 15.931 1052.422 C 17.045 1051.994 17.698 1052.329 18.939 1050.27 C 19.386 1049.609 19.563 1048.686 19.757 1047.764 C 20.141 1046.011 20.349 1044.511 19.461 1042.953 C 19.26 1044.525 19.124 1045.906 18.778 1047.558 Z" style="fill: none;" transform="matrix(1, 0, 0, 1, 0, -1.1368683094535245e-13)"/>
  <path style="fill: none; stroke-width: 2px;" d="M -36.499 1042.24 C -36.689 1047.77 -34.979 1050.12 -31.653 1050.61" transform="matrix(1, 0, 0, 1, 0, -1.1368683772161603e-13)"/>
  <path d="M -37.352 1042.762 C -37.352 1042.762 -37.158 1047.347 -36.247 1048.837 C -35.301 1050.385 -33.634 1051.295 -31.798 1051.6 L -31.506 1049.621 C -32.996 1049.435 -33.848 1048.926 -34.54 1047.794 C -34.898 1047.209 -35.134 1046.556 -35.305 1045.631 C -35.392 1045.16 -35.449 1044.675 -35.482 1044.109 C -35.516 1043.539 -35.499 1042.182 -35.499 1042.182 C -35.498 1042.207 -37.415 1042.596 -37.35 1042.763 Z" style="fill: none;" transform="matrix(1, 0, 0, 1, 0, -1.1368683094535245e-13)"/>
  <path d="M -35.499 1042.182 C -36.865 1043.347 -37.158 1047.347 -36.247 1048.837 C -35.301 1050.385 -33.634 1051.295 -31.798 1051.6 C -31.798 1051.6 -33.848 1048.926 -34.54 1047.794 C -34.898 1047.209 -35.134 1046.556 -35.305 1045.631 C -35.392 1045.16 -35.449 1044.675 -35.482 1044.109 C -35.516 1043.539 -35.499 1042.182 -35.499 1042.182 Z" style="" transform="matrix(1, 0, 0, 1, 0, -1.1368683772161603e-13)"/>
  <path d="M -34.983 1044.08 C -34.951 1044.631 -34.898 1045.085 -34.813 1045.54 C -34.653 1046.425 -34.449 1046.994 -34.113 1047.533 C -33.436 1048.643 -31.401 1051.296 -31.401 1051.296 L -30.622 1052.312 L -31.88 1052.094 C -33.795 1051.762 -35.634 1050.736 -36.674 1049.099 C -37.165 1048.252 -37.36 1046.724 -37.225 1045.34 C -37.09 1043.955 -36.583 1042.499 -35.824 1041.803 L -34.985 1041.033 L -35 1042.19 C -35 1042.19 -35.017 1043.53 -34.984 1044.082 Z M -35.987 1044.037 C -36.101 1044.457 -36.104 1044.16 -36.229 1045.436 C -36.354 1046.716 -36.241 1047.933 -35.82 1048.576 C -34.968 1050.035 -34.217 1050.364 -33.045 1050.776 C -33.699 1049.898 -34.259 1049.208 -34.966 1048.055 C -35.346 1047.424 -35.614 1046.686 -35.796 1045.722 C -35.885 1045.235 -35.946 1044.719 -35.98 1044.139 C -35.982 1044.101 -35.984 1044.067 -35.986 1044.037 Z" style="fill: none;" transform="matrix(1, 0, 0, 1, 0, -1.1368683094535245e-13)"/>
  <path style="fill: rgb(255, 255, 255); stroke-width: 2px;" d="M -18.695 1019.201 C -14.727 1008.719 -15.644 992.862 -17.653 985.112 C -19.362 979.131 -27.263 971.824 -33.73 976.18 C -41.676 981.865 -45.438 1002.872 -44.746 1010.716 C -36.663 1011.053 -22.869 1015.375 -18.695 1019.201 Z" transform="matrix(1, 0, 0, 1, 0, -1.1368683772161603e-13)"/>
  <path d="M -45.742 1010.804 C -46.428 1002.828 -42.436 981.354 -34.289 975.351 C -32.496 974.187 -30.459 973.721 -28.632 973.902 C -26.809 974.082 -24.927 974.872 -23.347 975.942 C -20.208 978.068 -17.616 981.715 -16.685 984.861 C -14.661 992.708 -13.76 1008.867 -17.76 1019.555 L -18.283 1020.953 L -19.371 1019.938 C -23.357 1016.221 -36.834 1012.03 -44.788 1011.715 L -45.667 1011.68 Z M -19.172 1017.563 C -15.772 1007.315 -16.626 993.022 -18.62 985.369 C -19.403 982.54 -21.613 979.532 -24.468 977.598 C -25.885 976.638 -27.298 976.044 -28.828 975.892 C -30.355 975.741 -31.73 975.995 -33.171 977.009 C -40.916 982.375 -44.192 1001.488 -43.807 1009.767 C -35.578 1010.33 -23.534 1013.628 -19.171 1017.562 Z" style="" transform="matrix(1, 0, 0, 1, 0, -1.1368683094535245e-13)"/>
  <path style="fill: rgb(255, 255, 255); stroke-width: 2px;" d="M 4.229 1020.838 C 10.481 1015.116 20.008 1011.647 25.218 1012.055 C 24.938 1003.548 24.871 987.12 16.882 980.348 C 7.181 974.261 1.879 980.349 0.805 986.898 C -0.825 998.98 2.166 1014.451 4.229 1020.838 Z" transform="matrix(1, 0, 0, 1, 0, -1.1368683772161603e-13)"/>
  <path d="M -0.182 986.736 C 0.402 983.317 2.195 979.74 5.099 978.023 C 7.99 976.314 12.297 976.38 17.413 979.5 L 17.475 979.538 L 17.528 979.584 C 25.694 986.735 25.937 1003.528 26.217 1012.021 L 26.254 1013.148 L 25.139 1013.051 C 20.139 1012.614 10.989 1015.954 4.903 1021.575 L 3.756 1022.634 L 3.276 1021.145 C 1.198 1014.699 -1.809 998.98 -0.183 986.736 Z M 4.739 1019.076 C 11.003 1013.912 18.605 1011.156 24.187 1011.034 C 23.939 1002.305 24.104 987.55 16.292 981.157 C 11.739 978.229 8.571 978.295 6.118 979.745 C 3.678 981.188 2.288 983.919 1.795 987.042 C 0.163 998.959 2.74 1012.084 4.74 1019.075 Z" style="" transform="matrix(1, 0, 0, 1, 0, -1.1368683094535245e-13)"/>
  <path style="" d="M -14.057 974.419 L -18.021 981.613 C -22.735 980.257 -37.672 966.459 -46.796 970.895 L -41.658 955.48 C -33.492 955.826 -21.24 971.252 -13.91 974.125 Z" transform="matrix(1, 0, 0, 1, 0, -1.1368683772161603e-13)"/>
  <path d="M -13.619 974.66 L -17.777 982.206 L -18.159 982.093 C -20.6 981.373 -25.567 977.564 -30.999 974.518 C -36.433 971.471 -42.215 969.135 -46.577 971.345 L -47.654 971.891 L -42.011 954.961 L -41.636 954.981 C -33.285 955.421 -20.952 970.864 -13.727 973.66 L -13.216 973.858 L -13.462 974.35 Z M -14.602 974.373 C -22.057 970.974 -33.502 956.69 -41.305 956.002 L -45.984 970.041 C -41.374 968.554 -36.004 970.565 -30.51 973.646 C -25.014 976.728 -20.664 980.107 -18.258 981.008 Z" style="" transform="matrix(1, 0, 0, 1, 0, -1.1368683094535245e-13)"/>
  <path style="" d="M -0.256 986.164 C 6.788 985.685 18.026 973.726 27.199 977.355 L 24.115 964.876 C 15.433 964.578 4.287 977.089 -0.403 977.062 L -0.256 986.164 Z" transform="matrix(1, 0, 0, 1, 0, -1.1368683772161603e-13)"/>
  <path d="M -0.4 976.562 C 4.102 976.673 15.255 964.162 24.132 964.376 L 24.509 964.385 L 27.922 978.193 L 27.016 977.819 C 22.616 976.003 17.724 978.075 12.911 980.659 C 8.097 983.243 3.425 986.38 -0.221 986.662 L -0.746 986.703 L -0.91 976.549 Z M 0.235 985.613 C 3.562 985.157 7.577 982.386 12.436 979.778 C 17.296 977.17 21.958 975.335 26.497 976.599 L 23.721 965.367 C 15.284 965.36 5.214 976.682 0.104 977.515 Z" style="" transform="matrix(1, 0, 0, 1, 0, -1.1368683094535245e-13)"/>
  <ellipse style="" cx="-23.105" cy="1000.15" rx="3.416" ry="6.356" transform="matrix(1, 0, 0, 1, 0, -1.1368683772161603e-13)"/>
  <path d="M -19.189 1000.15 C -19.189 1001.964 -19.601 1003.675 -20.249 1004.881 C -20.911 1006.114 -22.002 1007.006 -23.105 1007.006 C -24.208 1007.006 -25.298 1006.114 -25.961 1004.881 C -26.609 1003.675 -27.021 1001.964 -27.021 1000.15 C -27.021 998.336 -26.609 996.625 -25.961 995.419 C -25.299 994.186 -24.208 993.294 -23.105 993.294 C -22.002 993.294 -20.912 994.186 -20.249 995.419 C -19.601 996.625 -19.189 998.336 -19.189 1000.15 Z M -21.13 995.892 C -21.704 994.824 -22.322 994.294 -23.105 994.294 C -23.888 994.294 -24.506 994.824 -25.08 995.892 C -25.668 996.986 -26.021 998.453 -26.021 1000.15 C -26.021 1001.847 -25.668 1003.313 -25.08 1004.408 C -24.506 1005.476 -23.888 1006.006 -23.105 1006.006 C -22.322 1006.006 -21.704 1005.476 -21.13 1004.408 C -20.542 1003.314 -20.189 1001.847 -20.189 1000.15 C -20.189 998.453 -20.542 996.987 -21.13 995.892 Z" style="" transform="matrix(1, 0, 0, 1, 0, -1.1368683094535245e-13)"/>
  <ellipse style="stroke-width: 1;" cx="6.529" cy="1001.27" rx="3.416" ry="6.356" transform="matrix(1, 0, 0, 1, 0, -1.1368683772161603e-13)"/>
  <path d="M 10.445 1001.27 C 10.445 1003.084 10.033 1004.795 9.385 1006.001 C 8.723 1007.234 7.632 1008.126 6.529 1008.126 C 5.426 1008.126 4.336 1007.234 3.673 1006.001 C 3.025 1004.795 2.613 1003.084 2.613 1001.27 C 2.613 999.456 3.025 997.745 3.673 996.539 C 4.335 995.306 5.426 994.414 6.529 994.414 C 7.632 994.414 8.722 995.306 9.385 996.539 C 10.033 997.745 10.445 999.456 10.445 1001.27 Z M 8.504 997.012 C 7.93 995.944 7.312 995.414 6.529 995.414 C 5.746 995.414 5.128 995.944 4.554 997.012 C 3.966 998.106 3.613 999.573 3.613 1001.27 C 3.613 1002.967 3.966 1004.433 4.554 1005.528 C 5.128 1006.596 5.746 1007.126 6.529 1007.126 C 7.312 1007.126 7.93 1006.596 8.504 1005.528 C 9.092 1004.434 9.445 1002.967 9.445 1001.27 C 9.445 999.573 9.092 998.107 8.504 997.012 Z" style="" transform="matrix(1, 0, 0, 1, 0, -1.1368683094535245e-13)"/>
</svg>