<?xml version="1.0" encoding="utf-8"?>
<svg xmlns="http://www.w3.org/2000/svg" viewBox="200.1975 449.4221 206.6334 174.1498" width="206.633px" height="174.15px">
  <g>
    <g>
      <path style="stroke: rgb(0, 0, 0); fill: rgb(175, 176, 170); stroke-width: 1;" d="M 402.844 471.607 C 399.974 472.163 394.133 473.634 394.006 473.658 C 391.092 474.222 390.803 468.656 391.322 468.457 L 392.58 465.116 C 392.676 464.952 404.35 466.23 405.338 466.442 C 408.944 467.216 405.179 471.156 402.844 471.607 Z M 357.269 458.33 C 359.298 458.645 381.966 463.418 381.966 463.608 L 380.709 467.128 C 381.445 467.561 374.994 472.224 370.277 470.27 C 370.072 470.185 360.974 465.973 356.326 464.048 C 352.545 462.482 349.864 457.183 357.269 458.33 Z"/>
      <path style="stroke: rgb(0, 0, 0); stroke-width: 1;" d="M 393.166 458.563 C 395.843 454.722 398.08 454.674 399.827 455.068 C 397.484 456.823 393.665 461.193 391.698 465.956 L 391.933 466.917 C 392.636 470.859 389.944 476.15 387.807 479.743 C 386.94 481.926 383.352 484.707 379.555 483.062 C 377.055 481.432 377.175 478.652 377.223 475.348 C 377.917 471.766 379.685 467.008 381.876 464.345 C 378.259 457.955 370.34 451.964 365.574 449.627 C 368.962 449.126 373.301 449.187 378.493 454.064 C 382.234 459.042 381.84 460.607 382.157 464.017 C 382.788 463.314 383.45 462.791 384.13 462.522 L 386.193 462.701 C 387.903 460.555 385.332 452.875 385.206 452.028 C 387.292 453.933 390.195 459.256 390.857 462.522 L 391.368 464.611 C 391.469 462.941 391.714 461.513 393.166 458.563 Z"/>
    </g>
    <path style="stroke-width: 3; fill: rgb(158, 255, 46);" d="M 315.692 483.227 L 281.026 483.087 L 284 471.522 C 293.173 466.082 302.135 465.887 312.316 471.097 L 315.692 483.227" transform="matrix(0.97461003, -0.22391, 0.22391, 0.97461003, -98.84231067, 78.87264653)"/>
    <path d="M 315.686 484.727 L 281.02 484.587 L 279.094 484.579 L 279.574 482.713 L 282.548 471.148 L 282.704 470.54 L 283.235 470.231 C 292.774 464.686 302.46 464.469 312.999 469.761 L 313.583 470.054 L 313.761 470.694 L 317.137 482.824 L 314.247 483.628 L 311.047 472.131 C 301.494 467.312 293.906 467.471 285.299 472.494 L 282.959 481.594 L 315.699 481.726 Z" style="" transform="matrix(0.9746100902557373, -0.22391000390052795, 0.22391000390052795, 0.9746100902557373, -98.8423080444336, 78.87265014648438)"/>
    <path style="stroke-width: 3; fill: rgb(158, 255, 46);" d="M 354.433 613.861 C 339.55 627.034 289.215 626.582 268.95 613.861 C 282.348 569.248 274.024 507.376 270.326 492.08 C 280.822 480.78 322.297 470.917 336.579 484.007 C 350.42 510.16 367.488 577.229 354.433 613.861 Z"/>
    <path d="M 355.427 614.984 C 347.632 621.745 330.828 625.128 313.705 625.071 C 296.593 625.014 278.546 621.594 268.153 615.131 L 267.182 614.527 L 267.514 613.429 C 280.887 569.132 272.552 507.652 268.869 492.432 L 268.678 491.641 L 269.228 491.059 C 274.743 485.225 288.159 479.687 301.787 477.417 C 315.416 475.148 329.989 476.16 337.593 482.901 L 337.779 483.066 L 337.906 483.306 C 351.811 509.625 368.923 577.296 355.847 614.365 L 355.717 614.734 Z M 335.371 484.931 C 328.632 478.753 315.582 478.162 302.28 480.377 C 288.977 482.592 277.283 487.286 271.974 492.532 C 275.764 509.131 283.674 568.342 270.715 613.18 C 280.72 619.048 296.874 622.016 313.716 622.072 C 330.547 622.128 345.929 619.23 353.151 612.994 C 365.943 576.721 349.128 511.074 335.372 484.932 Z" style=""/>
    <ellipse style="fill: rgb(216, 216, 216); stroke-width: 2;" cx="313.576" cy="525.247" rx="12.334" ry="23.989" transform="matrix(1, 0, 0.079233, 1, -41.811287, -0.388481)"/>
    <path d="M 326.91 525.247 C 326.91 531.984 325.475 538.216 323.187 542.667 C 320.87 547.173 317.31 550.236 313.576 550.236 C 309.842 550.236 306.282 547.173 303.965 542.667 C 301.677 538.216 300.242 531.984 300.242 525.247 C 300.242 518.51 301.677 512.278 303.965 507.827 C 306.282 503.321 309.842 500.258 313.576 500.258 C 317.31 500.258 320.87 503.321 323.187 507.827 C 325.475 512.278 326.91 518.51 326.91 525.247 Z M 321.408 508.741 C 319.261 504.565 316.653 502.258 313.576 502.258 C 310.498 502.258 307.891 504.565 305.744 508.741 C 303.568 512.973 302.242 518.734 302.242 525.247 C 302.242 531.759 303.568 537.521 305.744 541.753 C 307.891 545.929 310.499 548.236 313.576 548.236 C 316.654 548.236 319.261 545.929 321.408 541.753 C 323.584 537.521 324.91 531.76 324.91 525.247 C 324.91 518.735 323.584 512.973 321.408 508.741 Z" style="" transform="matrix(1, 0, 0.07923302054405212, 1, -41.81128692626953, -0.3884810209274292)"/>
    <ellipse style="fill: rgb(216, 216, 216); stroke-width: 2;" cx="313.576" cy="525.247" rx="9.502" ry="23.406" transform="matrix(1, 0, 0.118729, 1, -32.783684, 1.068558)"/>
    <path d="M 324.078 525.247 C 324.078 531.8 322.979 537.843 321.221 542.174 C 320.333 544.362 319.21 546.241 317.996 547.506 C 316.749 548.805 315.12 549.653 313.576 549.653 C 312.032 549.653 310.403 548.805 309.156 547.506 C 307.941 546.241 306.819 544.362 305.931 542.174 C 304.173 537.844 303.074 531.8 303.074 525.247 C 303.074 518.694 304.173 512.651 305.931 508.32 C 306.819 506.132 307.942 504.253 309.156 502.988 C 310.403 501.689 312.032 500.841 313.576 500.841 C 315.12 500.841 316.749 501.689 317.996 502.988 C 319.211 504.253 320.333 506.132 321.221 508.32 C 322.979 512.65 324.078 518.694 324.078 525.247 Z M 319.368 509.073 C 318.537 507.026 317.612 505.477 316.553 504.373 C 315.526 503.303 314.656 502.841 313.576 502.841 C 312.496 502.841 311.626 503.303 310.599 504.373 C 309.54 505.476 308.615 507.025 307.784 509.073 C 306.103 513.214 305.074 518.873 305.074 525.247 C 305.074 531.621 306.103 537.28 307.784 541.421 C 308.615 543.468 309.54 545.017 310.599 546.121 C 311.626 547.191 312.496 547.653 313.576 547.653 C 314.656 547.653 315.526 547.191 316.553 546.121 C 317.612 545.018 318.537 543.469 319.368 541.421 C 321.049 537.28 322.078 531.621 322.078 525.247 C 322.078 518.873 321.049 513.214 319.368 509.073 Z" style="" transform="matrix(1, 0, 0.11872899532318115, 1, -32.78368377685547, 1.0685579776763916)"/>
    <ellipse style="stroke-width: 1;" cx="320.568" cy="514.952" rx="3.399" ry="5.73" transform="matrix(0.99216801, -0.12491301, 0.12491301, 0.99216801, -62.16384156, 44.25211248)"/>
    <path d="M 324.467 514.952 C 324.467 516.598 324.051 518.163 323.401 519.259 C 322.738 520.377 321.657 521.182 320.568 521.182 C 319.479 521.182 318.398 520.377 317.735 519.259 C 317.085 518.164 316.669 516.599 316.669 514.952 C 316.669 513.306 317.085 511.741 317.735 510.645 C 318.398 509.527 319.479 508.722 320.568 508.722 C 321.657 508.722 322.738 509.527 323.401 510.645 C 324.051 511.74 324.467 513.305 324.467 514.952 Z M 322.541 511.155 C 321.974 510.2 321.356 509.722 320.568 509.722 C 319.78 509.722 319.161 510.2 318.595 511.155 C 318.015 512.133 317.669 513.434 317.669 514.952 C 317.669 516.47 318.014 517.77 318.595 518.749 C 319.162 519.704 319.78 520.182 320.568 520.182 C 321.356 520.182 321.975 519.704 322.541 518.749 C 323.121 517.771 323.467 516.47 323.467 514.952 C 323.467 513.434 323.122 512.134 322.541 511.155 Z" style="" transform="matrix(0.9921680092811584, -0.12491301447153091, 0.12491301447153091, 0.9921680092811584, -62.163841247558594, 44.252113342285156)"/>
    <ellipse style="stroke-width: 1;" cx="320.568" cy="514.952" rx="3.399" ry="5.73" transform="matrix(1, -0.000887, 0.000887, 1, 16.34601958, -0.00565217)"/>
    <path d="M 324.467 514.952 C 324.467 516.598 324.051 518.163 323.401 519.259 C 322.738 520.377 321.657 521.182 320.568 521.182 C 319.479 521.182 318.398 520.377 317.735 519.259 C 317.085 518.164 316.669 516.599 316.669 514.952 C 316.669 513.306 317.085 511.741 317.735 510.645 C 318.398 509.527 319.479 508.722 320.568 508.722 C 321.657 508.722 322.738 509.527 323.401 510.645 C 324.051 511.74 324.467 513.305 324.467 514.952 Z M 322.541 511.155 C 321.974 510.2 321.356 509.722 320.568 509.722 C 319.78 509.722 319.161 510.2 318.595 511.155 C 318.015 512.133 317.669 513.434 317.669 514.952 C 317.669 516.47 318.014 517.77 318.595 518.749 C 319.162 519.704 319.78 520.182 320.568 520.182 C 321.356 520.182 321.975 519.704 322.541 518.749 C 323.121 517.771 323.467 516.47 323.467 514.952 C 323.467 513.434 323.122 512.134 322.541 511.155 Z" style="" transform="matrix(1, -0.0008870000601746142, 0.0008870000601746142, 1, 16.346019744873047, -0.005652170162647963)"/>
    <path style="" d="M 322.194 503.153 L 321.403 508.955 C 317.179 504.356 298.823 501.402 290.021 502.23 L 289.098 487.858 C 297.586 488.516 318.204 497.979 322.194 503.153 Z"/>
    <path d="M 321.753 510.089 L 321.035 509.293 C 316.955 504.772 298.807 501.898 290.068 502.728 L 289.555 502.777 L 288.562 487.314 L 289.137 487.36 C 297.71 488.04 318.507 497.6 322.59 502.848 L 322.718 503.012 Z M 289.635 488.411 L 290.488 501.689 C 299.473 501.011 315.621 503.654 321.037 507.946 L 321.671 503.296 C 317.493 498.171 298.36 489.405 289.636 488.411 Z" style=""/>
    <path style="" d="M 332.347 505.79 L 334.9 510.656 C 337.464 507.132 343.156 506.05 352.521 506.186 L 348.17 492.341 C 340.743 494.876 338.028 497.322 332.347 505.79 Z"/>
    <path d="M 353.206 506.696 L 352.514 506.686 C 343.199 506.546 337.713 507.525 335.305 510.95 L 334.838 511.613 L 331.766 505.758 L 331.932 505.511 C 337.653 496.997 340.495 494.453 348.009 491.867 L 348.494 491.7 Z M 332.928 505.821 L 334.995 509.76 C 337.873 506.613 342.824 505.614 351.838 505.678 L 347.847 492.98 C 340.876 495.404 338.455 497.6 332.928 505.821 Z" style=""/>
    <path style="fill: none; stroke-width: 2px;" d="M 316.864 561.806 C 321.339 557.314 347.695 554.599 355.561 561.201"/>
    <path d="M 316.156 561.1 C 318.634 558.72 326.67 556.764 334.89 556.344 C 338.998 556.134 343.278 556.277 346.989 556.892 C 350.717 557.509 355.725 560.214 355.725 560.214 C 355.805 560.234 355.045 562.055 355.083 562.078 C 355.083 562.078 353.989 561.268 353.401 560.947 C 352.81 560.624 352.187 560.347 351.477 560.084 C 350.047 559.555 348.448 559.16 346.663 558.864 C 343.08 558.271 339.016 558.135 334.993 558.341 C 326.95 558.751 319.571 560.399 317.574 562.511 Z" style="fill: none;"/>
    <path d="M 317.574 562.511 C 317.574 562.511 326.67 556.764 334.89 556.344 C 338.998 556.134 343.278 556.277 346.989 556.892 C 350.717 557.509 355.725 560.214 355.725 560.214 C 355.805 560.234 355.045 562.055 355.083 562.078 C 355.083 562.078 353.989 561.268 353.401 560.947 C 352.81 560.624 352.187 560.347 351.477 560.084 C 350.047 559.555 348.448 559.16 346.663 558.864 C 343.08 558.271 339.016 558.135 334.993 558.341 C 326.95 558.751 322.055 561.331 317.574 562.511 Z" style=""/>
    <path d="M 317.307 562.088 C 317.307 562.088 326.524 556.303 334.865 555.844 C 338.994 555.634 343.328 555.78 347.071 556.398 C 350.406 556.962 354.725 559.13 355.742 559.657 L 355.847 559.728 C 355.993 559.827 356.196 560.012 356.218 560.11 C 356.23 560.162 356.232 560.244 356.229 560.277 C 356.226 560.32 356.214 560.381 356.204 560.42 C 356.187 560.486 356.158 560.578 356.127 560.67 C 356.065 560.85 355.976 561.088 355.889 561.319 C 355.801 561.55 355.713 561.778 355.649 561.95 C 355.632 561.996 355.617 562.037 355.605 562.071 L 356.45 563.71 L 354.787 562.479 C 354.769 562.466 353.717 561.685 353.163 561.385 C 352.59 561.071 352.001 560.809 351.305 560.552 C 349.902 560.031 348.349 559.648 346.583 559.356 C 343.032 558.766 339.022 558.633 335.02 558.839 C 327.081 559.22 322.237 561.793 317.703 562.993 L 314.524 563.835 Z M 334.968 557.842 C 339.012 557.636 343.13 557.775 346.745 558.371 C 348.549 558.671 350.194 559.078 351.651 559.615 C 352.376 559.884 353.032 560.176 353.641 560.508 C 353.684 560.531 353.729 560.557 353.776 560.585 C 353.776 560.585 354.678 561.692 354.712 561.602 C 354.747 561.508 354.789 561.398 354.833 561.282 C 355.141 561.498 354.837 561.272 354.837 561.272 C 354.875 561.172 354.915 561.067 354.955 560.963 C 355.022 560.786 355.087 560.614 355.139 560.468 C 353.952 559.853 349.978 557.88 346.909 557.384 C 343.231 556.772 339.004 556.632 334.917 556.842 C 326.818 557.224 325.949 558.794 322.619 560.365 C 325.901 559.268 326.822 558.279 334.969 557.841 Z" style="fill: none;"/>
    <path style="stroke-width: 2px; fill: rgb(211, 60, 60);" d="M 340.508 557.081 C 341.381 550.466 348.102 547.589 355.062 547.589 C 360.129 547.589 363.581 549.983 361.602 554.76 C 359.813 559.079 355.249 560.833 355.168 560.456 C 353.777 557.847 343.902 557.161 340.508 557.081 Z"/>
    <path d="M 339.517 556.95 C 340.059 553.396 342.185 550.627 345 548.99 C 347.795 547.365 351.479 546.589 355.062 546.589 C 357.731 546.589 360.247 547.303 361.666 548.661 C 362.401 549.365 362.97 550.417 363.118 551.487 C 363.262 552.523 363.053 553.831 362.526 555.143 C 361.515 557.473 359.749 559.219 358.305 560.197 C 357.564 560.699 356.827 561.07 356.313 561.266 C 356.038 561.371 355.741 561.456 355.542 561.485 C 355.416 561.504 355.198 561.51 355.059 561.486 C 354.956 561.468 354.737 561.388 354.622 561.309 C 354.47 561.204 354.274 560.863 354.19 560.666 L 354.177 560.635 L 354.285 560.926 C 353.89 559.866 351.433 559.304 348.425 558.806 C 345.41 558.307 342.164 558.119 340.484 558.08 L 339.348 558.053 Z M 348.752 556.834 C 351.477 557.285 354.239 558.167 355.563 559.412 C 355.574 559.408 355.586 559.403 355.598 559.399 C 356.018 559.238 356.549 558.971 357.183 558.542 C 358.489 557.657 359.899 556.368 360.677 554.378 C 361.139 553.302 361.241 552.519 361.136 551.763 C 361.036 551.04 360.796 550.599 360.282 550.107 C 359.203 549.074 357.459 548.591 355.061 548.591 C 351.684 548.591 348.528 549.254 346.004 550.721 C 343.501 552.176 342.253 553.666 341.681 556.125 C 343.528 556.211 345.632 556.32 348.751 556.836 Z" style=""/>
    <path style="fill: rgb(223, 235, 185); stroke-width: 2px;" d="M 201.395 488.54 C 200.47 489.28 198.487 538.395 210.336 567.001 C 216.563 582.035 230.049 589.887 238.949 575.719 C 251.38 555.931 258.192 524.928 257.949 524.977 L 255.714 512.682 L 244.984 501.058 L 228.889 490.552 L 215.254 485.411 L 204.748 486.529 L 201.395 488.54 Z"/>
    <path d="M 215.384 484.391 L 229.344 489.654 L 245.635 500.288 L 256.646 512.217 L 258.799 524.061 L 257.751 523.997 C 258.01 524.013 258.507 524.116 258.668 524.28 C 258.772 524.386 258.884 524.603 258.91 524.688 C 258.938 524.778 258.954 524.92 258.955 524.972 C 258.956 525.03 258.951 525.117 258.946 525.168 C 258.938 525.247 258.92 525.366 258.898 525.492 C 258.856 525.732 258.786 526.091 258.691 526.54 C 258.502 527.43 258.203 528.731 257.802 530.344 C 257.001 533.563 255.776 538.082 254.156 543.211 C 250.921 553.456 246.056 566.269 239.796 576.252 C 237.474 579.907 234.731 582.299 231.963 583.381 C 229.161 584.476 226.055 584.338 223.274 583.243 C 217.795 581.086 212.609 575.037 209.412 567.385 C 203.453 552.954 200.948 533.359 200.077 517.377 C 199.204 501.374 200.121 488.492 200.771 487.761 L 200.791 487.738 L 204.424 485.559 Z M 201.998 489.344 C 201.717 489.936 201.207 501.375 202.073 517.266 C 202.941 533.177 205.369 552.443 211.259 566.618 C 214.289 574 218.96 579.394 224.005 581.38 C 226.486 582.356 228.81 582.464 231.234 581.516 C 233.692 580.555 235.973 578.616 238.101 575.186 C 244.272 565.381 249.029 552.798 252.247 542.607 C 253.854 537.518 255.063 533.058 255.859 529.86 C 256.256 528.265 256.547 526.997 256.733 526.123 C 256.825 525.69 256.888 525.368 256.926 525.15 C 256.934 525.106 256.939 525.071 256.944 525.042 L 254.781 513.145 L 244.332 501.826 L 228.433 491.448 L 215.123 486.429 L 205.073 487.499 Z" style=""/>
    <path d="M 319.109 571.329 C 319.521 571.655 319.592 572.253 319.267 572.665 L 317.85 574.46 C 317.524 574.873 316.926 574.943 316.514 574.618 L 256.796 527.49 C 256.778 527.476 256.761 527.461 256.743 527.446 C 250.477 530.942 236.137 527.043 222.195 517.583 C 206.282 506.786 196.91 492.832 201.264 486.414 C 205.618 479.997 222.048 483.548 237.962 494.345 C 252.939 504.506 262.12 517.464 259.521 524.304 L 319.109 571.329 Z M 205.363 488.874 C 201.986 493.85 210.365 505.426 224.077 514.73 C 237.789 524.033 251.642 527.54 255.019 522.564 C 258.395 517.587 250.016 506.011 236.304 496.708 C 222.592 487.405 208.739 483.897 205.363 488.874 Z" style="fill: rgb(90, 56, 45); stroke-width: 2px;"/>
    <path d="M 319.73 570.545 C 320.069 570.868 320.408 571.429 320.458 571.847 C 320.508 572.266 320.307 572.891 320.052 573.284 L 318.635 575.079 C 318.311 575.419 317.75 575.759 317.331 575.808 C 316.912 575.857 316.287 575.657 315.894 575.402 L 256.634 528.636 L 257.229 528.319 C 257.03 528.425 256.823 528.525 256.61 528.618 L 256.407 528.457 L 256.609 528.618 C 249.696 531.62 235.301 527.652 221.633 518.41 C 213.607 512.955 207.143 506.638 203.299 500.913 C 201.363 498.03 200.021 495.173 199.482 492.684 C 198.933 490.149 199.264 487.682 200.436 485.852 C 201.703 484.087 203.874 482.868 206.432 482.441 C 208.944 482.022 212.094 482.213 215.489 482.946 C 222.229 484.403 230.488 488.075 238.523 493.517 C 246.076 498.65 252.249 504.547 256.145 509.987 C 260.074 515.472 261.542 520.222 260.666 523.933 Z M 317.095 573.803 L 318.452 572.084 L 258.902 525.089 L 258.306 524.619 L 258.587 523.949 C 259.879 520.864 258.277 516.397 254.52 511.152 C 250.731 505.862 244.825 500.2 237.401 495.172 C 229.522 489.817 221.609 486.315 215.067 484.901 C 211.821 484.199 209.053 484.031 206.762 484.413 C 204.518 484.788 203.002 485.531 202.092 486.974 C 201.087 488.353 200.956 490.037 201.438 492.26 C 201.929 494.53 203.109 497.04 204.96 499.797 C 208.691 505.353 214.869 511.412 222.757 516.754 C 236.549 526.145 250.365 530.021 256.256 526.571 L 256.847 526.225 L 257.383 526.676 C 257.412 526.7 257.416 526.705 257.41 526.699 Z M 236.865 495.88 C 243.787 500.577 249.438 505.917 252.879 510.671 C 254.614 513.068 255.858 515.434 256.412 517.469 C 256.98 519.556 256.775 521.632 255.846 523.124 C 254.803 524.539 252.95 525.496 250.8 525.739 C 248.704 525.977 246.046 525.695 243.178 524.969 C 237.488 523.529 230.441 520.247 223.515 515.555 C 216.596 510.853 210.942 505.517 207.501 500.763 C 205.766 498.366 204.522 496 203.969 493.965 C 203.401 491.878 203.606 489.802 204.535 488.31 C 205.578 486.895 207.431 485.938 209.58 485.694 C 211.676 485.456 214.334 485.738 217.202 486.464 C 222.891 487.905 229.942 491.181 236.864 495.878 Z M 216.712 488.405 C 213.981 487.714 211.686 487.47 209.806 487.683 C 207.98 487.89 206.835 488.361 206.19 489.435 C 205.431 490.431 205.416 491.669 205.899 493.442 C 206.395 495.268 207.47 497.31 209.122 499.592 C 212.454 504.196 217.845 509.3 224.639 513.902 C 231.425 518.514 238.16 521.637 243.67 523.032 C 246.401 523.723 248.696 523.967 250.576 523.754 C 252.402 523.547 253.547 523.076 254.192 522.003 C 254.951 521.007 254.965 519.769 254.483 517.996 C 253.986 516.17 252.912 514.128 251.26 511.846 C 247.928 507.242 242.533 502.143 235.743 497.537 C 228.953 492.931 222.222 489.802 216.712 488.407 Z" style=""/>
    <path style="fill: none; stroke-width: 2px;" d="M 214.264 537.195 C 217.645 545.439 223.438 551.448 232.827 555.174"/>
    <path d="M 213.377 537.657 C 213.377 537.657 214.249 539.662 214.76 540.644 C 215.271 541.626 215.837 542.594 216.433 543.506 C 217.627 545.33 219.029 547.054 220.59 548.592 C 223.708 551.663 227.677 554.197 232.457 556.104 L 233.195 554.245 C 228.586 552.426 224.964 550.093 221.993 547.167 C 220.51 545.706 219.243 544.149 218.106 542.411 C 217.537 541.542 217.022 540.659 216.533 539.72 C 216.288 539.25 216.058 538.782 215.833 538.295 C 215.607 537.807 215.171 536.775 215.171 536.775 C 215.176 536.785 213.366 537.636 213.377 537.657 Z" style="fill: none;"/>
    <path d="M 214.376 543.454 C 214.381 543.464 215.817 548.91 216.413 549.822 C 217.607 551.646 218.632 553.415 220.193 554.953 C 223.311 558.024 232.4 560.924 232.4 560.924 C 227.791 559.105 224.169 556.772 221.198 553.846 C 219.715 552.385 218.448 550.828 217.311 549.09 C 216.742 548.221 216.227 547.338 215.738 546.399 C 215.493 545.929 215.263 545.461 215.038 544.974 C 214.812 544.486 214.376 543.454 214.376 543.454 Z" style=""/>
    <path d="M 214.837 543.259 C 214.84 543.266 215.271 544.285 215.492 544.764 C 215.714 545.246 215.939 545.703 216.182 546.168 C 216.665 547.097 217.168 547.958 217.73 548.816 C 218.852 550.533 220.085 552.049 221.549 553.49 C 224.48 556.384 228.018 558.663 232.584 560.459 L 232.248 561.4 C 232.248 561.4 223.06 558.44 219.842 555.309 C 218.24 553.718 217.181 551.908 215.994 550.095 C 215.366 549.111 213.908 543.626 213.909 543.632 L 213.465 540.012 Z M 216.431 548.636 C 216.585 549.061 216.724 549.388 216.832 549.548 C 218.033 551.384 219.024 553.111 220.544 554.596 C 223.563 557.607 222.745 556.295 224.225 557.063 C 223.009 556.177 223.858 557.16 220.847 554.202 C 219.346 552.721 218.045 551.122 216.892 549.364 C 216.735 549.123 216.581 548.881 216.43 548.636 Z" style="fill: none;"/>
    <path d="M 210.777 548.18 C 210.782 548.19 212.218 553.636 212.814 554.548 C 214.008 556.372 215.033 558.141 216.594 559.679 C 219.712 562.75 228.801 565.65 228.801 565.65 C 224.192 563.831 220.57 561.498 217.599 558.572 C 216.116 557.111 214.849 555.554 213.712 553.816 C 213.143 552.947 212.628 552.064 212.139 551.125 C 211.894 550.655 211.664 550.187 211.439 549.7 C 211.213 549.212 210.777 548.18 210.777 548.18 Z" style="stroke-width: 1;"/>
    <path d="M 211.893 549.49 C 212.115 549.972 212.34 550.429 212.583 550.894 C 213.066 551.823 213.569 552.684 214.131 553.542 C 215.253 555.259 216.486 556.775 217.95 558.215 C 220.881 561.109 224.419 563.388 228.985 565.184 L 228.649 566.125 C 228.649 566.125 219.461 563.165 216.243 560.034 C 214.641 558.443 213.582 556.633 212.395 554.82 C 211.767 553.836 210.309 548.351 210.31 548.357 L 209.839 544.521 C 209.839 544.521 211.187 547.86 211.239 547.987 C 211.267 548.054 211.678 549.025 211.893 549.488 Z M 212.832 553.362 C 212.986 553.787 213.125 554.114 213.233 554.274 C 214.434 556.11 215.425 557.837 216.945 559.322 C 219.964 562.333 219.146 561.021 220.626 561.789 C 219.41 560.903 220.259 561.886 217.248 558.928 C 215.747 557.447 214.446 555.848 213.293 554.09 C 213.136 553.849 212.982 553.607 212.831 553.362 Z" style="fill: none;"/>
    <path d="M 212.765 545.204 C 212.77 545.214 214.206 550.66 214.802 551.572 C 215.996 553.396 217.021 555.165 218.582 556.703 C 221.7 559.774 230.789 562.674 230.789 562.674 C 226.18 560.855 222.558 558.522 219.587 555.596 C 218.104 554.135 216.837 552.578 215.7 550.84 C 215.131 549.971 214.616 549.088 214.127 548.149 C 213.882 547.679 213.652 547.211 213.427 546.724 C 213.201 546.236 212.765 545.204 212.765 545.204 Z" style="stroke-width: 1;" transform="matrix(0.51467395, 0.85738605, -0.85738605, 0.51467395, 583.72614082, 81.38264018)"/>
    <path d="M 213.226 545.009 C 213.229 545.016 213.66 546.035 213.881 546.514 C 214.103 546.996 214.328 547.453 214.571 547.918 C 215.054 548.847 215.557 549.708 216.119 550.566 C 217.241 552.283 218.474 553.799 219.938 555.239 C 222.869 558.133 226.407 560.412 230.973 562.208 L 230.637 563.149 C 230.637 563.149 221.449 560.189 218.231 557.058 C 216.629 555.467 215.57 553.657 214.383 551.844 C 213.755 550.86 212.297 545.375 212.298 545.381 L 211.854 541.761 Z M 214.82 550.386 C 214.974 550.811 215.113 551.138 215.221 551.298 C 216.422 553.134 217.413 554.861 218.933 556.346 C 221.952 559.357 221.134 558.045 222.614 558.813 C 221.398 557.927 222.247 558.91 219.236 555.952 C 217.735 554.471 216.434 552.872 215.281 551.114 C 215.124 550.873 214.97 550.631 214.819 550.386 Z" style="fill: none;" transform="matrix(0.5146738886833191, 0.8573861122131348, -0.8573861122131348, 0.5146738886833191, 583.7261352539062, 81.38263702392578)"/>
    <path d="M 209.166 549.93 C 209.171 549.94 210.607 555.386 211.203 556.298 C 212.397 558.122 213.422 559.891 214.983 561.429 C 218.101 564.5 227.19 567.4 227.19 567.4 C 222.581 565.581 218.959 563.248 215.988 560.322 C 214.505 558.861 213.238 557.304 212.101 555.566 C 211.532 554.697 211.017 553.814 210.528 552.875 C 210.283 552.405 210.053 551.937 209.828 551.45 C 209.602 550.962 209.166 549.93 209.166 549.93 Z" style="stroke-width: 1;" transform="matrix(0.51467395, 0.85738605, -0.85738605, 0.51467395, 583.72614082, 81.38264018)"/>
    <path d="M 209.627 549.735 C 209.63 549.742 210.061 550.761 210.282 551.24 C 210.504 551.722 210.729 552.179 210.972 552.644 C 211.455 553.573 211.958 554.434 212.52 555.292 C 213.642 557.009 214.875 558.525 216.339 559.965 C 219.27 562.859 222.808 565.138 227.374 566.934 L 227.038 567.875 C 227.038 567.875 217.85 564.915 214.632 561.784 C 213.03 560.193 211.971 558.383 210.784 556.57 C 210.156 555.586 208.698 550.101 208.699 550.107 L 208.255 546.487 Z M 211.221 555.112 C 211.375 555.537 211.514 555.864 211.622 556.024 C 212.823 557.86 213.814 559.587 215.334 561.072 C 218.353 564.083 217.535 562.771 219.015 563.539 C 217.799 562.653 218.648 563.636 215.637 560.678 C 214.136 559.197 212.835 557.598 211.682 555.84 C 211.525 555.599 211.371 555.357 211.22 555.112 Z" style="fill: none;" transform="matrix(0.5146738886833191, 0.8573861122131348, -0.8573861122131348, 0.5146738886833191, 583.7261352539062, 81.38263702392578)"/>
  </g>
</svg>