<?xml version="1.0" encoding="utf-8"?>
<svg xmlns="http://www.w3.org/2000/svg" viewBox="105.7135 48.0281 87.3918 158.1716" width="87.3918px" height="158.172px" xmlns:bx="https://boxy-svg.com">
  <defs>
    <linearGradient id="color-0-2" href="#color-0" gradientUnits="userSpaceOnUse" x1="60.272" y1="76.675" x2="60.272" y2="86.263" gradientTransform="matrix(1.026089, 0, 0, 1.141033, -1.572412, -11.489793)"/>
    <linearGradient bx:pinned="true" id="color-0">
      <stop style="stop-color: rgba(255, 255, 255, 0);" offset="0"/>
      <stop style="stop-color: rgb(255, 255, 255);" offset="1"/>
    </linearGradient>
    <linearGradient id="color-0-3" href="#color-0" gradientUnits="userSpaceOnUse" x1="60.272" y1="76.675" x2="60.272" y2="86.263" gradientTransform="matrix(1.026089, 0, 0, 1.141033, -1.572412, -11.489792)"/>
  </defs>
  <path style="stroke-width: 3; fill: rgb(158, 255, 46);" d="M 166.047 63.302 L 131.381 63.161 L 131.381 52.029 C 140.554 46.58 155.889 46.811 166.07 52.029 L 166.047 63.302"/>
  <path d="M 166.041 64.802 L 131.375 64.661 L 129.881 64.655 L 129.881 63.161 L 129.881 52.029 L 129.881 51.165 L 130.615 50.739 C 140.182 45.185 156.242 45.393 166.754 50.694 L 167.572 51.106 L 167.57 52.032 L 167.547 63.305 L 164.547 63.299 L 164.568 52.953 C 154.783 48.219 141.722 47.992 132.881 52.892 L 132.881 61.667 L 166.053 61.802 Z" style=""/>
  <path style="stroke-width: 3; fill: rgb(158, 255, 46);" d="M 192.466 196.489 C 177.583 209.662 127.248 209.21 106.983 196.489 C 103.418 164.891 107.836 88.434 114.307 66.637 C 124.803 55.331 170.102 53.543 184.384 66.637 C 188.175 81.913 195.267 177.958 192.466 196.489 Z"/>
  <path d="M 193.46 197.612 C 185.665 204.373 168.861 207.756 151.738 207.699 C 134.626 207.642 116.579 204.222 106.186 197.759 L 105.574 197.379 L 105.493 196.657 C 101.925 164.932 106.369 88.177 112.87 66.21 L 112.973 65.863 L 113.209 65.617 C 118.835 59.744 133.322 56.214 147.904 55.988 C 162.477 55.762 177.891 58.801 185.399 65.532 L 185.731 65.829 L 185.842 66.276 C 189.653 81.677 196.759 178.015 193.951 196.713 L 193.869 197.259 Z M 183.032 67.434 C 176.126 61.295 162.219 58.766 147.949 58.987 C 133.687 59.208 120.706 62.128 115.647 67.399 C 109.26 89.454 104.979 163.7 108.394 195.598 C 118.356 201.605 134.906 204.643 151.748 204.699 C 168.579 204.755 183.784 201.89 191.059 195.727 C 193.647 176.141 186.828 83.893 183.032 67.434 Z" style=""/>
  <path style="fill: rgb(255, 255, 255); stroke-width: 2;" d="M 139.029 128.167 C 146.006 119.834 144.9 93.634 142.299 88.66 C 139.711 83.937 131.263 86.252 128.675 89.204 C 121.109 96.112 117.437 112.215 119.82 123.263 C 121.083 129.961 129.345 138.236 139.029 128.167 Z"/>
  <path d="M 118.841 123.469 C 116.459 112.204 120.273 95.679 127.968 88.496 C 129.423 86.898 132.445 85.44 135.358 85.062 C 136.823 84.872 138.433 84.944 139.76 85.389 C 141.1 85.838 142.395 86.852 143.185 88.196 C 144.539 90.856 145.528 98.897 145.255 107.186 C 144.982 115.467 143.348 124.456 139.75 128.859 C 137.222 131.461 134.655 132.99 132.361 133.56 C 130.019 134.142 127.683 133.79 125.834 132.903 C 122.162 131.141 119.548 126.988 118.841 123.468 Z M 126.699 131.101 C 128.284 131.861 129.909 132.109 131.879 131.62 C 133.897 131.119 135.982 129.914 138.288 127.496 C 141.649 123.555 142.989 115.267 143.257 107.121 C 143.525 98.983 142.67 91.455 141.423 89.141 C 140.919 88.124 140.178 87.639 139.126 87.286 C 138.06 86.929 136.911 86.878 135.617 87.046 C 133.012 87.383 130.562 88.509 129.428 89.864 L 129.396 89.902 L 129.351 89.943 C 121.935 96.593 118.415 112.221 120.799 123.053 C 121.361 126.226 123.505 129.569 126.701 131.102 Z" style=""/>
  <path style="stroke-width: 1;" d="M 132.446 88.63 C 135.698 86.73 139.754 86.072 142.202 88.411 C 145.244 98.476 144.164 113.857 142.092 119.76 C 137.55 123.804 130.938 119.868 128.829 116.471 C 124.704 110.74 124.24 107.804 124.883 101.126 C 125.993 92.7 129.101 91.114 132.446 88.63 Z"/>
  <path d="M 132.194 88.198 C 133.864 87.228 135.8 86.545 137.594 86.432 C 139.398 86.317 141.213 86.819 142.548 88.05 L 142.642 88.137 L 142.681 88.267 C 145.733 98.422 144.65 113.958 142.564 119.926 L 142.52 120.052 L 142.425 120.133 C 139.99 122.218 136.945 122.308 134.378 121.375 C 131.813 120.443 129.524 118.503 128.415 116.749 C 124.246 110.911 123.747 107.801 124.388 101.06 C 125.632 92.444 128.839 90.69 132.149 88.228 L 132.171 88.211 Z M 125.38 101.178 C 124.736 107.79 125.154 110.555 129.234 116.179 C 130.237 117.818 132.314 119.562 134.718 120.436 C 137.12 121.309 139.553 121.435 141.66 119.476 C 143.692 113.555 144.791 98.655 141.759 88.68 C 140.659 87.645 139.304 87.325 137.655 87.43 C 135.996 87.535 134.302 88.118 132.72 89.048 C 129.349 91.544 126.356 92.954 125.378 101.178 Z" style=""/>
  <ellipse style="fill: rgb(216, 216, 216); stroke-width: 1;" cx="134.968" cy="97.18" rx="3.179" ry="3.836"/>
  <path d="M 138.647 97.18 C 138.647 98.326 138.229 99.454 137.601 100.212 C 136.966 100.978 135.965 101.516 134.968 101.516 C 133.971 101.516 132.97 100.978 132.335 100.212 C 131.707 99.454 131.289 98.327 131.289 97.18 C 131.289 96.034 131.707 94.906 132.335 94.148 C 132.97 93.382 133.971 92.844 134.968 92.844 C 135.965 92.844 136.966 93.382 137.601 94.148 C 138.229 94.906 138.647 96.033 138.647 97.18 Z M 136.831 94.787 C 136.315 94.165 135.727 93.844 134.968 93.844 C 134.209 93.844 133.621 94.164 133.105 94.787 C 132.582 95.418 132.289 96.208 132.289 97.18 C 132.289 98.152 132.583 98.943 133.105 99.573 C 133.621 100.195 134.209 100.516 134.968 100.516 C 135.727 100.516 136.315 100.196 136.831 99.573 C 137.354 98.942 137.647 98.152 137.647 97.18 C 137.647 96.208 137.353 95.417 136.831 94.787 Z" style=""/>
  <path style="stroke-width: 1;" d="M 143.079 76.463 L 140.01 69.009 C 130.091 68.655 120.52 74.104 115.128 80.299 L 120.17 92.795 C 125.668 84.475 133.662 78.025 143.079 76.463 Z"/>
  <path d="M 114.549 80.201 L 114.75 79.97 C 120.207 73.722 129.975 68.187 140.027 68.509 L 140.348 68.519 L 143.78 76.855 L 143.159 76.956 C 133.858 78.466 126.032 84.807 120.585 93.07 L 120.061 93.865 Z M 142.381 76.081 L 139.67 69.498 C 130.005 69.237 121.066 74.352 115.706 80.397 L 120.281 91.736 C 125.793 83.752 133.111 77.867 142.38 76.081 Z" style=""/>
  <ellipse style="fill: url(&quot;#color-0-2&quot;); stroke-width: 1;" cx="60.272" cy="81.469" rx="7.252" ry="5.47" transform="matrix(1, 0, -0.05325, 1, 79.552269, 29.872932)"/>
  <path d="M 68.024 81.469 C 68.024 83.107 67.089 84.689 65.701 85.736 C 64.326 86.773 62.355 87.439 60.272 87.439 C 58.189 87.439 56.218 86.773 54.843 85.736 C 53.455 84.689 52.52 83.107 52.52 81.469 C 52.52 79.831 53.455 78.249 54.843 77.202 C 56.218 76.165 58.189 75.499 60.272 75.499 C 62.355 75.499 64.326 76.165 65.701 77.202 C 67.089 78.249 68.024 79.831 68.024 81.469 Z M 65.099 78 C 63.85 77.058 62.195 76.499 60.272 76.499 C 58.349 76.499 56.695 77.058 55.445 78 C 54.208 78.933 53.52 80.086 53.52 81.469 C 53.52 82.852 54.208 84.005 55.445 84.938 C 56.694 85.88 58.349 86.439 60.272 86.439 C 62.195 86.439 63.849 85.88 65.099 84.938 C 66.336 84.005 67.024 82.852 67.024 81.469 C 67.024 80.086 66.336 78.933 65.099 78 Z" style="" transform="matrix(1, 0, -0.05325000360608101, 1, 79.5522689819336, 29.87293243408203)"/>
  <path style="fill: rgb(255, 255, 255); stroke-width: 2;" d="M 174.855 91.024 C 181.832 99.357 180.726 125.557 178.125 130.531 C 175.537 135.254 167.089 132.939 164.501 129.987 C 156.935 123.079 153.263 106.976 155.646 95.928 C 156.909 89.23 165.171 80.955 174.855 91.024 Z" transform="matrix(-1, 0, 0, -1, 335.05406015, 219.56399236)"/>
  <path d="M 175.622 90.382 C 179.22 94.786 180.809 103.723 181.081 112.004 C 181.354 120.293 180.356 128.352 179.002 131.011 C 178.212 132.355 176.926 133.352 175.586 133.801 C 174.259 134.246 172.649 134.318 171.184 134.128 C 168.271 133.751 165.266 132.274 163.793 130.694 C 156.077 123.528 152.287 106.986 154.666 95.721 C 155.373 92.201 157.986 88.047 161.659 86.286 C 163.508 85.399 165.843 85.047 168.186 85.629 C 170.48 86.199 173.093 87.779 175.621 90.381 Z M 167.705 87.571 C 165.735 87.082 164.11 87.33 162.525 88.09 C 159.329 89.623 157.191 92.94 156.629 96.113 C 154.245 106.944 157.76 122.598 165.176 129.248 L 165.221 129.289 L 165.253 129.327 C 166.386 130.681 168.837 131.807 171.442 132.145 C 172.736 132.313 173.885 132.262 174.951 131.905 C 176.004 131.552 176.745 131.067 177.248 130.05 C 178.49 127.716 179.35 120.208 179.082 112.07 C 178.814 103.924 177.474 95.636 174.113 91.695 C 171.807 89.277 169.723 88.072 167.704 87.571 Z" style="" transform="matrix(-1, 0, 0, -1, 335.0540466308594, 219.56399536132812)"/>
  <path style="stroke-width: 1;" d="M 162.938 120.132 C 166.19 122.032 170.246 122.69 172.694 120.351 C 175.736 110.286 174.656 94.905 172.584 89.002 C 168.042 84.958 161.43 88.894 159.321 92.291 C 155.196 98.022 154.732 100.958 155.375 107.636 C 156.485 116.062 159.593 117.648 162.938 120.132 Z" transform="matrix(-1, 0, 0, -1, 329.72018384, 209.1348054)"/>
  <path d="M 154.877 107.684 C 154.236 100.943 154.745 97.842 158.906 92.012 C 160.012 90.254 162.304 88.319 164.869 87.386 C 167.436 86.453 170.481 86.543 172.916 88.628 L 173.011 88.709 L 173.055 88.835 C 175.14 94.803 176.224 110.339 173.172 120.494 L 173.133 120.624 L 173.039 120.711 C 171.705 121.942 169.89 122.443 168.085 122.329 C 166.291 122.215 164.354 121.533 162.685 120.563 L 162.662 120.549 L 162.64 120.532 C 159.33 118.07 156.122 116.299 154.877 107.683 Z M 163.214 119.714 C 164.79 120.636 166.49 121.227 168.149 121.332 C 169.798 121.437 171.153 121.117 172.253 120.082 C 175.239 110.107 174.185 95.208 172.154 89.286 C 170.067 87.418 167.614 87.453 165.212 88.326 C 162.808 89.2 160.75 90.916 159.747 92.555 C 155.666 98.179 155.229 100.972 155.874 107.585 C 156.851 115.809 159.844 117.219 163.216 119.715 Z" style="" transform="matrix(-1, 0, 0, -1, 329.7201843261719, 209.1348114013672)"/>
  <ellipse style="fill: rgb(216, 216, 216); stroke-width: 1;" cx="-164.26" cy="97.553" rx="3.179" ry="3.836" transform="matrix(-1, 0, 0, 1, 0, 0)"/>
  <path d="M -160.581 97.553 C -160.581 98.699 -160.999 99.827 -161.627 100.585 C -162.262 101.351 -163.263 101.889 -164.26 101.889 C -165.257 101.889 -166.258 101.351 -166.893 100.585 C -167.521 99.827 -167.939 98.7 -167.939 97.553 C -167.939 96.407 -167.521 95.279 -166.893 94.521 C -166.258 93.755 -165.257 93.217 -164.26 93.217 C -163.263 93.217 -162.262 93.755 -161.627 94.521 C -160.999 95.279 -160.581 96.406 -160.581 97.553 Z M -162.397 95.16 C -162.913 94.538 -163.501 94.217 -164.26 94.217 C -165.019 94.217 -165.607 94.537 -166.123 95.16 C -166.646 95.791 -166.939 96.581 -166.939 97.553 C -166.939 98.525 -166.645 99.316 -166.123 99.946 C -165.607 100.568 -165.019 100.889 -164.26 100.889 C -163.501 100.889 -162.913 100.569 -162.397 99.946 C -161.874 99.315 -161.581 98.525 -161.581 97.553 C -161.581 96.581 -161.875 95.79 -162.397 95.16 Z" style="" transform="matrix(-1, 0, 0, 1, 0, 0)"/>
  <path style="stroke-width: 1;" d="M 184.1 85.698 L 181.031 93.152 C 171.112 93.506 161.541 88.057 156.149 81.862 L 161.191 69.366 C 166.689 77.686 174.683 84.136 184.1 85.698 Z" transform="matrix(-1, 0, 0, -1, 340.24902144, 162.53433328)"/>
  <path d="M 181.37 93.641 L 181.049 93.651 C 170.997 93.972 161.229 88.438 155.772 82.19 L 155.571 81.959 L 161.085 68.294 L 161.609 69.089 C 167.055 77.352 174.882 83.693 184.183 85.203 L 184.804 85.304 Z M 161.303 70.424 L 156.727 81.764 C 162.082 87.806 171.021 92.922 180.691 92.663 L 183.401 86.08 C 174.154 84.31 166.835 78.425 161.302 70.424 Z" style="" transform="matrix(-1, 0, 0, -1, 340.2490234375, 162.53433227539062)"/>
  <ellipse style="stroke-width: 1; fill: url(&quot;#color-0-3&quot;);" cx="60.272" cy="81.469" rx="7.252" ry="5.47" transform="matrix(-1, 0, 0.05325, 1, 219.675522, 30.245228)"/>
  <path d="M 68.024 81.469 C 68.024 83.107 67.089 84.689 65.701 85.736 C 64.326 86.773 62.355 87.439 60.272 87.439 C 58.189 87.439 56.218 86.773 54.843 85.736 C 53.455 84.689 52.52 83.107 52.52 81.469 C 52.52 79.831 53.455 78.249 54.843 77.202 C 56.218 76.165 58.189 75.499 60.272 75.499 C 62.355 75.499 64.326 76.165 65.701 77.202 C 67.089 78.249 68.024 79.831 68.024 81.469 Z M 65.099 78 C 63.85 77.058 62.195 76.499 60.272 76.499 C 58.349 76.499 56.695 77.058 55.445 78 C 54.208 78.933 53.52 80.086 53.52 81.469 C 53.52 82.852 54.208 84.005 55.445 84.938 C 56.694 85.88 58.349 86.439 60.272 86.439 C 62.195 86.439 63.849 85.88 65.099 84.938 C 66.336 84.005 67.024 82.852 67.024 81.469 C 67.024 80.086 66.336 78.933 65.099 78 Z" style="" transform="matrix(-1, 0, 0.05325000360608101, 1, 219.67552185058594, 30.245227813720703)"/>
  <path style="fill: none; stroke-width: 2;" d="M 117.007 145.3 C 129.152 155.48 166.094 158.352 183.774 145.3"/>
  <path d="M 116.585 146.207 C 116.585 146.207 119.959 148.615 122.216 149.665 C 124.465 150.712 127.052 151.636 129.812 152.395 C 135.32 153.908 141.748 154.831 148.287 155.012 C 161.356 155.374 175.322 152.72 184.368 146.105 L 183.18 144.496 C 174.545 150.933 161.201 153.369 148.342 153.013 C 141.917 152.835 135.728 151.947 130.341 150.466 C 127.653 149.727 125.224 148.859 123.059 147.852 C 121.979 147.349 121.002 146.83 120.086 146.269 C 119.629 145.989 119.208 145.712 118.796 145.419 C 118.385 145.126 117.586 144.486 117.586 144.486 C 117.601 144.497 116.535 146.181 116.584 146.207 Z" style=""/>
  <path style="fill: none; stroke-linecap: round; stroke-width: 2;" d="M 120.963 143.333 C 116.767 144.038 114.975 146.932 115.633 150.179"/>
  <path d="M 121.285 144.28 C 121.611 144.136 121.835 143.828 121.873 143.473 C 121.91 143.118 121.755 142.771 121.465 142.562 C 121.176 142.353 120.797 142.315 120.472 142.462 C 120.472 142.462 120.553 142.425 120.472 142.462 C 120.472 142.462 118.601 142.908 117.776 143.373 C 116.936 143.846 116.178 144.519 115.67 145.213 C 114.652 146.606 114.322 148.565 114.652 150.378 C 114.762 150.919 115.289 151.269 115.831 151.159 C 116.372 151.049 116.722 150.522 116.612 149.98 C 116.285 148.547 116.522 147.435 117.284 146.393 C 117.666 145.87 118.101 145.484 118.757 145.115 C 119.09 144.927 119.417 144.781 119.823 144.643 C 120.234 144.503 121.284 144.28 121.284 144.28 C 121.245 144.292 121.284 144.28 121.284 144.28 Z" style=""/>
  <path style="fill: none; stroke-linecap: round; stroke-width: 2;" d="M 184.738 149.398 C 180.542 148.693 178.75 145.799 179.408 142.552" transform="matrix(-1, 0, 0, -1, 364.01399157, 291.94999821)"/>
  <path d="M 185.724 149.564 C 185.632 150.109 185.117 150.476 184.572 150.384 C 182.299 149.967 180.45 148.892 179.445 147.518 C 178.933 146.818 178.551 145.923 178.39 145.079 C 178.23 144.241 178.425 142.739 178.425 142.739 C 178.416 142.638 178.425 142.739 178.425 142.739 C 178.392 142.384 178.552 142.038 178.844 141.833 C 179.136 141.628 179.515 141.595 179.838 141.746 C 180.161 141.897 180.378 142.21 180.407 142.566 C 180.407 142.566 180.404 142.613 180.407 142.566 C 180.407 142.566 180.28 143.419 180.275 143.763 C 180.27 144.105 180.294 144.385 180.355 144.704 C 180.476 145.338 180.681 145.82 181.06 146.337 C 181.836 147.398 182.98 148.123 184.904 148.411 C 185.449 148.503 185.816 149.018 185.724 149.563 Z" style="" transform="matrix(-1, 0, 0, -1, 364.01397705078125, 291.95001220703125)"/>
</svg>