<?xml version="1.0" encoding="utf-8"?>
<svg xmlns="http://www.w3.org/2000/svg" viewBox="-73.9455 49.5573 138.2499 178.1079" width="138.25px" height="178.108px" xmlns:bx="https://boxy-svg.com">
  <defs>
    <linearGradient id="color-0-0" href="#color-0" gradientUnits="userSpaceOnUse" x1="60.272" y1="76.675" x2="60.272" y2="86.263" gradientTransform="matrix(1.026089, 0, 0, 1.141033, -1.572412, -11.489793)"/>
    <linearGradient bx:pinned="true" id="color-0">
      <stop style="stop-color: rgba(255, 255, 255, 0);" offset="0"/>
      <stop style="stop-color: rgb(255, 255, 255);" offset="1"/>
    </linearGradient>
    <linearGradient id="color-0-1" href="#color-0" gradientUnits="userSpaceOnUse" x1="60.272" y1="76.675" x2="60.272" y2="86.263" gradientTransform="matrix(1.026089, 0, 0, 1.141033, -1.572412, -11.489792)"/>
  </defs>
  <path style="stroke-width: 3; fill: rgb(158, 255, 46);" d="M -13.612 64.831 L -48.278 64.69 L -48.278 53.558 C -39.105 48.109 -23.77 48.34 -13.589 53.558 L -13.612 64.831"/>
  <path d="M -13.618 66.331 L -48.284 66.19 L -49.778 66.184 L -49.778 64.69 L -49.778 53.558 L -49.778 52.694 L -49.044 52.268 C -39.477 46.714 -23.417 46.922 -12.905 52.223 L -12.087 52.635 L -12.089 53.561 L -12.112 64.834 L -15.112 64.828 L -15.091 54.482 C -24.876 49.748 -37.937 49.521 -46.778 54.421 L -46.778 63.196 L -13.606 63.331 Z" style=""/>
  <path style="stroke-width: 3; fill: rgb(158, 255, 46);" d="M 12.807 198.018 C -2.076 211.191 -52.411 210.739 -72.676 198.018 C -76.241 166.42 -71.823 89.963 -65.352 68.166 C -54.856 56.86 -9.557 55.072 4.725 68.166 C 8.516 83.442 15.608 179.487 12.807 198.018 Z"/>
  <path d="M 13.801 199.141 C 6.006 205.902 -10.798 209.285 -27.921 209.228 C -45.033 209.171 -63.08 205.751 -73.473 199.288 L -74.085 198.908 L -74.166 198.186 C -77.734 166.461 -73.29 89.706 -66.789 67.739 L -66.686 67.392 L -66.45 67.146 C -60.824 61.273 -46.337 57.743 -31.755 57.517 C -17.182 57.291 -1.768 60.33 5.74 67.061 L 6.072 67.358 L 6.183 67.805 C 9.994 83.206 17.1 179.544 14.292 198.242 L 14.21 198.788 Z M 3.373 68.963 C -3.533 62.824 -17.44 60.295 -31.71 60.516 C -45.972 60.737 -58.953 63.657 -64.012 68.928 C -70.399 90.983 -74.68 165.229 -71.265 197.127 C -61.303 203.134 -44.753 206.172 -27.911 206.228 C -11.08 206.284 4.125 203.419 11.4 197.256 C 13.988 177.67 7.169 85.422 3.373 68.963 Z" style=""/>
  <path style="fill: rgb(255, 255, 255); stroke-width: 2;" d="M -40.63 129.696 C -33.653 121.363 -34.759 95.163 -37.36 90.189 C -39.948 85.466 -48.396 87.781 -50.984 90.733 C -58.55 97.641 -62.222 113.744 -59.839 124.792 C -58.576 131.49 -50.314 139.765 -40.63 129.696 Z"/>
  <path d="M -60.818 124.998 C -63.2 113.733 -59.386 97.208 -51.691 90.025 C -50.236 88.427 -47.214 86.969 -44.301 86.591 C -42.836 86.401 -41.226 86.473 -39.899 86.918 C -38.559 87.367 -37.264 88.381 -36.474 89.725 C -35.12 92.385 -34.131 100.426 -34.404 108.715 C -34.677 116.996 -36.311 125.985 -39.909 130.388 C -42.437 132.99 -45.004 134.519 -47.298 135.089 C -49.64 135.671 -51.976 135.319 -53.825 134.432 C -57.497 132.67 -60.111 128.517 -60.818 124.997 Z M -52.96 132.63 C -51.375 133.39 -49.75 133.638 -47.78 133.149 C -45.762 132.648 -43.677 131.443 -41.371 129.025 C -38.01 125.084 -36.67 116.796 -36.402 108.65 C -36.134 100.512 -36.994 93.004 -38.236 90.67 C -38.74 89.653 -39.481 89.168 -40.533 88.815 C -41.599 88.458 -42.748 88.407 -44.042 88.575 C -46.647 88.912 -49.097 90.038 -50.231 91.393 L -50.263 91.431 L -50.308 91.472 C -57.724 98.122 -61.244 113.75 -58.86 124.582 C -58.298 127.755 -56.154 131.098 -52.958 132.631 Z" style=""/>
  <path style="stroke-width: 1;" d="M -47.213 90.159 C -43.961 88.259 -39.905 87.601 -37.457 89.94 C -34.415 100.005 -35.495 115.386 -37.567 121.289 C -42.109 125.333 -48.721 121.397 -50.83 118 C -54.955 112.269 -55.419 109.333 -54.776 102.655 C -53.666 94.229 -50.558 92.643 -47.213 90.159 Z"/>
  <path d="M -47.465 89.727 C -45.795 88.757 -43.859 88.074 -42.065 87.961 C -40.261 87.846 -38.446 88.348 -37.111 89.579 L -37.017 89.666 L -36.978 89.796 C -33.926 99.951 -35.009 115.487 -37.095 121.455 L -37.139 121.581 L -37.234 121.662 C -39.669 123.747 -42.714 123.837 -45.281 122.904 C -47.846 121.972 -50.135 120.032 -51.244 118.278 C -55.413 112.44 -55.912 109.33 -55.271 102.589 C -54.027 93.973 -50.82 92.219 -47.51 89.757 L -47.488 89.74 Z M -54.279 102.707 C -54.923 109.319 -54.505 112.084 -50.425 117.708 C -49.422 119.347 -47.345 121.091 -44.941 121.965 C -42.539 122.838 -40.086 122.873 -37.999 121.005 C -35.968 115.084 -34.914 100.186 -37.9 90.209 C -39 89.174 -40.355 88.854 -42.004 88.959 C -43.663 89.064 -45.357 89.647 -46.939 90.577 C -50.31 93.073 -53.303 94.483 -54.281 102.707 Z" style=""/>
  <ellipse style="fill: rgb(216, 216, 216); stroke-width: 1;" cx="-44.691" cy="98.709" rx="3.179" ry="3.836"/>
  <path d="M -41.012 98.709 C -41.012 99.855 -41.43 100.983 -42.058 101.741 C -42.693 102.507 -43.694 103.045 -44.691 103.045 C -45.688 103.045 -46.689 102.507 -47.324 101.741 C -47.952 100.983 -48.37 99.856 -48.37 98.709 C -48.37 97.563 -47.952 96.435 -47.324 95.677 C -46.689 94.911 -45.688 94.373 -44.691 94.373 C -43.694 94.373 -42.693 94.911 -42.058 95.677 C -41.43 96.435 -41.012 97.562 -41.012 98.709 Z M -42.828 96.316 C -43.344 95.694 -43.932 95.373 -44.691 95.373 C -45.45 95.373 -46.038 95.693 -46.554 96.316 C -47.077 96.947 -47.37 97.737 -47.37 98.709 C -47.37 99.681 -47.076 100.472 -46.554 101.102 C -46.038 101.724 -45.45 102.045 -44.691 102.045 C -43.932 102.045 -43.344 101.725 -42.828 101.102 C -42.305 100.471 -42.012 99.681 -42.012 98.709 C -42.012 97.737 -42.306 96.946 -42.828 96.316 Z" style=""/>
  <path style="stroke-width: 1;" d="M -36.58 77.992 L -39.649 70.538 C -49.568 70.184 -59.139 75.633 -64.531 81.828 L -59.489 94.324 C -53.991 86.004 -45.997 79.554 -36.58 77.992 Z"/>
  <path d="M -65.11 81.73 L -64.909 81.499 C -59.452 75.251 -49.684 69.716 -39.632 70.038 L -39.311 70.048 L -35.879 78.384 L -36.5 78.485 C -45.801 79.995 -53.627 86.336 -59.074 94.599 L -59.598 95.394 Z M -37.278 77.61 L -39.989 71.027 C -49.654 70.766 -58.593 75.881 -63.953 81.926 L -59.378 93.265 C -53.866 85.281 -46.548 79.396 -37.279 77.61 Z" style=""/>
  <ellipse style="fill: url(&quot;#color-0-0&quot;); stroke-width: 1;" cx="60.272" cy="81.469" rx="7.252" ry="5.47" transform="matrix(1, 0, -0.05325, 1, -100.10672, 31.402128)"/>
  <path d="M 68.024 81.469 C 68.024 83.107 67.089 84.689 65.701 85.736 C 64.326 86.773 62.355 87.439 60.272 87.439 C 58.189 87.439 56.218 86.773 54.843 85.736 C 53.455 84.689 52.52 83.107 52.52 81.469 C 52.52 79.831 53.455 78.249 54.843 77.202 C 56.218 76.165 58.189 75.499 60.272 75.499 C 62.355 75.499 64.326 76.165 65.701 77.202 C 67.089 78.249 68.024 79.831 68.024 81.469 Z M 65.099 78 C 63.85 77.058 62.195 76.499 60.272 76.499 C 58.349 76.499 56.695 77.058 55.445 78 C 54.208 78.933 53.52 80.086 53.52 81.469 C 53.52 82.852 54.208 84.005 55.445 84.938 C 56.694 85.88 58.349 86.439 60.272 86.439 C 62.195 86.439 63.849 85.88 65.099 84.938 C 66.336 84.005 67.024 82.852 67.024 81.469 C 67.024 80.086 66.336 78.933 65.099 78 Z" style="" transform="matrix(1, 0, -0.05325000360608101, 1, -100.10671997070312, 31.402128219604492)"/>
  <path style="fill: rgb(255, 255, 255); stroke-width: 2;" d="M -4.804 92.553 C 2.173 100.886 1.067 127.086 -1.534 132.06 C -4.122 136.783 -12.57 134.468 -15.158 131.516 C -22.724 124.608 -26.396 108.505 -24.013 97.457 C -22.75 90.759 -14.488 82.484 -4.804 92.553 Z" transform="matrix(-1, 0, 0, -1, -24.26393981, 222.62200102)"/>
  <path d="M -4.037 91.911 C -0.439 96.315 1.15 105.252 1.422 113.533 C 1.695 121.822 0.697 129.881 -0.657 132.54 C -1.447 133.884 -2.733 134.881 -4.073 135.33 C -5.4 135.775 -7.01 135.847 -8.475 135.657 C -11.388 135.28 -14.393 133.803 -15.866 132.223 C -23.582 125.057 -27.372 108.515 -24.993 97.25 C -24.292 93.725 -21.673 89.576 -18 87.815 C -16.151 86.928 -13.816 86.576 -11.473 87.158 C -9.179 87.728 -6.566 89.308 -4.038 91.91 Z M -11.954 89.1 C -13.924 88.611 -15.549 88.859 -17.134 89.619 C -20.33 91.152 -22.468 94.469 -23.03 97.642 C -25.414 108.473 -21.899 124.127 -14.483 130.777 L -14.438 130.818 L -14.406 130.856 C -13.273 132.21 -10.822 133.336 -8.217 133.674 C -6.923 133.842 -5.774 133.791 -4.708 133.434 C -3.655 133.081 -2.914 132.596 -2.411 131.579 C -1.169 129.245 -0.309 121.737 -0.577 113.599 C -0.845 105.453 -2.185 97.165 -5.546 93.224 C -7.852 90.806 -9.936 89.601 -11.955 89.1 Z" style="" transform="matrix(-1, 0, 0, -1, -24.263938903808594, 222.6219940185547)"/>
  <path style="stroke-width: 1;" d="M -16.721 121.661 C -13.469 123.561 -9.413 124.219 -6.965 121.88 C -3.923 111.815 -5.003 96.434 -7.075 90.531 C -11.617 86.487 -18.229 90.423 -20.338 93.82 C -24.463 99.551 -24.927 102.487 -24.284 109.165 C -23.174 117.591 -20.066 119.177 -16.721 121.661 Z" transform="matrix(-1, 0, 0, -1, -29.59779167, 212.19282106)"/>
  <path d="M -24.782 109.213 C -25.423 102.472 -24.914 99.371 -20.753 93.541 C -19.647 91.783 -17.355 89.848 -14.79 88.915 C -12.223 87.982 -9.178 88.072 -6.743 90.157 L -6.648 90.238 L -6.604 90.364 C -4.519 96.332 -3.435 111.868 -6.487 122.023 L -6.526 122.153 L -6.62 122.24 C -7.954 123.471 -9.769 123.972 -11.574 123.858 C -13.368 123.744 -15.305 123.062 -16.974 122.092 L -16.997 122.078 L -17.019 122.061 C -20.329 119.599 -23.537 117.828 -24.782 109.212 Z M -16.445 121.243 C -14.869 122.165 -13.169 122.756 -11.51 122.861 C -9.861 122.966 -8.506 122.646 -7.406 121.611 C -4.42 111.636 -5.474 96.737 -7.505 90.815 C -9.592 88.947 -12.045 88.982 -14.447 89.855 C -16.851 90.729 -18.909 92.445 -19.912 94.084 C -23.993 99.708 -24.43 102.501 -23.785 109.114 C -22.808 117.338 -19.815 118.748 -16.443 121.244 Z" style="" transform="matrix(-1, 0, 0, -1, -29.59779167175293, 212.1928253173828)"/>
  <ellipse style="fill: rgb(216, 216, 216); stroke-width: 1;" cx="15.399" cy="99.082" rx="3.179" ry="3.836" transform="matrix(-1, 0, 0, 1, 0, 0)"/>
  <path d="M 19.078 99.082 C 19.078 100.228 18.66 101.356 18.032 102.114 C 17.397 102.88 16.396 103.418 15.399 103.418 C 14.402 103.418 13.401 102.88 12.766 102.114 C 12.138 101.356 11.72 100.229 11.72 99.082 C 11.72 97.936 12.138 96.808 12.766 96.05 C 13.401 95.284 14.402 94.746 15.399 94.746 C 16.396 94.746 17.397 95.284 18.032 96.05 C 18.66 96.808 19.078 97.935 19.078 99.082 Z M 17.262 96.689 C 16.746 96.067 16.158 95.746 15.399 95.746 C 14.64 95.746 14.052 96.066 13.536 96.689 C 13.013 97.32 12.72 98.11 12.72 99.082 C 12.72 100.054 13.014 100.845 13.536 101.475 C 14.052 102.097 14.64 102.418 15.399 102.418 C 16.158 102.418 16.746 102.098 17.262 101.475 C 17.785 100.844 18.078 100.054 18.078 99.082 C 18.078 98.11 17.784 97.319 17.262 96.689 Z" style="" transform="matrix(-1, 0, 0, 1, 0, 0)"/>
  <path style="stroke-width: 1;" d="M 4.441 87.227 L 1.372 94.681 C -8.547 95.035 -18.118 89.586 -23.51 83.391 L -18.468 70.895 C -12.97 79.215 -4.976 85.665 4.441 87.227 Z" transform="matrix(-1, 0, 0, -1, -19.06900024, 165.59234319)"/>
  <path d="M 1.711 95.17 L 1.39 95.18 C -8.662 95.501 -18.43 89.967 -23.887 83.719 L -24.088 83.488 L -18.574 69.823 L -18.05 70.618 C -12.604 78.881 -4.777 85.222 4.524 86.732 L 5.145 86.833 Z M -18.356 71.953 L -22.932 83.293 C -17.577 89.335 -8.638 94.451 1.032 94.192 L 3.742 87.609 C -5.505 85.839 -12.824 79.954 -18.357 71.953 Z" style="" transform="matrix(-1, 0, 0, -1, -19.069000244140625, 165.59234619140625)"/>
  <ellipse style="fill: url(&quot;#color-0-1&quot;); stroke-width: 1;" cx="60.272" cy="81.469" rx="7.252" ry="5.47" transform="matrix(-1, 0, 0.05325, 1, 40.016533, 31.774424)"/>
  <path d="M 68.024 81.469 C 68.024 83.107 67.089 84.689 65.701 85.736 C 64.326 86.773 62.355 87.439 60.272 87.439 C 58.189 87.439 56.218 86.773 54.843 85.736 C 53.455 84.689 52.52 83.107 52.52 81.469 C 52.52 79.831 53.455 78.249 54.843 77.202 C 56.218 76.165 58.189 75.499 60.272 75.499 C 62.355 75.499 64.326 76.165 65.701 77.202 C 67.089 78.249 68.024 79.831 68.024 81.469 Z M 65.099 78 C 63.85 77.058 62.195 76.499 60.272 76.499 C 58.349 76.499 56.695 77.058 55.445 78 C 54.208 78.933 53.52 80.086 53.52 81.469 C 53.52 82.852 54.208 84.005 55.445 84.938 C 56.694 85.88 58.349 86.439 60.272 86.439 C 62.195 86.439 63.849 85.88 65.099 84.938 C 66.336 84.005 67.024 82.852 67.024 81.469 C 67.024 80.086 66.336 78.933 65.099 78 Z" style="" transform="matrix(-1, 0, 0.05325000360608101, 1, 40.01653289794922, 31.774423599243164)"/>
  <path style="fill: none; stroke-width: 2;" d="M -62.652 146.829 C -50.507 157.009 -13.565 159.881 4.115 146.829"/>
  <path d="M -63.074 147.736 C -63.074 147.736 -59.7 150.144 -57.443 151.194 C -55.194 152.241 -52.607 153.165 -49.847 153.924 C -44.339 155.437 -37.911 156.36 -31.372 156.541 C -18.303 156.903 -4.337 154.249 4.709 147.634 L 3.521 146.025 C -5.114 152.462 -18.458 154.898 -31.317 154.542 C -37.742 154.364 -43.931 153.476 -49.318 151.995 C -52.006 151.256 -54.435 150.388 -56.6 149.381 C -57.68 148.878 -58.657 148.359 -59.573 147.798 C -60.03 147.518 -60.451 147.241 -60.863 146.948 C -61.274 146.655 -62.073 146.015 -62.073 146.015 C -62.058 146.026 -63.124 147.71 -63.075 147.736 Z" style=""/>
  <path style="fill: none; stroke-linecap: round; stroke-width: 2;" d="M -58.696 144.862 C -62.892 145.567 -64.684 148.461 -64.026 151.708"/>
  <path d="M -58.374 145.809 C -58.048 145.665 -57.824 145.357 -57.786 145.002 C -57.749 144.647 -57.904 144.3 -58.194 144.091 C -58.483 143.882 -58.862 143.844 -59.187 143.991 C -59.187 143.991 -59.106 143.954 -59.187 143.991 C -59.187 143.991 -61.058 144.437 -61.883 144.902 C -62.723 145.375 -63.481 146.048 -63.989 146.742 C -65.007 148.135 -65.337 150.094 -65.007 151.907 C -64.897 152.448 -64.37 152.798 -63.828 152.688 C -63.287 152.578 -62.937 152.051 -63.047 151.509 C -63.374 150.076 -63.137 148.964 -62.375 147.922 C -61.993 147.399 -61.558 147.013 -60.902 146.644 C -60.569 146.456 -60.242 146.31 -59.836 146.172 C -59.425 146.032 -58.375 145.809 -58.375 145.809 C -58.414 145.821 -58.375 145.809 -58.375 145.809 Z" style=""/>
  <path style="fill: none; stroke-linecap: round; stroke-width: 2;" d="M 5.079 150.927 C 0.883 150.222 -0.909 147.328 -0.251 144.081" transform="matrix(-1, 0, 0, -1, 4.6960001, 295.00800561)"/>
  <path d="M 6.065 151.093 C 5.973 151.638 5.458 152.005 4.913 151.913 C 2.64 151.496 0.791 150.421 -0.214 149.047 C -0.726 148.347 -1.108 147.452 -1.269 146.608 C -1.429 145.77 -1.234 144.268 -1.234 144.268 C -1.243 144.167 -1.234 144.268 -1.234 144.268 C -1.267 143.913 -1.107 143.567 -0.815 143.362 C -0.523 143.157 -0.144 143.124 0.179 143.275 C 0.502 143.426 0.719 143.739 0.748 144.095 C 0.748 144.095 0.745 144.142 0.748 144.095 C 0.748 144.095 0.621 144.948 0.616 145.292 C 0.611 145.634 0.635 145.914 0.696 146.233 C 0.817 146.867 1.022 147.349 1.401 147.866 C 2.177 148.927 3.321 149.652 5.245 149.94 C 5.79 150.032 6.157 150.547 6.065 151.092 Z" style="" transform="matrix(-1, 0, 0, -1, 4.696000099182129, 295.00799560546875)"/>
  <path style="fill: rgb(250, 175, 175); stroke-width: 3;" d="M -8.64 207.407 L -3.078 222.954 C 1.304 225.06 14.072 223.797 18.159 220.553 L 19.296 204.499 L -8.64 207.407 Z" transform="matrix(0.98404205, 0.17793502, -0.17793502, 0.98404205, 38.20648522, 2.47085283)"/>
  <path d="M 19.607 221.336 L 19.091 221.728 C 14.612 225.131 1.052 226.482 -3.728 224.306 L -4.277 224.056 L -10.696 206.113 L 20.919 202.822 Z M -6.584 208.701 L -1.881 221.846 C 2.479 223.543 12.528 222.558 16.712 219.762 L 17.674 206.177 Z" style="" transform="matrix(0.9840421080589294, 0.17793503403663635, -0.17793503403663635, 0.9840421080589294, 38.206485748291016, 2.470852851867676)"/>
  <path style="fill: rgb(250, 175, 175); stroke-width: 3;" d="M 32.443 201.592 L 38.005 217.139 C 42.387 219.245 55.155 217.982 59.242 214.738 L 60.379 198.684 L 32.443 201.592 Z" transform="matrix(0.99084604, -0.134995, 0.134995, 0.99084604, -27.71199209, 8.17320211)"/>
  <path d="M 60.69 215.521 L 60.174 215.913 C 55.695 219.316 42.135 220.667 37.355 218.491 L 36.806 218.241 L 30.387 200.298 L 62.002 197.007 Z M 34.499 202.886 L 39.202 216.031 C 43.562 217.728 53.611 216.743 57.795 213.947 L 58.757 200.362 Z" style="" transform="matrix(0.9908460974693298, -0.1349949985742569, 0.1349949985742569, 0.9908460974693298, -27.711992263793945, 8.173202514648438)"/>
  <path style="fill: rgb(250, 175, 175); stroke-width: 3;" d="M 14.303 211.084 L 19.865 226.631 C 24.247 228.737 37.015 227.474 41.102 224.23 L 42.239 208.176 L 14.303 211.084 Z"/>
  <path d="M 42.55 225.013 L 42.034 225.405 C 37.555 228.808 23.995 230.159 19.215 227.983 L 18.666 227.733 L 12.247 209.79 L 43.862 206.499 Z M 16.359 212.378 L 21.062 225.523 C 25.422 227.22 35.471 226.235 39.655 223.439 L 40.617 209.854 Z" style=""/>
  <path style="fill: rgb(250, 175, 175); stroke-width: 3;" d="M -3.345 144.772 C -0.914 143.035 -5.986 134.057 -10.075 136.978 C -13.794 139.93 -18.311 148.344 -17.603 150.971 C -12.858 153.041 -10.639 148.55 -12.378 155.576 C -11.135 156.642 -5.457 148.819 -3.345 144.772 Z"/>
  <path d="M -13.834 155.216 C -13.574 154.169 -13.419 153.46 -13.343 152.971 C -14.336 153.057 -16.02 153.135 -18.202 152.346 L -18.91 152.09 L -19.051 151.362 C -19.39 149.609 -18.383 146.294 -16.82 143.387 C -15.267 140.498 -12.947 137.382 -10.947 135.758 C -9.479 134.888 -7.625 134.771 -6.338 135.353 C -5.098 135.914 -3.858 137.099 -3.038 138.265 C -2.218 139.431 -1.552 140.92 -1.322 142.131 C -1.201 142.766 -1.178 143.55 -1.301 144.13 C -1.434 144.757 -1.709 145.142 -2.075 145.581 C -3.169 147.669 -5.13 150.642 -7.01 153.022 C -7.956 154.22 -8.941 155.328 -9.752 156.037 C -10.181 156.412 -10.706 156.782 -11.126 156.962 C -11.661 157.192 -12.691 157.029 -13.354 156.715 L -14.116 156.354 Z M -10.29 152.288 C -9.995 151.945 -9.686 151.568 -9.365 151.162 C -7.567 148.885 -5.693 146.037 -4.675 144.078 L -4.378 143.507 L -4.242 143.545 C -4.241 143.534 -4.239 143.522 -4.236 143.508 C -4.187 143.276 -4.193 143.095 -4.27 142.691 C -4.435 141.821 -4.837 140.923 -5.492 139.992 C -6.147 139.062 -6.79 138.442 -7.575 138.086 C -8.314 137.752 -8.626 137.608 -9.203 138.199 C -10.921 139.528 -12.72 142.094 -14.178 144.807 C -15.627 147.502 -16.162 148.841 -16.233 149.936 C -14.762 150.42 -13.724 149.898 -12.536 149.916 C -12.145 149.922 -11.408 150.105 -11.009 150.466 C -10.634 150.806 -10.329 151.56 -10.296 152.09 C -10.292 152.153 -10.29 152.219 -10.29 152.289 Z" style=""/>
  <ellipse style="fill: rgb(250, 175, 175); stroke-width: 3;" cx="22.098" cy="175.736" rx="42.206" ry="42.206"/>
  <path d="M 65.804 175.736 C 65.804 187.697 60.83 198.814 53.003 206.641 C 45.176 214.468 34.06 219.442 22.098 219.442 C 10.137 219.442 -0.98 214.468 -8.807 206.641 C -16.634 198.814 -21.608 187.698 -21.608 175.736 C -21.608 163.775 -16.634 152.658 -8.807 144.831 C -0.98 137.004 10.136 132.03 22.098 132.03 C 34.059 132.03 45.176 137.004 53.003 144.831 C 60.83 152.658 65.804 163.774 65.804 175.736 Z M 50.881 146.953 C 43.432 139.504 33.446 135.03 22.098 135.03 C 10.75 135.03 0.763 139.504 -6.685 146.953 C -14.134 154.402 -18.608 164.388 -18.608 175.736 C -18.608 187.084 -14.134 197.071 -6.685 204.519 C 0.764 211.968 10.75 216.442 22.098 216.442 C 33.446 216.442 43.433 211.968 50.881 204.519 C 58.33 197.07 62.804 187.084 62.804 175.736 C 62.804 164.388 58.33 154.401 50.881 146.953 Z" style=""/>
  <ellipse style="fill: rgb(187, 89, 89); stroke-width: 3;" cx="-10.046" cy="193.54" rx="17.967" ry="13.692"/>
  <path d="M 9.421 193.54 C 9.421 197.701 7.045 201.765 3.568 204.415 C 0.128 207.037 -4.842 208.732 -10.046 208.732 C -15.25 208.732 -20.219 207.037 -23.66 204.415 C -27.137 201.765 -29.513 197.701 -29.513 193.54 C -29.513 189.379 -27.137 185.315 -23.66 182.665 C -20.22 180.043 -15.25 178.348 -10.046 178.348 C -4.842 178.348 0.127 180.043 3.568 182.665 C 7.045 185.315 9.421 189.379 9.421 193.54 Z M 1.749 185.051 C -1.313 182.717 -5.327 181.348 -10.046 181.348 C -14.765 181.348 -18.779 182.718 -21.841 185.051 C -24.866 187.357 -26.513 190.139 -26.513 193.54 C -26.513 196.941 -24.867 199.723 -21.841 202.029 C -18.779 204.363 -14.765 205.732 -10.046 205.732 C -5.327 205.732 -1.313 204.362 1.749 202.029 C 4.774 199.723 6.421 196.941 6.421 193.54 C 6.421 190.139 4.775 187.357 1.749 185.051 Z" style=""/>
  <ellipse style="stroke-width: 2; fill: rgb(60, 15, 15);" cx="-4.502" cy="193.273" rx="2.672" ry="6.278"/>
  <path d="M -0.83 193.273 C -0.83 195.1 -1.167 196.87 -1.692 198.104 C -1.964 198.744 -2.356 199.369 -2.757 199.767 C -3.188 200.195 -3.909 200.551 -4.502 200.551 C -5.094 200.551 -5.816 200.195 -6.247 199.767 C -6.647 199.369 -7.039 198.744 -7.312 198.104 C -7.837 196.87 -8.174 195.1 -8.174 193.273 C -8.174 191.446 -7.837 189.676 -7.312 188.442 C -7.04 187.802 -6.648 187.177 -6.247 186.779 C -5.816 186.351 -5.095 185.995 -4.502 185.995 C -3.91 185.995 -3.188 186.351 -2.757 186.779 C -2.357 187.177 -1.965 187.802 -1.692 188.442 C -1.167 189.676 -0.83 191.446 -0.83 193.273 Z M -3.533 189.225 C -3.744 188.729 -3.928 188.435 -4.167 188.197 C -4.376 187.99 -4.357 187.994 -4.502 187.994 C -4.647 187.994 -4.629 187.989 -4.837 188.197 C -5.076 188.435 -5.26 188.729 -5.471 189.225 C -5.913 190.263 -6.174 191.633 -6.174 193.273 C -6.174 194.913 -5.913 196.282 -5.471 197.321 C -5.26 197.817 -5.076 198.111 -4.837 198.349 C -4.628 198.556 -4.647 198.552 -4.502 198.552 C -4.357 198.552 -4.375 198.557 -4.167 198.349 C -3.928 198.111 -3.744 197.817 -3.533 197.321 C -3.091 196.283 -2.83 194.913 -2.83 193.273 C -2.83 191.633 -3.091 190.264 -3.533 189.225 Z" style=""/>
  <ellipse style="stroke-width: 2; fill: rgb(60, 15, 15);" cx="-19.062" cy="193.273" rx="2.672" ry="6.278"/>
  <path d="M -15.39 193.273 C -15.39 195.1 -15.727 196.87 -16.252 198.104 C -16.524 198.744 -16.916 199.369 -17.317 199.767 C -17.748 200.195 -18.469 200.551 -19.062 200.551 C -19.654 200.551 -20.376 200.195 -20.807 199.767 C -21.207 199.369 -21.599 198.744 -21.872 198.104 C -22.397 196.87 -22.734 195.1 -22.734 193.273 C -22.734 191.446 -22.397 189.676 -21.872 188.442 C -21.6 187.802 -21.208 187.177 -20.807 186.779 C -20.376 186.351 -19.655 185.995 -19.062 185.995 C -18.47 185.995 -17.748 186.351 -17.317 186.779 C -16.917 187.177 -16.525 187.802 -16.252 188.442 C -15.727 189.676 -15.39 191.446 -15.39 193.273 Z M -18.093 189.225 C -18.304 188.729 -18.488 188.435 -18.727 188.197 C -18.936 187.99 -18.917 187.994 -19.062 187.994 C -19.207 187.994 -19.189 187.989 -19.397 188.197 C -19.636 188.435 -19.82 188.729 -20.031 189.225 C -20.473 190.263 -20.734 191.633 -20.734 193.273 C -20.734 194.913 -20.473 196.282 -20.031 197.321 C -19.82 197.817 -19.636 198.111 -19.397 198.349 C -19.188 198.556 -19.207 198.552 -19.062 198.552 C -18.917 198.552 -18.935 198.557 -18.727 198.349 C -18.488 198.111 -18.304 197.817 -18.093 197.321 C -17.651 196.283 -17.39 194.913 -17.39 193.273 C -17.39 191.633 -17.651 190.264 -18.093 189.225 Z" style=""/>
  <g transform="matrix(1, 0, 0, 1, -102.685997, 30.401325)">
    <ellipse style="stroke: rgb(0, 0, 0);" cx="118.047" cy="142.183" rx="5.018" ry="5.018"/>
    <ellipse style="fill: rgb(216, 216, 216); stroke: rgb(0, 0, 0);" cx="120.685" cy="140.381" rx="1.608" ry="1.801"/>
  </g>
  <g transform="matrix(0.666679, 0, 0, 1, -91.386414, 27.699055)" style="">
    <ellipse style="stroke: rgb(0, 0, 0);" cx="118.047" cy="142.183" rx="5.018" ry="5.018"/>
    <ellipse style="fill: rgb(216, 216, 216); stroke: rgb(0, 0, 0);" cx="120.685" cy="140.381" rx="1.608" ry="1.801"/>
  </g>
  <path style="stroke-width: 2; fill: rgb(67, 17, 17);" d="M 0.652 149.241 L 6.193 149.319 C 10.537 144.299 18.184 140.71 23.984 139.565 L 21.409 139.487 C 14.144 139.979 6.031 142.732 0.652 149.241 Z"/>
  <path d="M 21.439 138.487 L 32.956 138.836 L 24.177 140.546 C 18.493 141.653 11.127 145.079 6.949 149.973 L 6.648 150.325 L -1.471 150.211 L -0.119 148.604 C 5.485 141.94 14.047 139.005 21.439 138.487 Z M 15.818 141.264 C 10.956 142.336 6.571 144.489 2.857 148.272 L 5.753 148.313 C 8.398 145.431 12.057 143.016 15.819 141.264 Z" style=""/>
  <path style="fill: none; stroke-width: 2;" d="M 19.654 191.486 C 15.715 199.093 7.79 202.185 3.735 202.856"/>
  <path d="M 20.542 191.946 C 16.341 199.789 4.623 203.316 4.623 203.316 C 4.361 203.552 3.501 201.884 3.477 201.89 C 3.477 201.89 4.575 201.678 5.164 201.521 C 5.756 201.363 6.371 201.171 7.036 200.927 C 8.373 200.438 9.778 199.791 11.22 198.917 C 14.12 197.158 16.906 194.688 18.767 191.026 Z" style="fill: none;"/>
  <path d="M 20.542 191.946 C 13.129 203.978 3.122 203.7 3.122 203.7 C 2.755 203.098 3.501 201.884 3.477 201.89 C 3.477 201.89 4.575 201.678 5.164 201.521 C 5.756 201.363 6.371 201.171 7.036 200.927 C 8.373 200.438 9.778 199.791 11.22 198.917 C 14.12 197.158 16.906 194.688 18.767 191.026 L 20.542 191.946 Z" style="stroke-width: 1;"/>
  <path d="M 20.968 192.208 C 17.188 198.3 12.719 201.343 9.245 202.796 C 5.722 204.27 3.108 204.2 3.108 204.2 L 2.798 204.192 L 2.695 203.961 C 2.48 203.479 2.551 202.81 2.7 202.398 C 2.714 202.359 2.729 202.32 2.744 202.282 L 0.403 201.975 L 3.381 201.4 C 3.392 201.398 4.465 201.191 5.034 201.039 C 5.616 200.884 6.21 200.699 6.863 200.459 C 8.181 199.978 9.542 199.352 10.959 198.491 C 13.823 196.759 16.516 194.389 18.32 190.801 L 18.546 190.351 L 21.25 191.752 Z M 18.977 191.698 C 17.063 195.194 14.416 197.559 11.48 199.345 C 10.013 200.232 8.564 200.9 7.208 201.397 C 6.77 201.557 6.349 201.697 5.944 201.819 C 5.181 201.839 3.979 201.876 3.978 201.912 C 3.976 201.961 3.959 202.032 3.952 202.053 C 3.945 202.074 3.932 202.104 3.927 202.115 C 3.919 202.131 3.909 202.153 3.899 202.171 C 3.881 202.206 3.857 202.253 3.828 202.309 C 3.824 202.317 3.82 202.324 3.817 202.332 C 3.67 202.361 3.576 202.38 3.573 202.38 C 3.573 202.38 3.573 202.38 3.573 202.38 L 3.816 202.333 C 3.761 202.446 3.698 202.582 3.641 202.738 C 3.516 203.082 3.51 203.071 3.486 203.192 C 4.265 203.155 5.526 203.268 8.859 201.873 C 12.242 200.457 16.263 197.77 19.831 192.14 Z" style="fill: none;"/>
  <path style="fill: none; stroke-width: 2;" d="M 14.905 189.212 C 19.141 189.101 21.883 191.91 23.399 195.566"/>
  <path d="M 14.879 188.212 C 17.19 188.19 19.28 188.958 20.804 190.201 C 22.325 191.441 24.031 194.791 24.031 194.791 C 24.133 194.903 22.506 196.015 22.517 196.038 C 22.517 196.038 22.107 195.114 21.891 194.711 C 21.675 194.308 21.457 193.947 21.206 193.584 C 20.705 192.859 20.182 192.275 19.541 191.751 C 18.257 190.704 16.857 190.122 14.932 190.211 Z" style="fill: none;"/>
  <path d="M 13.815 189.513 C 13.815 189.513 18.108 188.276 20.804 190.201 C 23.675 192.251 22.506 196.015 22.517 196.038 C 22.517 196.038 22.107 195.114 21.891 194.711 C 21.675 194.308 21.457 193.947 21.206 193.584 C 20.705 192.859 20.182 192.275 19.541 191.751 C 18.257 190.704 15.565 189.808 13.815 189.513 Z" style="stroke-width: 1;"/>
  <path d="M 13.677 189.033 C 13.677 189.033 18.184 187.833 21.095 189.795 C 22.625 190.953 23.161 192.595 23.233 193.851 C 23.306 195.137 22.983 196.004 22.98 195.848 L 23.026 198.416 L 22.061 196.241 C 22.059 196.236 21.658 195.333 21.451 194.947 C 21.241 194.555 21.038 194.218 20.795 193.868 C 20.313 193.168 19.838 192.635 19.225 192.138 C 18.02 191.134 15.444 190.291 13.732 190.006 L 11.45 189.625 Z M 19.857 191.363 C 20.526 191.914 21.097 192.55 21.617 193.299 C 21.768 193.517 21.909 193.739 22.045 193.967 C 22.115 194.169 22.184 194.323 22.218 194.267 C 22.256 194.335 22.294 194.404 22.331 194.474 C 22.426 194.652 22.352 194.463 22.235 194.188 C 22.24 194.128 22.24 194.037 22.233 193.906 C 22.168 192.763 21.853 191.498 20.513 190.607 C 18.031 188.719 17.536 189.501 16.187 189.599 C 17.573 190.048 18.494 190.272 19.857 191.362 Z" style="fill: none;"/>
  <path style="fill: none; stroke-width: 2;" d="M 26.502 148.835 C 30.762 147.439 33.801 145.599 36.209 143.691 C 41.983 140.618 48.548 148.161 47.576 150.163 C 46.481 153.059 49.086 156.933 49.484 162.193 C 49.021 165.122 47.072 163.529 45.253 162.359 C 41.91 160.451 40.818 156.121 40.108 153.896"/>
  <path d="M 26.191 147.885 C 30.348 146.536 33.232 144.78 35.588 142.907 L 35.667 142.844 L 35.739 142.808 C 37.382 141.982 39.22 141.811 40.769 142.147 C 42.317 142.483 43.85 143.308 45.037 144.236 C 46.231 145.169 47.262 146.341 47.877 147.357 C 48.518 148.416 48.748 149.735 48.48 150.585 C 47.412 153.025 49.999 156.616 50.481 162.117 L 50.492 162.238 L 50.472 162.349 C 50.316 163.214 49.972 163.991 49.546 164.368 C 49.055 164.802 48.201 164.914 47.652 164.787 C 46.687 164.564 45.599 163.769 44.715 163.201 C 42.906 162.101 41.61 160.356 40.794 158.684 C 39.974 157.002 39.209 154.334 39.209 154.334 C 39.176 154.247 41.061 153.594 41.055 153.574 C 41.055 153.574 41.441 154.838 41.688 155.567 C 41.937 156.299 42.222 157.049 42.592 157.808 C 43.336 159.334 44.237 160.681 45.749 161.49 C 46.684 162.092 47.522 162.704 48.102 162.838 C 48.326 162.89 48.16 162.923 48.221 162.869 C 48.347 162.757 48.413 162.658 48.48 162.162 C 48.137 157.191 45.598 153.16 46.641 149.808 C 46.851 149.656 46.664 149.213 46.167 148.391 C 45.644 147.526 44.855 146.629 43.807 145.81 C 42.753 144.986 41.623 144.377 40.346 144.1 C 39.07 143.823 37.978 143.859 36.768 144.523 C 34.317 146.45 31.177 148.341 26.814 149.784 Z" style="fill: none;"/>
  <path d="M 26.191 147.885 C 30.348 146.536 33.232 144.78 35.588 142.907 L 35.667 142.844 L 35.739 142.808 C 37.382 141.982 39.22 141.811 40.769 142.147 C 42.317 142.483 43.85 143.308 45.037 144.236 C 46.231 145.169 47.262 146.341 47.877 147.357 C 48.518 148.416 48.748 149.735 48.48 150.585 C 47.412 153.025 49.999 156.616 50.481 162.117 L 50.492 162.238 L 50.472 162.349 C 50.316 163.214 49.972 163.991 49.546 164.368 C 49.055 164.802 48.201 164.914 47.652 164.787 C 46.687 164.564 45.599 163.769 44.715 163.201 C 42.906 162.101 41.61 160.356 40.794 158.684 C 39.974 157.002 41.061 153.594 41.055 153.574 C 41.055 153.574 41.441 154.838 41.688 155.567 C 41.937 156.299 42.222 157.049 42.592 157.808 C 43.336 159.334 44.237 160.681 45.749 161.49 C 46.684 162.092 47.522 162.704 48.102 162.838 C 48.326 162.89 48.16 162.923 48.221 162.869 C 48.347 162.757 48.413 162.658 48.48 162.162 C 48.137 157.191 45.598 153.16 46.641 149.808 C 46.851 149.656 46.664 149.213 46.167 148.391 C 45.644 147.526 44.855 146.629 43.807 145.81 C 42.753 144.986 41.623 144.377 40.346 144.1 C 39.07 143.823 37.978 143.859 36.768 144.523 C 30.913 148.972 26.191 147.885 26.191 147.885 Z" style="stroke-width: 2;"/>
  <path d="M 25.882 146.934 C 29.933 145.634 32.659 143.963 34.964 142.125 L 35.125 141.996 L 35.219 141.949 L 35.289 141.914 C 37.11 141.037 39.279 140.824 40.98 141.169 C 42.659 141.553 44.394 142.473 45.652 143.447 C 46.914 144.444 48.064 145.751 48.732 146.838 C 49.438 148.07 49.717 149.798 49.433 150.885 L 49.416 150.949 L 49.395 150.985 C 48.275 152.932 50.901 156.276 51.476 162.025 L 51.499 162.281 L 51.475 162.414 L 51.455 162.525 C 51.264 163.504 50.759 164.567 50.207 165.116 C 49.45 165.671 48.152 165.896 47.425 165.76 C 46.278 165.454 45.053 164.605 44.194 164.054 C 42.243 162.825 40.758 160.872 39.894 159.121 C 39.047 157.068 40.105 153.585 40.096 153.86 L 40.289 147.641 L 42.01 153.281 C 42.01 153.281 42.391 154.53 42.634 155.245 C 42.877 155.96 43.138 156.652 43.49 157.369 C 44.2 158.836 44.957 160.002 46.289 160.648 C 46.719 160.926 47.094 161.188 47.412 161.398 C 46.932 157.015 44.774 153.089 45.673 149.556 C 45.604 149.406 45.49 149.203 45.31 148.907 C 44.839 148.114 44.17 147.352 43.19 146.596 C 42.207 145.818 41.279 145.304 40.133 145.075 C 38.98 144.809 38.272 144.796 37.322 145.353 C 31.052 149.891 25.966 148.857 25.966 148.857 L 22.242 148.1 Z M 47.586 150.105 C 47.485 150.298 47.346 150.492 47.228 150.618 L 47.522 150.304 L 47.542 150.25 C 47.549 150.228 47.557 150.206 47.564 150.184 L 47.545 150.239 L 47.527 150.284 C 47.551 150.227 47.57 150.167 47.586 150.105 Z M 41.565 157.976 C 41.236 157.265 40.967 156.553 40.741 155.889 C 40.489 155.146 42.09 160.384 42.09 160.384 L 42.075 158.98 C 42.771 160.218 43.7 161.372 44.974 162.187 C 43.698 161.368 42.775 160.211 42.075 158.971 C 42.075 158.971 41.036 156.528 41.565 157.976 Z M 48.894 163.611 C 49.153 163.426 49.324 163.025 49.443 162.423 C 49.297 163.051 49.085 163.418 48.888 163.613 C 48.909 163.593 48.947 163.555 48.968 163.532 Z M 40.492 143.11 C 39.426 142.872 38.298 142.9 37.174 143.277 C 38.29 142.909 39.403 142.895 40.492 143.11 Z M 44.237 144.881 C 43.177 144.077 41.938 143.418 40.622 143.137 C 41.93 143.45 43.17 144.088 44.237 144.881 Z M 46.955 147.765 C 46.417 146.897 45.594 145.961 44.586 145.153 C 45.585 145.971 46.407 146.904 46.955 147.765 Z M 47.845 163.803 C 47.15 163.595 46.273 163.02 45.439 162.48 C 46.276 163.033 47.136 163.671 47.856 163.809 Z" style="fill: none;"/>
  <path style="fill: none; stroke-width: 2;" d="M 46.497 162.525 L 44.008 168.582"/>
  <path d="M 47.422 162.905 L 44.933 168.962 L 43.083 168.202 L 45.572 162.145 Z" style="fill: none;"/>
  <path d="M 47.422 162.905 L 43.083 168.202 L 45.572 162.145 L 47.422 162.905 Z" style="stroke-width: 3;"/>
  <path d="M 37.877 176.925 L 44.755 160.188 L 49.867 162.288 Z" style="fill: none;"/>
  <path style="fill: rgb(250, 175, 175); stroke-width: 3;" d="M 53.758 142.023 C 56.333 138.902 58.223 138.481 59.243 133.765 C 59.923 137.41 59.126 142.077 56.406 144.86 L 53.758 142.023 Z"/>
  <path d="M 52.601 141.068 C 54.001 139.397 55.113 138.494 55.941 137.52 C 56.772 136.542 57.348 135.594 57.777 133.447 L 59.344 125.615 L 60.718 133.489 C 61.4 137.398 60.402 142.727 57.479 145.908 L 56.414 147.067 L 51.756 142.077 Z M 56.357 142.609 C 56.879 141.85 57.279 141.051 57.562 140.206 C 56.919 140.886 56.43 141.292 55.778 141.989 Z" style=""/>
  <path style="fill: rgb(250, 175, 175); stroke-width: 3;" d="M 55.776 149.588 C 55.906 149.849 57.135 149.03 56.973 147.066 C 56.127 143.149 50.193 137.978 48.148 137.988 C 45.74 137.682 44.187 139.134 44.681 139.69 L 55.776 149.588 Z"/>
  <path d="M 43.56 140.686 C 43.352 140.37 43.09 139.789 43.09 139.446 C 43.09 139.143 43.225 138.675 43.358 138.43 C 43.573 138.035 44.072 137.532 44.529 137.245 C 45.332 136.741 46.831 136.37 48.338 136.499 L 49.037 136.559 L 48.141 136.487 C 49.575 136.602 52.104 138.093 54.052 139.974 C 55.984 141.839 57.884 144.499 58.439 146.748 L 58.466 146.855 L 58.468 146.941 C 58.502 148.253 58.115 149.466 57.698 150.041 C 57.446 150.387 57.028 150.75 56.754 150.898 C 56.563 151.001 56.164 151.126 55.913 151.133 C 55.529 151.144 54.802 150.632 54.434 150.255 L 55.523 151.37 L 43.582 140.717 Z M 46.72 139.499 L 53.187 145.269 L 55.515 147.431 C 55.507 147.358 55.495 147.278 55.477 147.19 L 55.433 146.964 L 55.506 147.383 C 55.215 145.715 53.725 143.831 51.967 142.134 C 50.226 140.453 48.766 139.363 48.154 139.488 L 48.088 139.502 L 47.958 139.476 C 47.425 139.372 47.039 139.4 46.719 139.499 Z" style=""/>
</svg>