<?xml version="1.0" encoding="utf-8"?>
<svg xmlns="http://www.w3.org/2000/svg" viewBox="392.88 230.6307 102.8755 177.1952" width="102.876px" height="177.195px">
  <path style="fill: rgb(158, 255, 46); stroke-width: 3;" d="M 462.671 258.833 L 426.987 258.688 L 426.987 247.229 C 436.43 241.62 452.215 241.858 462.695 247.229 L 462.671 258.833"/>
  <path d="M 462.665 260.333 L 426.981 260.188 L 425.487 260.182 L 425.487 258.688 L 425.487 247.229 L 425.487 246.366 L 426.221 245.94 C 436.058 240.226 452.568 240.441 463.379 245.895 L 464.197 246.308 L 464.195 247.233 L 464.171 258.837 L 461.171 258.831 L 461.193 248.154 C 451.107 243.267 437.599 243.033 428.487 248.093 L 428.487 257.195 L 462.677 257.334 Z" style=""/>
  <path style="stroke-width: 3; fill: rgb(158, 255, 46);" d="M 489.866 397.83 C 474.546 411.39 422.733 410.924 401.876 397.83 C 392.02 367.518 395.736 302.038 409.412 264.164 C 420.216 252.526 466.845 250.686 481.547 264.164 C 493.906 275.029 497.254 361.082 489.866 397.83 Z"/>
  <path d="M 490.86 398.953 C 482.846 405.908 465.564 409.384 447.942 409.325 C 430.332 409.266 411.768 405.749 401.078 399.1 L 400.617 398.813 L 400.449 398.293 C 390.557 367.707 394.281 301.74 408.001 263.654 L 408.108 263.356 L 408.312 263.143 C 414.092 257.104 428.988 253.478 443.994 253.245 C 458.991 253.013 474.817 256.13 482.542 263.041 C 495.151 274.459 498.738 361.2 491.336 398.125 L 491.235 398.626 Z M 480.557 265.291 C 473.573 258.736 458.736 256.018 444.041 256.246 C 429.355 256.474 415.909 259.502 410.72 264.959 C 397.172 302.659 393.525 366.586 403.135 396.847 C 413.373 403.102 430.612 406.268 447.952 406.325 C 465.281 406.383 481.015 403.415 488.494 397.038 C 495.741 360.197 492.661 275.621 480.556 265.29 Z" style=""/>
  <path style="stroke-width: 1;" d="M 430.403 244.497 C 418.503 244.143 403.905 254.397 399.215 258.277 L 395.734 245.658 C 401.663 241.147 411.377 237.646 429.242 236.374 L 430.403 244.497 Z" transform="matrix(0.92569602, -0.37826797, 0.37826797, 0.92569602, -62.86267954, 174.62785719)"/>
  <path d="M 430.388 244.997 C 418.639 244.598 404.208 254.794 399.534 258.662 L 398.939 259.155 L 395.162 245.465 L 395.431 245.261 C 401.427 240.714 411.274 237.162 429.206 235.876 L 429.671 235.843 L 430.982 245.018 Z M 428.813 236.906 C 411.318 238.189 402.192 241.477 396.306 245.853 L 399.493 257.407 C 404.752 253.21 417.887 244.024 429.825 243.991 Z" style="" transform="matrix(0.9256960153579712, -0.37826794385910034, 0.37826794385910034, 0.9256960153579712, -62.86267852783203, 174.6278533935547)"/>
  <path style="stroke-width: 1;" d="M 493.173 251.646 C 481.274 252 466.675 241.746 461.986 237.866 L 458.504 250.485 C 465.032 253.85 474.148 258.497 492.012 259.769 L 493.173 251.646 Z" transform="matrix(-0.93944907, -0.34268799, 0.34268799, -0.93944907, 837.4767164, 645.61062081)"/>
  <path d="M 491.976 260.268 C 474.016 258.969 464.803 254.295 458.274 250.93 L 457.913 250.744 L 461.709 236.989 L 462.304 237.482 C 466.977 241.35 481.41 251.547 493.157 251.147 L 493.751 251.127 L 492.44 260.302 Z M 492.595 252.153 C 480.694 252.144 467.522 242.933 462.264 238.736 L 459.093 250.226 C 465.592 253.572 474.121 257.944 491.582 259.236 Z" style="" transform="matrix(-0.9394491314888, -0.3426879942417145, 0.3426879942417145, -0.9394491314888, 837.4767456054688, 645.610595703125)"/>
  <g style="" transform="matrix(-1.257568, 0, 0, 1.257568, 677.920288, 145.60173)">
    <path style="stroke: rgb(0, 0, 0); fill: rgb(255, 255, 255); stroke-width: 2px;" d="M 179.157 128.795 C 178.647 138.252 175.485 144.869 168.357 144.529 C 164.033 144.607 159.056 142.248 155.157 137.862 C 148.161 128.201 158.494 109.739 161.424 105.995 C 165.78 99.995 172.713 99.862 176.224 106.395 C 178.674 110.616 179.405 123.595 179.157 128.795 Z"/>
    <ellipse style="stroke: rgb(0, 0, 0); stroke-width: 2px;" cx="170.291" cy="128.529" rx="4.067" ry="5.067"/>
  </g>
  <path style="stroke-width: 2;" d="M 468.396 362.152 C 461.02 375.12 436.988 377.127 426.583 362.152 C 420.971 353.814 412.115 333.277 412.149 333.277 C 424.511 340.673 462.496 342.73 480.877 333.277 C 481.422 331.983 471.719 357.704 468.396 362.152 Z"/>
  <path d="M 469.232 362.702 C 465.325 369.39 457.087 373.373 448.655 373.63 C 440.234 373.887 431.189 370.38 425.753 362.71 C 422.915 358.486 419.26 351.201 416.344 345.014 C 414.885 341.919 413.601 339.081 412.687 337.022 C 412.229 335.992 411.862 335.152 411.612 334.572 C 411.486 334.281 411.388 334.053 411.323 333.898 C 411.29 333.82 411.263 333.756 411.246 333.713 C 411.237 333.69 411.226 333.664 411.22 333.647 C 411.215 333.635 411.206 333.609 411.2 333.591 C 411.195 333.574 411.18 333.526 411.173 333.493 C 411.166 333.459 411.15 333.356 411.149 333.285 C 411.148 333.215 411.176 333.012 411.225 332.893 C 411.266 332.794 411.415 332.582 411.528 332.493 C 411.66 332.388 411.989 332.303 412.149 332.277 L 412.368 332.241 L 412.663 332.419 C 424.755 339.721 462.047 341.773 480.239 332.481 C 480.261 332.461 480.283 332.441 480.307 332.424 C 480.391 332.362 480.658 332.244 480.832 332.232 C 481.078 332.215 481.559 332.444 481.697 332.627 C 481.837 332.812 481.901 333.159 481.899 333.251 C 481.898 333.324 481.881 333.426 481.874 333.456 C 481.861 333.515 481.83 333.606 481.806 333.673 C 481.762 333.797 481.681 334.017 481.571 334.314 C 481.35 334.904 481.001 335.825 480.558 336.977 C 479.672 339.279 478.403 342.52 477.014 345.938 C 474.237 352.773 470.963 360.322 469.233 362.703 Z M 467.555 361.606 L 467.595 361.554 C 469.198 359.431 472.392 352 475.161 345.185 C 476.545 341.779 477.807 338.554 478.691 336.258 C 478.835 335.885 478.968 335.536 479.091 335.216 C 460.969 342.99 428.16 341.546 414.163 335.416 C 414.273 335.666 414.391 335.931 414.515 336.211 C 415.427 338.264 416.701 341.081 418.154 344.162 C 421.06 350.328 424.64 357.48 427.413 361.594 C 432.381 368.899 440.555 371.877 448.595 371.631 C 456.624 371.386 464.058 367.937 467.527 361.658 Z" style=""/>
  <path style="fill: none; stroke-linecap: round; stroke-width: 2;" d="M 416.221 331.252 C 411.902 331.978 410.057 334.957 410.735 338.299"/>
  <path d="M 416.543 332.199 C 416.869 332.055 417.093 331.747 417.131 331.392 C 417.168 331.037 417.013 330.69 416.723 330.481 C 416.434 330.272 416.055 330.234 415.73 330.381 C 415.73 330.381 415.811 330.344 415.73 330.381 C 415.73 330.381 413.802 330.841 412.955 331.318 C 412.093 331.803 411.317 332.492 410.796 333.204 C 409.752 334.632 409.413 336.636 409.754 338.498 C 409.864 339.039 410.392 339.389 410.933 339.279 C 411.474 339.169 411.824 338.641 411.714 338.1 C 411.377 336.619 411.622 335.463 412.41 334.385 C 412.806 333.844 413.258 333.443 413.936 333.061 C 414.28 332.867 414.619 332.716 415.039 332.573 C 415.463 332.429 416.543 332.199 416.543 332.199 C 416.504 332.211 416.543 332.199 416.543 332.199 Z" style=""/>
  <path style="fill: none; stroke-linecap: round; stroke-width: 2;" d="M 481.869 337.495 C 477.55 336.769 475.705 333.79 476.382 330.448" transform="matrix(-1, 0, 0, -1, 958.11599583, 667.94400373)"/>
  <path d="M 482.855 337.661 C 482.763 338.206 482.248 338.573 481.703 338.481 C 479.369 338.053 477.476 336.952 476.445 335.543 C 475.92 334.825 475.53 333.91 475.364 333.045 C 475.2 332.185 475.4 330.636 475.4 330.636 C 475.391 330.535 475.4 330.636 475.4 330.636 C 475.367 330.281 475.527 329.935 475.819 329.73 C 476.111 329.525 476.49 329.492 476.813 329.643 C 477.136 329.794 477.353 330.107 477.382 330.462 C 477.382 330.462 477.379 330.509 477.382 330.462 C 477.382 330.462 477.251 331.339 477.246 331.695 C 477.241 332.048 477.266 332.34 477.328 332.669 C 477.453 333.325 477.667 333.827 478.059 334.362 C 478.861 335.459 480.05 336.21 482.035 336.509 C 482.58 336.601 482.947 337.116 482.855 337.661 Z" style="" transform="matrix(-1, 0, 0, -1, 958.115966796875, 667.9440307617188)"/>
  <g style="" transform="matrix(1.22169, 0, 0, 1.22169, -350.232941, -165.188416)">
    <path style="stroke: rgb(0, 0, 0); fill: rgb(255, 255, 255); stroke-width: 2;" d="M 645.18 386.97 C 644.655 396.705 641.4 403.516 634.063 403.166 C 629.612 403.247 624.489 400.818 620.475 396.304 C 613.274 386.359 623.91 367.355 626.926 363.501 C 631.41 357.325 638.547 357.188 642.161 363.912 C 644.683 368.257 645.435 381.618 645.18 386.97 Z"/>
    <ellipse style="stroke: rgb(0, 0, 0); stroke-width: 2;" cx="636.054" cy="386.696" rx="4.186" ry="5.216"/>
  </g>
  <path style="fill: rgb(211, 60, 60); stroke-width: 1;" d="M 426.057 356.308 C 435.702 362.363 458.148 365.217 466.019 356.827 C 460.906 351.274 455.34 348.868 446.687 348.394 C 433.747 348.414 431.155 351.4 426.057 356.308 Z"/>
  <path d="M 446.714 347.895 C 455.453 348.389 461.189 350.875 466.386 356.489 L 466.704 356.833 L 466.383 357.17 C 462.31 361.44 454.535 362.909 446.676 362.485 C 438.821 362.06 430.679 359.789 425.791 356.733 L 425.248 356.394 L 425.71 355.95 C 430.793 351.058 433.586 348.003 446.714 347.897 Z M 426.87 356.218 C 431.671 359.044 438.983 361.067 446.73 361.485 C 454.473 361.903 461.447 360.676 465.331 356.82 C 460.393 351.574 455.233 349.349 446.672 348.893 C 433.934 348.829 431.676 351.566 426.87 356.217 Z" style=""/>
  <path style="fill: rgb(255, 255, 255); stroke-width: 1;" d="M 425.538 356.957 C 438.124 362.239 456.304 363.665 467.852 356.957 C 469.778 357.813 467.227 362.083 462.19 366.764 C 451.767 375.371 438.727 370.44 432.932 366.764 C 427.396 360.796 424.154 357.476 425.538 356.957 Z"/>
  <path d="M 425.731 356.496 C 438.24 361.759 456.197 363.2 467.6 356.525 L 467.831 356.39 L 468.055 356.5 C 468.365 356.653 468.671 356.923 468.815 357.207 C 468.955 357.484 469.015 357.878 468.987 358.232 C 468.934 358.898 468.597 359.765 468.064 360.678 C 467.015 362.475 465.047 364.787 462.508 367.149 C 457.176 371.507 451.121 372.49 445.767 371.866 C 440.403 371.241 435.591 369.04 432.664 367.185 L 432.609 367.15 L 432.565 367.102 C 429.799 364.12 427.593 361.786 426.251 360.13 C 425.574 359.295 425.084 358.584 424.868 358.057 C 424.75 357.769 424.689 357.42 424.742 357.175 C 424.802 356.899 425.093 356.616 425.362 356.487 L 425.526 356.408 Z M 425.757 357.589 C 425.767 357.615 425.779 357.645 425.793 357.68 C 425.969 358.108 426.375 358.698 427.028 359.503 C 428.346 361.129 430.505 363.414 433.254 366.377 C 436.125 368.191 440.672 370.267 445.883 370.874 C 451.104 371.483 456.771 370.63 461.859 366.389 C 464.352 364.073 466.195 361.897 467.2 360.175 C 467.694 359.329 467.948 358.676 467.989 358.154 C 468.008 357.914 467.991 357.797 467.921 357.658 C 467.855 357.527 467.88 357.564 467.853 357.532 C 456.276 364.04 438.399 362.749 425.756 357.589 Z" style=""/>
  <path style="fill: rgb(255, 255, 255); stroke-width: 1;" d="M 428.003 341.647 C 436.826 345.495 457.847 345.318 467.578 341.647 L 469.782 337.754 C 470.128 340.695 425.624 340.825 425.278 337.884 L 428.003 341.647 Z"/>
  <path d="M 447.618 339.525 C 457.631 339.503 467.488 338.934 469.187 337.791 L 470.403 335.643 L 470.329 336.87 L 471.307 336.077 L 470.207 338.021 C 470.154 338.163 470.077 338.301 469.985 338.412 L 467.925 342.051 L 467.756 342.115 C 457.939 345.802 436.73 345.974 427.805 342.105 L 427.68 342.051 L 425.14 338.544 C 425.038 338.442 424.945 338.313 424.877 338.181 L 423.125 335.761 L 424.487 336.8 L 424.139 335.456 L 425.878 337.857 C 427.623 339.015 437.568 339.547 447.619 339.524 Z M 428.328 341.243 C 437.119 345.014 457.516 344.836 467.233 341.243 L 468.453 339.089 C 464.898 340.012 457.828 340.503 447.621 340.526 C 437.414 340.549 430.589 340.106 426.866 339.224 Z" style=""/>
</svg>