<?xml version="1.0" encoding="utf-8"?>
<svg xmlns="http://www.w3.org/2000/svg" viewBox="-52.5177 222.9231 102.2185 163.1406" width="102.219px" height="163.141px">
  <path style="stroke-width: 3; fill: rgb(158, 255, 46);" d="M -13.314 246.052 L -51.042 246.1 L -49.856 234.576 C -40.683 229.127 -25.348 229.358 -15.167 234.576 L -13.314 246.052 Z" transform="matrix(0.89323896, -0.44958198, 0.44958198, 0.89323896, -110.58769506, 10.97853323)"/>
  <path d="M -52.705 247.602 L -51.27 233.662 L -50.622 233.286 C -41.055 227.732 -24.995 227.94 -14.483 233.241 L -13.808 233.581 L -11.553 247.549 Z M -16.526 235.57 C -26.328 230.767 -39.606 230.537 -48.442 235.487 L -49.38 244.598 L -15.076 244.554 Z" style="" transform="matrix(0.89323890209198, -0.44958198070526123, 0.44958198070526123, 0.89323890209198, -110.58769226074219, 10.978532791137695)"/>
  <path style="stroke-width: 3; fill: rgb(158, 255, 46);" d="M 43.902 377.181 C 29.019 390.354 -31.003 389.095 -48.44 371.934 C -31.403 309.776 -38.808 301.012 -52.017 256.209 C -41.521 244.903 -27.301 231.006 10.391 236.835 C 28.504 252.296 63.531 323.934 43.902 377.181 Z"/>
  <path d="M 44.896 378.304 C 37.075 385.07 17.819 388.251 -1.375 387.431 C -20.563 386.612 -40.421 381.778 -49.492 373.003 L -50.125 372.391 L -49.886 371.538 C -32.699 310.062 -40.1 301.709 -53.455 256.634 L -53.697 255.816 L -53.115 255.189 C -42.594 243.857 -27.709 229.729 10.622 235.353 L 11.041 235.414 L 11.367 235.694 C 20.577 243.604 34.108 265.712 42.729 292.377 C 51.34 319.01 55.167 350.725 45.311 377.7 L 45.179 378.061 Z M 39.872 293.3 C 31.358 266.968 18.627 246.032 9.733 238.249 C -26.993 232.386 -39.941 245.455 -50.337 256.606 C -37.426 300.431 -30.175 309.406 -46.762 371.468 C -38.108 379.461 -20.151 383.628 -1.247 384.435 C 17.649 385.242 35.371 382.538 42.626 376.307 C 52.233 350.113 48.396 319.663 39.873 293.3 Z" style=""/>
  <path style="fill: rgb(255, 255, 255); stroke-width: 2;" d="M 1.573 259.182 C 8.488 261.066 18.696 279.001 14.812 295.343 C 11.554 305.288 0.445 306.97 -6.827 301.749 C -18.256 291.07 -15.242 280.038 -11.098 271.71 C -6.979 265.558 -5.2 263.207 1.573 259.182 Z"/>
  <path d="M 1.836 258.217 C 5.54 259.315 10.169 264.544 13.16 271.443 C 16.136 278.308 17.71 287.277 15.763 295.654 C 13.973 300.86 10.038 304.142 5.738 305.204 C 1.441 306.265 -3.577 305.257 -7.41 302.561 L -7.461 302.525 L -7.509 302.48 C -13.348 296.956 -15.639 291.179 -15.801 285.879 C -15.964 280.558 -14.086 275.478 -11.992 271.265 L -11.964 271.208 L -11.928 271.154 C -7.792 264.978 -5.853 262.476 1.063 258.323 L 1.436 258.099 Z M -10.231 272.213 C -12.269 276.313 -13.954 280.871 -13.803 285.817 C -13.651 290.785 -11.78 295.821 -6.191 300.975 C -2.762 303.469 1.367 304.223 5.257 303.262 C 9.145 302.302 12.371 299.787 13.846 295.077 C 15.77 287.123 14.209 278.897 11.323 272.238 C 8.452 265.613 4.842 261.32 1.708 260.263 C -4.61 264.023 -6.157 266.125 -10.233 272.213 Z" style=""/>
  <path style="fill: rgb(255, 255, 255); stroke-width: 2;" d="M 26.287 256.679 C 29.629 250.415 40.299 262.473 42.35 275.02 C 43.79 283.827 43.619 293.319 42.35 299.115 C 38.316 310.6 27.627 291.057 25.208 282.692 C 22.822 275.599 22.601 262.284 26.287 256.679 Z"/>
  <path d="M 25.437 256.153 C 25.955 255.24 26.699 254.538 27.483 254.225 C 28.274 253.91 29.32 253.917 30.203 254.179 C 31.877 254.675 33.819 256.162 35.554 258.135 C 38.975 262.026 42.263 268.436 43.337 274.859 C 44.783 283.756 44.607 293.435 43.327 299.329 L 43.313 299.392 L 43.293 299.447 C 42.738 300.986 41.988 302.182 41.18 302.83 C 40.315 303.525 39.093 303.764 38.098 303.548 C 36.246 303.147 34.175 301.276 32.382 298.959 C 28.837 294.377 25.494 287.248 24.253 282.989 C 21.841 275.745 21.684 262.053 25.437 256.152 Z M 26.156 282.373 C 27.338 286.482 30.552 293.325 33.964 297.735 C 35.65 299.914 37.159 301.298 38.521 301.593 C 39.133 301.725 39.427 301.672 39.928 301.27 C 40.487 300.822 40.931 300.177 41.385 298.845 C 42.631 293.142 42.796 283.899 41.363 275.181 C 40.387 269.056 37.313 263.164 34.052 259.455 C 32.445 257.628 30.965 256.49 29.634 256.096 C 29.015 255.912 28.663 255.907 28.223 256.083 C 27.776 256.261 27.487 256.497 27.17 257.15 C 23.566 262.472 23.797 275.432 26.157 282.373 Z" style=""/>
  <path style="fill: none; stroke-width: 2;" d="M 4.125 257.404 C 0.734 258.642 -2.406 260.905 -6.492 265.043"/>
  <path d="M 3.541 256.592 C 3.541 256.592 0.266 258.048 -1.507 259.324 C -3.268 260.591 -5.136 262.248 -7.204 264.34 L -5.781 265.745 C -3.762 263.699 -2.018 262.155 -0.339 260.947 C 0.496 260.346 1.279 259.852 2.085 259.417 C 2.888 258.983 4.6 258.283 4.6 258.283 C 4.567 258.299 3.597 256.557 3.541 256.591 Z" style="fill: none;"/>
  <path d="M 7.07 257.46 C 5.702 257.055 3.713 257.262 1.323 258.075 C -0.731 258.773 -4.822 262.666 -6.89 264.758 L -6.193 265.436 C -4.174 263.39 -2.018 262.155 -0.339 260.947 C 3.557 258.726 7.07 257.46 7.07 257.46 Z" style="stroke-width: 1;"/>
  <path d="M -0.069 261.368 C -1.766 262.585 -3.872 263.782 -5.838 265.787 L -6.186 266.141 L -7.601 264.764 L -7.247 264.406 C -5.174 262.309 -0.985 258.355 1.161 257.601 C 3.606 256.776 5.746 256.566 7.211 256.98 L 8.706 257.403 L 7.238 257.93 C 7.238 257.93 3.778 259.173 -0.07 261.368 Z M -0.61 260.526 L -0.587 260.513 C 3.348 258.274 3.577 258.361 4.981 257.761 C 3.986 257.829 3.819 257.747 1.484 258.548 C -0.244 259.114 -3.548 262.153 -5.72 264.296 C -3.918 262.673 -2.154 261.639 -0.631 260.541 Z" style="fill: none;"/>
  <path style="stroke-width: 3; fill: rgb(158, 255, 46);" d="M 19.2 250.133 C 23.364 248.095 33.391 252.613 34.809 258.195 C 30.409 255.597 27.522 254.663 24.392 258.502"/>
  <path d="M 18.541 248.786 C 21.082 247.702 25.303 248.295 28.695 249.96 C 32.077 251.62 35.323 254.657 36.263 257.826 L 37.332 261.431 L 34.046 259.486 C 31.9 258.216 30.422 257.497 29.053 257.432 C 28.406 257.402 28.015 257.481 27.421 257.795 C 27.111 257.959 26.867 258.128 26.542 258.411 C 26.207 258.703 25.376 259.633 25.376 259.633 C 25.426 259.585 23.551 257.27 23.691 257.175 C 23.691 257.175 25.093 255.632 26.02 255.142 C 26.985 254.632 28.178 254.388 29.194 254.436 C 31.152 254.528 30.159 254.56 30.659 254.689 C 29.715 253.931 30.4 254.138 27.373 252.653 C 24.357 251.173 21.482 250.526 19.859 251.48 Z" style="fill: none;"/>
  <path d="M 18.541 248.786 C 21.082 247.702 25.303 248.295 28.695 249.96 C 32.077 251.62 35.323 254.657 36.263 257.826 L 37.332 261.431 L 34.046 259.486 C 31.9 258.216 30.422 257.497 29.053 257.432 C 28.406 257.402 28.015 257.481 27.421 257.795 C 27.111 257.959 26.867 258.128 26.542 258.411 C 26.207 258.703 24.144 258.855 24.144 258.855 C 24.194 258.807 24.946 256.84 25.761 256.18 C 26.791 255.346 28.178 254.388 29.194 254.436 C 31.152 254.528 30.159 254.56 30.659 254.689 C 29.715 253.931 30.4 254.138 27.373 252.653 C 24.357 251.173 21.482 250.526 19.859 251.48 L 18.541 248.786 Z" style="stroke-width: 1;"/>
  <path d="M 18.345 248.326 C 21.019 247.224 25.448 247.823 28.916 249.511 C 32.359 251.213 35.734 254.403 36.743 257.684 L 38.174 262.51 L 33.792 259.916 C 31.664 258.656 30.302 257.971 29.03 257.931 C 28.444 257.896 28.182 257.947 27.655 258.237 C 27.37 258.386 27.174 258.522 26.871 258.788 C 26.39 259.141 24.181 259.354 24.181 259.354 L 23.577 259.412 L 23.798 258.494 C 23.788 258.537 24.555 256.556 25.447 255.791 C 26.388 255.03 27.743 254.133 28.858 253.964 C 28.491 253.766 27.959 253.496 27.154 253.101 C 24.193 251.64 21.555 250.985 20.114 251.91 L 19.658 252.203 L 17.859 248.526 Z M 20.098 250.831 C 21.944 250.182 24.522 250.704 27.593 252.204 C 29.116 252.951 29.736 253.29 30.084 253.534 C 30.51 253.834 30.569 254.008 30.971 254.299 L 33.895 256.41 L 30.533 255.173 C 30.416 255.13 30.293 255.06 30.196 254.983 C 30.13 254.984 29.886 254.968 29.169 254.935 C 28.307 254.843 27.089 255.746 26.074 256.568 C 25.335 257.123 25.227 257.665 24.923 258.297 C 25.47 258.247 26.023 258.264 26.212 258.033 C 26.559 257.733 26.85 257.531 27.186 257.352 C 27.847 257.014 28.367 256.906 29.075 256.931 C 30.542 257.021 32.136 257.775 34.299 259.054 L 36.489 260.35 L 35.782 257.966 C 34.911 254.908 31.794 252.025 28.473 250.407 C 25.156 248.765 21.666 248.259 19.229 249.056 Z" style="fill: none;"/>
  <ellipse style="stroke-width: 2;" cx="8.636" cy="273.034" rx="4.067" ry="5.067"/>
  <path d="M 13.703 273.034 C 13.703 274.602 13.129 276.199 12.292 277.243 C 11.438 278.307 10.003 279.101 8.636 279.101 C 7.269 279.101 5.834 278.306 4.98 277.243 C 4.142 276.199 3.569 274.602 3.569 273.034 C 3.569 271.466 4.143 269.869 4.98 268.825 C 5.834 267.761 7.269 266.967 8.636 266.967 C 10.003 266.967 11.438 267.762 12.292 268.825 C 13.13 269.869 13.703 271.466 13.703 273.034 Z M 10.732 270.077 C 10.114 269.307 9.516 268.967 8.636 268.967 C 7.756 268.967 7.158 269.307 6.54 270.077 C 5.906 270.867 5.569 271.804 5.569 273.034 C 5.569 274.264 5.906 275.201 6.54 275.991 C 7.158 276.761 7.756 277.101 8.636 277.101 C 9.516 277.101 10.114 276.761 10.732 275.991 C 11.366 275.201 11.703 274.264 11.703 273.034 C 11.703 271.804 11.366 270.867 10.732 270.077 Z" style=""/>
  <ellipse style="stroke-width: 2;" cx="35.297" cy="267.414" rx="4.067" ry="5.067"/>
  <path d="M 40.364 267.414 C 40.364 268.982 39.79 270.579 38.953 271.623 C 38.099 272.687 36.664 273.481 35.297 273.481 C 33.93 273.481 32.495 272.686 31.641 271.623 C 30.803 270.579 30.23 268.982 30.23 267.414 C 30.23 265.846 30.804 264.249 31.641 263.205 C 32.495 262.141 33.93 261.347 35.297 261.347 C 36.664 261.347 38.099 262.142 38.953 263.205 C 39.791 264.249 40.364 265.846 40.364 267.414 Z M 37.393 264.457 C 36.775 263.687 36.177 263.347 35.297 263.347 C 34.417 263.347 33.819 263.687 33.201 264.457 C 32.567 265.247 32.23 266.184 32.23 267.414 C 32.23 268.644 32.567 269.581 33.201 270.371 C 33.819 271.141 34.417 271.481 35.297 271.481 C 36.177 271.481 36.775 271.141 37.393 270.371 C 38.027 269.581 38.364 268.644 38.364 267.414 C 38.364 266.184 38.027 265.247 37.393 264.457 Z" style=""/>
  <path style="stroke-width: 1;" d="M 33.208 341.864 C 11.411 344.337 -11.926 327.538 -16.024 310.192 C -10.027 315.417 18.258 318.608 37.359 312.491 L 33.208 341.864 Z"/>
  <path d="M 33.264 342.361 C 22.262 343.587 10.806 339.974 1.677 333.876 C -7.457 327.775 -14.413 319.079 -16.511 310.307 L -16.878 308.774 L -15.696 309.815 C -9.835 314.98 18.209 318.121 37.206 312.015 L 37.965 311.771 L 33.648 342.318 Z M 36.753 313.203 C 17.64 319.017 -7.222 316.171 -15.194 311.391 C -12.84 319.502 -6.777 327.027 2.232 333.044 C 11.245 339.064 22.093 342.529 32.767 341.409 Z" style=""/>
  <path style="fill: rgb(211, 60, 60); stroke-width: 1;" d="M -0.397 330.1 C 3.479 326.367 18.281 323.531 24.31 329.569 C 28.336 333.642 29.191 337.808 28.175 340.407 C 27.471 345.9 -0.658 332.138 -0.397 330.1 Z"/>
  <path d="M -0.744 329.74 C 1.284 327.818 6.105 326.099 11.107 325.672 C 16.104 325.246 21.513 326.128 24.666 329.217 C 26.716 331.302 28.004 333.46 28.611 335.39 C 29.225 337.342 29.168 339.168 28.657 340.548 C 28.569 340.955 28.368 341.347 28.053 341.605 C 27.749 341.854 27.288 342.035 26.821 342.117 C 25.923 342.273 24.674 342.171 23.279 341.89 C 20.512 341.333 16.89 340.047 13.332 338.537 C 9.775 337.027 6.235 335.274 3.611 333.776 C 2.295 333.025 1.189 332.325 0.427 331.752 C -0.353 331.166 -0.859 330.493 -0.892 330.036 L -0.902 329.891 Z M 1.027 330.954 C 1.756 331.503 2.81 332.169 4.106 332.909 C 6.705 334.393 10.192 336.119 13.722 337.618 C 17.252 339.116 20.778 340.368 23.475 340.911 C 24.813 341.18 25.874 341.268 26.648 341.133 C 27.017 341.069 27.232 340.985 27.418 340.833 C 27.593 340.69 27.665 340.597 27.679 340.344 L 27.682 340.294 L 27.71 340.226 C 28.201 339.012 28.223 337.49 27.657 335.692 C 27.084 333.871 25.931 331.91 23.955 329.922 C 21.079 326.973 16.072 326.254 11.192 326.67 C 6.316 327.086 2.101 328.547 0.145 330.28 C 0.266 330.397 0.317 330.42 1.028 330.955 Z" style=""/>
  <path style="fill: rgb(255, 255, 255); stroke-width: 1;" d="M 6.045 334.874 C 15.825 335.984 28.569 335.524 32.268 334.116 L 30.297 341.013 C 29.922 342.389 10.924 338.408 6.045 334.874 Z"/>
  <path d="M 6.101 334.377 C 15.844 335.486 28.471 335.04 32.09 333.649 L 33.024 333.29 L 32.749 334.254 L 30.78 341.145 C 30.655 341.372 30.39 341.624 30.153 341.691 C 29.954 341.747 29.666 341.781 29.362 341.789 C 28.772 341.806 27.943 341.747 26.975 341.627 C 25.049 341.39 22.461 340.906 19.747 340.271 C 14.322 339.002 8.264 337.081 5.753 335.278 L 4.195 334.159 Z M 19.974 339.298 C 22.666 339.928 25.202 340.402 27.097 340.635 C 28.039 340.751 28.794 340.805 29.334 340.789 C 29.578 340.782 29.737 340.765 29.857 340.735 L 31.534 334.865 C 26.9 336.065 17.753 336.402 8.331 335.601 C 11.231 336.968 14.587 338.036 19.975 339.297 Z" style=""/>
  <path style="fill: rgb(255, 255, 255); stroke-width: 1;" d="M -8.796 314.409 L -0.821 320.976 C 4.485 322.712 24.793 323.046 32.581 320.883 L 33.425 314.409 C 36.921 316.801 -2.917 318.432 -8.796 314.409 Z"/>
  <path d="M 33.034 321.277 L 32.715 321.365 C 24.856 323.537 4.403 323.2 -0.976 321.451 L -1.065 321.422 L -9.113 314.795 L -8.513 313.996 C -3.422 317.537 28.505 316.623 32.88 314.722 L 33.043 313.47 L 33.707 313.996 C 33.765 314.042 33.823 314.098 33.877 314.162 L 33.968 314.109 L 33.949 314.255 C 34.074 314.432 34.16 314.641 34.133 314.812 C 34.106 314.984 33.97 315.169 33.81 315.315 Z M -6.188 315.909 L -0.577 320.529 C 4.785 322.227 24.189 322.545 32.128 320.487 L 32.736 315.826 C 26.963 317.598 3.678 318.274 -6.187 315.909 Z" style=""/>
  <path style="fill: none; stroke-width: 2; stroke-linecap: round;" d="M -12.119 306.428 C -16.425 307.175 -18.666 309.284 -19.237 314.996"/>
  <path d="M -11.835 307.387 C -11.501 307.26 -11.261 306.965 -11.204 306.613 C -11.148 306.261 -11.284 305.905 -11.561 305.68 C -11.838 305.455 -12.215 305.396 -12.548 305.525 C -12.548 305.525 -12.471 305.496 -12.548 305.525 C -12.548 305.525 -14.498 305.948 -15.396 306.376 C -16.304 306.808 -17.173 307.442 -17.83 308.191 C -19.12 309.663 -19.919 311.921 -20.231 314.897 C -20.286 315.447 -19.885 315.937 -19.335 315.992 C -18.785 316.047 -18.295 315.646 -18.24 315.096 C -17.982 312.359 -17.374 310.707 -16.325 309.51 C -15.812 308.925 -15.277 308.535 -14.536 308.182 C -14.162 308.004 -13.793 307.866 -13.352 307.736 C -12.909 307.605 -11.833 307.388 -11.833 307.388 C -11.864 307.396 -11.833 307.388 -11.833 307.388 Z" style=""/>
  <path style="stroke-width: 2; fill: rgb(158, 255, 46);" d="M 20.722 316.023 C 28.873 314.807 31.715 315.337 42.309 310.636 C 35.533 305.065 27.251 288.91 26.563 286.422"/>
  <path d="M 20.847 317.015 C 20.847 317.015 22.805 316.738 23.68 316.627 C 24.555 316.516 25.374 316.419 26.166 316.322 C 27.749 316.127 29.236 315.927 30.794 315.617 C 33.899 315 37.363 313.921 42.714 311.55 L 44.204 310.89 L 42.943 309.864 C 36.294 304.451 28.177 288.549 27.526 286.156 L 25.598 286.689 C 26.323 289.272 33.839 303.869 40.489 310.339 C 36.056 312.236 33.406 313.059 30.403 313.656 C 28.907 313.953 27.493 314.143 25.92 314.337 C 25.133 314.434 24.311 314.532 23.428 314.643 C 22.546 314.754 20.595 315.031 20.595 315.031 C 20.592 315.031 20.849 317.015 20.846 317.015 Z" style=""/>
  <path style="stroke-width: 1;" d="M -5.244 229.568 L 0.55 237.491 C -8.863 239.136 -19.535 253.452 -23.572 259.367 L -32.559 247.069 C -25.372 239.663 -12.892 230.404 -5.244 229.568 Z"/>
  <path d="M 1.432 237.85 L 0.636 237.983 C -8.62 239.531 -19.128 253.742 -23.159 259.648 L -23.558 260.233 L -33.212 247.023 L -32.918 246.72 C -25.701 239.287 -13.068 229.954 -5.299 229.07 L -5.013 229.037 Z M -31.906 247.116 L -23.585 258.503 C -19.297 252.313 -9.683 239.507 -0.308 237.166 L -5.476 230.099 C -13.017 231.078 -24.71 239.79 -31.906 247.116 Z" style=""/>
  <path style="stroke-width: 1;" d="M 14.149 230.159 L 18.051 238.082 C 22.905 237.774 31.873 242.703 36.734 248.37 L 34.724 235.717 C 29.523 231.734 18.796 229.283 14.149 230.159 Z"/>
  <path d="M 37.506 250.044 L 36.354 248.695 C 31.562 243.084 22.8 238.242 18.082 238.58 L 17.75 238.604 L 13.407 229.786 L 14.055 229.667 C 18.804 228.793 29.729 231.291 35.027 235.319 L 35.185 235.439 Z M 14.899 230.551 L 18.357 237.572 C 23.359 237.499 30.879 241.624 35.981 246.817 L 34.262 235.994 C 29.12 232.132 19.735 229.995 14.9 230.551 Z" style=""/>
</svg>