<?xml version="1.0" encoding="utf-8"?>
<svg xmlns="http://www.w3.org/2000/svg" viewBox="280.6729 940.3888 108.2061 161.5945" width="108.206px" height="161.595px">
  <path style="stroke-width: 3; fill: rgb(158, 255, 46);" d="M 383.848 1092.06 C 366.689 1105.52 308.657 1105.06 285.297 1092.06 L 293.737 959.4 C 305.838 947.849 358.064 946.023 374.53 959.4 L 383.848 1092.06 Z" transform="matrix(1, 0, 0, 1, 0, -1.1368683772161603e-13)"/>
  <path d="M 384.774 1093.24 C 375.859 1100.119 356.596 1103.54 336.894 1103.482 C 317.201 1103.424 296.49 1099.955 284.568 1093.37 L 283.74 1092.913 L 292.278 958.708 L 292.701 958.314 C 299.117 952.347 315.706 948.781 332.476 948.551 C 349.238 948.321 366.894 951.389 375.476 958.235 L 375.98 958.637 L 385.4 1092.755 Z M 373.08 960.161 C 365.004 953.922 349.01 951.326 332.517 951.552 C 316.032 951.778 301.201 954.754 295.196 960.09 L 286.855 1091.201 C 298.412 1097.318 317.45 1100.426 336.903 1100.483 C 356.346 1100.54 373.775 1097.612 382.296 1091.36 Z" style="" transform="matrix(1, 0, 0, 1, 0, -1.1368683094535245e-13)"/>
  <path style="stroke-width: 3; fill: rgb(158, 255, 46); stroke-linecap: round;" d="M 353.389 955.993 C 345.984 960.474 323.088 959.831 313.422 955.849 L 313.422 944.476 C 323.998 938.909 341.678 939.145 353.416 944.476 L 353.389 955.993 Z" transform="matrix(1, 0, 0, 1, 0, -1.1368683772161603e-13)"/>
  <path d="M 354.166 957.276 C 346.352 961.865 322.782 961.274 312.851 957.236 L 311.922 956.858 L 311.922 943.563 L 312.723 943.149 C 323.658 937.496 341.998 937.713 354.036 943.111 L 354.918 943.507 L 354.887 956.854 Z M 351.914 945.45 C 340.54 940.569 325.209 940.339 314.922 945.392 L 314.922 954.824 C 324.784 958.426 344.2 959.034 351.891 955.116 Z" style="" transform="matrix(1, 0, 0, 1, 0, -1.1368683094535245e-13)"/>
  <g style="" transform="matrix(1.5205270051956177, 0, 0, 1.5205270051956177, 346.1345520019531, -524.2229614257814)">
    <path style="fill: none; stroke-linecap: round; stroke: rgb(255, 0, 0); stroke-width: 1.31533px;" d="M -19.899 1018.42 L -12.943 1030.85"/>
    <path style="fill: none; stroke-linecap: round; stroke: rgb(255, 0, 0); stroke-width: 1.31533px;" d="M -17.077 1017.05 L -8.589 1032.22"/>
    <path style="fill: none; stroke-linecap: round; stroke: rgb(255, 0, 0); stroke-width: 1.31533px;" d="M -14.379 1015.46 L -4.111 1033.81"/>
    <path style="fill: none; stroke-linecap: round; stroke: rgb(255, 0, 0); stroke-width: 1.31533px;" d="M -10.791 1015.46 L -0.523 1033.81"/>
    <path style="fill: none; stroke-linecap: round; stroke: rgb(255, 0, 0); stroke-width: 1.31533px;" d="M -6.313 1017.05 L 2.175 1032.22"/>
    <path style="fill: none; stroke-linecap: round; stroke: rgb(255, 0, 0); stroke-width: 1.31533px;" d="M -1.958 1018.42 L 4.998 1030.85"/>
  </g>
  <path style="fill: rgb(255, 255, 255); stroke-width: 2px;" d="M 306.192 1009.318 L 329.694 1021.638 C 328.999 1027.134 326.914 1037.368 322.302 1042.865 C 318.34 1047.303 307.093 1046.934 303.728 1038.127 C 301.832 1029.788 300.885 1015.573 306.192 1009.318 Z" transform="matrix(1, 0, 0, 1, 0, -1.1368683772161603e-13)"/>
  <path d="M 330.773 1021.075 L 330.686 1021.764 C 329.985 1027.297 327.767 1037.813 323.048 1043.532 C 320.823 1045.901 316.556 1047.123 312.622 1046.45 C 308.706 1045.779 304.677 1043.134 302.794 1038.485 L 302.771 1038.427 L 302.753 1038.35 C 300.846 1029.933 300.005 1015.284 305.43 1008.672 L 305.936 1008.055 Z M 304.69 1037.847 C 306.184 1041.952 309.42 1043.871 312.96 1044.477 C 316.482 1045.08 319.819 1044.268 321.556 1042.199 C 326.061 1036.924 327.849 1027.774 328.611 1022.2 L 306.453 1010.584 C 301.836 1016.777 302.813 1029.579 304.689 1037.847 Z" style="" transform="matrix(1, 0, 0, 1, 0, -1.1368683094535245e-13)"/>
  <path style="fill: rgb(255, 255, 255); stroke-width: 2px;" d="M 347.218 1049.1 L 370.72 1036.78 C 370.025 1031.28 367.94 1021.04 363.328 1015.54 C 359.366 1011.11 348.119 1011.48 344.754 1020.28 C 342.858 1028.63 341.911 1042.84 347.218 1049.1 Z" transform="matrix(-1, 0, 0, -1, 713.97399902, 2061.86010742)"/>
  <path d="M 343.82 1019.923 C 345.704 1015.278 349.733 1012.634 353.648 1011.963 C 357.581 1011.289 361.869 1012.533 364.094 1014.897 C 368.813 1020.619 371.011 1031.117 371.712 1036.654 L 371.799 1037.343 L 346.961 1050.363 L 346.455 1049.746 C 341.03 1043.129 341.871 1028.485 343.779 1020.058 L 343.797 1019.98 Z M 347.48 1047.834 L 369.638 1036.219 C 368.875 1030.64 367.067 1021.462 362.562 1016.183 C 360.825 1014.118 357.508 1013.331 353.986 1013.935 C 350.446 1014.542 347.21 1016.458 345.716 1020.56 C 343.84 1028.835 342.863 1041.633 347.48 1047.834 Z" style="" transform="matrix(-1, 0, 0, -1, 713.9739990234375, 2061.860107421875)"/>
  <path style="" d="M 328.992 1027.755 L 333.716 1018.982 C 326.906 1012.785 308.329 1000.502 299.748 999.074 L 293.337 1012.234 C 297.794 1012.53 321.916 1019.355 329.104 1027.643" transform="matrix(1, 0, 0, 1, 0, -1.1368683772161603e-13)"/>
  <path d="M 329.432 1027.992 L 334.156 1019.219 L 334.341 1018.875 L 334.052 1018.612 C 327.212 1012.391 308.507 1000.047 299.83 998.581 L 299.462 998.519 L 299.298 998.855 L 292.887 1012.015 L 292.561 1012.684 L 293.304 1012.732 C 297.71 1013.019 321.659 1019.758 328.726 1027.97 L 329.481 1027.315 C 322.172 1018.95 300.033 1012.665 294.096 1011.816 L 300.031 999.633 C 308.669 1001.302 326.101 1012.85 333.089 1019.091 L 328.551 1027.518 Z" style="" transform="matrix(1, 0, 0, 1, 0, -1.1368683094535245e-13)"/>
  <path style="stroke-width: 1;" d="M 374.152 999.018 L 378.876 1007.8 C 372.066 1013.99 353.489 1026.28 344.908 1027.7 L 338.497 1014.54 C 342.954 1014.25 367.076 1007.42 374.264 999.138" transform="matrix(-1, 0, 0, -1, 717.37200928, 2026.7199707)"/>
  <path d="M 374.592 998.781 L 379.316 1007.563 L 379.501 1007.907 L 379.212 1008.17 C 372.372 1014.384 353.667 1026.735 344.989 1028.193 L 344.622 1028.255 L 344.458 1027.919 L 338.047 1014.759 L 337.72 1014.088 L 338.464 1014.041 C 340.648 1013.903 347.722 1012.137 355.182 1009.367 C 358.914 1007.982 362.71 1006.356 366.031 1004.558 C 367.69 1003.659 369.212 1002.729 370.553 1001.76 C 371.222 1001.276 371.833 1000.793 372.396 1000.297 C 372.677 1000.049 372.938 999.805 373.189 999.555 C 373.44 999.305 373.911 998.783 373.911 998.783 C 373.905 998.789 374.606 999.502 374.595 999.512 C 374.595 999.512 373.641 1000.532 373.058 1001.047 C 372.475 1001.561 371.826 1002.074 371.14 1002.57 C 369.768 1003.561 368.191 1004.525 366.509 1005.436 C 363.147 1007.256 359.286 1008.91 355.532 1010.303 C 348.02 1013.092 342.101 1014.555 339.259 1014.957 L 345.194 1027.14 C 353.818 1025.488 371.25 1013.933 378.251 1007.689 L 373.713 999.253 Z" style="" transform="matrix(-1, 0, 0, -1, 717.3720092773438, 2026.719970703125)"/>
  <ellipse style="" cx="319.488" cy="1034.56" rx="1.406" ry="1.406" transform="matrix(1, 0, 0, 1, 0, -1.1368683772161603e-13)"/>
  <path d="M 321.394 1034.56 C 321.394 1035.05 321.153 1035.59 320.836 1035.908 C 320.519 1036.225 319.979 1036.466 319.488 1036.466 C 318.998 1036.466 318.458 1036.225 318.14 1035.908 C 317.823 1035.591 317.582 1035.051 317.582 1034.56 C 317.582 1034.07 317.823 1033.53 318.14 1033.212 C 318.457 1032.895 318.997 1032.654 319.488 1032.654 C 319.978 1032.654 320.518 1032.895 320.836 1033.212 C 321.153 1033.529 321.394 1034.069 321.394 1034.56 Z M 320.129 1033.919 C 319.938 1033.728 319.774 1033.654 319.488 1033.654 C 319.202 1033.654 319.039 1033.728 318.847 1033.919 C 318.656 1034.11 318.582 1034.274 318.582 1034.56 C 318.582 1034.846 318.656 1035.009 318.847 1035.201 C 319.038 1035.392 319.202 1035.466 319.488 1035.466 C 319.774 1035.466 319.937 1035.392 320.129 1035.201 C 320.32 1035.01 320.394 1034.846 320.394 1034.56 C 320.394 1034.274 320.32 1034.111 320.129 1033.919 Z" style="" transform="matrix(1, 0, 0, 1, 0, -1.1368683094535245e-13)"/>
  <ellipse style="stroke-width: 1;" cx="353.174" cy="1036.87" rx="1.406" ry="1.406" transform="matrix(1, 0, 0, 1, 0, -1.1368683772161603e-13)"/>
  <path d="M 355.08 1036.87 C 355.08 1037.36 354.839 1037.9 354.522 1038.218 C 354.205 1038.535 353.665 1038.776 353.174 1038.776 C 352.684 1038.776 352.144 1038.535 351.826 1038.218 C 351.509 1037.901 351.268 1037.361 351.268 1036.87 C 351.268 1036.38 351.509 1035.84 351.826 1035.522 C 352.143 1035.205 352.683 1034.964 353.174 1034.964 C 353.664 1034.964 354.204 1035.205 354.522 1035.522 C 354.839 1035.839 355.08 1036.379 355.08 1036.87 Z M 353.815 1036.229 C 353.624 1036.038 353.46 1035.964 353.174 1035.964 C 352.888 1035.964 352.725 1036.038 352.533 1036.229 C 352.342 1036.42 352.268 1036.584 352.268 1036.87 C 352.268 1037.156 352.342 1037.319 352.533 1037.511 C 352.724 1037.702 352.888 1037.776 353.174 1037.776 C 353.46 1037.776 353.623 1037.702 353.815 1037.511 C 354.006 1037.32 354.08 1037.156 354.08 1036.87 C 354.08 1036.584 354.006 1036.421 353.815 1036.229 Z" style="" transform="matrix(1, 0, 0, 1, 0, -1.1368683094535245e-13)"/>
  <path style="stroke-width: 2px; fill: rgb(255, 255, 255);" d="M 293.051 1042.203 C 311.828 1059.794 348.257 1065.026 376.821 1050.494 C 374.934 1058.251 368.433 1075.074 363.349 1081.584 C 353.335 1089.635 316.426 1086.529 309.805 1081.411 C 300.611 1073.159 292.981 1050.863 293.051 1042.203 Z" transform="matrix(1, 0, 0, 1, 0, -1.1368683772161603e-13)"/>
  <path d="M 293.735 1041.473 C 302.973 1050.171 316.49 1055.726 331.378 1057.401 C 346.278 1059.077 362.242 1056.82 376.368 1049.603 L 378.31 1048.611 L 377.793 1050.731 C 375.887 1058.55 369.294 1075.563 364.137 1082.2 L 364.063 1082.295 L 363.975 1082.364 C 358.707 1086.497 346.645 1087.848 335.268 1087.436 C 323.886 1087.023 312.66 1084.811 309.137 1082.156 C 299.804 1073.694 292.008 1051.022 292.051 1042.196 L 292.062 1039.9 Z M 310.448 1080.645 C 313.585 1083.097 324.109 1085.03 335.341 1085.437 C 346.577 1085.844 357.83 1084.737 362.63 1080.88 C 367.622 1074.458 372.925 1060.649 375.292 1052.353 C 361.336 1058.91 346.304 1061.093 331.154 1059.389 C 315.992 1057.683 303.639 1052.527 294.174 1044.536 C 295.177 1054.174 301.404 1072.586 310.448 1080.645 Z" style="" transform="matrix(1, 0, 0, 1, 0, -1.1368683094535245e-13)"/>
  <path style="fill: none; stroke-width: 2px;" d="M 372.676 1063.621 L 366.458 1070.702 L 361.449 1065.002 L 356.613 1073.293 L 351.086 1066.73 L 346.595 1074.329 L 338.822 1067.42 L 334.677 1075.711 L 328.459 1066.902 L 321.896 1072.429 L 318.959 1064.139 L 310.841 1068.802 L 308.769 1060.857 L 303.933 1064.484 L 303.069 1057.23 L 299.096 1059.475 L 294.951 1053.084" transform="matrix(1, 0, 0, 1, 0, -1.1368683772161603e-13)"/>
  <path d="M 373.427 1064.281 L 367.209 1071.362 L 366.458 1072.217 L 365.707 1071.362 L 361.614 1066.704 L 357.477 1073.796 L 356.762 1075.021 L 355.848 1073.936 L 351.229 1068.452 L 347.455 1074.837 L 346.837 1075.882 L 345.93 1075.075 L 339.132 1069.033 L 335.571 1076.157 L 334.824 1077.652 L 333.86 1076.286 L 328.27 1068.367 L 322.54 1073.192 L 321.435 1074.122 L 320.953 1072.761 L 318.417 1065.602 L 311.339 1069.668 L 310.204 1070.32 L 309.874 1069.053 L 308.178 1062.549 L 304.534 1065.282 L 303.146 1066.323 L 302.941 1064.6 L 302.255 1058.837 L 299.589 1060.343 L 298.77 1060.806 L 298.258 1060.017 L 294.113 1053.626 L 295.791 1052.538 L 299.424 1058.14 L 302.578 1056.358 L 303.885 1055.619 L 304.063 1057.11 L 304.722 1062.641 L 308.17 1060.055 L 309.362 1059.161 L 309.738 1060.602 L 311.48 1067.28 L 318.463 1063.269 L 319.503 1062.672 L 319.904 1063.803 L 322.359 1070.732 L 327.817 1066.135 L 328.65 1065.433 L 329.278 1066.323 L 334.532 1073.766 L 337.93 1066.97 L 338.514 1065.803 L 339.489 1066.67 L 346.355 1072.772 L 350.228 1066.218 L 350.945 1065.004 L 351.853 1066.083 L 356.466 1071.561 L 360.587 1064.495 L 361.286 1063.296 L 362.202 1064.338 L 366.46 1069.183 L 371.927 1062.957 Z" style="" transform="matrix(1, 0, 0, 1, 0, -1.1368683094535245e-13)"/>
  <path style="fill: none; stroke-width: 2px;" d="M 289.75 1051.73 C 289.398 1044.986 290.931 1037.238 296.462 1035.23" transform="matrix(1, 0, 0, 1, 0, -1.1368683772161603e-13)"/>
  <path d="M 288.751 1051.782 C 288.576 1048.343 288.883 1044.528 289.953 1041.382 C 290.492 1039.798 291.274 1038.268 292.258 1037.072 C 292.753 1036.47 293.356 1035.889 293.981 1035.432 C 294.606 1034.975 295.872 1034.423 295.872 1034.423 C 295.929 1034.387 296.903 1036.127 296.934 1036.112 C 296.934 1036.112 296.227 1036.402 295.943 1036.554 C 295.66 1036.706 295.419 1036.858 295.161 1037.046 C 294.645 1037.423 294.224 1037.829 293.802 1038.342 C 292.954 1039.374 292.338 1040.579 291.846 1042.026 C 290.855 1044.942 290.571 1048.373 290.748 1051.678 Z" style="fill: none;" transform="matrix(1, 0, 0, 1, 0, -1.1368683094535245e-13)"/>
  <path style="fill: rgb(158, 255, 46); stroke-width: 3px;" d="M 291.631 1028.663 C 275.789 1036.89 283.134 1059.802 288.961 1065.027" transform="matrix(1, 0, 0, 1, 0, -1.1368683772161603e-13)"/>
  <path d="M 290.252 1028.073 C 290.252 1028.073 283.867 1032.902 282.332 1036.491 C 280.796 1040.083 280.372 1044.25 280.675 1048.089 C 281.28 1055.761 284.868 1063.291 287.96 1066.144 L 289.963 1063.91 C 287.228 1061.538 284.23 1054.999 283.666 1047.853 C 283.384 1044.282 283.731 1040.852 285.091 1037.671 C 285.77 1036.083 286.625 1034.709 287.836 1033.387 C 288.444 1032.723 289.076 1032.143 289.836 1031.564 C 290.6 1030.982 292.541 1029.857 292.541 1029.857 C 292.489 1029.893 290.369 1027.885 290.253 1028.074 Z" style="fill: none;" transform="matrix(1, 0, 0, 1, 0, -1.1368683094535245e-13)"/>
  <path d="M 290.979 1051.79 C 290.979 1051.79 289.114 1044.64 290.184 1041.5 C 290.723 1039.91 291.254 1038.12 292.489 1037.19 C 294.66 1035.55 296.383 1035.61 297.801 1035.82 C 297.801 1035.82 295.148 1037.08 294.033 1038.46 C 293.193 1039.5 292.569 1040.69 292.077 1042.14 C 291.086 1045.06 290.802 1048.49 290.979 1051.79 Z" style="" transform="matrix(1, 0, 0, 1, 0, -1.1368683772161603e-13)"/>
  <path d="M 290.495 1051.916 C 290.495 1051.916 288.635 1044.623 289.71 1041.339 C 290.246 1039.758 290.863 1037.849 292.188 1036.79 C 294.518 1035.1 296.428 1035.112 297.874 1035.325 L 299.529 1035.568 L 298.015 1036.271 C 298.015 1036.271 295.449 1037.462 294.421 1038.774 C 293.608 1039.773 293.026 1040.886 292.55 1042.3 C 291.571 1045.16 291.3 1048.497 291.478 1051.763 Z M 291.604 1041.979 C 292.111 1040.493 292.778 1039.227 293.645 1038.146 C 294.847 1036.697 295.239 1036.722 296.076 1036.208 C 295.112 1036.267 294.803 1035.999 292.791 1037.589 C 291.645 1038.39 291.2 1040.061 290.658 1041.661 C 289.593 1044.657 290.293 1045.161 290.564 1047.126 C 290.732 1045.33 290.601 1044.96 291.604 1041.98 Z" style="fill: none;" transform="matrix(1, 0, 0, 1, 0, -1.1368683094535245e-13)"/>
  <path style="fill: rgb(158, 255, 46); stroke-width: 3;" d="M 387.473 1068.6 C 371.631 1060.37 378.976 1037.46 384.803 1032.23" transform="matrix(-1, 0, 0, -1, 765.39398193, 2100.84008789)"/>
  <path d="M 386.781 1069.931 C 382.593 1067.692 379.708 1064.359 378.173 1060.77 C 376.637 1057.177 376.213 1053.01 376.516 1049.172 C 376.819 1045.331 377.85 1041.487 379.15 1038.383 C 380.461 1035.251 383.419 1031.651 383.419 1031.651 C 383.48 1031.535 386.019 1033.104 386.068 1033.036 C 386.068 1033.036 384.542 1034.691 383.86 1035.763 C 383.168 1036.85 382.524 1038.092 381.917 1039.542 C 380.695 1042.461 379.788 1045.84 379.507 1049.409 C 379.225 1052.98 379.572 1056.411 380.932 1059.592 C 382.294 1062.777 384.431 1065.394 388.164 1067.27 Z" style="fill: none;" transform="matrix(-1, 0, 0, -1, 765.3939819335938, 2100.840087890625)"/>
  <path d="M 372.496 1043.68 C 372.496 1043.68 370.631 1050.83 371.701 1053.97 C 372.24 1055.56 372.771 1057.35 374.006 1058.28 C 376.177 1059.92 377.9 1059.86 379.318 1059.65 C 379.318 1059.65 376.665 1058.39 375.55 1057.01 C 374.71 1055.97 374.086 1054.78 373.594 1053.33 C 372.603 1050.41 372.319 1046.98 372.496 1043.68 Z" style="stroke-width: 1;" transform="matrix(-1, 0, 0, -1, 750.68798828, 2103.43994141)"/>
  <path d="M 374.067 1053.169 C 374.544 1054.583 375.125 1055.696 375.938 1056.695 C 376.966 1058.006 379.532 1059.198 379.532 1059.198 L 381.046 1059.901 L 379.391 1060.144 C 377.945 1060.357 376.035 1060.369 373.705 1058.679 C 372.381 1057.62 371.764 1055.712 371.228 1054.131 C 370.153 1050.847 372.012 1043.554 372.012 1043.554 L 372.995 1043.707 C 372.818 1046.973 373.089 1050.309 374.067 1053.17 Z M 372.08 1048.345 C 371.81 1050.31 371.109 1050.813 372.174 1053.809 C 372.716 1055.408 373.161 1057.079 374.306 1057.881 C 376.318 1059.471 376.628 1059.203 377.592 1059.262 C 376.755 1058.748 376.363 1058.773 375.161 1057.324 C 374.294 1056.243 373.628 1054.976 373.12 1053.49 C 372.117 1050.51 371.903 1051.678 372.08 1048.344 Z" style="fill: none;" transform="matrix(-1, 0, 0, -1, 750.68798828125, 2103.43994140625)"/>
  <path d="M 294.223 1026.997 C 294.171 1027.033 283.904 1032.286 282.332 1036.491 C 280.964 1040.15 280.643 1044.238 280.675 1048.089 C 280.775 1060.303 292.066 1070.051 292.066 1070.051 C 290.088 1067.258 284.314 1056.85 283.666 1047.853 C 283.409 1044.28 283.731 1040.852 285.091 1037.671 C 285.77 1036.083 287.645 1032.901 289.499 1031.06 C 291.353 1029.219 294.223 1026.997 294.223 1026.997 Z" style="" transform="matrix(1, 0, 0, 1, 0, -1.1368683772161603e-13)"/>
  <path d="M 289.851 1031.415 C 288.042 1033.211 286.215 1036.308 285.55 1037.868 C 284.209 1040.974 283.907 1044.286 284.164 1047.818 C 284.781 1056.712 290.51 1066.993 292.473 1069.763 L 294.909 1073.199 L 291.739 1070.431 C 291.739 1070.431 280.361 1060.496 280.175 1048.095 C 280.144 1044.222 280.481 1040.045 281.864 1036.318 C 283.556 1031.978 293.915 1026.607 293.939 1026.588 L 294.53 1027.394 C 294.53 1027.394 291.684 1029.597 289.852 1031.416 Z M 289.616 1030.239 C 286.764 1032.059 284.245 1032.614 282.8 1036.666 C 281.447 1040.257 281.142 1044.255 281.175 1048.085 C 281.188 1060.112 286.174 1063.036 289.495 1066.757 C 286.995 1062.163 283.846 1056.989 283.167 1047.889 C 282.91 1044.275 283.252 1040.73 284.631 1037.475 C 285.324 1035.858 287.247 1032.591 289.146 1030.706 C 289.333 1030.52 289.488 1030.366 289.616 1030.24 Z" style="fill: none;" transform="matrix(1, 0, 0, 1, 0, -1.1368683094535245e-13)"/>
  <path d="M 388.879 1073.62 C 388.827 1073.59 378.56 1068.33 376.988 1064.13 C 375.62 1060.47 375.299 1056.38 375.331 1052.53 C 375.431 1040.32 386.722 1030.57 386.722 1030.57 C 384.744 1033.36 378.97 1043.77 378.322 1052.77 C 378.065 1056.34 378.387 1059.77 379.747 1062.95 C 380.426 1064.54 382.301 1067.72 384.155 1069.56 C 386.009 1071.4 388.879 1073.62 388.879 1073.62 Z" style="stroke-width: 1;" transform="matrix(-1, 0, 0, -1, 764.20800781, 2104.17993164)"/>
  <path d="M 388.629 1074.053 C 388.588 1074.029 378.212 1068.64 376.52 1064.305 C 375.137 1060.577 374.8 1056.397 374.831 1052.526 C 375.018 1040.129 386.395 1030.192 386.395 1030.192 L 389.573 1027.416 L 387.129 1030.86 C 385.166 1033.627 379.437 1043.91 378.82 1052.807 C 378.563 1056.336 378.865 1059.65 380.206 1062.755 C 380.87 1064.316 382.697 1067.411 384.506 1069.206 C 386.338 1071.024 389.184 1073.225 389.184 1073.225 Z M 384.271 1070.379 C 384.146 1070.255 383.992 1070.102 383.803 1069.915 C 381.904 1068.03 379.981 1064.766 379.287 1063.147 C 377.908 1059.892 377.566 1056.346 377.823 1052.735 C 378.502 1043.632 381.649 1038.462 384.148 1033.868 C 380.827 1037.591 375.844 1040.512 375.83 1052.535 C 375.797 1056.363 376.102 1060.364 377.455 1063.956 C 378.901 1068.003 381.422 1068.563 384.27 1070.381 Z" style="fill: none;" transform="matrix(-1, 0, 0, -1, 764.2080078125, 2104.179931640625)"/>
  <path style="fill: none; stroke-linecap: round; stroke-width: 2px;" d="M 306.752 964.181 C 319.878 969.77 350.223 970.184 363.665 964.181" transform="matrix(1, 0, 0, 1, 0, -1.1368683772161603e-13)"/>
  <path d="M 307.062 963.23 C 306.537 963.059 305.972 963.346 305.801 963.871 C 305.63 964.396 305.917 964.961 306.442 965.132 C 306.442 965.132 306.423 965.125 306.442 965.132 C 306.442 965.132 308.131 965.804 309.097 966.119 C 310.061 966.433 311.099 966.731 312.17 967.002 C 314.309 967.543 316.673 968.004 319.145 968.373 C 324.084 969.11 329.599 969.503 335.086 969.529 C 346.059 969.581 357.212 968.136 364.074 965.095 C 364.578 964.87 364.805 964.278 364.579 963.774 C 364.354 963.27 363.762 963.043 363.258 963.269 C 356.678 966.231 345.937 967.581 335.096 967.529 C 329.676 967.503 324.303 967.12 319.441 966.395 C 317.013 966.033 314.747 965.591 312.662 965.063 C 311.621 964.8 310.648 964.521 309.718 964.218 C 308.79 963.916 307.063 963.231 307.063 963.231 C 307.082 963.238 307.063 963.231 307.063 963.231 Z" style="" transform="matrix(1, 0, 0, 1, 0, -1.1368683094535245e-13)"/>
  <path style="fill: none; stroke-width: 2px; stroke-linecap: round;" d="M 319.438 947.263 C 324.149 949.769 341.313 950.839 348.106 947.263" transform="matrix(1, 0, 0, 1, 0, -1.1368683772161603e-13)"/>
  <path d="M 319.708 946.3 C 319.356 946.244 319.001 946.382 318.779 946.66 C 318.556 946.938 318.5 947.315 318.631 947.646 C 318.762 947.977 319.061 948.213 319.414 948.263 C 319.414 948.263 319.345 948.257 319.414 948.263 C 319.414 948.263 327.169 950.408 332.967 950.544 C 338.76 950.679 344.994 949.991 348.571 948.148 C 349.06 947.891 349.247 947.286 348.99 946.797 C 348.733 946.308 348.128 946.121 347.639 946.378 C 344.423 948.111 338.679 948.676 333.013 948.544 C 330.183 948.478 327.454 948.227 325.113 947.837 C 323.947 947.642 322.917 947.42 322.013 947.167 C 321.119 946.916 319.707 946.301 319.707 946.301 C 319.746 946.314 319.707 946.301 319.707 946.301 Z" style="" transform="matrix(1, 0, 0, 1, 0, -1.1368683094535245e-13)"/>
</svg>