<?xml version="1.0" encoding="utf-8"?>
<svg xmlns="http://www.w3.org/2000/svg" viewBox="285.428 461.029 117.7001 153.093" width="117.7px" height="153.093px">
  <path style="stroke-width: 3; fill: rgb(158, 255, 46);" d="M 388.348 604.411 C 371.81 617.584 315.877 617.132 293.362 604.411 C 291.94 607.73 293.024 487.412 295.718 481.126 C 307.381 469.82 357.981 463.041 373.851 476.135 C 376.631 487.52 389.653 604.411 388.348 604.411 Z"/>
  <path d="M 343.092 615.621 C 324.853 615.566 305.699 612.427 294.022 606.464 L 294.74 605.001 C 294.684 605.116 294.533 605.381 294.396 605.519 C 294.182 605.735 293.489 605.967 293.012 605.931 C 292.881 605.86 292.752 605.788 292.623 605.716 L 293.006 605.931 C 292.925 605.925 292.85 605.91 292.786 605.887 C 292.301 605.711 291.865 605.017 291.8 604.802 C 291.729 604.569 291.67 604.179 291.631 603.79 C 291.558 603.055 291.496 601.881 291.444 600.375 C 291.342 597.376 291.278 592.902 291.25 587.439 C 291.194 576.519 291.28 561.58 291.495 546.349 C 291.925 515.887 292.93 483.951 294.338 480.535 L 294.452 480.258 L 294.673 480.048 C 300.817 474.213 316.836 469.47 333.069 467.986 C 349.299 466.502 366.463 468.262 374.804 474.977 L 375.187 475.285 L 375.307 475.778 C 376.713 481.557 380.68 513.72 384.121 544.374 C 385.841 559.701 387.435 574.68 388.516 585.823 C 389.057 591.397 389.471 596.025 389.708 599.255 C 389.827 600.875 389.903 602.17 389.928 603.052 C 389.941 603.503 389.94 603.899 389.924 604.166 C 389.915 604.321 389.889 604.535 389.855 604.675 C 389.829 604.782 389.744 605.019 389.661 605.158 C 389.51 605.41 388.811 605.756 388.345 605.91 L 389.242 605.613 C 380.619 612.332 362.058 615.677 343.089 615.62 Z M 386.94 603.609 C 386.94 603.478 386.937 603.323 386.931 603.138 C 386.907 602.302 386.835 601.074 386.717 599.476 C 386.481 596.269 386.07 591.676 385.531 586.114 C 384.451 574.984 382.86 560.029 381.14 544.71 C 377.701 514.072 373.877 482.577 372.503 476.97 C 364.819 470.866 349.296 469.516 333.343 470.974 C 317.394 472.432 302.715 476.608 297.006 481.967 C 295.768 486.067 294.926 515.952 294.496 546.391 C 294.281 561.61 294.195 576.521 294.251 587.424 C 294.279 592.873 294.343 597.303 294.443 600.273 C 294.491 601.675 294.545 602.716 294.606 603.388 C 305.696 609.474 324.641 612.565 343.1 612.621 C 361.469 612.676 378.795 609.788 386.939 603.609 Z" style=""/>
  <path style="stroke-width: 3; fill: rgb(158, 255, 46);" d="M 354.132 475.598 C 349.517 479.797 322.802 480.917 315.608 477.397 L 316.394 466.222 C 326.068 460.284 339.399 459.319 351.202 463.945 L 354.132 475.598 Z"/>
  <path d="M 355.141 476.707 C 352.454 478.991 344.151 480.521 335.904 480.89 C 327.663 481.259 318.822 480.578 314.949 478.744 L 314.04 478.314 L 314.952 465.341 L 315.609 464.944 C 325.621 458.897 339.618 457.873 351.749 462.549 L 352.467 462.826 L 355.814 476.137 Z M 349.936 465.062 C 338.677 460.803 327.103 461.632 317.836 467.101 L 317.179 476.441 C 320.919 477.814 327.702 478.254 335.77 477.893 C 343.833 477.532 349.801 476.61 352.437 475.008 Z" style=""/>
  <path style="stroke-width: 2px; fill: rgb(234, 27, 27);" d="M 377.46 506.93 C 355.268 513.605 312.621 512.841 294.095 508.281 L 294.095 493.229 C 312.042 497.346 358.355 498.505 375.916 491.107 L 377.46 506.93 Z"/>
  <path d="M 377.748 507.888 C 355.403 514.584 312.493 513.827 293.856 509.252 L 293.095 509.065 L 293.095 491.973 L 294.319 492.254 C 312.167 496.358 358.174 497.544 375.528 490.185 L 376.779 489.654 L 378.535 507.651 Z M 375.049 492.523 C 356.519 499.414 313.941 498.378 295.095 494.47 L 295.095 507.492 C 313.893 511.875 354.137 512.607 376.384 506.204 Z" style=""/>
  <path style="stroke-width: 2px; fill: rgb(161, 29, 29);" d="M 384.793 498.054 C 382.618 491.802 378.665 491.722 376.688 493.229 L 377.846 504.036 C 377.913 505.435 385.09 504.3 384.793 498.054 Z"/>
  <path d="M 376.852 504.143 L 375.632 492.757 L 376.082 492.434 C 377.257 491.592 379.266 491.083 381.043 491.806 C 382.737 492.495 384.537 494.416 385.737 497.726 L 385.787 497.864 L 385.791 498.007 C 385.843 499.743 385.384 501.294 384.677 502.37 C 383.957 503.466 382.876 504.316 381.905 504.806 C 380.916 505.304 379.796 505.562 379.011 505.571 C 378.587 505.576 378.085 505.494 377.765 505.35 C 377.375 505.175 376.983 504.625 376.85 504.143 Z M 378.802 503.568 C 378.851 503.57 378.912 503.571 378.991 503.57 C 379.562 503.564 380.23 503.41 381.006 503.019 C 381.801 502.619 382.462 502.101 383.006 501.272 C 383.564 500.422 383.869 499.555 383.803 498.247 C 382.835 495.402 381.61 494.196 380.29 493.659 C 379.053 493.156 378.46 493.284 377.745 493.706 Z" style=""/>
  <path style="stroke-width: 2px; fill: rgb(234, 27, 27);" d="M 381.948 499.658 C 386.172 503.246 404.806 585.08 403.006 600.514 C 398.11 600.053 396.861 599.289 390.261 602.73 L 378.9 502.706 C 378.876 500.39 379.235 497.353 381.948 499.658 Z"/>
  <path d="M 382.595 498.896 C 386.983 502.755 405.79 585.027 403.999 600.63 L 403.886 601.611 L 402.912 601.51 C 397.802 600.978 396.831 600.159 390.723 603.617 L 389.438 604.345 L 377.901 502.768 L 377.901 502.717 C 377.89 501.523 377.994 499.911 378.526 498.961 C 378.832 498.414 379.605 497.831 380.333 497.837 C 380.952 497.842 381.802 498.247 382.597 498.897 Z M 380.316 499.836 C 380.315 499.836 380.314 499.836 380.313 499.836 C 380.31 499.856 380.298 499.888 380.27 499.938 C 379.95 500.51 379.888 501.541 379.899 502.644 L 391.097 601.232 C 397.065 598.499 398.157 599.046 402.096 599.428 C 403.105 581.978 385.361 503.739 381.301 500.421 C 380.739 499.919 380.527 499.839 380.316 499.837 Z" style=""/>
  <path style="" d="M 324.78 515.723 L 327.01 525.122 C 331.735 520.578 350.782 519.275 359.351 520.502 L 358.077 508.872 C 346.769 508.931 332.614 512.147 324.78 515.723 Z"/>
  <path d="M 359.918 521.089 L 359.28 520.997 C 350.763 519.772 331.925 521.008 327.356 525.482 L 326.727 526.098 L 324.198 515.438 L 324.572 515.268 C 332.454 511.676 346.712 508.437 358.074 508.372 L 358.525 508.369 Z M 325.362 516.009 L 327.311 524.225 C 332.994 520.048 349.886 518.846 358.785 519.923 L 357.63 509.375 C 346.465 509.506 333.218 512.517 325.363 516.008 Z" style=""/>
  <path style="" d="M 311.238 514.926 L 309.485 522.573 C 304.913 519.269 294.596 516.123 288.456 516.838 L 285.428 504.889 C 296.1 505.798 305.458 509.792 311.238 514.926 Z"/>
  <path d="M 309.803 523.422 L 309.192 522.978 C 304.694 519.711 294.552 516.61 288.514 517.334 L 288.079 517.386 L 284.77 504.33 L 285.47 504.39 C 296.219 505.318 305.722 509.374 311.57 514.551 L 311.792 514.747 Z M 286.086 505.451 L 288.835 516.299 C 295.081 515.771 304.257 518.566 309.161 521.748 L 310.684 515.105 C 304.967 510.114 296.386 506.452 286.086 505.451 Z" style=""/>
  <path style="fill: none; stroke-width: 2px; stroke-linecap: round;" d="M 303.272 559.375 L 341.508 562.562"/>
  <path d="M 302.275 559.292 C 302.321 558.742 302.804 558.333 303.355 558.379 L 341.591 561.566 C 342.141 561.612 342.55 562.095 342.504 562.646 C 342.458 563.196 341.975 563.605 341.424 563.559 L 303.188 560.372 C 302.638 560.326 302.229 559.843 302.275 559.292 Z" style=""/>
  <path style="fill: none; stroke-width: 2px; stroke-linecap: round;" d="M 340.871 559.375 C 342.433 561.016 342.611 563.745 341.986 565.429"/>
  <path d="M 340.182 558.651 C 340.582 558.27 341.215 558.286 341.596 558.686 C 342.479 559.666 343.06 561.029 343.239 562.241 C 343.329 562.851 343.344 563.52 343.292 564.094 C 343.24 564.674 342.983 565.52 342.983 565.52 C 342.974 565.582 342.983 565.52 342.983 565.52 C 342.933 566.07 342.447 566.476 341.897 566.426 C 341.347 566.376 340.941 565.89 340.991 565.34 C 340.991 565.34 341 565.278 340.991 565.34 C 340.991 565.34 341.259 564.371 341.3 563.914 C 341.342 563.452 341.332 563.02 341.26 562.532 C 341.115 561.548 340.826 560.726 340.147 560.065 C 339.766 559.665 339.782 559.032 340.182 558.651 Z" style=""/>
  <path style="fill: none; stroke-linecap: round; stroke-width: 2px;" d="M 299.767 484.019 C 307.892 488.671 357.918 488.966 370.026 481.947"/>
  <path d="M 300.066 483.065 C 299.717 482.992 299.356 483.112 299.119 483.379 C 298.883 483.646 298.807 484.019 298.921 484.357 C 299.035 484.695 299.322 484.946 299.671 485.014 C 299.671 485.014 299.624 485.007 299.671 485.014 C 299.671 485.014 306.305 487.063 312.374 487.64 C 318.426 488.215 325.874 488.471 333.416 488.359 C 348.498 488.136 364.275 486.386 370.526 482.812 C 371.004 482.535 371.167 481.923 370.89 481.445 C 370.613 480.967 370.001 480.804 369.523 481.081 C 363.666 484.526 348.376 486.137 333.387 486.359 C 325.894 486.47 318.555 486.218 312.564 485.649 C 309.574 485.365 306.958 485.006 304.82 484.573 C 303.757 484.358 302.847 484.132 302.061 483.885 C 301.285 483.641 300.066 483.065 300.066 483.065 C 300.105 483.079 300.066 483.065 300.066 483.065 Z" style=""/>
  <path style="" d="M 328.139 526.182 C 326.608 527.938 325.636 531.773 326.027 535.068 L 323.186 537.69 C 323.082 538.521 342.86 540.399 347.95 539.802 C 345.214 539.641 329.526 537.019 328.503 535.651 C 327.984 535.755 327.854 529.246 328.139 526.182 Z"/>
  <path d="M 328.903 535.352 C 329.767 536.623 345.269 539.145 347.979 539.303 L 348.008 540.299 C 345.421 540.599 339.153 540.28 333.575 539.78 C 330.786 539.53 328.15 539.235 326.222 538.95 C 325.255 538.807 324.449 538.664 323.894 538.531 C 323.61 538.463 323.361 538.389 323.196 538.319 C 323.103 538.28 322.988 538.217 322.919 538.161 C 322.818 538.079 322.72 537.815 322.69 537.629 L 322.667 537.49 L 325.504 534.872 C 325.198 531.542 326.177 527.714 327.762 525.855 L 328.784 524.657 L 328.637 526.23 C 328.496 527.743 328.458 530.105 328.519 532.091 C 328.55 533.082 328.604 533.958 328.683 534.586 C 328.715 534.843 328.748 535.036 328.783 535.178 L 328.784 535.178 Z M 328.197 536.069 C 328.128 536.027 328.037 535.934 327.999 535.879 C 327.941 535.795 327.883 535.657 327.849 535.545 C 327.788 535.343 327.734 535.044 327.692 534.709 C 327.609 534.05 327.552 533.127 327.521 532.12 C 327.459 530.111 327.384 529.634 327.528 528.083 C 326.666 529.955 326.128 531.805 326.525 535.009 L 326.556 535.261 L 324.081 537.546 C 324.097 537.55 324.113 537.554 324.13 537.558 C 324.656 537.684 325.418 537.82 326.371 537.96 C 328.281 538.242 330.889 538.535 333.667 538.784 C 339.225 539.282 338.784 539.196 341.139 539.308 C 335.635 538.341 330.318 537.592 328.268 536.1 C 328.241 536.091 328.286 536.123 328.198 536.07 Z" style=""/>
  <path style="fill: none; stroke-width: 2px; stroke-linecap: round;" d="M 319.148 524.184 C 319.16 526.277 319.626 527.912 322.29 528.96"/>
  <path d="M 320.131 524 C 320.029 523.457 319.507 523.1 318.964 523.201 C 318.421 523.303 318.064 523.825 318.165 524.368 C 318.165 524.368 318.157 524.308 318.165 524.368 C 318.165 524.368 318.188 525.326 318.286 525.85 C 318.385 526.379 318.58 526.969 318.853 527.454 C 319.388 528.405 320.45 529.281 321.924 529.89 C 322.438 530.092 323.018 529.839 323.221 529.326 C 323.423 528.812 323.17 528.232 322.657 528.029 C 321.467 527.591 320.964 527.125 320.597 526.473 C 320.419 526.157 320.328 525.88 320.253 525.481 C 320.177 525.077 320.132 523.999 320.132 523.999 C 320.14 524.059 320.132 523.999 320.132 523.999 Z" style="fill: none;"/>
  <path d="M 319.839 525.067 C 319.763 524.663 319.507 522.149 319.088 521.215 C 318.669 520.281 318.064 523.825 318.165 524.368 C 318.165 524.368 318.188 525.326 318.286 525.85 C 318.385 526.379 318.58 526.969 318.853 527.454 C 319.388 528.405 320.45 529.281 321.924 529.89 C 322.438 530.092 323.018 529.839 323.221 529.326 C 323.423 528.812 323.17 528.232 322.657 528.029 C 321.467 527.591 320.964 527.125 320.597 526.473 C 320.419 526.157 319.914 525.466 319.839 525.067 Z" style=""/>
  <path d="M 321.033 526.228 C 321.352 526.819 321.735 527.178 322.841 527.564 C 323.184 527.723 323.528 528.045 323.666 528.361 C 323.804 528.677 323.804 529.15 323.686 529.51 C 323.527 529.853 323.205 530.197 322.889 530.335 C 322.573 530.473 322.093 530.471 321.733 530.353 C 320.195 529.706 319.011 528.721 318.417 527.7 C 318.125 527.171 317.902 526.504 317.794 525.943 C 317.702 525.438 317.671 524.585 317.666 524.412 L 317.673 524.46 C 317.62 524.112 317.747 522.989 317.944 522.127 C 318.043 521.692 318.175 521.253 318.314 520.999 C 318.399 520.843 318.636 520.599 318.849 520.567 C 318.991 520.545 319.245 520.63 319.346 520.724 C 319.418 520.79 319.502 520.917 319.544 521.012 C 319.995 522.018 320.257 524.593 320.33 524.976 C 320.361 525.274 320.838 525.888 321.032 526.229 Z M 319.348 525.159 C 319.29 524.847 319.14 523.446 318.912 522.381 C 318.731 523.185 318.609 524.084 318.657 524.276 L 318.664 524.305 L 318.665 524.355 C 318.665 524.355 318.684 525.273 318.778 525.757 C 318.869 526.254 319.036 526.767 319.289 527.208 C 319.765 528.089 320.705 528.856 322.115 529.427 C 322.269 529.511 322.337 529.483 322.49 529.417 C 322.643 529.35 322.712 529.312 322.756 529.142 C 322.84 528.988 322.815 528.913 322.749 528.76 C 322.682 528.607 322.643 528.537 322.474 528.494 C 321.208 528.006 320.577 527.431 320.162 526.718 C 320 526.427 319.467 525.659 319.348 525.159 Z" style="fill: none;"/>
  <path style="" d="M 305.703 537.68 C 303.541 537.715 296.166 536.067 295.031 534.798 C 294.646 534.798 295.58 525.294 296.121 523.269 C 294.801 525.143 292.543 535.036 292.928 535.421 L 290.513 537.135 C 293.034 538.346 300.537 538.457 305.703 537.68 Z"/>
  <path d="M 292.454 535.145 C 292.436 534.721 292.406 534.566 292.587 533.537 C 292.767 532.517 293.058 531.169 293.4 529.784 C 294.085 527.016 295.018 523.99 295.712 522.982 L 297.361 520.589 L 296.604 523.399 C 296.34 524.379 295.979 527.22 295.726 529.842 C 295.6 531.152 295.503 532.391 295.462 533.305 C 295.441 533.76 295.435 534.118 295.444 534.367 C 295.447 534.433 295.45 534.482 295.453 534.52 C 296.624 535.704 303.623 537.221 305.694 537.181 L 305.776 538.175 C 300.569 538.955 292.921 538.822 290.295 537.586 L 289.524 537.223 Z M 301.617 537.593 C 298.777 536.984 296.004 536.492 294.713 535.188 L 295.031 535.298 C 294.856 535.237 294.608 535.102 294.556 535.004 C 294.525 534.945 294.495 534.85 294.483 534.79 C 294.463 534.693 294.45 534.55 294.445 534.405 C 294.434 534.127 294.442 533.727 294.463 533.259 C 294.505 532.328 294.604 531.064 294.731 529.745 C 294.985 527.108 294.853 528.529 294.921 527.924 C 294.73 528.607 295.049 527.28 294.371 530.023 C 294.032 531.394 293.748 532.708 293.572 533.71 C 293.397 534.702 293.258 535.173 293.282 535.067 L 293.085 535.923 L 291.52 537.033 C 293.866 537.96 296.492 538.366 301.617 537.592 Z" style=""/>
  <path style="fill: none; stroke-linecap: round; stroke-width: 2px;" d="M 323.142 468.84 C 326.37 470.579 338.839 471.282 345.554 467.873"/>
  <path d="M 323.403 467.875 C 323.05 467.826 322.698 467.971 322.481 468.253 C 322.264 468.536 322.216 468.913 322.354 469.241 C 322.492 469.569 322.796 469.798 323.15 469.84 C 323.15 469.84 323.069 469.834 323.15 469.84 C 323.15 469.84 328.608 471.321 333.048 471.287 C 337.474 471.253 342.493 470.518 346.007 468.765 C 346.499 468.515 346.696 467.913 346.446 467.421 C 346.196 466.929 345.594 466.732 345.102 466.982 C 341.901 468.637 337.328 469.255 333.033 469.288 C 330.891 469.304 328.898 469.165 327.209 468.914 C 326.37 468.789 325.649 468.644 325.017 468.473 C 324.397 468.305 323.403 467.875 323.403 467.875 C 323.445 467.888 323.403 467.875 323.403 467.875 Z" style=""/>
</svg>