<?xml version="1.0" encoding="utf-8"?>
<svg xmlns="http://www.w3.org/2000/svg" viewBox="-67.388 -12.6946 92.0495 158.1716" width="92.0495px" height="158.172px">
  <path style="fill: rgb(158, 255, 46); stroke-width: 3px;" d="M -4.538 2.579 L -39.204 2.438 L -39.204 -8.694 C -30.031 -14.143 -14.696 -13.912 -4.515 -8.694 L -4.538 2.579" transform="matrix(1, 0, 0, 1, 5.684341886080802e-14, 0)"/>
  <path d="M -4.544 4.079 L -39.21 3.938 L -40.704 3.932 L -40.704 2.438 L -40.704 -8.694 L -40.704 -9.558 L -39.97 -9.984 C -30.403 -15.538 -14.343 -15.33 -3.831 -10.029 L -3.013 -9.617 L -3.015 -8.691 L -3.038 2.582 L -6.038 2.576 L -6.017 -7.77 C -15.802 -12.504 -28.863 -12.731 -37.704 -7.831 L -37.704 0.944 C -37.704 0.944 -4.532 1.079 -4.532 1.079 Z" style="" transform="matrix(1, 0, 0, 1, 5.684341886080802e-14, 0)"/>
  <path style="fill: rgb(158, 255, 46); stroke-width: 3px;" d="M 21.881 135.766 C 6.998 148.939 -43.337 148.487 -63.599 135.766 L -56.278 5.914 C -45.782 -5.392 -0.483 -7.18 13.799 5.914 L 21.881 135.766 Z" transform="matrix(1, 0, 0, 1, 5.684341886080802e-14, 0)"/>
  <path d="M 22.875 136.889 C 15.08 143.65 -1.724 147.033 -18.847 146.976 C -35.959 146.919 -54.004 143.499 -64.397 137.036 L -65.147 136.57 L -57.745 5.277 L -57.378 4.894 C -51.752 -0.979 -37.265 -4.509 -22.683 -4.735 C -8.11 -4.961 7.304 -1.922 14.812 4.809 L 15.257 5.208 L 23.423 136.414 Z M 12.34 6.616 C 5.396 0.546 -8.365 -1.957 -22.636 -1.736 C -36.898 -1.515 -49.661 1.357 -54.811 6.545 L -62.051 134.957 C -52.073 140.91 -35.679 143.92 -18.837 143.976 C -2.006 144.032 13.006 141.202 20.338 135.118 Z" style="" transform="matrix(1, 0, 0, 1, 5.684341886080802e-14, 0)"/>
  <path style="" d="M -33.708 17.234 C -45.268 16.89 -59.45 26.852 -64.006 30.621 L -67.388 18.362 C -64.139 15.77 -52.191 10.579 -34.836 9.343 L -33.708 17.234 Z" transform="matrix(1, 0, 0, 1, 5.684341886080802e-14, 0)"/>
  <path d="M -33.723 17.734 C -45.132 17.345 -59.147 27.249 -63.687 31.006 L -64.282 31.499 L -67.957 18.176 L -67.699 17.971 C -64.394 15.345 -52.308 10.1 -34.871 8.844 L -34.406 8.811 L -33.128 17.754 Z M -35.265 9.875 C -52.275 11.145 -63.281 15.936 -66.817 18.553 L -63.728 29.751 C -58.605 25.667 -45.884 16.77 -34.286 16.728 Z" style="" transform="matrix(1, 0, 0, 1, 5.684341886080802e-14, 0)"/>
  <path style="stroke-width: 1;" d="M 24.784 21.673 C 13.224 22.017 -0.958 12.055 -5.514 8.286 L -8.896 20.545 C -4.869 23.215 6.301 28.328 23.656 29.564 L 24.784 21.673 Z" transform="matrix(-1, 0, 0, -1, 15.76547623, 37.85004806)"/>
  <path d="M 23.62 30.063 C 6.179 28.805 -5.112 23.651 -9.173 20.962 L -9.475 20.762 L -5.791 7.409 L -5.196 7.902 C -0.656 11.659 13.36 21.564 24.768 21.174 L 25.362 21.154 L 24.084 30.097 Z M 24.206 22.18 C 12.645 22.162 -0.113 13.241 -5.236 9.156 L -8.317 20.325 C -4.087 23.023 6.224 27.76 23.227 29.031 Z" style="" transform="matrix(-1, 0, 0, -1, 15.76547622680664, 37.85004806518555)"/>
  <g style="" transform="matrix(-1, 0, 0, 1, 164.49348449707037, -70.10187530517578)">
    <path style="stroke: rgb(0, 0, 0); fill: rgb(255, 255, 255); stroke-width: 2px;" d="M 179.157 128.795 C 178.647 138.252 175.485 144.869 168.357 144.529 C 164.033 144.607 159.056 142.248 155.157 137.862 C 148.161 128.201 158.494 109.739 161.424 105.995 C 165.78 99.995 172.713 99.862 176.224 106.395 C 178.674 110.616 179.405 123.595 179.157 128.795 Z"/>
    <ellipse style="stroke: rgb(0, 0, 0); stroke-width: 2px;" cx="170.291" cy="128.529" rx="4.067" ry="5.067"/>
  </g>
  <path style="fill: none; stroke-width: 2px;" d="M -53.619 84.285 C -41.474 94.465 -4.532 97.337 13.148 84.285" transform="matrix(1, 0, 0, 1, 5.684341886080802e-14, 0)"/>
  <path d="M -54.041 85.192 C -54.041 85.192 -50.667 87.6 -48.41 88.65 C -46.161 89.697 -43.574 90.621 -40.814 91.38 C -35.306 92.893 -28.878 93.816 -22.339 93.997 C -9.27 94.359 4.696 91.705 13.742 85.09 L 12.554 83.481 C 3.919 89.918 -9.425 92.354 -22.284 91.998 C -28.709 91.82 -34.898 90.932 -40.285 89.451 C -42.973 88.712 -45.402 87.844 -47.567 86.837 C -48.647 86.334 -49.624 85.815 -50.54 85.254 C -50.997 84.974 -51.418 84.697 -51.83 84.404 C -52.241 84.111 -53.04 83.471 -53.04 83.471 C -53.025 83.482 -54.091 85.166 -54.042 85.192 Z" style="" transform="matrix(1, 0, 0, 1, 5.684341886080802e-14, 0)"/>
  <path style="fill: none; stroke-linecap: round; stroke-width: 2px;" d="M -49.663 82.318 C -53.859 83.023 -55.651 85.917 -54.993 89.164" transform="matrix(1, 0, 0, 1, 5.684341886080802e-14, 0)"/>
  <path d="M -49.341 83.265 C -49.015 83.121 -48.791 82.813 -48.753 82.458 C -48.716 82.103 -48.871 81.756 -49.161 81.547 C -49.45 81.338 -49.829 81.3 -50.154 81.447 C -50.154 81.447 -50.073 81.41 -50.154 81.447 C -50.154 81.447 -52.025 81.893 -52.85 82.357 C -53.69 82.83 -54.448 83.503 -54.956 84.197 C -55.974 85.59 -56.304 87.549 -55.974 89.362 C -55.864 89.903 -55.337 90.253 -54.795 90.143 C -54.254 90.033 -53.904 89.506 -54.014 88.964 C -54.341 87.531 -54.104 86.419 -53.342 85.377 C -52.96 84.854 -52.525 84.468 -51.869 84.099 C -51.536 83.911 -51.209 83.765 -50.803 83.627 C -50.392 83.487 -49.342 83.264 -49.342 83.264 C -49.381 83.276 -49.342 83.264 -49.342 83.264 Z" style="" transform="matrix(1, 0, 0, 1, 5.684341886080802e-14, 0)"/>
  <path style="fill: none; stroke-linecap: round; stroke-width: 2px;" d="M 14.112 88.383 C 9.916 87.678 8.124 84.784 8.782 81.537" transform="matrix(-1, 0, 0, -1, 22.76140213, 169.92001343)"/>
  <path d="M 15.098 88.549 C 15.006 89.094 14.491 89.461 13.946 89.369 C 11.673 88.952 9.824 87.877 8.819 86.503 C 8.307 85.803 7.925 84.908 7.764 84.064 C 7.604 83.226 7.799 81.724 7.799 81.724 C 7.79 81.623 7.799 81.724 7.799 81.724 C 7.766 81.369 7.926 81.023 8.218 80.818 C 8.51 80.613 8.889 80.58 9.212 80.731 C 9.535 80.882 9.752 81.195 9.781 81.551 C 9.781 81.551 9.778 81.598 9.781 81.551 C 9.781 81.551 9.654 82.404 9.649 82.748 C 9.644 83.09 9.668 83.37 9.729 83.689 C 9.85 84.323 10.055 84.805 10.434 85.322 C 11.21 86.383 12.354 87.108 14.278 87.396 C 14.823 87.488 15.19 88.003 15.098 88.548 Z" style="" transform="matrix(-1, 0, 0, -1, 22.761402130126953, 169.92001342773438)"/>
  <path style="fill: rgb(255, 255, 255); stroke-width: 2;" d="M -26.306 58.693 C -26.816 68.15 -29.978 74.767 -37.106 74.427 C -41.43 74.505 -46.407 72.146 -50.306 67.76 C -57.302 58.099 -46.969 39.637 -44.039 35.893 C -39.683 29.893 -32.75 29.76 -29.239 36.293 C -26.789 40.514 -26.058 53.493 -26.306 58.693 Z" transform="matrix(1, 0, 0, 1, 5.684341886080802e-14, 0)"/>
  <path d="M -25.307 58.747 C -25.574 63.56 -26.544 67.831 -28.376 70.764 C -30.24 73.748 -33.281 75.509 -37.107 75.427 C -41.654 75.457 -47.057 72.852 -51.116 68.347 C -54.706 63.164 -53.951 55.681 -51.844 49.295 C -49.735 42.9 -46.334 37.214 -44.831 35.284 C -42.488 32.153 -39.27 30.358 -36.309 30.394 C -33.336 30.431 -30.308 32.336 -28.373 35.792 C -25.856 40.236 -25.059 53.496 -25.306 58.748 Z M -30.104 36.795 C -31.68 33.718 -33.874 32.423 -36.335 32.393 C -38.808 32.363 -41.218 33.626 -43.23 36.48 C -44.659 38.3 -47.904 43.733 -49.945 49.92 C -51.989 56.117 -52.896 62.648 -49.532 67.125 C -45.797 71.372 -41.225 73.552 -37.124 73.426 C -33.844 73.669 -31.699 72.307 -30.072 69.703 C -28.414 67.048 -27.548 63.284 -27.304 58.642 C -27.056 53.492 -27.72 40.792 -30.103 36.794 Z" style="" transform="matrix(1, 0, 0, 1, 5.684341886080802e-14, 0)"/>
  <ellipse style="stroke-width: 2;" cx="-35.172" cy="58.427" rx="4.067" ry="5.067" transform="matrix(1, 0, 0, 1, 5.684341886080802e-14, 0)"/>
  <path d="M -30.105 58.427 C -30.105 59.995 -30.679 61.592 -31.516 62.636 C -32.37 63.7 -33.805 64.494 -35.172 64.494 C -36.539 64.494 -37.974 63.699 -38.828 62.636 C -39.666 61.592 -40.239 59.995 -40.239 58.427 C -40.239 56.859 -39.665 55.262 -38.828 54.218 C -37.974 53.154 -36.539 52.36 -35.172 52.36 C -33.805 52.36 -32.37 53.155 -31.516 54.218 C -30.678 55.262 -30.105 56.859 -30.105 58.427 Z M -33.076 55.47 C -33.694 54.7 -34.292 54.36 -35.172 54.36 C -36.052 54.36 -36.65 54.7 -37.268 55.47 C -37.902 56.26 -38.239 57.197 -38.239 58.427 C -38.239 59.657 -37.902 60.594 -37.268 61.384 C -36.65 62.154 -36.052 62.494 -35.172 62.494 C -34.292 62.494 -33.694 62.154 -33.076 61.384 C -32.442 60.594 -32.105 59.657 -32.105 58.427 C -32.105 57.197 -32.442 56.26 -33.076 55.47 Z" style="" transform="matrix(1, 0, 0, 1, 5.684341886080802e-14, 0)"/>
</svg>