<?xml version="1.0" encoding="utf-8"?>
<svg xmlns="http://www.w3.org/2000/svg" viewBox="257.3856 -30.8529 101.2845 175.3216" width="101.284px" height="175.322px">
  <path style="stroke-width: 3; fill: rgb(158, 255, 46);" d="M 322.262 -15.579 L 287.596 -15.719 L 287.596 -26.859 C 296.769 -32.299 312.104 -32.069 322.285 -26.859 L 322.262 -15.579"/>
  <path d="M 322.256 -14.079 L 287.59 -14.219 L 286.096 -14.225 L 286.096 -15.719 L 286.096 -26.859 L 286.096 -27.723 L 286.831 -28.149 C 296.398 -33.694 312.457 -33.486 322.968 -28.194 L 323.787 -27.782 L 323.785 -26.856 L 323.762 -15.576 L 320.762 -15.582 L 320.783 -25.934 C 310.998 -30.66 297.938 -30.886 289.096 -25.995 L 289.096 -17.213 L 322.268 -17.079 Z" style="fill: none;"/>
  <path d="M 322.256 -14.079 L 287.59 -14.219 L 286.096 -14.225 L 286.096 -15.719 L 286.096 -26.859 L 286.096 -27.723 L 286.831 -28.149 C 296.398 -33.694 312.457 -33.486 322.968 -28.194 L 323.787 -27.782 L 323.785 -26.856 L 323.762 -15.576 L 320.762 -15.582 L 320.783 -25.934 C 310.998 -30.66 297.938 -30.886 289.096 -25.995 L 289.096 -17.213 L 322.268 -17.079 Z" style=""/>
  <path d="M 287.588 -13.719 L 285.596 -13.727 L 285.596 -28.011 L 286.58 -28.581 C 296.276 -34.16 312.572 -33.959 323.192 -28.64 L 324.287 -28.089 L 324.284 -26.854 L 324.26 -15.074 L 322.759 -15.077 L 322.753 -13.576 Z M 321.764 -16.08 L 323.263 -16.077 L 323.285 -26.857 L 323.286 -27.474 L 322.743 -27.747 C 312.341 -33.012 296.52 -33.227 287.081 -27.716 L 286.595 -27.434 L 286.595 -14.722 L 287.591 -14.718 L 321.757 -14.58 Z M 288.596 -16.715 L 288.596 -26.291 L 288.854 -26.433 C 297.821 -31.355 311.111 -31.136 321 -26.385 L 321.283 -26.249 L 321.263 -16.584 Z M 320.282 -25.62 C 310.64 -30.189 298.306 -30.413 289.596 -25.7 L 289.596 -17.712 L 320.266 -17.588 Z" style="fill: none;"/>
  <path style="stroke-width: 3; fill: rgb(158, 255, 46);" d="M 353.736 116.931 C 339.864 129.43 278.408 128.978 258.143 116.257 C 258.07 88.07 256.104 27.957 270.522 -12.249 C 281.018 -23.549 326.317 -25.339 340.599 -12.249 C 347.445 17.459 357.183 78.215 353.736 116.931 Z"/>
  <path d="M 354.74 118.045 C 347.42 124.478 328.081 127.693 308.326 127.551 C 288.581 127.409 267.757 123.993 257.345 117.527 L 256.645 117.092 L 256.643 116.26 C 256.57 88.096 254.648 27.727 269.11 -12.756 L 269.217 -13.056 L 269.423 -13.271 C 275.049 -19.141 289.536 -22.67 304.118 -22.896 C 318.691 -23.122 334.105 -20.085 341.613 -13.356 L 341.955 -13.05 L 342.062 -12.587 C 348.918 17.171 358.672 78.162 355.231 117.063 L 355.178 117.66 Z M 339.242 -11.457 C 332.334 -17.59 318.435 -20.117 304.164 -19.896 C 289.902 -19.675 276.867 -16.743 271.831 -11.456 C 257.569 28.466 259.532 86.873 259.64 115.415 C 269.72 121.386 288.83 124.411 308.347 124.551 C 327.854 124.691 345.392 122.002 352.293 116.202 C 355.596 77.65 346.077 18.201 339.241 -11.457 Z" style="fill: none;"/>
  <path d="M 354.74 118.045 C 347.42 124.478 328.081 127.693 308.326 127.551 C 288.581 127.409 267.757 123.993 257.345 117.527 L 256.645 117.092 L 256.643 116.26 C 256.57 88.096 254.648 27.727 269.11 -12.756 L 269.217 -13.056 L 269.423 -13.271 C 275.049 -19.141 289.536 -22.67 304.118 -22.896 C 318.691 -23.122 334.105 -20.085 341.613 -13.356 L 341.955 -13.05 L 342.062 -12.587 C 348.918 17.171 358.672 78.162 355.231 117.063 L 355.178 117.66 Z M 339.242 -11.457 C 332.334 -17.59 318.435 -20.117 304.164 -19.896 C 289.902 -19.675 276.867 -16.743 271.831 -11.456 C 257.569 28.466 259.532 86.873 259.64 115.415 C 269.72 121.386 288.83 124.411 308.347 124.551 C 327.854 124.691 345.392 122.002 352.293 116.202 C 355.596 77.65 346.077 18.201 339.241 -11.457 Z" style=""/>
  <path d="M 355.07 118.421 C 347.626 124.913 328.12 128.19 308.322 128.051 C 288.538 127.906 267.584 124.452 257.081 117.952 L 256.146 117.371 L 256.143 116.262 C 256.07 88.105 254.163 27.652 268.639 -12.923 L 268.782 -13.324 L 268.856 -13.401 L 269.062 -13.616 C 274.809 -19.556 289.473 -23.162 304.11 -23.395 C 318.735 -23.616 334.32 -20.516 341.946 -13.728 L 342.406 -13.316 L 342.442 -13.162 L 342.549 -12.699 C 349.408 17.076 359.168 78.145 355.729 117.107 L 355.658 117.903 Z M 354.698 117.417 L 354.733 117.019 C 358.176 78.18 348.428 17.267 341.575 -12.474 L 341.504 -12.782 L 341.28 -12.982 C 333.891 -19.652 318.647 -22.625 304.126 -22.395 C 289.599 -22.176 275.289 -18.724 269.784 -12.924 L 269.652 -12.786 L 269.581 -12.587 C 255.133 27.804 257.07 88.088 257.143 116.26 L 257.144 116.815 L 257.609 117.104 C 267.93 123.536 288.623 126.914 308.33 127.053 C 328.042 127.198 347.214 124.046 354.41 117.671 Z M 339.728 -11.569 C 346.567 18.106 356.092 77.632 352.791 116.245 L 352.773 116.453 L 352.614 116.585 C 345.59 122.441 327.889 125.188 308.343 125.051 C 288.789 124.908 269.553 121.848 259.385 115.845 L 259.141 115.701 L 259.14 115.417 C 259.032 86.882 257.084 28.39 271.36 -11.624 L 271.396 -11.725 L 271.469 -11.8 C 276.631 -17.158 289.843 -20.168 304.156 -20.395 C 318.476 -20.612 332.544 -18.022 339.574 -11.83 L 340.566 -10.956 L 339.869 -10.956 Z M 338.789 -11.19 C 331.961 -17.186 318.31 -19.62 304.171 -19.396 C 289.96 -19.181 277.229 -16.355 272.266 -11.188 C 258.057 28.638 260.019 86.477 260.139 115.128 C 270.194 120.972 288.871 123.914 308.351 124.051 C 327.818 124.194 344.925 121.604 351.813 115.952 C 355.061 77.522 345.62 18.502 338.79 -11.19 Z" style="fill: none;"/>
  <ellipse style="stroke-width: 2; fill: rgb(255, 255, 255);" cx="293.277" cy="85.737" rx="15.725" ry="21.955" transform="matrix(1, 0, -0.06413, 1, -1.50129, -42.236694)"/>
  <path d="M 310.002 85.737 C 310.002 91.952 308.144 97.746 305.209 101.844 C 302.252 105.972 297.884 108.692 293.277 108.692 C 288.67 108.692 284.301 105.972 281.345 101.844 C 278.41 97.746 276.552 91.953 276.552 85.737 C 276.552 79.522 278.41 73.728 281.345 69.63 C 284.302 65.502 288.67 62.782 293.277 62.782 C 297.884 62.782 302.253 65.502 305.209 69.63 C 308.144 73.728 310.002 79.521 310.002 85.737 Z M 303.583 70.795 C 300.848 66.977 297.354 64.782 293.277 64.782 C 289.2 64.782 285.706 66.976 282.971 70.795 C 280.214 74.644 278.552 79.827 278.552 85.737 C 278.552 91.647 280.214 96.831 282.971 100.679 C 285.706 104.497 289.2 106.692 293.277 106.692 C 297.354 106.692 300.848 104.498 303.583 100.679 C 306.34 96.83 308.002 91.647 308.002 85.737 C 308.002 79.827 306.34 74.643 303.583 70.795 Z" style="fill: none;" transform="matrix(1, 0, -0.06413000822067261, 1, -1.501289963722229, -42.2366943359375)"/>
  <path d="M 310.002 85.737 C 310.002 91.952 308.144 97.746 305.209 101.844 C 302.252 105.972 297.884 108.692 293.277 108.692 C 288.67 108.692 284.301 105.972 281.345 101.844 C 278.41 97.746 276.552 91.953 276.552 85.737 C 276.552 79.522 278.41 73.728 281.345 69.63 C 284.302 65.502 288.67 62.782 293.277 62.782 C 297.884 62.782 302.253 65.502 305.209 69.63 C 308.144 73.728 310.002 79.521 310.002 85.737 Z M 303.583 70.795 C 300.848 66.977 297.354 64.782 293.277 64.782 C 289.2 64.782 285.706 66.976 282.971 70.795 C 280.214 74.644 278.552 79.827 278.552 85.737 C 278.552 91.647 280.214 96.831 282.971 100.679 C 285.706 104.497 289.2 106.692 293.277 106.692 C 297.354 106.692 300.848 104.498 303.583 100.679 C 306.34 96.83 308.002 91.647 308.002 85.737 C 308.002 79.827 306.34 74.643 303.583 70.795 Z" style="" transform="matrix(1, 0, -0.06413000822067261, 1, -1.501289963722229, -42.2366943359375)"/>
  <path d="M 310.502 85.737 C 310.502 92.028 308.585 97.968 305.615 102.135 C 302.587 106.33 298.016 109.192 293.277 109.192 C 288.538 109.192 283.966 106.33 280.938 102.135 C 277.968 97.968 276.052 92.029 276.052 85.737 C 276.052 79.446 277.969 73.506 280.939 69.339 C 283.967 65.144 288.538 62.282 293.277 62.282 C 298.016 62.282 302.588 65.144 305.616 69.339 C 308.586 73.506 310.502 79.445 310.502 85.737 Z M 304.803 69.921 C 301.918 65.86 297.752 63.282 293.277 63.282 C 288.802 63.282 284.637 65.86 281.751 69.921 C 278.851 73.95 277.052 79.598 277.052 85.737 C 277.052 91.877 278.851 97.524 281.751 101.553 C 284.636 105.614 288.802 108.192 293.277 108.192 C 297.752 108.192 301.917 105.614 304.803 101.553 C 307.703 97.524 309.502 91.876 309.502 85.737 C 309.502 79.597 307.703 73.95 304.803 69.921 Z M 308.502 85.737 C 308.502 91.723 306.781 97.052 303.989 100.97 C 301.184 104.855 297.486 107.192 293.277 107.192 C 289.067 107.192 285.37 104.854 282.565 100.97 C 279.773 97.053 278.052 91.723 278.052 85.737 C 278.052 79.751 279.773 74.422 282.565 70.504 C 285.37 66.619 289.068 64.282 293.277 64.282 C 297.487 64.282 301.184 66.62 303.989 70.504 C 306.781 74.421 308.502 79.751 308.502 85.737 Z M 303.177 71.086 C 300.512 67.334 297.221 65.282 293.277 65.282 C 289.333 65.282 286.042 67.333 283.378 71.086 C 280.656 74.866 279.052 79.903 279.052 85.737 C 279.052 91.571 280.655 96.609 283.377 100.388 C 286.042 104.14 289.333 106.192 293.277 106.192 C 297.221 106.192 300.512 104.141 303.176 100.388 C 305.898 96.608 307.502 91.571 307.502 85.737 C 307.502 79.903 305.899 74.865 303.177 71.086 Z" style="fill: none;" transform="matrix(1, 0, -0.0641300156712532, 1, -1.5012898445129395, -42.2366943359375)"/>
  <path style="stroke-width: 2; fill: rgb(158, 255, 46);" d="M 273.039 22.645 C 279.316 23.199 297.38 28.655 302.593 33.488 C 302.248 23.395 299.547 20.911 298.458 17.899"/>
  <path d="M 272.851 23.627 C 272.851 23.627 274.624 23.846 275.709 24.054 C 276.799 24.263 278.012 24.534 279.329 24.864 C 281.967 25.524 284.936 26.397 287.891 27.409 C 293.802 29.432 299.444 31.896 301.913 34.222 L 303.712 35.917 L 303.593 33.455 C 303.087 23.011 300.356 20.374 299.399 17.56 L 297.518 18.24 C 298.739 21.45 301.007 23.417 301.509 31.4 C 298.386 29.311 294.532 27.568 288.539 25.517 C 285.542 24.491 282.492 23.594 279.815 22.924 C 277.131 22.252 273.282 21.676 273.282 21.676 C 273.255 21.67 272.871 23.632 272.851 23.628 Z" style="fill: none;"/>
  <path d="M 272.851 23.627 C 272.851 23.627 274.624 23.846 275.709 24.054 C 276.799 24.263 278.012 24.534 279.329 24.864 C 281.967 25.524 284.936 26.397 287.891 27.409 C 293.802 29.432 299.444 31.896 301.913 34.222 L 303.712 35.917 L 303.593 33.455 C 303.087 23.011 300.356 20.374 299.399 17.56 L 297.518 18.24 C 298.739 21.45 301.007 23.417 301.509 31.4 C 298.386 29.311 294.532 27.568 288.539 25.517 C 285.542 24.491 282.492 23.594 279.815 22.924 C 277.131 22.252 273.282 21.676 273.282 21.676 C 273.255 21.67 272.871 23.632 272.851 23.628 Z" style="fill: none;"/>
  <path d="M 273.735 23.233 L 273.732 23.238 C 274.272 23.308 274.877 23.387 275.804 23.564 C 276.901 23.775 278.128 24.049 279.451 24.38 C 282.099 25.043 285.088 25.922 288.053 26.937 C 293.983 28.967 299.715 31.486 302.256 33.859 L 303.153 34.704 L 303.094 33.48 C 302.664 23.204 300.236 20.939 299.108 18.198 L 298.172 18.536 C 299.367 21.399 301.42 23.213 302.008 31.369 L 302.081 32.386 L 301.231 31.816 C 298.144 29.747 294.348 28.033 288.377 25.99 C 285.39 24.967 282.361 24.076 279.694 23.409 C 277.588 22.881 274.752 22.413 273.661 22.241 C 273.629 22.389 273.593 22.561 273.557 22.734 C 273.457 23.213 273.49 23.051 273.456 23.198 Z M 272.351 24.156 L 272.351 24.069 L 272.215 24.052 L 272.351 23.61 L 272.351 23.062 L 272.471 23.077 C 272.498 22.928 272.535 22.736 272.578 22.53 C 272.628 22.288 272.679 22.046 272.719 21.865 C 272.739 21.774 272.757 21.693 272.771 21.636 C 272.778 21.606 272.787 21.572 272.794 21.549 C 272.799 21.534 272.81 21.502 272.818 21.482 C 272.826 21.464 272.85 21.417 272.87 21.389 C 272.887 21.364 272.942 21.304 272.982 21.275 C 273.049 21.225 273.227 21.187 273.355 21.182 C 273.355 21.182 277.228 21.763 279.935 22.439 C 282.622 23.112 285.692 24.015 288.7 25.044 C 294.715 27.104 297.931 28.565 300.944 30.442 C 300.398 23.454 298.34 21.728 297.049 18.418 L 296.864 17.944 L 299.711 16.915 L 299.87 17.399 C 300.764 20.114 303.508 22.819 304.09 33.431 L 304.269 37.131 L 301.568 34.586 C 299.17 32.307 293.619 29.898 287.727 27.882 C 284.782 26.873 281.834 26.006 279.205 25.349 C 277.894 25.02 276.695 24.753 275.612 24.545 C 274.558 24.342 272.835 24.129 272.788 24.123 L 272.749 24.118 Z" style="fill: none;"/>
  <path d="M 273.102 24.449 C 273.102 24.449 274.437 24.262 275.085 24.222 C 275.734 24.181 276.372 24.172 277.043 24.192 C 278.386 24.231 279.729 24.382 281.122 24.63 C 283.911 25.128 286.695 25.988 289.379 27.059 C 294.741 29.198 299.4 32.057 301.943 34.247 L 303.681 35.744 L 303.594 33.451 C 303.414 28.707 302.956 26.196 302.404 24.58 C 301.816 22.859 298.992 20.614 298.992 20.614 C 299.962 22.603 300.293 23.855 300.762 25.227 C 301.267 26.704 301.285 28.184 301.489 31.357 C 298.819 29.074 295.641 27.404 290.12 25.202 C 287.362 24.102 284.383 23.182 281.474 22.662 C 280.017 22.402 280.375 22.436 278.629 22.434 C 276.883 22.432 273.128 24.447 273.104 24.45 L 273.102 24.449 Z" style="stroke-width: 1;"/>
  <path d="M 276.46 23.476 L 276 23.685 C 276.349 23.679 276.701 23.681 277.058 23.692 C 278.422 23.732 279.801 23.887 281.21 24.138 C 284.029 24.643 286.862 25.517 289.565 26.595 C 294.965 28.753 299.695 31.655 302.27 33.869 L 303.139 34.617 L 303.096 33.471 C 302.92 28.762 302.475 26.323 301.932 24.743 C 301.425 23.137 301.036 23.208 300.363 22.519 C 300.722 23.462 300.773 23.712 301.236 25.067 C 301.754 26.622 301.785 28.167 301.989 31.327 L 302.065 32.512 L 301.165 31.739 C 298.541 29.487 295.433 27.859 289.936 25.668 C 287.197 24.575 284.266 23.669 281.387 23.156 C 280.652 23.025 280.402 22.973 280.122 22.952 C 279.836 22.93 279.508 22.937 278.629 22.936 C 278.063 22.935 277.252 23.172 276.434 23.482 Z M 273.166 24.946 L 273.044 24.979 L 273.017 24.966 L 269.901 25.4 L 271.957 24.436 L 271.44 24.177 L 272.958 23.964 C 273.476 23.699 276.906 21.932 278.63 21.934 C 279.497 21.935 279.863 21.927 280.199 21.953 C 280.541 21.98 280.84 22.041 281.562 22.17 C 284.501 22.697 287.528 23.631 290.305 24.738 C 295.85 26.951 298.375 28.29 300.92 30.253 C 300.716 27.067 300.78 26.789 300.289 25.39 C 299.815 24.001 299.496 22.778 298.543 20.834 L 297.542 18.792 L 299.304 20.223 C 299.304 20.223 302.209 22.583 302.878 24.419 C 303.439 26.071 303.911 28.653 304.094 33.433 L 304.225 36.873 L 301.618 34.627 C 299.107 32.461 294.519 29.644 289.195 27.525 C 286.53 26.461 283.795 25.615 281.036 25.124 C 279.659 24.878 278.352 24.731 277.03 24.694 C 276.37 24.674 275.754 24.683 275.118 24.723 C 274.515 24.759 273.28 24.931 273.18 24.945 L 273.178 24.945 C 273.175 24.946 273.172 24.947 273.169 24.948 Z" style="fill: none;"/>
  <path d="M 276.46 23.476 L 276 23.685 C 276.349 23.679 276.701 23.681 277.058 23.692 C 278.422 23.732 279.801 23.887 281.21 24.138 C 284.029 24.643 286.862 25.517 289.565 26.595 C 294.965 28.753 299.695 31.655 302.27 33.869 L 303.139 34.617 L 303.096 33.471 C 302.92 28.762 302.475 26.323 301.932 24.743 C 301.425 23.137 301.036 23.208 300.363 22.519 C 300.722 23.462 300.773 23.712 301.236 25.067 C 301.754 26.622 301.785 28.167 301.989 31.327 L 302.065 32.512 L 301.165 31.739 C 298.541 29.487 295.433 27.859 289.936 25.668 C 287.197 24.575 284.266 23.669 281.387 23.156 C 280.652 23.025 280.402 22.973 280.122 22.952 C 279.836 22.93 279.508 22.937 278.629 22.936 C 278.063 22.935 277.252 23.172 276.434 23.482 Z M 273.166 24.946 L 273.044 24.979 L 273.017 24.966 L 269.901 25.4 L 271.957 24.436 L 271.44 24.177 L 272.958 23.964 C 273.476 23.699 276.906 21.932 278.63 21.934 C 279.497 21.935 279.863 21.927 280.199 21.953 C 280.541 21.98 280.84 22.041 281.562 22.17 C 284.501 22.697 287.528 23.631 290.305 24.738 C 295.85 26.951 298.375 28.29 300.92 30.253 C 300.716 27.067 300.78 26.789 300.289 25.39 C 299.815 24.001 299.496 22.778 298.543 20.834 L 297.542 18.792 L 299.304 20.223 C 299.304 20.223 302.209 22.583 302.878 24.419 C 303.439 26.071 303.911 28.653 304.094 33.433 L 304.225 36.873 L 301.618 34.627 C 299.107 32.461 294.519 29.644 289.195 27.525 C 286.53 26.461 283.795 25.615 281.036 25.124 C 279.659 24.878 278.352 24.731 277.03 24.694 C 276.37 24.674 275.754 24.683 275.118 24.723 C 274.515 24.759 273.28 24.931 273.18 24.945 L 273.178 24.945 C 273.175 24.946 273.172 24.947 273.169 24.948 Z" style="fill: none;"/>
  <path d="M 276.257 23.014 C 277.093 22.698 277.993 22.445 278.63 22.436 C 279.503 22.437 279.85 22.431 280.16 22.453 C 280.472 22.479 280.747 22.534 281.475 22.663 C 284.384 23.183 287.364 24.103 290.121 25.203 C 295.641 27.405 298.819 29.075 301.49 31.359 C 301.49 31.359 301.49 31.359 301.491 31.36 L 301.49 31.359 C 301.286 28.188 301.268 26.71 300.763 25.229 C 300.292 23.843 300.244 23.601 299.896 22.697 L 298.975 20.302 L 300.721 22.169 C 301.004 22.472 301.285 22.625 301.58 22.95 C 301.86 23.258 302.131 23.735 302.407 24.584 C 302.96 26.2 303.417 28.707 303.596 33.452 L 303.682 35.744 L 302.813 34.996 L 301.944 34.248 C 299.401 32.058 294.742 29.198 289.38 27.059 C 286.696 25.988 283.912 25.128 281.123 24.63 C 279.73 24.381 278.387 24.23 277.043 24.192 C 276.692 24.181 276.352 24.179 276.009 24.185 L 275.58 24.192 L 276.547 23.969 Z M 301.53 24.379 L 301.639 24.487 C 301.639 24.487 301.231 23.488 301.53 24.379 Z M 300.825 32.106 C 298.307 29.94 295.347 28.378 290.105 26.274 C 294.338 28.003 298.159 30.183 300.825 32.106 Z" style="fill: none;"/>
  <path style="stroke-width: 1;" d="M 297.118 24.07 L 298.31 16.802 C 292.564 10.917 276.356 2.958 269.952 3.338 L 268.284 14.895 C 277.419 13.306 293.504 19.264 297.118 24.07 Z"/>
  <path d="M 269.516 2.861 L 269.923 2.839 C 276.452 2.484 292.854 10.518 298.668 16.453 L 298.845 16.633 L 297.421 25.317 L 296.719 24.371 C 293.218 19.649 277.376 13.787 268.37 15.388 L 267.691 15.509 Z M 296.794 22.956 L 297.775 16.972 C 291.962 11.163 276.924 3.76 270.387 3.822 L 268.875 14.3 C 278.157 13.084 292.021 18.238 296.794 22.955 Z" style="fill: none;"/>
  <path d="M 269.516 2.861 L 269.923 2.839 C 276.452 2.484 292.854 10.518 298.668 16.453 L 298.845 16.633 L 297.421 25.317 L 296.719 24.371 C 293.218 19.649 277.376 13.787 268.37 15.388 L 267.691 15.509 Z M 296.794 22.956 L 297.775 16.972 C 291.962 11.163 276.924 3.76 270.387 3.822 L 268.875 14.3 C 278.157 13.084 292.021 18.238 296.794 22.955 Z" style=""/>
  <path d="M 269.489 2.362 L 269.896 2.34 C 276.549 2.01 293.142 10.118 299.025 16.103 L 299.38 16.464 L 297.724 26.564 L 297.02 25.616 L 296.318 24.67 C 292.931 20.034 277.334 14.269 268.458 15.881 L 267.098 16.123 L 269.08 2.384 Z M 269.95 3.338 L 269.951 3.338 L 269.951 3.338 C 269.951 3.338 269.95 3.338 269.95 3.338 Z M 268.285 14.895 L 268.283 14.895 C 268.469 14.863 268.658 14.833 268.849 14.807 L 268.287 14.882 Z M 297.121 24.073 L 297.119 24.07 L 298.311 16.802 L 298.312 16.803 C 298.311 16.802 298.311 16.802 298.31 16.801 L 297.288 23.036 L 296.295 22.955 L 296.295 23.152 C 296.617 23.462 296.894 23.769 297.122 24.072 Z M 268.94 14.796 L 268.926 14.798 C 276.797 13.761 289.181 17.823 294.846 21.955 C 289.162 17.728 277.217 13.685 268.94 14.796 Z M 296.45 21.964 L 297.24 17.146 C 291.381 11.419 277.453 4.55 270.82 4.327 L 269.463 13.732 C 278.435 12.88 291.102 17.396 296.451 21.964 Z" style="fill: none;"/>
  <ellipse style="stroke-width: 1;" cx="294.358" cy="40.728" rx="4.512" ry="4.512"/>
  <path d="M 299.37 40.728 C 299.37 42.076 298.782 43.392 297.902 44.272 C 297.022 45.152 295.706 45.74 294.358 45.74 C 293.01 45.74 291.694 45.152 290.814 44.272 C 289.934 43.392 289.346 42.076 289.346 40.728 C 289.346 39.38 289.934 38.064 290.814 37.184 C 291.694 36.304 293.01 35.716 294.358 35.716 C 295.706 35.716 297.022 36.304 297.902 37.184 C 298.782 38.064 299.37 39.38 299.37 40.728 Z M 297.195 37.891 C 296.441 37.137 295.502 36.716 294.358 36.716 C 293.214 36.716 292.275 37.138 291.521 37.891 C 290.767 38.645 290.346 39.584 290.346 40.728 C 290.346 41.872 290.768 42.811 291.521 43.565 C 292.275 44.319 293.214 44.74 294.358 44.74 C 295.502 44.74 296.441 44.318 297.195 43.565 C 297.949 42.811 298.37 41.872 298.37 40.728 C 298.37 39.584 297.948 38.645 297.195 37.891 Z" style="fill: none;"/>
  <path d="M 299.37 40.728 C 299.37 42.076 298.782 43.392 297.902 44.272 C 297.022 45.152 295.706 45.74 294.358 45.74 C 293.01 45.74 291.694 45.152 290.814 44.272 C 289.934 43.392 289.346 42.076 289.346 40.728 C 289.346 39.38 289.934 38.064 290.814 37.184 C 291.694 36.304 293.01 35.716 294.358 35.716 C 295.706 35.716 297.022 36.304 297.902 37.184 C 298.782 38.064 299.37 39.38 299.37 40.728 Z M 297.195 37.891 C 296.441 37.137 295.502 36.716 294.358 36.716 C 293.214 36.716 292.275 37.138 291.521 37.891 C 290.767 38.645 290.346 39.584 290.346 40.728 C 290.346 41.872 290.768 42.811 291.521 43.565 C 292.275 44.319 293.214 44.74 294.358 44.74 C 295.502 44.74 296.441 44.318 297.195 43.565 C 297.949 42.811 298.37 41.872 298.37 40.728 C 298.37 39.584 297.948 38.645 297.195 37.891 Z" style=""/>
  <path d="M 299.87 40.728 C 299.87 42.178 299.199 43.682 298.256 44.626 C 297.313 45.569 295.808 46.24 294.358 46.24 C 292.908 46.24 291.404 45.569 290.46 44.626 C 289.517 43.683 288.846 42.178 288.846 40.728 C 288.846 39.278 289.517 37.774 290.46 36.83 C 291.403 35.887 292.908 35.216 294.358 35.216 C 295.808 35.216 297.312 35.887 298.256 36.83 C 299.199 37.773 299.87 39.278 299.87 40.728 Z M 294.358 36.216 C 293.116 36.216 291.991 36.718 291.175 37.53 C 292.002 36.73 293.115 36.216 294.358 36.216 C 295.6 36.216 296.713 36.729 297.541 37.53 C 296.725 36.717 295.6 36.216 294.358 36.216 Z M 289.846 40.728 C 289.846 41.97 290.348 43.095 291.16 43.911 C 290.36 43.084 289.846 41.971 289.846 40.728 C 289.846 39.486 290.359 38.373 291.16 37.545 C 290.347 38.361 289.846 39.486 289.846 40.728 Z M 294.358 45.24 C 295.6 45.24 296.725 44.738 297.541 43.926 C 296.714 44.726 295.601 45.24 294.358 45.24 C 293.116 45.24 292.003 44.727 291.175 43.926 C 291.991 44.739 293.116 45.24 294.358 45.24 Z M 298.87 40.728 C 298.87 39.486 298.368 38.361 297.556 37.545 C 298.356 38.372 298.87 39.485 298.87 40.728 C 298.87 41.97 298.357 43.083 297.556 43.911 C 298.369 43.095 298.87 41.97 298.87 40.728 Z M 296.841 38.244 C 296.162 37.541 295.399 37.216 294.358 37.216 C 293.316 37.216 292.554 37.543 291.874 38.245 C 291.171 38.925 290.846 39.686 290.846 40.728 C 290.846 41.77 291.173 42.532 291.875 43.212 C 292.554 43.915 293.317 44.24 294.358 44.24 C 295.4 44.24 296.162 43.913 296.842 43.211 C 297.545 42.531 297.87 41.77 297.87 40.728 C 297.87 39.686 297.543 38.924 296.841 38.244 Z" style="fill: none;"/>
  <ellipse style="stroke-width: 2; fill: rgb(255, 255, 255);" cx="293.277" cy="85.737" rx="15.725" ry="21.955" transform="matrix(-1, 0, 0.06413, 1, 613.529846, -40.926453)"/>
  <path d="M 310.002 85.737 C 310.002 91.952 308.144 97.746 305.209 101.844 C 302.252 105.972 297.884 108.692 293.277 108.692 C 288.67 108.692 284.301 105.972 281.345 101.844 C 278.41 97.746 276.552 91.953 276.552 85.737 C 276.552 79.522 278.41 73.728 281.345 69.63 C 284.302 65.502 288.67 62.782 293.277 62.782 C 297.884 62.782 302.253 65.502 305.209 69.63 C 308.144 73.728 310.002 79.521 310.002 85.737 Z M 303.583 70.795 C 300.848 66.977 297.354 64.782 293.277 64.782 C 289.2 64.782 285.706 66.976 282.971 70.795 C 280.214 74.644 278.552 79.827 278.552 85.737 C 278.552 91.647 280.214 96.831 282.971 100.679 C 285.706 104.497 289.2 106.692 293.277 106.692 C 297.354 106.692 300.848 104.498 303.583 100.679 C 306.34 96.83 308.002 91.647 308.002 85.737 C 308.002 79.827 306.34 74.643 303.583 70.795 Z" style="fill: none;" transform="matrix(-1, 0, 0.06413000822067261, 1, 613.5298461914062, -40.92645263671875)"/>
  <path d="M 310.002 85.737 C 310.002 91.952 308.144 97.746 305.209 101.844 C 302.252 105.972 297.884 108.692 293.277 108.692 C 288.67 108.692 284.301 105.972 281.345 101.844 C 278.41 97.746 276.552 91.953 276.552 85.737 C 276.552 79.522 278.41 73.728 281.345 69.63 C 284.302 65.502 288.67 62.782 293.277 62.782 C 297.884 62.782 302.253 65.502 305.209 69.63 C 308.144 73.728 310.002 79.521 310.002 85.737 Z M 303.583 70.795 C 300.848 66.977 297.354 64.782 293.277 64.782 C 289.2 64.782 285.706 66.976 282.971 70.795 C 280.214 74.644 278.552 79.827 278.552 85.737 C 278.552 91.647 280.214 96.831 282.971 100.679 C 285.706 104.497 289.2 106.692 293.277 106.692 C 297.354 106.692 300.848 104.498 303.583 100.679 C 306.34 96.83 308.002 91.647 308.002 85.737 C 308.002 79.827 306.34 74.643 303.583 70.795 Z" style="" transform="matrix(-1, 0, 0.06413000822067261, 1, 613.5298461914062, -40.92645263671875)"/>
  <path d="M 310.502 85.737 C 310.502 92.028 308.585 97.968 305.615 102.135 C 302.587 106.33 298.016 109.192 293.277 109.192 C 288.538 109.192 283.966 106.33 280.938 102.135 C 277.968 97.968 276.052 92.029 276.052 85.737 C 276.052 79.446 277.969 73.506 280.939 69.339 C 283.967 65.144 288.538 62.282 293.277 62.282 C 298.016 62.282 302.588 65.144 305.616 69.339 C 308.586 73.506 310.502 79.445 310.502 85.737 Z M 304.803 69.921 C 301.918 65.86 297.752 63.282 293.277 63.282 C 288.802 63.282 284.637 65.86 281.751 69.921 C 278.851 73.95 277.052 79.598 277.052 85.737 C 277.052 91.877 278.851 97.524 281.751 101.553 C 284.636 105.614 288.802 108.192 293.277 108.192 C 297.752 108.192 301.917 105.614 304.803 101.553 C 307.703 97.524 309.502 91.876 309.502 85.737 C 309.502 79.597 307.703 73.95 304.803 69.921 Z M 308.502 85.737 C 308.502 91.723 306.781 97.052 303.989 100.97 C 301.184 104.855 297.486 107.192 293.277 107.192 C 289.067 107.192 285.37 104.854 282.565 100.97 C 279.773 97.053 278.052 91.723 278.052 85.737 C 278.052 79.751 279.773 74.422 282.565 70.504 C 285.37 66.619 289.068 64.282 293.277 64.282 C 297.487 64.282 301.184 66.62 303.989 70.504 C 306.781 74.421 308.502 79.751 308.502 85.737 Z M 303.177 71.086 C 300.512 67.334 297.221 65.282 293.277 65.282 C 289.333 65.282 286.042 67.333 283.378 71.086 C 280.656 74.866 279.052 79.903 279.052 85.737 C 279.052 91.571 280.655 96.609 283.377 100.388 C 286.042 104.14 289.333 106.192 293.277 106.192 C 297.221 106.192 300.512 104.141 303.176 100.388 C 305.898 96.608 307.502 91.571 307.502 85.737 C 307.502 79.903 305.899 74.865 303.177 71.086 Z" style="fill: none;" transform="matrix(-1, 0, 0.0641300156712532, 1, 613.5298461914062, -40.92645263671875)"/>
  <path style="stroke-width: 2; fill: rgb(158, 255, 46);" d="M 309.436 30.052 C 315.713 29.498 333.777 24.042 338.99 19.209 C 338.645 29.302 335.944 31.786 334.855 34.798" transform="matrix(-1, 0, 0, -1, 648.42598639, 54.00699497)"/>
  <path d="M 309.348 29.056 C 315.524 28.521 333.292 23.197 338.31 18.476 L 340.077 16.813 L 339.989 19.243 C 339.803 24.39 339.013 27.696 338.136 30.012 C 337.691 31.188 337.217 32.144 336.804 32.962 C 336.39 33.78 335.747 35.249 335.747 35.249 C 335.745 35.253 333.964 34.342 333.962 34.346 C 333.962 34.346 334.609 32.869 335.019 32.059 C 335.429 31.248 335.856 30.388 336.266 29.305 C 337.099 27.104 337.606 25.015 337.879 21.311 C 331.002 25.867 315.901 30.474 309.524 31.048 Z" style="fill: none;" transform="matrix(-1, 0, 0, -1, 648.4259643554688, 54.006996154785156)"/>
  <path d="M 309.348 29.056 C 315.524 28.521 333.292 23.197 338.31 18.476 L 340.077 16.813 L 339.989 19.243 C 339.803 24.39 339.013 27.696 338.136 30.012 C 337.691 31.188 337.217 32.144 336.804 32.962 C 336.39 33.78 335.747 35.249 335.747 35.249 C 335.745 35.253 333.964 34.342 333.962 34.346 C 333.962 34.346 334.609 32.869 335.019 32.059 C 335.429 31.248 335.856 30.388 336.266 29.305 C 337.099 27.104 337.606 25.015 337.879 21.311 C 331.002 25.867 315.901 30.474 309.524 31.048 Z" style="fill: none;" transform="matrix(-1, 0, 0, -1, 648.4259643554688, 54.006996154785156)"/>
  <path d="M 309.305 28.558 C 315.431 28.033 333.049 22.776 337.967 18.112 L 340.62 15.615 L 340.488 19.261 C 340.295 24.457 339.489 27.843 338.603 30.189 C 338.148 31.388 337.663 32.368 337.249 33.188 C 336.841 33.993 336.193 35.473 336.193 35.473 C 336.063 35.593 335.852 35.745 335.77 35.749 C 335.731 35.751 335.67 35.744 335.649 35.74 C 335.627 35.736 335.594 35.726 335.583 35.722 C 335.572 35.718 335.555 35.711 335.549 35.709 C 335.543 35.706 335.533 35.702 335.529 35.7 C 335.523 35.697 335.514 35.693 335.506 35.689 C 335.491 35.682 335.47 35.671 335.445 35.659 C 335.395 35.634 335.325 35.598 335.241 35.556 C 335.073 35.471 334.85 35.358 334.627 35.244 C 334.405 35.131 334.182 35.018 334.016 34.933 L 332.576 36.263 L 333.504 34.146 C 333.504 34.146 334.157 32.657 334.573 31.834 C 334.982 31.025 335.398 30.189 335.799 29.129 C 336.623 26.958 337.019 25.321 337.299 22.27 C 330.357 26.857 315.997 30.963 309.569 31.547 L 309.07 31.592 L 308.806 28.601 Z M 309.977 30.499 C 316.561 29.754 330.791 25.419 337.602 20.894 L 338.453 20.329 L 338.377 21.348 C 338.098 25.093 337.575 27.252 336.733 29.482 C 336.313 30.588 335.875 31.472 335.465 32.285 C 335.2 32.808 334.833 33.618 334.612 34.114 C 334.754 34.186 334.918 34.269 335.081 34.353 C 335.227 34.427 335.373 34.501 335.503 34.568 C 335.726 34.07 336.087 33.274 336.358 32.738 C 336.77 31.922 337.234 30.99 337.669 29.836 C 338.537 27.55 339.311 24.324 339.49 19.226 L 339.534 18.012 L 338.653 18.841 C 333.535 23.619 316.522 28.736 309.89 29.504 Z" style="fill: none;" transform="matrix(-1, 0, 0, -1, 648.4259643554688, 54.006996154785156)"/>
  <path d="M 308.348 33.219 C 308.348 33.219 309.683 33.406 310.331 33.446 C 310.98 33.487 311.618 33.496 312.289 33.476 C 313.632 33.437 314.975 33.286 316.368 33.038 C 319.157 32.54 321.941 31.68 324.625 30.609 C 329.987 28.47 334.646 25.611 337.189 23.421 L 338.927 21.924 L 338.84 24.217 C 338.66 28.961 338.202 31.472 337.65 33.088 C 337.062 34.809 334.238 37.054 334.238 37.054 C 335.208 35.065 335.539 33.813 336.008 32.441 C 336.513 30.964 336.531 29.484 336.735 26.311 C 334.065 28.594 330.887 30.264 325.366 32.466 C 322.608 33.566 319.629 34.486 316.72 35.006 C 315.263 35.266 315.621 35.232 313.875 35.234 C 312.129 35.236 308.374 33.221 308.35 33.218 L 308.348 33.219 Z" style="stroke-width: 1;" transform="matrix(-1, 0, 0, -1, 647.27499941, 58.97800064)"/>
  <path d="M 308.412 32.722 C 308.415 32.723 308.418 32.724 308.421 32.725 L 308.423 32.725 C 308.524 32.739 309.759 32.911 310.362 32.947 C 310.999 32.988 311.614 32.996 312.274 32.976 C 313.596 32.938 314.903 32.791 316.28 32.546 C 319.039 32.055 321.774 31.209 324.44 30.145 C 329.764 28.025 334.352 25.209 336.863 23.043 L 339.47 20.797 L 339.339 24.237 C 339.155 29.016 338.684 31.599 338.123 33.251 C 337.454 35.087 334.549 37.447 334.549 37.447 L 332.787 38.878 L 333.788 36.836 C 334.741 34.893 335.06 33.669 335.534 32.28 C 336.026 30.881 336.021 29.827 336.165 27.417 C 333.62 29.379 331.095 30.719 325.55 32.932 C 322.773 34.039 319.745 34.973 316.807 35.5 C 316.085 35.629 315.786 35.69 315.444 35.717 C 315.108 35.743 314.742 35.735 313.875 35.736 C 312.151 35.738 308.721 33.971 308.203 33.706 L 306.685 33.493 L 307.202 33.234 L 305.146 32.27 L 308.262 32.704 L 308.289 32.691 Z M 311.706 34.192 L 311.68 34.188 C 312.498 34.498 313.309 34.735 313.875 34.734 C 314.754 34.733 315.082 34.741 315.368 34.718 C 315.648 34.696 315.898 34.645 316.633 34.514 C 319.512 34.001 322.442 33.095 325.182 32.002 C 330.679 29.811 333.787 28.183 336.411 25.931 L 337.311 25.158 L 337.235 26.343 C 337.031 29.503 337.001 31.048 336.482 32.603 C 336.018 33.958 336.596 33.116 335.609 35.151 C 336.282 34.462 336.671 34.533 337.178 32.927 C 337.721 31.347 338.165 28.907 338.342 24.199 L 338.385 23.053 L 337.516 23.801 C 334.941 26.015 330.211 28.916 324.811 31.075 C 322.108 32.153 319.275 33.027 316.457 33.532 C 315.048 33.782 313.668 33.937 312.305 33.978 C 311.948 33.989 311.596 33.991 311.247 33.985 Z" style="fill: none;" transform="matrix(-1, 0, 0, -1, 647.2750244140625, 58.97800064086914)"/>
  <path d="M 308.412 32.722 C 308.415 32.723 308.418 32.724 308.421 32.725 L 308.423 32.725 C 308.524 32.739 309.759 32.911 310.362 32.947 C 310.999 32.988 311.614 32.996 312.274 32.976 C 313.596 32.938 314.903 32.791 316.28 32.546 C 319.039 32.055 321.774 31.209 324.44 30.145 C 329.764 28.025 334.352 25.209 336.863 23.043 L 339.47 20.797 L 339.339 24.237 C 339.155 29.016 338.684 31.599 338.123 33.251 C 337.454 35.087 334.549 37.447 334.549 37.447 L 332.787 38.878 L 333.788 36.836 C 334.741 34.893 335.06 33.669 335.534 32.28 C 336.026 30.881 336.021 29.827 336.165 27.417 C 333.62 29.379 331.095 30.719 325.55 32.932 C 322.773 34.039 319.745 34.973 316.807 35.5 C 316.085 35.629 315.786 35.69 315.444 35.717 C 315.108 35.743 314.742 35.735 313.875 35.736 C 312.151 35.738 308.721 33.971 308.203 33.706 L 306.685 33.493 L 307.202 33.234 L 305.146 32.27 L 308.262 32.704 L 308.289 32.691 Z M 311.706 34.192 L 311.68 34.188 C 312.498 34.498 313.309 34.735 313.875 34.734 C 314.754 34.733 315.082 34.741 315.368 34.718 C 315.648 34.696 315.898 34.645 316.633 34.514 C 319.512 34.001 322.442 33.095 325.182 32.002 C 330.679 29.811 333.787 28.183 336.411 25.931 L 337.311 25.158 L 337.235 26.343 C 337.031 29.503 337.001 31.048 336.482 32.603 C 336.018 33.958 336.596 33.116 335.609 35.151 C 336.282 34.462 336.671 34.533 337.178 32.927 C 337.721 31.347 338.165 28.907 338.342 24.199 L 338.385 23.053 L 337.516 23.801 C 334.941 26.015 330.211 28.916 324.811 31.075 C 322.108 32.153 319.275 33.027 316.457 33.532 C 315.048 33.782 313.668 33.937 312.305 33.978 C 311.948 33.989 311.596 33.991 311.247 33.985 Z" style="fill: none;" transform="matrix(-1, 0, 0, -1, 647.2750244140625, 58.97800064086914)"/>
  <path d="M 310.394 32.448 C 311.018 32.489 311.61 32.496 312.26 32.476 C 313.561 32.439 314.832 32.296 316.193 32.054 C 318.922 31.57 321.608 30.738 324.256 29.681 C 329.542 27.58 334.059 24.807 336.538 22.665 L 340.015 19.67 L 339.971 20.817 L 339.84 24.257 C 339.652 29.071 339.164 31.735 338.594 33.423 C 337.848 35.367 334.865 37.836 334.865 37.836 L 331.338 40.7 L 333.34 36.616 C 334.276 34.72 334.584 33.521 335.063 32.114 C 335.541 30.799 335.515 30.139 335.607 28.454 C 333.28 30.114 331.306 31.172 325.736 33.397 C 322.94 34.511 319.863 35.459 316.896 35.993 C 316.18 36.121 315.856 36.185 315.484 36.216 C 315.123 36.243 314.738 36.235 313.877 36.236 C 312.038 36.21 308.772 34.555 308.052 34.19 L 305.027 33.766 L 306.057 33.25 L 301.94 31.32 L 308.182 32.189 L 308.236 32.163 L 308.412 32.207 L 308.484 32.226 L 308.458 32.226 L 308.492 32.231 C 308.497 32.232 308.504 32.233 308.513 32.234 L 308.57 32.249 L 308.534 32.237 C 308.776 32.271 309.856 32.418 310.394 32.449 Z M 308.361 33.225 L 308.431 33.261 C 308.443 33.267 308.457 33.274 308.472 33.282 L 308.829 33.443 L 311.256 33.485 C 311.599 33.491 311.94 33.489 312.29 33.478 C 313.633 33.438 314.976 33.287 316.369 33.04 C 319.157 32.542 321.941 31.682 324.625 30.611 C 329.987 28.471 334.647 25.613 337.189 23.422 L 338.926 21.927 L 338.926 21.925 L 337.189 23.422 C 334.645 25.612 329.987 28.471 324.625 30.61 C 321.94 31.681 319.157 32.54 316.368 33.039 C 314.975 33.286 313.632 33.437 312.289 33.477 C 311.618 33.497 310.981 33.489 310.331 33.447 C 309.71 33.409 308.462 33.236 308.355 33.221 L 308.388 33.226 Z M 313.874 35.236 C 314.747 35.235 315.093 35.244 315.405 35.219 C 315.717 35.196 315.991 35.138 316.719 35.008 C 319.627 34.488 322.607 33.568 325.365 32.468 C 330.477 30.429 332.969 29.159 335.302 27.442 C 332.901 29.186 329.937 30.644 325.367 32.467 C 322.608 33.567 319.629 34.487 316.72 35.007 C 315.991 35.137 315.717 35.191 315.407 35.217 C 315.095 35.241 314.748 35.233 313.875 35.235 C 313.238 35.226 312.338 34.973 311.502 34.657 L 310.982 34.46 C 312.013 34.884 313.127 35.251 313.874 35.237 Z M 336.73 26.349 L 336.664 27.447 C 336.652 27.655 336.64 27.853 336.629 28.042 C 336.661 27.525 336.694 26.953 336.736 26.311 C 336.528 26.489 336.317 26.663 336.102 26.834 Z M 336.006 32.446 C 335.727 33.263 335.497 34.037 335.151 34.949 L 335.159 34.933 C 335.641 33.944 335.719 33.711 335.749 33.537 C 335.77 33.417 335.769 33.254 336.009 32.441 C 336.051 32.318 336.089 32.196 336.125 32.072 C 336.089 32.194 336.049 32.319 336.006 32.445 Z M 313.663 34.526 L 313.652 34.402 C 313.205 34.438 313.663 34.526 313.663 34.526 Z M 313.874 34.234 C 313.379 34.245 313.652 34.402 313.652 34.402 C 314.192 34.358 314.735 34.298 315.281 34.223 C 315.029 34.241 314.707 34.233 313.874 34.234 Z M 336.072 25.563 C 333.405 27.487 329.58 29.668 325.344 31.399 C 330.591 29.293 333.553 27.73 336.072 25.563 Z" style="fill: none;" transform="matrix(-1, 0, 0, -1, 647.2750244140625, 58.97800064086914)"/>
  <path style="stroke-width: 1;" d="M 342.553 4.635 L 343.745 11.903 C 337.999 17.788 321.791 25.747 315.387 25.367 L 313.719 13.81 C 322.854 15.399 338.939 9.441 342.553 4.635 Z" transform="matrix(-1, 0, 0, -1, 657.46398026, 30.01511483)"/>
  <path d="M 344.279 12.072 L 344.102 12.252 C 338.287 18.187 321.886 26.221 315.357 25.866 L 314.95 25.844 L 313.125 13.197 L 313.804 13.318 C 322.809 14.919 338.652 9.057 342.153 4.335 L 342.855 3.389 Z M 314.31 14.403 L 315.823 24.883 C 322.348 24.951 337.385 17.549 343.211 11.733 L 342.23 5.753 C 337.526 10.442 323.672 15.591 314.31 14.403 Z" style="fill: none;" transform="matrix(-1, 0, 0, -1, 657.4639892578125, 30.01511573791504)"/>
  <path d="M 344.279 12.072 L 344.102 12.252 C 338.287 18.187 321.886 26.221 315.357 25.866 L 314.95 25.844 L 313.125 13.197 L 313.804 13.318 C 322.809 14.919 338.652 9.057 342.153 4.335 L 342.855 3.389 Z M 314.31 14.403 L 315.823 24.883 C 322.348 24.951 337.385 17.549 343.211 11.733 L 342.23 5.753 C 337.526 10.442 323.672 15.591 314.31 14.403 Z" style="" transform="matrix(-1, 0, 0, -1, 657.4639892578125, 30.01511573791504)"/>
  <path d="M 344.636 12.423 L 344.46 12.602 C 338.576 18.587 321.983 26.695 315.331 26.365 L 314.515 26.321 L 312.533 12.583 L 313.214 12.704 L 313.893 12.825 C 322.767 14.438 338.366 8.673 341.753 4.036 L 343.159 2.142 L 344.815 12.241 Z M 342.553 4.635 L 342.555 4.633 C 342.417 4.816 342.261 5.001 342.088 5.188 L 342.565 4.709 Z M 313.716 13.81 L 313.718 13.81 L 315.386 25.366 L 315.384 25.366 C 315.385 25.366 315.386 25.366 315.388 25.366 L 313.721 13.821 L 314.074 13.867 C 313.954 13.849 313.835 13.83 313.717 13.809 Z M 343.922 11.721 L 343.745 11.901 L 343.745 11.901 Z M 314.897 14.969 L 316.256 24.379 C 322.866 24.167 336.792 17.299 342.676 11.559 L 341.887 6.747 C 336.592 11.289 324.359 15.837 314.897 14.969 Z M 340.962 6.228 C 335.918 10.33 323.773 14.573 315.543 14.025 C 324.162 14.648 335.89 10.419 340.962 6.228 Z" style="fill: none;" transform="matrix(-1, 0, 0, -1, 657.4639892578125, 30.01511573791504)"/>
  <ellipse style="stroke-width: 1;" cx="-317.67" cy="42.038" rx="4.512" ry="4.512" transform="matrix(-1, 0, 0, 1, 0, 0)"/>
  <path d="M -312.658 42.038 C -312.658 43.386 -313.246 44.702 -314.126 45.582 C -315.006 46.462 -316.322 47.05 -317.67 47.05 C -319.018 47.05 -320.334 46.462 -321.214 45.582 C -322.094 44.702 -322.682 43.386 -322.682 42.038 C -322.682 40.69 -322.094 39.374 -321.214 38.494 C -320.334 37.614 -319.018 37.026 -317.67 37.026 C -316.322 37.026 -315.006 37.614 -314.126 38.494 C -313.246 39.374 -312.658 40.69 -312.658 42.038 Z M -314.833 39.201 C -315.587 38.447 -316.526 38.026 -317.67 38.026 C -318.814 38.026 -319.753 38.448 -320.507 39.201 C -321.261 39.955 -321.682 40.894 -321.682 42.038 C -321.682 43.182 -321.26 44.121 -320.507 44.875 C -319.753 45.629 -318.814 46.05 -317.67 46.05 C -316.526 46.05 -315.587 45.628 -314.833 44.875 C -314.079 44.121 -313.658 43.182 -313.658 42.038 C -313.658 40.894 -314.08 39.955 -314.833 39.201 Z" style="fill: none;" transform="matrix(-1, 0, 0, 1, 0, 0)"/>
  <path d="M -312.658 42.038 C -312.658 43.386 -313.246 44.702 -314.126 45.582 C -315.006 46.462 -316.322 47.05 -317.67 47.05 C -319.018 47.05 -320.334 46.462 -321.214 45.582 C -322.094 44.702 -322.682 43.386 -322.682 42.038 C -322.682 40.69 -322.094 39.374 -321.214 38.494 C -320.334 37.614 -319.018 37.026 -317.67 37.026 C -316.322 37.026 -315.006 37.614 -314.126 38.494 C -313.246 39.374 -312.658 40.69 -312.658 42.038 Z M -314.833 39.201 C -315.587 38.447 -316.526 38.026 -317.67 38.026 C -318.814 38.026 -319.753 38.448 -320.507 39.201 C -321.261 39.955 -321.682 40.894 -321.682 42.038 C -321.682 43.182 -321.26 44.121 -320.507 44.875 C -319.753 45.629 -318.814 46.05 -317.67 46.05 C -316.526 46.05 -315.587 45.628 -314.833 44.875 C -314.079 44.121 -313.658 43.182 -313.658 42.038 C -313.658 40.894 -314.08 39.955 -314.833 39.201 Z" style="" transform="matrix(-1, 0, 0, 1, 0, 0)"/>
  <path d="M -312.158 42.038 C -312.158 43.488 -312.829 44.992 -313.772 45.936 C -314.715 46.879 -316.22 47.55 -317.67 47.55 C -319.12 47.55 -320.624 46.879 -321.568 45.936 C -322.511 44.993 -323.182 43.488 -323.182 42.038 C -323.182 40.588 -322.511 39.084 -321.568 38.14 C -320.625 37.197 -319.12 36.526 -317.67 36.526 C -316.22 36.526 -314.716 37.197 -313.772 38.14 C -312.829 39.083 -312.158 40.588 -312.158 42.038 Z M -317.67 37.526 C -318.912 37.526 -320.037 38.028 -320.853 38.84 C -320.026 38.04 -318.913 37.526 -317.67 37.526 C -316.428 37.526 -315.315 38.039 -314.487 38.84 C -315.303 38.027 -316.428 37.526 -317.67 37.526 Z M -322.182 42.038 C -322.182 43.28 -321.68 44.405 -320.868 45.221 C -321.668 44.394 -322.182 43.281 -322.182 42.038 C -322.182 40.796 -321.669 39.683 -320.868 38.855 C -321.681 39.671 -322.182 40.796 -322.182 42.038 Z M -317.67 46.55 C -316.428 46.55 -315.303 46.048 -314.487 45.236 C -315.314 46.036 -316.427 46.55 -317.67 46.55 C -318.912 46.55 -320.025 46.037 -320.853 45.236 C -320.037 46.049 -318.912 46.55 -317.67 46.55 Z M -313.158 42.038 C -313.158 40.796 -313.66 39.671 -314.472 38.855 C -313.672 39.682 -313.158 40.795 -313.158 42.038 C -313.158 43.28 -313.671 44.393 -314.472 45.221 C -313.659 44.405 -313.158 43.28 -313.158 42.038 Z M -315.187 39.554 C -315.866 38.851 -316.629 38.526 -317.67 38.526 C -318.712 38.526 -319.474 38.853 -320.154 39.555 C -320.857 40.235 -321.182 40.996 -321.182 42.038 C -321.182 43.08 -320.855 43.842 -320.153 44.522 C -319.474 45.225 -318.711 45.55 -317.67 45.55 C -316.628 45.55 -315.866 45.223 -315.186 44.521 C -314.483 43.841 -314.158 43.08 -314.158 42.038 C -314.158 40.996 -314.485 40.234 -315.187 39.554 Z" style="fill: none;" transform="matrix(-1, 0, 0, 1, 0, 0)"/>
  <path style="fill: none; stroke-width: 2; stroke-linecap: round;" d="M 300.699 80.62 C 306.814 72.986 336.832 69.838 345.337 75.309"/>
  <path d="M 300.074 81.4 C 299.643 81.055 299.573 80.425 299.919 79.994 C 303.224 76.01 312.59 73.123 322.01 72.056 C 326.72 71.522 331.56 71.401 335.721 71.76 C 339.9 72.121 345.424 74.312 345.424 74.312 C 345.497 74.324 345.424 74.312 345.424 74.312 C 345.771 74.391 346.049 74.65 346.152 74.99 C 346.255 75.331 346.167 75.701 345.922 75.958 C 345.677 76.216 345.312 76.322 344.966 76.236 C 344.966 76.236 344.928 76.219 344.966 76.236 C 344.966 76.236 343.78 75.57 343.13 75.31 C 342.475 75.048 341.775 74.825 340.98 74.62 C 339.38 74.209 337.567 73.926 335.549 73.752 C 331.499 73.402 326.858 73.518 322.235 74.042 C 312.991 75.089 304.29 77.593 301.48 81.243 C 301.135 81.674 300.505 81.744 300.074 81.398 Z" style="fill: none;"/>
  <path d="M 300.074 81.4 C 299.643 81.055 299.573 80.425 299.919 79.994 C 303.224 76.01 312.59 73.123 322.01 72.056 C 326.72 71.522 331.56 71.401 335.721 71.76 C 339.9 72.121 345.424 74.312 345.424 74.312 C 345.497 74.324 345.424 74.312 345.424 74.312 C 345.771 74.391 346.049 74.65 346.152 74.99 C 346.255 75.331 346.167 75.701 345.922 75.958 C 345.677 76.216 345.312 76.322 344.966 76.236 C 344.966 76.236 344.928 76.219 344.966 76.236 C 344.966 76.236 343.78 75.57 343.13 75.31 C 342.475 75.048 341.775 74.825 340.98 74.62 C 339.38 74.209 337.567 73.926 335.549 73.752 C 331.499 73.402 326.858 73.518 322.235 74.042 C 312.991 75.089 304.29 77.593 301.48 81.243 C 301.135 81.674 300.505 81.744 300.074 81.398 Z" style=""/>
  <path d="M 299.762 81.79 C 299.48 81.537 299.247 81.127 299.209 80.784 C 299.171 80.441 299.315 79.984 299.535 79.675 C 302.959 75.612 312.489 72.636 321.954 71.559 C 326.686 71.023 331.576 70.902 335.764 71.262 C 339.775 71.619 344.988 73.606 345.559 73.828 C 345.559 73.828 345.558 73.828 345.557 73.828 L 345.608 73.848 C 345.608 73.848 345.59 73.841 345.556 73.828 C 345.55 73.827 345.541 73.825 345.537 73.825 L 345.537 73.825 C 345.537 73.825 345.539 73.825 345.539 73.825 C 345.537 73.825 345.531 73.824 345.53 73.824 L 345.511 73.943 L 345.534 73.825 C 345.996 73.965 346.458 74.396 346.63 74.846 C 346.737 75.317 346.591 75.932 346.284 76.303 C 345.927 76.629 345.321 76.805 344.845 76.722 L 344.792 76.713 L 344.721 76.673 C 344.721 76.673 343.564 76.023 342.944 75.775 C 342.306 75.52 341.637 75.306 340.855 75.105 C 339.279 74.699 337.506 74.423 335.505 74.251 C 331.483 73.902 326.891 74.017 322.29 74.54 C 313.087 75.579 304.55 77.994 301.869 81.557 C 301.616 81.839 301.206 82.072 300.863 82.11 C 300.52 82.148 300.069 82.009 299.76 81.789 L 300.573 82.368 L 300.573 82.523 Z M 300.238 80.854 L 300.387 81.008 C 300.509 81.134 300.588 81.133 300.754 81.115 C 300.92 81.097 300.998 81.08 301.089 80.931 C 304.034 77.197 312.893 74.601 322.178 73.546 C 326.823 73.02 331.514 72.904 335.591 73.255 C 337.626 73.431 339.48 73.721 341.103 74.137 C 341.911 74.346 342.643 74.578 343.314 74.847 C 343.994 75.119 344.983 75.676 345.178 75.784 C 345.339 75.826 345.425 75.805 345.558 75.615 C 345.741 75.473 345.771 75.347 345.672 75.136 C 345.641 74.931 345.563 74.839 345.381 74.809 L 345.38 74.813 C 345.379 74.813 345.373 74.812 345.371 74.812 C 345.371 74.812 345.373 74.812 345.373 74.812 C 345.373 74.812 345.373 74.812 345.373 74.812 C 345.373 74.812 345.372 74.812 345.371 74.812 C 345.368 74.811 345.305 74.801 345.287 74.798 L 345.237 74.778 C 345.237 74.778 339.784 72.604 335.675 72.259 C 331.542 71.901 326.751 72.021 322.063 72.554 C 312.689 73.611 303.487 76.41 300.3 80.314 C 300.174 80.436 300.18 80.509 300.198 80.675 C 300.206 80.75 300.214 80.807 300.234 80.855 Z" style="fill: none;"/>
  <path style="fill: none; stroke-width: 2;" d="M 300.799 76.158 C 299.894 78.618 299.746 81.23 300.899 83.667"/>
  <path d="M 299.799 76.153 C 299.799 76.153 299.084 78.552 299.077 79.916 C 299.071 81.281 299.38 82.76 299.995 84.094 L 301.803 83.239 C 301.265 82.137 301.072 81.091 301.077 79.926 C 301.08 79.344 301.137 78.805 301.252 78.219 C 301.367 77.632 301.78 76.351 301.78 76.351 C 301.77 76.393 299.809 76.055 299.799 76.154 Z" style="fill: none;"/>
  <path d="M 299.799 76.153 C 299.799 76.153 299.084 78.552 299.077 79.916 C 299.071 81.281 299.38 82.76 299.995 84.094 L 301.803 83.239 C 301.265 82.137 301.072 81.091 301.077 79.926 C 301.08 79.344 301.137 78.805 301.252 78.219 C 301.367 77.632 301.78 76.351 301.78 76.351 C 301.77 76.393 299.809 76.055 299.799 76.154 Z" style="fill: none;"/>
  <path d="M 299.302 76.104 C 299.359 75.966 299.478 75.757 299.559 75.711 C 299.607 75.684 299.689 75.657 299.725 75.65 C 299.771 75.641 299.841 75.636 299.884 75.636 C 299.956 75.636 300.057 75.642 300.157 75.651 C 300.351 75.669 300.607 75.702 300.855 75.735 C 301.103 75.769 301.348 75.804 301.53 75.828 C 301.575 75.834 301.614 75.839 301.648 75.843 L 302.839 74.694 L 302.256 76.505 C 302.25 76.524 301.85 77.762 301.743 78.316 C 301.631 78.88 301.579 79.372 301.577 79.929 C 301.568 81.048 301.736 81.983 302.252 83.02 L 302.478 83.473 L 299.75 84.763 L 299.541 84.304 C 298.908 82.916 298.576 81.331 298.577 79.914 C 298.594 78.48 299.32 76.011 299.32 76.011 L 300.299 72.678 L 300.299 73.682 Z M 300.169 76.657 C 300.147 76.655 300.127 76.653 300.106 76.651 L 299.299 78.544 L 299.299 79.533 Z" style="fill: none;"/>
  <path d="M 302.431 74.63 C 302.421 74.672 299.084 78.552 299.077 79.916 C 299.071 81.281 302.78 85.472 302.78 85.472 C 302.242 84.37 301.072 81.091 301.077 79.926 C 301.08 79.344 301.137 78.805 301.252 78.219 C 301.367 77.632 302.431 74.63 302.431 74.63 Z" style="stroke-width: 1;"/>
  <path d="M 302.902 74.797 C 302.888 74.836 301.847 77.767 301.742 78.315 C 301.63 78.879 301.578 79.371 301.576 79.928 C 301.556 81.008 302.701 84.176 303.228 85.252 L 304.923 88.713 L 302.404 85.803 C 302.404 85.803 298.632 81.445 298.575 79.913 C 298.642 78.391 301.983 74.428 301.97 74.431 L 303.104 74.22 Z M 299.577 79.918 C 299.508 81.116 301.258 82.873 301.258 82.873 C 300.886 81.722 300.586 81.173 300.577 79.923 C 300.581 79.316 300.643 78.73 300.761 78.122 C 300.885 77.503 300.901 77.597 301.037 77.174 C 300.266 78.226 299.523 78.718 299.577 79.917 Z" style="fill: none;"/>
  <path d="M 302.902 74.797 C 302.888 74.836 301.847 77.767 301.742 78.315 C 301.63 78.879 301.578 79.371 301.576 79.928 C 301.556 81.008 302.701 84.176 303.228 85.252 L 304.923 88.713 L 302.404 85.803 C 302.404 85.803 298.632 81.445 298.575 79.913 C 298.642 78.391 301.983 74.428 301.97 74.431 L 303.104 74.22 Z M 299.577 79.918 C 299.508 81.116 301.258 82.873 301.258 82.873 C 300.886 81.722 300.586 81.173 300.577 79.923 C 300.581 79.316 300.643 78.73 300.761 78.122 C 300.885 77.503 300.901 77.597 301.037 77.174 C 300.266 78.226 299.523 78.718 299.577 79.917 Z" style="fill: none;"/>
  <path d="M 303.373 74.966 C 303.359 75.004 302.328 77.901 302.233 78.412 C 302.124 78.954 302.077 79.405 302.076 79.937 C 302.041 80.927 303.161 83.981 303.677 85.032 L 307.067 91.953 L 302.026 86.13 C 302.026 86.13 298.193 81.577 298.076 79.891 C 298.147 79.009 299.044 77.504 299.895 76.31 C 300.287 75.761 300.678 75.25 300.983 74.862 L 297.916 74.676 L 303.861 73.57 L 303.576 74.385 Z M 302.346 74.87 L 302.321 74.875 L 301.862 76.267 C 302.053 75.705 302.241 75.168 302.345 74.87 Z M 299.075 79.91 C 299.075 79.93 299.076 79.95 299.078 79.972 C 299.077 79.954 299.077 79.936 299.077 79.918 L 299.078 79.939 C 299.08 79.884 299.084 79.829 299.088 79.776 C 299.081 79.823 299.076 79.867 299.075 79.909 Z M 302.782 85.476 L 302.779 85.473 L 302.779 85.472 C 302.576 85.056 302.282 84.328 301.996 83.52 L 302.435 84.862 L 301.134 83.471 C 301.988 84.575 302.783 85.476 302.783 85.476 Z M 301.368 77.736 C 301.338 77.824 301.312 77.919 301.257 78.191 C 301.289 78.044 301.366 77.781 301.467 77.462 C 301.418 77.604 301.389 77.671 301.367 77.736 Z M 300.077 79.918 C 299.955 80.785 300.059 80.465 300.09 80.359 C 300.087 80.255 300.083 80.113 300.077 79.926 C 300.079 79.701 300.089 79.474 300.106 79.248 C 300.106 79.248 300.275 78.694 300.106 79.246 C 300.137 78.838 299.7 79.788 299.7 79.788 L 300.105 79.248 C 300.048 79.437 300.034 79.644 300.076 79.893 Z M 301.583 82.275 C 301.299 81.351 301.085 80.471 301.076 79.959 C 301.064 80.913 301.276 81.399 301.583 82.275 Z" style="fill: none;"/>
  <path style="fill: none; stroke-width: 2;" d="M 344.632 71.68 C 346.79 74.493 346.36 75.421 345.686 78.99"/>
  <path d="M 345.425 71.071 C 347.64 74.399 346.479 78.381 346.479 78.381 C 346.536 78.896 344.703 78.807 344.698 78.832 C 344.698 78.832 345.024 77.188 345.121 76.58 C 345.217 75.98 345.256 75.559 345.223 75.127 C 345.158 74.272 344.86 73.6 343.838 72.289 Z" style="fill: none;"/>
  <path d="M 345.425 71.071 C 347.64 74.399 346.479 78.381 346.479 78.381 C 346.536 78.896 344.703 78.807 344.698 78.832 C 344.698 78.832 345.024 77.188 345.121 76.58 C 345.217 75.98 345.256 75.559 345.223 75.127 C 345.158 74.272 344.86 73.6 343.838 72.289 Z" style="fill: none;"/>
  <path d="M 345.841 70.794 C 347.972 74.149 347.066 78.092 346.967 78.488 L 346.976 78.326 C 346.966 78.512 346.889 78.779 346.781 78.892 C 346.688 78.99 346.525 79.084 346.408 79.13 C 346.196 79.213 345.904 79.263 345.661 79.287 C 345.418 79.311 345.17 79.319 344.995 79.323 C 344.971 79.323 344.949 79.324 344.928 79.324 L 343.729 81.146 L 344.207 78.735 C 344.207 78.735 344.531 77.1 344.627 76.501 C 344.721 75.917 344.757 75.555 344.724 75.165 C 344.68 74.392 344.434 73.855 343.443 72.597 L 343.131 72.201 L 345.553 70.342 Z M 344.535 72.384 C 345.355 73.511 345.636 74.151 345.722 75.089 C 345.753 75.539 345.717 75.995 345.629 76.568 C 345.629 76.568 344.894 78.325 344.977 78.324 C 345.077 78.322 345.19 78.319 345.309 78.312 C 345.24 78.667 345.311 78.312 345.311 78.312 C 345.393 78.307 345.477 78.301 345.562 78.293 C 345.751 78.274 345.896 78.251 346.008 78.213 C 346.106 77.879 346.987 74.659 345.299 71.799 Z" style="fill: none;"/>
  <path d="M 345.425 71.071 C 347.312 74.265 346.856 73.405 346.851 75.265 C 346.536 77.129 344.703 78.807 344.698 78.832 C 344.698 78.832 345.024 77.188 345.121 76.58 C 345.217 75.98 345.256 75.559 345.223 75.127 C 345.158 74.272 345.425 71.071 345.425 71.071 Z" style="stroke-width: 1;"/>
  <path d="M 345.855 70.817 C 346.796 72.41 347.187 73.049 347.327 73.529 C 347.494 74.103 347.33 74.441 347.35 75.267 L 347.351 75.308 L 347.343 75.349 C 346.95 77.356 345.116 79.041 345.187 78.931 L 343.716 81.207 L 344.206 78.736 C 344.206 78.736 344.53 77.101 344.626 76.502 C 344.72 75.918 344.756 75.556 344.723 75.166 C 344.658 74.271 344.925 71.031 344.925 71.031 L 345.054 69.465 Z M 345.722 75.089 C 345.755 75.563 345.713 76.043 345.615 76.659 C 345.516 77.276 345.569 76.932 345.537 77.107 C 345.914 76.545 346.092 76.929 346.352 75.223 C 346.378 74.226 346.443 74.068 346.367 73.808 C 346.264 73.455 346.151 73.288 345.804 72.695 C 345.743 73.612 345.656 74.274 345.721 75.089 Z" style="fill: none;"/>
  <path d="M 345.855 70.817 C 346.796 72.41 347.187 73.049 347.327 73.529 C 347.494 74.103 347.33 74.441 347.35 75.267 L 347.351 75.308 L 347.343 75.349 C 346.95 77.356 345.116 79.041 345.187 78.931 L 343.716 81.207 L 344.206 78.736 C 344.206 78.736 344.53 77.101 344.626 76.502 C 344.72 75.918 344.756 75.556 344.723 75.166 C 344.658 74.271 344.925 71.031 344.925 71.031 L 345.054 69.465 Z M 345.722 75.089 C 345.755 75.563 345.713 76.043 345.615 76.659 C 345.516 77.276 345.569 76.932 345.537 77.107 C 345.914 76.545 346.092 76.929 346.352 75.223 C 346.378 74.226 346.443 74.068 346.367 73.808 C 346.264 73.455 346.151 73.288 345.804 72.695 C 345.743 73.612 345.656 74.274 345.721 75.089 Z" style="fill: none;"/>
  <path d="M 346.286 70.563 C 347.225 72.153 347.641 72.849 347.808 73.39 C 347.96 74.143 347.806 74.545 347.851 75.255 L 347.853 75.35 L 347.843 75.403 L 347.835 75.444 C 347.607 76.529 347.006 77.555 346.491 78.235 C 346.229 78.58 345.975 78.866 345.8 79.047 C 345.709 79.141 345.629 79.218 345.578 79.263 C 345.571 79.269 345.564 79.275 345.557 79.281 L 342.719 83.673 L 343.717 78.638 C 343.717 78.638 344.039 77.012 344.134 76.422 C 344.226 75.853 344.259 75.546 344.226 75.202 C 344.161 74.268 344.428 70.99 344.428 70.99 L 344.686 67.86 L 345.486 69.21 Z M 345.222 75.13 C 345.255 75.566 345.216 75.983 345.12 76.582 C 345.022 77.19 344.697 78.834 344.697 78.834 L 344.715 78.741 L 344.767 78.66 C 344.767 78.66 345.278 78.435 345.177 78.437 C 345.062 78.439 344.925 78.51 344.907 78.523 C 344.901 78.527 344.895 78.532 344.91 78.519 C 344.948 78.485 345.002 78.433 345.079 78.353 C 345.24 78.186 345.455 77.946 345.692 77.633 C 345.758 77.546 345.824 77.455 345.891 77.362 L 345.045 77.018 C 345.05 76.994 345.056 76.963 345.065 76.932 C 345.066 76.922 345.078 76.852 345.121 76.582 C 345.209 76.031 345.25 75.628 345.23 75.228 L 345.223 75.131 C 345.221 75.099 345.218 75.066 345.216 75.034 C 345.217 75.069 345.219 75.102 345.222 75.132 Z M 346.85 75.279 C 346.85 75.277 346.85 75.275 346.85 75.273 L 346.85 75.274 Z M 346.852 75.253 L 346.86 75.212 L 346.851 75.256 L 346.851 75.256 C 346.851 75.255 346.851 75.254 346.852 75.252 Z M 346.198 74.286 C 346.198 74.286 346.21 73.815 346.198 74.286 Z M 346.853 75.094 C 346.877 74.3 347.016 74.037 346.847 73.669 C 346.91 74.07 346.865 74.302 346.853 75.094 Z M 346.845 73.662 C 346.823 73.584 346.793 73.499 346.752 73.404 C 346.785 73.484 346.815 73.568 346.845 73.662 Z" style="fill: none;"/>
  <path style="stroke-width: 2; fill: rgb(211, 60, 60);" d="M 322.772 72.342 C 323.187 68.318 324.947 66.153 328.611 63.633 C 331.46 61.62 336.883 60.187 341.095 64.237 C 343.226 66.217 344.384 70.798 343.562 73.953 C 338.748 73.099 331.854 71.823 322.772 72.342 Z"/>
  <path d="M 321.777 72.239 C 322.301 67.951 324.265 65.432 328.034 62.816 C 329.555 61.756 331.887 60.774 334.296 60.662 C 336.687 60.551 339.461 61.367 341.781 63.509 C 344.056 65.733 345.353 70.801 344.53 74.205 L 344.313 75.102 L 343.387 74.938 C 338.569 74.083 331.791 72.814 322.829 73.341 L 321.634 73.411 Z M 342.786 72.8 C 343.203 70.003 342.401 66.706 340.414 64.97 C 338.523 63.067 336.473 62.564 334.388 62.661 C 332.32 62.757 330.516 63.497 329.188 64.45 C 325.629 66.873 324.432 68.286 323.911 71.286 C 332.451 70.931 338.02 71.959 342.786 72.8 Z" style="fill: none;"/>
  <path d="M 321.777 72.239 C 322.301 67.951 324.265 65.432 328.034 62.816 C 329.555 61.756 331.887 60.774 334.296 60.662 C 336.687 60.551 339.461 61.367 341.781 63.509 C 344.056 65.733 345.353 70.801 344.53 74.205 L 344.313 75.102 L 343.387 74.938 C 338.569 74.083 331.791 72.814 322.829 73.341 L 321.634 73.411 Z M 342.786 72.8 C 343.203 70.003 342.401 66.706 340.414 64.97 C 338.523 63.067 336.473 62.564 334.388 62.661 C 332.32 62.757 330.516 63.497 329.188 64.45 C 325.629 66.873 324.432 68.286 323.911 71.286 C 332.451 70.931 338.02 71.959 342.786 72.8 Z" style=""/>
  <path d="M 321.281 72.178 C 321.856 67.767 323.925 65.073 327.749 62.405 C 329.316 61.32 331.779 60.293 334.273 60.162 C 336.746 60.061 339.712 60.953 342.131 63.151 C 344.473 65.492 345.839 70.797 345.016 74.322 L 344.689 75.676 L 344.226 75.594 L 343.3 75.43 C 338.48 74.575 331.76 73.309 322.859 73.84 L 321.066 73.945 Z M 322.203 72.877 L 322.8 72.842 C 331.823 72.319 338.659 73.591 343.475 74.446 L 343.938 74.528 L 344.045 74.088 C 344.869 70.805 343.647 65.981 341.439 63.874 C 339.219 61.791 336.629 61.042 334.32 61.163 C 331.996 61.256 329.796 62.193 328.321 63.228 C 324.607 65.792 322.747 68.137 322.274 72.301 Z M 323.418 71.2 C 323.995 68.081 325.296 66.506 328.902 64.039 C 330.281 63.058 332.213 62.275 334.365 62.161 C 336.521 62.071 338.752 62.645 340.758 64.606 C 342.823 66.471 343.694 69.98 343.281 72.873 L 343.208 73.381 L 342.699 73.291 C 337.931 72.45 332.416 71.425 323.932 71.784 L 323.306 71.811 Z M 342.357 72.217 C 342.618 69.648 341.994 66.954 340.085 65.347 C 338.312 63.511 336.425 63.057 334.411 63.161 C 332.426 63.239 330.756 63.932 329.479 64.857 C 325.97 67.235 325.042 68.302 324.516 70.764 C 332.741 70.483 337.701 71.396 342.356 72.218 Z" style="fill: none;"/>
  <path style="stroke-width: 3; fill: rgb(189, 188, 213);" d="M 308.028 136.887 L 316.474 136.882 C 319.238 137.382 319.42 140.846 324.331 143.311 C 331.16 144.466 336.947 144.799 344.332 143.311 C 354.047 141.054 359.249 130.223 358.619 119.738 C 358.83 113.942 353.744 100.987 342.732 101.166 L 308.028 101.171 L 273.324 101.175 C 262.312 100.996 257.226 113.951 257.437 119.747 C 256.807 130.232 262.009 141.063 271.724 143.32 C 279.109 144.808 284.896 144.475 291.725 143.32 C 296.636 140.855 296.818 137.391 299.582 136.891 L 308.028 136.887 Z"/>
  <path d="M 299.849 138.367 C 298.935 138.326 298.648 139.053 297.623 140.315 C 296.605 141.568 295.086 143.247 292.398 144.661 L 292.21 144.76 L 291.975 144.8 C 285.064 145.964 278.961 146.284 271.384 144.782 C 266.202 143.487 261.953 139.874 259.395 135.359 C 256.848 130.863 255.649 125.148 255.935 119.722 C 255.878 116.601 257.164 111.535 259.922 107.39 C 262.672 103.257 267.338 99.748 273.323 99.675 L 308.027 99.671 L 342.707 99.666 C 348.691 99.739 353.383 103.247 356.132 107.38 C 358.889 111.525 360.177 116.591 360.119 119.712 C 360.419 125.157 359.206 130.853 356.659 135.349 C 354.101 139.864 349.81 143.486 344.627 144.781 C 337.051 146.283 330.991 145.954 324.08 144.79 L 323.845 144.75 L 323.657 144.651 C 320.969 143.237 319.45 141.558 318.432 140.305 C 317.407 139.043 317.119 138.317 316.206 138.357 L 315.657 138.381 L 308.028 138.386 L 300.378 138.39 Z M 299.397 135.391 L 308.028 135.387 L 316.659 135.382 L 316.741 135.406 C 318.591 135.947 319.777 137.202 320.761 138.414 C 321.753 139.635 322.714 140.837 324.791 141.868 C 331.443 142.985 336.841 143.315 344.035 141.841 C 348.568 140.879 351.734 137.957 354.049 133.871 C 356.374 129.766 357.451 124.869 357.121 119.828 C 357.25 117.146 356.12 112.779 353.635 109.042 C 351.141 105.293 347.784 102.414 342.756 102.666 L 308.028 102.671 L 273.324 102.675 C 268.296 102.423 264.914 105.303 262.421 109.051 C 259.935 112.788 258.807 117.01 258.936 119.692 C 258.606 124.732 259.681 129.774 262.006 133.879 C 264.321 137.965 267.531 140.897 272.063 141.858 C 279.257 143.332 284.612 142.993 291.264 141.876 C 293.341 140.845 294.302 139.643 295.294 138.422 C 296.278 137.211 297.464 135.955 299.314 135.414 Z" style=""/>
  <path style="stroke-width: 1; fill: rgb(121, 118, 129);" d="M 273.324 108.071 L 308.028 108.067 L 342.732 108.062 C 352.598 107.902 357.707 118.284 358.512 124.615 C 357.582 133.44 352.586 141.547 344.332 143.465 C 336.947 144.953 331.16 144.62 324.331 143.465 C 319.42 141 319.238 137.536 316.474 137.036 L 308.028 137.041 L 299.582 137.045 C 296.818 137.545 296.636 141.009 291.725 143.474 C 284.896 144.629 279.109 144.962 271.724 143.474 C 263.47 141.556 258.473 133.449 257.544 124.624 C 258.349 118.293 263.458 107.911 273.324 108.071 Z"/>
  <path d="M 273.324 107.571 L 308.028 107.567 L 342.724 107.562 C 347.802 107.525 351.757 110.17 354.415 113.598 C 357.074 117.027 358.593 121.335 359.008 124.552 L 359.015 124.61 L 359.009 124.668 C 358.531 129.137 357.013 133.494 354.576 136.921 C 352.136 140.352 348.652 142.953 344.431 143.956 C 336.982 145.449 331.104 145.117 324.248 143.959 L 324.172 143.946 L 324.107 143.913 C 321.574 142.62 320.219 141.072 319.21 139.83 C 318.198 138.585 317.631 137.711 316.445 137.537 L 308.029 137.542 L 299.613 137.546 C 298.427 137.72 297.859 138.594 296.847 139.839 C 295.838 141.081 294.483 142.629 291.95 143.922 L 291.885 143.955 L 291.809 143.968 C 284.953 145.126 279.06 145.455 271.611 143.962 C 267.39 142.959 263.92 140.361 261.48 136.93 C 259.043 133.504 257.524 129.146 257.047 124.677 L 257.041 124.619 L 257.048 124.561 C 257.463 121.344 258.982 117.036 261.641 113.607 C 264.299 110.179 268.246 107.535 273.324 107.571 Z M 262.431 114.22 C 259.868 117.525 258.448 121.524 258.047 124.63 C 258.506 128.965 259.937 133.037 262.294 136.35 C 264.648 139.658 267.799 142.069 271.828 142.986 C 279.146 144.468 284.799 144.136 291.568 142.994 C 293.901 141.829 295.069 140.439 296.07 139.208 C 297.068 137.98 297.954 136.901 299.492 136.554 L 299.527 136.546 L 308.026 136.542 L 316.526 136.537 L 316.562 136.545 C 318.1 136.892 318.986 137.971 319.984 139.199 C 320.985 140.43 322.153 141.82 324.486 142.985 C 331.256 144.127 336.908 144.459 344.226 142.977 C 348.255 142.061 351.406 139.65 353.76 136.341 C 356.117 133.028 357.549 128.956 358.008 124.621 C 357.607 121.515 356.187 117.516 353.624 114.211 C 351.06 110.905 347.527 108.439 342.739 108.562 L 308.027 108.567 L 273.323 108.571 C 268.535 108.448 264.994 110.914 262.43 114.22 Z" style=""/>
  <rect x="294.636" y="120.964" width="26.784" height="10.937" style="fill: rgb(104, 104, 104); stroke-width: 1;"/>
  <path d="M 321.92 120.464 L 321.92 132.401 L 294.136 132.401 L 294.136 120.464 Z M 295.136 131.401 L 320.92 131.401 L 320.92 121.464 L 295.136 121.464 Z" style=""/>
  <ellipse style="fill: rgb(53, 53, 53); stroke-width: 1;" cx="274.444" cy="136.965" rx="2.322" ry="1.935"/>
  <path d="M 277.266 136.965 C 277.266 137.618 276.898 138.307 276.406 138.717 C 275.922 139.12 275.173 139.4 274.444 139.4 C 273.715 139.4 272.966 139.121 272.482 138.717 C 271.99 138.307 271.622 137.617 271.622 136.965 C 271.622 136.312 271.99 135.623 272.482 135.213 C 272.966 134.81 273.715 134.53 274.444 134.53 C 275.173 134.53 275.922 134.809 276.406 135.213 C 276.898 135.623 277.266 136.313 277.266 136.965 Z M 275.766 135.981 C 275.409 135.684 274.998 135.53 274.444 135.53 C 273.89 135.53 273.479 135.684 273.122 135.981 C 272.774 136.271 272.622 136.549 272.622 136.965 C 272.622 137.381 272.774 137.659 273.122 137.949 C 273.479 138.246 273.89 138.4 274.444 138.4 C 274.998 138.4 275.409 138.246 275.766 137.949 C 276.114 137.659 276.266 137.381 276.266 136.965 C 276.266 136.549 276.114 136.271 275.766 135.981 Z" style=""/>
  <ellipse style="stroke-width: 1; fill: rgb(53, 53, 53);" cx="271.503" cy="118.543" rx="2.322" ry="1.935"/>
  <path d="M 274.325 118.543 C 274.325 119.196 273.957 119.885 273.465 120.295 C 272.981 120.698 272.232 120.978 271.503 120.978 C 270.774 120.978 270.025 120.699 269.541 120.295 C 269.049 119.885 268.681 119.195 268.681 118.543 C 268.681 117.89 269.049 117.201 269.541 116.791 C 270.025 116.388 270.774 116.108 271.503 116.108 C 272.232 116.108 272.981 116.387 273.465 116.791 C 273.957 117.201 274.325 117.891 274.325 118.543 Z M 272.825 117.559 C 272.468 117.262 272.057 117.108 271.503 117.108 C 270.949 117.108 270.538 117.262 270.181 117.559 C 269.833 117.849 269.681 118.127 269.681 118.543 C 269.681 118.959 269.833 119.237 270.181 119.527 C 270.538 119.824 270.949 119.978 271.503 119.978 C 272.057 119.978 272.468 119.824 272.825 119.527 C 273.173 119.237 273.325 118.959 273.325 118.543 C 273.325 118.127 273.173 117.849 272.825 117.559 Z" style=""/>
  <ellipse style="fill: rgb(53, 53, 53); stroke-width: 1;" cx="-339.73" cy="135.668" rx="2.322" ry="1.935" transform="matrix(-1, 0, 0, 1, 0, 0)"/>
  <path d="M -336.908 135.668 C -336.908 136.321 -337.276 137.01 -337.768 137.42 C -338.252 137.823 -339.001 138.103 -339.73 138.103 C -340.459 138.103 -341.208 137.824 -341.692 137.42 C -342.184 137.01 -342.552 136.32 -342.552 135.668 C -342.552 135.015 -342.184 134.326 -341.692 133.916 C -341.208 133.513 -340.459 133.233 -339.73 133.233 C -339.001 133.233 -338.252 133.512 -337.768 133.916 C -337.276 134.326 -336.908 135.016 -336.908 135.668 Z M -338.408 134.684 C -338.765 134.387 -339.176 134.233 -339.73 134.233 C -340.284 134.233 -340.695 134.387 -341.052 134.684 C -341.4 134.974 -341.552 135.252 -341.552 135.668 C -341.552 136.084 -341.4 136.362 -341.052 136.652 C -340.695 136.949 -340.284 137.103 -339.73 137.103 C -339.176 137.103 -338.765 136.949 -338.408 136.652 C -338.06 136.362 -337.908 136.084 -337.908 135.668 C -337.908 135.252 -338.06 134.974 -338.408 134.684 Z" style="" transform="matrix(-1, 0, 0, 1, 0, 0)"/>
  <ellipse style="stroke-width: 1; fill: rgb(53, 53, 53);" cx="-342.67" cy="117.246" rx="2.322" ry="1.935" transform="matrix(-1, 0, 0, 1, 0, 0)"/>
  <path d="M -339.848 117.246 C -339.848 117.899 -340.216 118.588 -340.708 118.998 C -341.192 119.401 -341.941 119.681 -342.67 119.681 C -343.399 119.681 -344.148 119.402 -344.632 118.998 C -345.124 118.588 -345.492 117.898 -345.492 117.246 C -345.492 116.593 -345.124 115.904 -344.632 115.494 C -344.148 115.091 -343.399 114.811 -342.67 114.811 C -341.941 114.811 -341.192 115.09 -340.708 115.494 C -340.216 115.904 -339.848 116.594 -339.848 117.246 Z M -341.348 116.262 C -341.705 115.965 -342.116 115.811 -342.67 115.811 C -343.224 115.811 -343.635 115.965 -343.992 116.262 C -344.34 116.552 -344.492 116.83 -344.492 117.246 C -344.492 117.662 -344.34 117.94 -343.992 118.23 C -343.635 118.527 -343.224 118.681 -342.67 118.681 C -342.116 118.681 -341.705 118.527 -341.348 118.23 C -341 117.94 -340.848 117.662 -340.848 117.246 C -340.848 116.83 -341 116.552 -341.348 116.262 Z" style="" transform="matrix(-1, 0, 0, 1, 0, 0)"/>
  <path style="fill: rgb(158, 148, 201); stroke-width: 1;" d="M 288.166 102.435 L 272.446 102.435 C 268.385 102.435 264.649 106.193 264.314 106.528 C 262.816 108.026 264.25 110.801 265.542 109.509 C 267.853 107.198 269.171 106.703 272.381 106.703 L 288.049 106.703 C 289.69 106.703 290.098 102.435 288.166 102.435 Z"/>
  <path d="M 288.049 107.203 L 272.381 107.203 C 269.259 107.187 268.133 107.625 265.896 109.863 C 265.476 110.283 264.844 110.416 264.431 110.272 C 264.028 110.132 263.628 109.706 263.429 109.275 C 263.236 108.857 263.132 108.27 263.197 107.746 C 263.261 107.228 263.52 106.616 263.961 106.175 C 264.295 105.841 268.208 102.009 272.447 101.936 L 288.167 101.936 C 288.805 101.99 289.383 102.381 289.638 102.872 C 289.883 103.344 289.983 104.015 289.947 104.6 C 289.911 105.184 289.735 105.835 289.461 106.293 C 289.177 106.768 288.616 107.149 288.049 107.204 Z M 288.602 105.78 C 288.806 105.438 288.919 105.022 288.948 104.538 C 288.978 104.056 288.92 103.66 288.749 103.332 C 288.588 103.023 288.493 102.881 288.165 102.935 L 272.445 102.935 C 268.561 102.861 265.002 106.546 264.667 106.882 C 264.359 107.19 264.236 107.486 264.188 107.87 C 264.141 108.248 264.196 108.554 264.335 108.856 C 264.469 109.145 264.576 109.264 264.758 109.328 C 264.929 109.388 264.962 109.383 265.188 109.157 C 267.572 106.773 269.083 106.221 272.381 106.205 L 288.049 106.205 C 288.303 106.26 288.408 106.107 288.602 105.782 Z" style=""/>
  <path style="fill: rgb(21, 21, 21); stroke-width: 1;" d="M 310.865 97.776 C 309.57 96.481 307.477 96.539 306.24 97.776 L 305.377 105.484 C 306.332 106.79 310.77 106.625 311.544 105.484 L 310.865 97.776 Z"/>
  <path d="M 311.958 105.765 C 311.425 106.438 309.919 106.88 308.536 106.902 C 307.155 106.923 305.601 106.53 304.973 105.78 L 304.856 105.64 L 305.763 97.541 L 305.886 97.423 C 306.591 96.748 307.598 96.335 308.526 96.327 C 309.454 96.319 310.48 96.717 311.218 97.423 L 311.346 97.545 L 312.059 105.637 Z M 310.383 98.002 C 309.853 97.508 309.287 97.32 308.535 97.327 C 307.784 97.333 307.227 97.531 306.717 98.007 L 305.896 105.339 C 306.328 105.778 307.25 105.922 308.52 105.902 C 309.789 105.882 310.661 105.714 311.029 105.34 Z" style=""/>
  <path style="fill: rgb(158, 148, 201); stroke-width: 1;" d="M 351.268 109.689 L 335.548 109.689 C 331.487 109.689 327.751 105.931 327.416 105.596 C 325.918 104.098 327.352 101.323 328.644 102.615 C 330.955 104.926 332.273 105.421 335.483 105.421 L 351.151 105.421 C 352.792 105.421 353.2 109.689 351.268 109.689 Z" transform="matrix(-1, 0, 0, -1, 679.33288474, 211.97047398)"/>
  <path d="M 351.268 110.189 L 335.548 110.189 C 331.31 110.115 327.397 106.284 327.062 105.95 C 326.621 105.509 326.362 104.897 326.298 104.379 C 326.233 103.855 326.337 103.268 326.53 102.85 C 326.729 102.42 327.129 101.994 327.532 101.853 C 327.946 101.709 328.577 101.842 328.997 102.262 C 331.235 104.5 332.36 104.938 335.482 104.922 L 351.15 104.922 C 351.716 104.977 352.278 105.357 352.562 105.833 C 352.835 106.291 353.012 106.942 353.048 107.526 C 353.084 108.111 352.984 108.782 352.739 109.254 C 352.484 109.745 351.906 110.136 351.268 110.19 Z M 351.852 108.792 C 352.022 108.464 352.08 108.068 352.051 107.586 C 352.021 107.103 351.909 106.687 351.705 106.344 C 351.511 106.019 351.406 105.866 351.152 105.921 L 335.484 105.921 C 332.186 105.905 330.676 105.353 328.291 102.969 C 328.065 102.743 328.033 102.738 327.861 102.798 C 327.679 102.861 327.572 102.981 327.438 103.27 C 327.298 103.572 327.244 103.878 327.291 104.256 C 327.339 104.639 327.462 104.936 327.77 105.244 C 328.106 105.58 331.665 109.264 335.548 109.191 L 351.268 109.191 C 351.596 109.245 351.691 109.103 351.852 108.794 Z" style="" transform="matrix(-1, 0, 0, -1, 679.3328857421875, 211.97047424316406)"/>
</svg>