<?xml version="1.0" encoding="utf-8"?>
<svg xmlns="http://www.w3.org/2000/svg" viewBox="32.4274 253.0148 112.0996 158.1692" width="112.1px" height="158.169px">
  <path style="stroke-width: 3; fill: rgb(158, 255, 46);" d="M 121.345 401.473 C 106.462 414.646 56.127 414.194 35.862 401.473 C 28.113 367.955 39.543 289.529 43.186 271.619 C 53.682 260.319 98.981 258.529 113.263 271.619 L 121.345 401.473 Z"/>
  <path d="M 122.339 402.596 C 114.544 409.357 97.74 412.74 80.617 412.683 C 63.505 412.626 45.458 409.206 35.065 402.743 L 34.54 402.417 L 34.401 401.811 C 26.641 368.016 38.066 289.271 41.717 271.32 L 41.803 270.895 L 42.087 270.598 C 47.713 264.728 62.2 261.199 76.782 260.973 C 91.355 260.747 106.769 263.784 114.277 270.513 L 114.722 270.912 L 122.888 402.12 Z M 111.804 272.321 C 104.86 266.253 91.099 263.751 76.828 263.972 C 62.566 264.193 49.666 267.095 44.572 272.332 C 40.85 290.948 29.723 366.954 37.185 400.529 C 47.135 406.571 63.784 409.627 80.626 409.683 C 97.457 409.739 112.469 406.909 119.801 400.825 Z" style=""/>
  <path style="stroke-width: 3; fill: rgb(158, 255, 46);" d="M 96.549 268.289 C 88.212 275.24 62.927 272.638 58.096 268.69 L 60.26 257.009 C 69.433 251.569 84.768 251.799 94.949 257.009 L 96.549 268.289 Z"/>
  <path d="M 97.51 269.441 C 92.957 273.084 84.045 274.355 75.956 274.076 C 67.855 273.796 59.878 271.978 57.147 269.852 L 56.455 269.313 L 58.911 256.057 L 59.495 255.718 C 69.062 250.173 85.121 250.381 95.632 255.673 L 96.324 256.021 L 98.154 268.924 Z M 93.574 257.996 C 83.77 253.209 70.442 252.978 61.61 257.957 L 59.746 268.02 C 62.451 269.608 68.227 270.807 76.06 271.077 C 83.905 271.348 90.956 270.539 94.944 267.649 Z" style=""/>
  <path style="fill: none; stroke-width: 2px; stroke-linecap: round;" d="M 65.288 259.294 C 71.306 262.091 84.885 262.438 90.44 259.294"/>
  <path d="M 65.56 258.332 C 65.212 258.253 64.848 258.365 64.605 258.628 C 64.363 258.89 64.278 259.262 64.385 259.603 C 64.491 259.944 64.771 260.202 65.12 260.281 C 65.12 260.281 65.071 260.27 65.12 260.281 C 65.12 260.281 68.552 261.518 70.808 261.903 C 73.056 262.287 75.571 262.501 78.029 262.523 C 82.947 262.567 87.981 261.797 90.933 260.165 C 91.414 259.893 91.583 259.283 91.311 258.802 C 91.039 258.321 90.429 258.152 89.948 258.424 C 87.344 259.936 82.812 260.565 78.047 260.522 C 75.664 260.501 73.309 260.3 71.144 259.93 C 70.065 259.746 69.071 259.526 68.141 259.263 C 67.216 259.001 65.56 258.331 65.56 258.331 C 65.592 258.341 65.56 258.331 65.56 258.331 Z" style=""/>
  <path style="fill: none; stroke-width: 2px; stroke-linecap: round;" d="M 52.943 278.891 C 57.254 282.883 90.609 287.296 104.327 279.045"/>
  <path d="M 53.401 278.002 C 53.061 277.902 52.693 277.993 52.44 278.241 C 52.187 278.489 52.087 278.855 52.181 279.197 C 52.274 279.539 52.546 279.804 52.89 279.889 C 52.89 279.889 52.808 279.878 52.89 279.889 C 52.89 279.889 64.38 283.982 75.054 284.557 C 85.714 285.132 97.767 284.097 104.843 279.901 C 105.316 279.616 105.469 279.002 105.185 278.529 C 104.9 278.056 104.286 277.903 103.813 278.187 C 97.171 282.243 85.688 283.127 75.163 282.56 C 69.906 282.277 64.982 281.619 61.073 280.781 C 59.126 280.364 57.481 279.914 56.167 279.441 C 55.517 279.207 54.991 278.984 54.54 278.752 C 54.102 278.526 53.403 278.002 53.403 278.002 C 53.448 278.028 53.403 278.002 53.403 278.002 Z" style=""/>
  <path style="stroke-width: 2px; fill: rgb(255, 255, 255);" d="M 67.577 329.64 C 66.657 331.825 65.586 343.898 68.26 350.355 C 69.521 353.398 74.538 358.987 81.121 357.525 C 83.696 356.952 86.33 354.359 88.177 349.899 C 91.327 342.293 91.17 333.221 90.453 330.551 C 87.042 326.366 69.287 326.478 67.577 329.64 Z"/>
  <path d="M 91.419 330.292 C 92.153 333.083 92.289 342.476 89.101 350.282 C 87.143 354.907 84.155 357.797 81.338 358.502 C 77.771 359.216 74.46 358.119 72.114 356.444 C 69.75 354.757 68.024 352.362 67.336 350.738 C 64.626 344.046 65.74 331.5 66.697 329.165 C 67.371 328.151 69.141 327.289 71.198 326.88 C 73.217 326.478 75.812 326.291 78.397 326.341 C 83.561 326.443 89.23 327.652 91.228 329.92 L 91.36 330.07 Z M 78.357 328.34 C 75.863 328.291 73.485 328.463 71.588 328.84 C 69.727 329.21 68.637 329.548 68.456 330.115 C 67.573 332.15 66.545 343.75 69.183 349.972 C 69.756 351.391 71.169 353.312 73.275 354.815 C 75.398 356.33 77.888 357.296 80.903 356.548 C 83.236 356.107 85.516 353.811 87.252 349.516 C 90.364 342.11 90.193 333.787 89.537 331.009 C 87.962 329.215 83.351 328.438 78.357 328.34 Z" style=""/>
  <path style="stroke-width: 2px; fill: rgb(255, 255, 255);" d="M 99.784 330.979 C 99.014 333.164 98.118 345.237 100.356 351.694 C 101.411 354.737 105.61 360.326 111.119 358.864 C 113.274 358.291 115.478 355.698 117.024 351.238 C 119.66 343.632 119.529 334.56 118.929 331.89 C 116.074 327.705 101.215 327.817 99.784 330.979 Z"/>
  <path d="M 119.905 331.671 C 120.517 334.443 120.633 343.789 117.969 351.566 C 116.332 356.186 113.783 359.099 111.376 359.831 C 108.298 360.539 105.403 359.422 103.419 357.73 C 101.43 356.034 99.985 353.64 99.412 352.022 C 97.148 345.364 98.077 332.881 98.874 330.567 C 99.463 329.536 100.997 328.643 102.747 328.226 C 104.457 327.819 106.667 327.628 108.847 327.68 C 113.198 327.782 118.028 329.029 119.756 331.327 L 119.86 331.465 Z M 108.799 329.679 C 106.728 329.63 104.776 329.799 103.209 330.172 C 101.682 330.535 100.821 330.842 100.695 331.392 C 99.952 333.448 99.089 345.111 101.301 351.367 C 101.783 352.792 102.965 354.715 104.716 356.208 C 106.472 357.706 108.432 358.652 110.862 357.898 C 112.764 357.484 114.624 355.211 116.079 350.911 C 118.687 343.476 118.546 335.052 117.99 332.282 C 116.727 330.519 112.949 329.777 108.799 329.679 Z" style=""/>
  <ellipse style="" cx="85.516" cy="341.108" rx="4.453" ry="6.943"/>
  <path d="M 90.469 341.108 C 90.469 343.094 89.93 344.971 89.086 346.287 C 88.229 347.624 86.889 348.551 85.516 348.551 C 84.143 348.551 82.804 347.624 81.946 346.287 C 81.101 344.97 80.563 343.094 80.563 341.108 C 80.563 339.122 81.102 337.245 81.946 335.929 C 82.803 334.592 84.143 333.665 85.516 333.665 C 86.889 333.665 88.228 334.592 89.086 335.929 C 89.931 337.246 90.469 339.122 90.469 341.108 Z M 88.244 336.468 C 87.49 335.292 86.603 334.665 85.516 334.665 C 84.429 334.665 83.543 335.292 82.788 336.468 C 82.021 337.664 81.563 339.259 81.563 341.108 C 81.563 342.956 82.021 344.551 82.788 345.748 C 83.542 346.924 84.429 347.551 85.516 347.551 C 86.603 347.551 87.489 346.924 88.244 345.748 C 89.011 344.552 89.469 342.957 89.469 341.108 C 89.469 339.26 89.011 337.665 88.244 336.468 Z" style=""/>
  <ellipse style="stroke-width: 1;" cx="103.82" cy="342.317" rx="4.453" ry="6.943"/>
  <path d="M 108.773 342.317 C 108.773 344.303 108.234 346.18 107.39 347.496 C 106.533 348.833 105.193 349.76 103.82 349.76 C 102.447 349.76 101.108 348.833 100.25 347.496 C 99.405 346.179 98.867 344.303 98.867 342.317 C 98.867 340.331 99.406 338.454 100.25 337.138 C 101.107 335.801 102.447 334.874 103.82 334.874 C 105.193 334.874 106.532 335.801 107.39 337.138 C 108.235 338.455 108.773 340.331 108.773 342.317 Z M 106.548 337.677 C 105.794 336.501 104.907 335.874 103.82 335.874 C 102.733 335.874 101.847 336.501 101.092 337.677 C 100.325 338.873 99.867 340.468 99.867 342.317 C 99.867 344.165 100.325 345.76 101.092 346.957 C 101.846 348.133 102.733 348.76 103.82 348.76 C 104.907 348.76 105.793 348.133 106.548 346.957 C 107.315 345.761 107.773 344.166 107.773 342.317 C 107.773 340.469 107.315 338.874 106.548 337.677 Z" style=""/>
  <path style="" d="M 82.757 297.669 L 83.973 305.789 C 75.914 304.615 66.042 307.065 60.854 313.596 L 57.686 301.422 C 62.948 296.973 75.329 297.108 82.757 297.669 Z"/>
  <path d="M 84.567 306.382 L 83.9 306.283 C 75.937 305.104 66.297 307.462 61.245 313.906 L 60.624 314.698 L 57.122 301.239 L 57.363 301.039 C 62.789 296.531 75.35 296.608 82.794 297.169 L 83.192 297.199 Z M 58.25 301.604 L 61.096 312.54 C 66.52 306.487 75.348 304.266 83.381 305.208 L 82.322 298.139 C 74.891 297.603 63.483 297.421 58.25 301.605 Z" style=""/>
  <path style="" d="M 106.191 298.585 L 106.341 306.99 C 110.947 305.886 116.921 308.689 120.903 314.797 L 121.503 303.239 C 118.513 299.687 111.284 298.019 106.191 298.585 Z"/>
  <path d="M 121.322 316.363 L 120.484 315.07 C 118.536 312.066 116.138 309.931 113.626 308.633 C 111.128 307.343 108.662 306.928 106.457 307.476 L 105.852 307.626 L 105.683 298.136 L 106.136 298.087 C 111.313 297.526 118.761 299.281 121.886 302.916 L 122.013 303.064 Z M 106.699 299.037 L 106.83 306.386 C 109.092 306.027 111.449 306.383 114.085 307.745 C 116.708 309.1 118.597 310.819 120.478 313.323 L 120.993 303.411 C 118.073 300.049 111.669 298.607 106.699 299.037 Z" style=""/>
  <path style="stroke-width: 2px; fill: rgb(158, 255, 46);" d="M 85.879 307.818 C 88.588 313.345 93.079 325.962 92.487 332.35 C 82.505 326.746 67.413 328.113 61.818 333.077"/>
  <path d="M 86.777 307.378 C 89.508 312.957 94.048 325.841 93.483 332.442 L 93.35 333.991 L 91.997 333.222 C 87.167 330.477 81.167 329.493 75.553 329.749 C 72.754 329.877 70.159 330.317 67.866 331.035 C 66.725 331.392 65.719 331.798 64.793 332.278 C 64.333 332.517 63.927 332.755 63.531 333.02 C 63.137 333.284 62.374 333.908 62.374 333.908 C 62.4 333.889 61.441 332.154 61.519 332.123 C 61.519 332.123 64.83 329.891 67.268 329.127 C 69.69 328.368 72.541 327.885 75.462 327.752 C 81.288 327.485 86.649 328.428 91.548 330.746 C 91.444 324.243 87.668 313.733 84.981 308.259 Z" style="fill: none;"/>
  <path d="M 88.865 313.832 C 91.591 319.397 94.043 325.827 93.483 332.442 L 93.352 333.991 L 91.998 333.221 C 87.168 330.476 81.168 329.492 75.554 329.748 C 72.755 329.876 70.16 330.316 67.867 331.034 C 66.726 331.391 65.72 331.797 64.794 332.277 C 64.334 332.516 63.928 332.754 63.532 333.019 C 63.138 333.283 62.375 333.907 62.375 333.907 C 62.401 333.888 64.831 329.89 67.269 329.126 C 69.691 328.367 72.542 327.884 75.463 327.751 C 81.289 327.484 86.681 328.432 91.587 330.763 C 91.732 325.143 88.865 313.832 88.865 313.832 Z" style=""/>
  <path d="M 89.314 313.612 C 92.049 319.198 94.526 325.759 93.981 332.484 L 93.784 334.812 L 93.104 334.426 L 91.75 333.656 C 87.003 330.94 81.138 329.989 75.576 330.248 C 72.807 330.373 70.276 330.802 68.015 331.512 C 66.893 331.862 65.928 332.251 65.023 332.721 C 64.574 332.954 64.192 333.178 63.809 333.435 C 63.437 333.683 62.7 334.287 62.69 334.295 L 60.731 335.896 L 62.041 333.534 C 62.025 333.563 64.544 329.521 67.118 328.65 C 69.573 327.883 72.487 327.389 75.439 327.253 C 81.32 326.99 86.307 327.872 91.089 329.987 C 91.242 324.435 88.379 313.956 88.379 313.956 Z M 92.087 330.776 L 92.068 331.547 L 91.372 331.215 C 86.53 328.904 81.257 327.98 75.485 328.251 C 72.594 328.381 69.807 328.853 67.418 329.604 C 66.363 329.905 65.3 330.898 64.451 331.893 C 64.488 331.873 64.526 331.854 64.563 331.834 C 65.51 331.344 66.557 330.921 67.717 330.557 C 70.043 329.831 72.701 329.38 75.53 329.249 C 81.196 328.996 87.331 330.012 92.244 332.787 L 92.919 333.171 L 92.984 332.401 C 93.56 325.896 92.208 322.951 90.464 318.61 C 91.255 322.394 92.224 325.089 92.086 330.777 Z" style="fill: none;"/>
  <path style="stroke-width: 2px; fill: rgb(158, 255, 46);" d="M 112.829 310.986 C 116.712 315.925 121.009 323.929 122.994 332.431 C 117.386 327.954 103.64 328.765 98.701 332.35"/>
  <path d="M 113.615 310.368 C 117.545 315.38 121.936 323.579 123.968 332.204 L 124.65 335.098 L 122.371 333.213 C 119.786 331.075 115.269 330.278 110.617 330.368 C 108.293 330.413 106.047 330.696 104.032 331.193 C 103.03 331.44 102.138 331.725 101.317 332.066 C 100.503 332.404 99.085 333.275 99.085 333.275 C 99.13 333.254 98.578 331.365 98.683 331.351 C 98.683 331.351 105.719 328.462 110.579 328.368 C 115.436 328.275 118.414 328.925 121.423 330.333 C 119.303 322.85 115.88 316.471 112.044 311.604 Z" style="fill: none;"/>
  <path d="M 113.046 310.748 C 116.957 315.727 121.917 323.546 123.968 332.204 L 124.654 335.102 L 122.37 333.213 C 119.785 331.075 115.268 330.278 110.616 330.368 C 108.292 330.413 106.046 330.696 104.031 331.193 C 103.029 331.44 102.137 331.725 101.316 332.066 C 100.502 332.404 99.084 333.275 99.084 333.275 C 99.129 333.254 98.577 331.365 98.682 331.351 C 98.682 331.351 105.718 328.462 110.578 328.368 C 115.435 328.275 118.399 328.922 121.405 330.326 C 119.21 322.935 113.046 310.748 113.046 310.748 Z" style=""/>
  <path d="M 113.439 310.439 C 117.365 315.439 122.371 323.354 124.454 332.089 L 125.483 336.437 L 122.05 333.598 C 119.581 331.514 115.228 330.774 110.624 330.868 C 108.326 330.911 106.135 331.187 104.149 331.679 C 103.163 331.921 102.307 332.195 101.506 332.528 C 100.735 332.845 99.371 333.685 99.344 333.701 L 97.929 334.569 L 98.58 333.27 C 98.571 333.224 98.556 333.162 98.536 333.08 C 98.493 332.903 98.432 332.666 98.372 332.427 C 98.312 332.188 98.252 331.939 98.214 331.752 C 98.194 331.655 98.177 331.554 98.171 331.483 C 98.167 331.44 98.165 331.365 98.171 331.315 C 98.176 331.276 98.199 331.183 98.227 331.129 C 98.272 331.041 98.481 330.913 98.614 330.855 L 98.954 330.705 C 100.613 330.066 106.371 327.963 110.566 327.867 C 115.481 327.78 117.856 328.312 120.6 329.429 C 118.422 322.08 112.597 310.972 112.597 310.972 Z M 121.884 330.184 L 122.202 331.253 L 121.193 330.779 C 118.239 329.393 115.386 328.769 110.587 328.868 C 106.454 328.933 100.688 331.097 99.221 331.673 C 99.254 331.823 99.298 332 99.344 332.184 C 99.369 332.284 99.395 332.385 99.419 332.482 C 99.419 332.482 99.078 332.692 99.422 332.493 C 99.454 332.62 99.485 332.741 99.51 332.844 C 99.533 332.937 100.235 332.039 100.235 332.039 C 100.549 331.871 100.865 331.713 101.124 331.604 C 101.965 331.256 102.893 330.959 103.911 330.707 C 105.955 330.205 108.256 329.914 110.606 329.868 C 115.306 329.782 119.987 330.636 122.688 332.828 L 123.823 333.767 L 123.48 332.319 C 121.461 323.737 119.021 320.307 115.999 315.711 C 117.973 319.928 119.671 322.751 121.882 330.184 Z" style="fill: none;"/>
  <g style="" transform="matrix(1, 0, 0, 1.333485, -1.387439, -117.297546)">
    <rect x="64.323" y="331.191" width="29.044" height="20.446" style="fill: none; stroke-width: 0.857087px;" rx="6.115" ry="6.115" transform="matrix(1, 0, -0.112352, 1, 38.358562, 0)"/>
    <rect x="-57.555" y="-331.19" width="25.988" height="20.446" style="fill: none; stroke-width: 0.857087px;" rx="6.115" ry="6.115" transform="matrix(-1, 0, -0.006608, 1, 66.559669, 662.477051)"/>
    <path style="fill: none; stroke-linecap: round; stroke-width: 0.857087px;" d="M 94.258 334.862 C 96.208 332.444 98.945 333.131 99.683 334.862"/>
    <path style="fill: none; stroke-linecap: round; stroke-width: 0.857087px;" d="M 65.374 334.715 C 61.122 332.834 46.9 328.117 40.595 326.505 C 37.953 325.767 36.958 327.935 35.316 330.463"/>
    <path d="M 60.085 334.275 C 58.066 333.547 55.711 332.737 53.281 331.932 C 48.421 330.321 43.339 328.753 40.222 327.957 C 39.377 327.563 39.203 327.769 38.627 328.331 C 37.994 328.95 37.419 329.974 36.573 331.279 C 36.122 331.974 35.193 332.171 34.498 331.72 C 33.803 331.269 33.606 330.34 34.057 329.645 C 34.854 328.422 35.597 327.098 36.532 326.185 C 37.525 325.216 39.169 324.706 40.966 325.051 C 44.154 325.867 49.336 327.464 54.226 329.085 C 56.672 329.896 59.064 330.718 61.104 331.454 C 62.482 331.951 64.174 332.619 65.131 333.001 C 65.436 332.602 65.768 332.238 66.12 331.921 C 67.561 330.625 69.753 329.756 71.755 329.691 L 88.569 329.691 C 90.557 329.756 92.553 330.626 93.704 331.921 C 93.943 332.19 94.159 332.494 94.351 332.823 C 95.423 332.096 96.607 331.732 97.55 331.812 C 98.257 331.871 99.104 332.181 99.65 332.558 C 99.861 332.704 100.04 332.894 100.18 333.074 C 100.439 332.684 100.727 332.328 101.04 332.017 C 102.345 330.722 104.445 329.852 106.44 329.787 L 120.198 329.787 C 122.193 329.852 124.281 330.721 125.568 332.017 C 126.855 333.313 127.711 335.407 127.763 337.402 L 127.708 345.618 C 127.63 347.613 126.747 349.707 125.443 351.003 C 124.138 352.298 122.039 353.168 120.043 353.233 L 106.285 353.233 C 104.291 353.168 102.202 352.299 100.915 351.003 C 99.628 349.707 98.772 347.613 98.72 345.618 L 98.775 337.402 C 98.791 336.988 98.842 336.571 98.924 336.156 C 98.892 336.137 98.86 336.117 98.829 336.096 C 98.829 336.096 98.682 335.962 98.829 336.096 C 98.829 336.096 98.173 335.184 97.944 335.026 C 97.708 334.863 97.611 334.827 97.298 334.801 C 96.595 334.742 96.075 334.828 95.424 335.804 C 95.39 335.846 95.354 335.886 95.316 335.924 C 95.36 336.383 95.365 336.847 95.329 337.306 L 94.405 345.522 C 94.116 347.517 93.011 349.611 91.57 350.907 C 90.129 352.203 87.937 353.072 85.935 353.137 L 69.121 353.137 C 67.133 353.072 65.137 352.202 63.986 350.907 C 62.836 349.611 62.202 347.517 62.361 345.522 L 63.285 337.306 C 63.364 336.758 63.505 336.202 63.698 335.658 C 62.71 335.266 61.268 334.702 60.085 334.275 Z M 68.003 334.043 C 66.982 334.961 66.375 335.924 66.285 337.306 L 65.361 345.522 C 65.141 346.904 65.532 347.868 66.347 348.785 C 67.162 349.703 68.069 350.202 69.458 350.137 L 86.272 350.137 C 87.647 350.202 88.667 349.703 89.687 348.785 C 90.708 347.867 91.315 346.904 91.405 345.522 L 92.329 337.306 C 92.549 335.924 92.158 334.96 91.343 334.043 C 90.528 333.125 89.621 332.626 88.232 332.691 L 71.418 332.691 C 70.043 332.626 69.023 333.125 68.003 334.043 Z M 120.178 332.787 L 106.42 332.787 C 105.039 332.722 104.072 333.221 103.148 334.139 C 102.224 335.056 101.719 336.02 101.775 337.402 L 101.72 345.618 C 101.646 347 102.139 347.963 103.051 348.881 C 103.962 349.799 104.923 350.298 106.305 350.233 L 120.063 350.233 C 121.445 350.298 122.411 349.799 123.335 348.881 C 124.259 347.964 124.764 347 124.708 345.618 L 124.763 337.402 C 124.837 336.02 124.344 335.057 123.432 334.139 C 122.521 333.221 121.561 332.722 120.178 332.787 Z" style="fill: rgb(85, 85, 85); stroke: rgb(0, 0, 0); stroke-width: 0.857087px;"/>
  </g>
  <g>
    <path style="stroke: rgb(0, 0, 0); fill: rgb(213, 205, 165); stroke-width: 2px;" d="M 110.044 355.173 C 103.318 351.033 89.018 345.067 82.598 345.293 L 108.524 361.254 L 119.418 357.96 L 140.446 334.568 L 130.059 334.568 C 122.305 339.435 112.602 349.714 110.044 355.173 Z"/>
    <path style="stroke: rgb(0, 0, 0); fill: rgb(143, 72, 72); stroke-width: 2px;" d="M 57.618 343.39 C 71.685 339.556 96.584 347.697 107.454 357.976 L 98.844 403.66 C 86.756 394.037 65.181 389.782 50.527 389.377 L 57.618 343.39 Z"/>
    <path style="stroke: rgb(0, 0, 0); fill: rgb(102, 53, 50); stroke-width: 2px;" d="M 107.555 358.078 C 108.466 360.07 115.253 357.841 118.191 355.14 L 112.316 400.115 C 110.02 403.289 103.537 405.111 98.945 403.659 L 107.555 358.179 L 107.555 358.078 Z"/>
    <path style="stroke: rgb(0, 0, 0); fill: rgb(83, 36, 32); stroke-width: 2px;" d="M 131.359 384.414 C 127.146 381.341 116.375 393.061 112.822 399.81 L 118.143 355.46 C 118.554 349.049 135.699 335.518 144.527 331.134 L 131.359 384.414 Z"/>
  </g>
</svg>