<?xml version="1.0" encoding="utf-8"?>
<svg xmlns="http://www.w3.org/2000/svg" viewBox="123.0075 934.7095 96.6986 169.1562" width="96.6986px" height="169.156px">
  <path style="stroke-width: 3; fill: rgb(158, 255, 46);" d="M 190.349 951.073 L 152.702 950.923 L 152.702 938.997 C 162.664 933.158 179.317 933.404 190.374 938.997 L 190.349 951.073" transform="matrix(1, 0, 0, 1, 0, -1.1368683772161603e-13)"/>
  <path d="M 190.343 952.573 L 152.696 952.423 L 151.202 952.417 L 151.202 950.923 L 151.202 938.997 L 151.202 938.129 L 151.943 937.703 C 162.295 931.761 179.666 931.985 191.051 937.659 L 191.876 938.07 L 191.874 939.001 L 191.849 951.077 L 188.849 951.071 L 188.872 939.927 C 178.203 934.815 163.838 934.573 154.202 939.866 L 154.202 949.429 L 190.355 949.573 Z" style="" transform="matrix(1, 0, 0, 1, 0, -1.1368683094535245e-13)"/>
  <path style="stroke-width: 3; fill: rgb(158, 255, 46);" d="M 219.039 1093.47 C 202.876 1107.57 148.214 1107.09 126.21 1093.47 C 117.932 1064.04 127.559 977.803 134.16 954.328 C 145.559 942.21 194.752 940.292 210.262 954.328 C 215.599 981.657 221.765 1073.85 219.039 1093.47 Z" transform="matrix(1, 0, 0, 1, 0, -1.1368683772161603e-13)"/>
  <path d="M 220.025 1094.6 C 211.592 1101.821 193.39 1105.425 174.81 1105.365 C 156.24 1105.305 136.682 1101.655 125.421 1094.745 L 124.924 1094.44 L 124.766 1093.876 C 116.465 1064.16 126.092 977.517 132.716 953.922 L 132.818 953.558 L 133.067 953.301 C 139.144 947.025 154.826 943.263 170.646 943.021 C 186.457 942.779 203.148 946.017 211.268 953.216 L 211.637 953.543 L 211.734 954.041 C 217.083 981.464 223.256 1073.904 220.525 1093.677 L 220.447 1094.24 Z M 208.885 955.106 C 201.351 948.511 186.205 945.782 170.693 946.02 C 155.189 946.257 141.027 949.413 135.506 955.087 C 128.933 978.931 119.522 1062.83 127.499 1092.5 C 138.318 1099.008 156.517 1102.305 174.82 1102.365 C 193.112 1102.425 209.703 1099.333 217.626 1092.708 C 220.162 1072.129 214.187 982.938 208.884 955.107 Z" style="" transform="matrix(1, 0, 0, 1, 0, -1.1368683094535245e-13)"/>
  <path style="stroke-width: 2; fill: rgb(255, 255, 255);" d="M 149.147 979.82 C 156.9 973.522 161.644 979.275 164.241 986.299 C 166.559 997.158 165.033 1012.85 158.321 1018.48 C 150.941 1023.1 143.655 1017.14 140.774 1009.63 C 138.852 999.057 141.727 988.451 149.147 979.82 Z" transform="matrix(1, 0, 0, 1, 0, -1.1368683772161603e-13)"/>
  <path d="M 148.516 979.044 C 150.557 977.405 152.545 976.457 154.262 976.199 C 156.027 975.934 157.783 976.369 159.152 977.213 C 161.835 978.867 163.845 982.365 165.179 985.953 L 165.204 986.021 L 165.219 986.091 C 167.546 997.103 165.852 1013.282 158.964 1019.247 L 158.91 1019.294 L 158.852 1019.328 C 154.851 1021.712 150.638 1021.425 147.349 1019.463 C 144.083 1017.515 141.349 1013.866 139.841 1009.989 L 139.807 1009.902 L 139.791 1009.81 C 137.878 999.017 140.866 987.995 148.39 979.169 L 148.449 979.1 Z M 141.741 1009.359 C 143.118 1012.954 145.431 1015.99 148.373 1017.745 C 151.292 1019.486 154.373 1019.864 157.728 1017.674 C 164.221 1012.343 165.567 997.281 163.278 986.579 C 162.018 983.172 160.379 980.32 158.102 978.916 C 156.992 978.231 155.945 977.969 154.559 978.178 C 153.125 978.393 151.651 979.07 149.847 980.541 C 142.574 988.963 139.809 999.008 141.741 1009.361 Z" style="" transform="matrix(1, 0, 0, 1, 0, -1.1368683094535245e-13)"/>
  <path style="stroke-width: 2; fill: rgb(255, 255, 255);" d="M 190.115 1019.24 C 197.868 1025.54 202.612 1019.79 205.209 1012.76 C 207.527 1001.91 206.001 986.212 199.289 980.582 C 191.909 975.962 184.623 981.922 181.742 989.432 C 179.82 1000.01 182.695 1010.61 190.115 1019.24 Z" transform="matrix(-1, 0, 0, -1, 387.38601685, 2000.90002441)"/>
  <path d="M 180.808 989.074 C 182.316 985.197 185.05 981.547 188.316 979.6 C 191.606 977.638 195.819 977.351 199.819 979.735 L 199.877 979.769 L 199.931 979.816 C 206.819 985.781 208.513 1001.966 206.186 1012.969 L 206.171 1013.039 L 206.146 1013.106 C 204.812 1016.697 202.802 1020.196 200.119 1021.849 C 198.75 1022.693 196.994 1023.127 195.229 1022.862 C 193.512 1022.604 191.524 1021.655 189.483 1020.015 L 189.414 1019.959 L 189.356 1019.89 C 181.833 1011.065 178.845 1000.05 180.757 989.251 L 180.773 989.159 Z M 190.815 1018.521 C 192.619 1019.992 194.093 1020.669 195.528 1020.885 C 196.914 1021.094 197.961 1020.832 199.071 1020.147 C 201.348 1018.743 202.987 1015.891 204.246 1012.48 C 206.534 1001.787 205.189 986.719 198.696 981.388 C 195.341 979.198 192.259 979.576 189.341 981.317 C 186.399 983.072 184.086 986.107 182.709 989.703 C 180.811 1000.029 183.499 1010.086 190.815 1018.521 Z" style="" transform="matrix(-1, 0, 0, -1, 387.3860168457031, 2000.9000244140625)"/>
  <path style="fill: none; stroke-width: 2px; stroke-linejoin: round; stroke-linecap: round;" d="M 153.441 1039.238 C 153.441 1039.238 154.629 1037.569 154.733 1037.506 C 159.348 1034.716 159.412 1039.474 161.634 1038.733 C 163.57 1038.087 163.634 1035.687 167.462 1035.513 C 169.987 1035.398 172.156 1038.879 173.443 1038.887 C 176.885 1038.908 176.673 1036.465 180.191 1036.126 C 183.598 1035.798 186.919 1042.48 187.858 1040.267 C 189.525 1036.337 192.002 1037.892 193.006 1040.311" transform="matrix(1, 0, 0, 1, 0, -1.1368683772161603e-13)"/>
  <path d="M 152.861 1040.053 C 152.411 1039.733 152.306 1039.108 152.626 1038.658 C 152.626 1038.658 153.963 1036.851 154.215 1036.65 C 155.502 1035.896 156.662 1035.575 157.506 1035.627 C 158.428 1035.683 159.235 1036.166 159.732 1036.593 C 160.232 1037.023 160.574 1037.438 160.874 1037.667 C 161.15 1037.878 161.096 1037.976 161.317 1037.785 C 162.025 1037.662 162.329 1037.004 163.148 1036.223 C 163.948 1035.46 165.249 1034.684 167.416 1034.515 C 168.993 1034.551 170.512 1035.508 171.56 1036.39 C 172.613 1037.276 173.157 1038.033 173.449 1037.888 C 174.867 1037.998 175.36 1037.502 176.165 1036.86 C 176.971 1036.218 178.062 1035.416 180.095 1035.131 C 182.19 1035.101 184.271 1036.831 185.652 1038.191 C 187.037 1039.555 187.29 1040.833 186.938 1039.876 C 187.411 1038.794 188.023 1037.936 188.617 1037.481 C 189.275 1036.978 190.218 1036.789 190.886 1036.929 C 191.541 1037.066 192.261 1037.535 192.741 1038.045 C 193.208 1038.541 193.735 1039.625 193.735 1039.625 C 193.795 1039.703 193.735 1039.625 193.735 1039.625 C 193.954 1039.906 194.006 1040.283 193.871 1040.614 C 193.736 1040.944 193.435 1041.177 193.081 1041.224 C 192.727 1041.271 192.376 1041.125 192.159 1040.842 C 192.159 1040.842 192.138 1040.805 192.159 1040.842 C 192.159 1040.842 191.862 1040.215 191.718 1039.984 C 191.575 1039.756 191.448 1039.59 191.284 1039.415 C 190.965 1039.076 190.774 1038.948 190.475 1038.886 C 190.19 1038.826 190.139 1038.834 189.832 1039.069 C 189.462 1039.352 189.139 1039.774 188.778 1040.657 C 188.533 1041.112 188.009 1041.626 187.555 1041.698 C 187.131 1041.765 186.552 1041.567 186.213 1041.355 C 185.618 1040.984 184.93 1040.287 184.248 1039.615 C 182.882 1038.269 181.599 1036.822 180.287 1037.121 C 178.802 1037.175 178.239 1037.764 177.412 1038.423 C 176.584 1039.083 175.462 1039.797 173.438 1039.886 C 172.442 1039.734 171.258 1038.746 170.274 1037.918 C 169.285 1037.086 168.457 1036.36 167.508 1036.511 C 165.847 1036.516 165.202 1037.027 164.529 1037.669 C 163.874 1038.293 163.179 1039.158 161.951 1039.681 C 161.061 1039.86 160.166 1039.641 159.661 1039.256 C 159.18 1038.889 158.8 1038.427 158.43 1038.109 C 158.057 1037.788 157.843 1037.65 157.386 1037.622 C 156.851 1037.589 156.273 1037.719 155.252 1038.36 C 155.296 1038.286 154.257 1039.817 154.257 1039.817 C 153.937 1040.267 153.312 1040.372 152.862 1040.052 Z" style="" transform="matrix(1, 0, 0, 1, 0, -1.1368683094535245e-13)"/>
  <path style="fill: none; stroke-width: 2px;" d="M 168.323 1047.38 C 169.896 1044.842 175.579 1044.198 178.618 1046.951" transform="matrix(1, 0, 0, 1, 0, -1.1368683772161603e-13)"/>
  <path d="M 167.473 1046.853 C 168.484 1045.389 170.687 1044.329 172.854 1044.183 C 173.933 1044.111 175.153 1044.226 176.229 1044.539 C 177.305 1044.853 178.898 1045.99 178.898 1045.99 C 178.987 1046.025 178.098 1047.802 178.146 1047.831 C 178.146 1047.831 177.295 1047.169 176.896 1046.955 C 176.496 1046.741 176.116 1046.589 175.67 1046.458 C 174.776 1046.197 173.908 1046.116 172.989 1046.177 C 171.161 1046.3 169.737 1046.83 169.174 1047.905 Z" style="fill: none;" transform="matrix(1, 0, 0, 1, 0, -1.1368683094535245e-13)"/>
  <path d="M 167.473 1046.853 C 168.484 1045.389 170.687 1044.329 172.854 1044.183 C 173.933 1044.111 174.811 1044.168 176.229 1044.539 C 177.647 1044.91 180.664 1047.244 180.664 1047.244 C 178.417 1046.595 176.23 1046.304 175.784 1046.173 C 174.89 1045.912 172.484 1045.945 171.565 1046.006 C 169.737 1046.129 167.473 1046.853 167.473 1046.853 Z" style="" transform="matrix(1, 0, 0, 1, 0, -1.1368683772161603e-13)"/>
  <path d="M 167.062 1046.569 C 168.17 1045.022 170.563 1043.854 172.821 1043.684 C 173.933 1043.612 174.892 1043.672 176.356 1044.055 C 177.869 1044.451 180.97 1046.848 180.97 1046.848 L 183.051 1048.457 L 180.525 1047.724 C 178.314 1047.083 176.128 1046.792 175.643 1046.653 C 174.822 1046.402 172.504 1046.445 171.598 1046.505 C 169.829 1046.617 167.625 1047.329 167.625 1047.329 L 166.183 1047.795 Z M 171.531 1045.507 C 172.463 1045.445 174.956 1045.422 175.924 1045.693 C 176.333 1045.816 175.97 1045.489 178.253 1046.146 C 177.475 1045.64 177.425 1045.369 176.102 1045.023 C 174.73 1044.664 173.933 1044.61 172.887 1044.682 C 170.812 1044.804 170.183 1045.202 169.167 1045.886 C 169.9 1045.72 169.644 1045.641 171.531 1045.507 Z" style="fill: none;" transform="matrix(1, 0, 0, 1, 0, -1.1368683094535245e-13)"/>
  <path style="fill: none; stroke-width: 2px;" d="M 153.846 1032.581 C 152.479 1038.26 153.37 1042.909 157.492 1046.844" transform="matrix(1, 0, 0, 1, 0, -1.1368683772161603e-13)"/>
  <path d="M 152.847 1032.547 C 152.847 1032.547 152.307 1035.266 152.26 1036.618 C 152.214 1037.976 152.338 1039.348 152.638 1040.6 C 153.239 1043.104 154.654 1045.491 156.801 1047.568 L 158.182 1046.121 C 156.208 1044.263 155.116 1042.357 154.583 1040.134 C 154.316 1039.022 154.217 1037.921 154.259 1036.687 C 154.28 1036.068 154.336 1035.46 154.431 1034.807 C 154.526 1034.153 154.836 1032.725 154.836 1032.725 C 154.832 1032.749 152.852 1032.491 152.847 1032.547 Z" style="fill: none;" transform="matrix(1, 0, 0, 1, 0, -1.1368683094535245e-13)"/>
  <path d="M 154.608 1031.528 C 154.604 1031.552 152.421 1034.183 152.26 1036.618 C 152.17 1037.974 152.338 1039.348 152.638 1040.6 C 153.239 1043.104 154.654 1045.491 156.801 1047.568 C 156.801 1047.568 155.116 1042.357 154.583 1040.134 C 154.316 1039.022 154.217 1037.921 154.259 1036.687 C 154.28 1036.068 154.051 1035.403 154.146 1034.75 C 154.241 1034.096 154.608 1031.528 154.608 1031.528 Z" style="" transform="matrix(1, 0, 0, 1, 0, -1.1368683772161603e-13)"/>
  <path d="M 154.641 1034.822 C 154.535 1035.358 154.766 1035.995 154.759 1036.704 C 154.716 1037.907 154.808 1038.941 155.07 1040.017 C 155.598 1042.221 157.278 1047.414 157.278 1047.414 L 157.899 1049.332 L 156.455 1047.927 C 154.267 1045.798 152.782 1043.289 152.153 1040.716 C 151.848 1039.436 151.674 1037.987 151.762 1036.584 C 151.98 1034.006 154.166 1031.35 154.116 1031.445 L 155.498 1028.843 L 155.104 1031.598 C 155.104 1031.598 154.737 1034.167 154.642 1034.821 Z M 153.812 1033.558 C 153.294 1034.475 152.862 1034.359 152.759 1036.651 C 152.668 1037.96 152.829 1039.259 153.124 1040.484 C 153.697 1042.919 154.385 1043.975 155.638 1045.555 C 155.106 1043.849 154.635 1042.493 154.096 1040.252 C 153.823 1039.104 153.717 1037.936 153.758 1036.671 C 153.792 1036.142 153.566 1035.449 153.65 1034.679 C 153.745 1034.026 153.811 1033.559 153.811 1033.559 Z" style="fill: none;" transform="matrix(1, 0, 0, 1, 0, -1.1368683094535245e-13)"/>
  <path style="fill: none; stroke-width: 2px;" d="M 193.095 1034.833 C 194.039 1037.938 193.254 1044.194 191.379 1046.521" transform="matrix(1, 0, 0, 1, 0, -1.1368683772161603e-13)"/>
  <path d="M 194.052 1034.542 C 194.546 1036.231 194.608 1038.787 194.285 1041.107 C 194.123 1042.268 193.859 1043.456 193.519 1044.468 C 193.176 1045.491 192.327 1046.839 192.327 1046.839 C 192.303 1046.898 190.506 1046.036 190.484 1046.076 C 190.484 1046.076 190.956 1045.392 191.135 1045.033 C 191.317 1044.668 191.472 1044.285 191.623 1043.833 C 191.929 1042.92 192.153 1041.913 192.304 1040.832 C 192.606 1038.666 192.589 1036.541 192.139 1035.125 Z" style="fill: none;" transform="matrix(1, 0, 0, 1, 0, -1.1368683094535245e-13)"/>
  <path d="M 191.854 1032.903 C 191.854 1032.903 195.292 1036.337 194.285 1041.107 C 194.043 1042.254 193.574 1043.114 193.234 1044.126 C 192.891 1045.149 189.879 1047.404 189.857 1047.444 C 189.857 1047.444 190.956 1045.392 191.135 1045.033 C 191.317 1044.668 191.472 1044.285 191.623 1043.833 C 191.929 1042.92 192.153 1041.913 192.304 1040.832 C 192.606 1038.666 192.304 1034.319 191.854 1032.903 Z" style="" transform="matrix(1, 0, 0, 1, 0, -1.1368683772161603e-13)"/>
  <path d="M 192.207 1032.549 C 192.207 1032.549 193.124 1033.466 193.893 1034.991 C 194.647 1036.485 195.272 1038.702 194.774 1041.21 C 194.507 1042.425 194.03 1043.313 193.708 1044.285 C 193.278 1045.429 190.248 1047.725 190.295 1047.685 L 188.234 1049.416 L 189.417 1047.208 C 189.417 1047.208 190.513 1045.162 190.688 1044.81 C 190.862 1044.463 191.004 1044.112 191.149 1043.674 C 191.448 1042.786 191.661 1041.824 191.809 1040.763 C 192.109 1038.649 191.817 1034.412 191.378 1033.054 L 190.727 1031.041 Z M 192.799 1040.901 C 192.644 1042.002 192.41 1043.054 192.097 1043.992 C 191.941 1044.458 191.772 1044.874 191.582 1045.256 C 191.4 1045.621 191.512 1045.393 191.456 1045.501 C 192.091 1044.926 192.504 1044.87 192.76 1043.967 C 193.117 1042.915 193.579 1042.083 193.796 1041.004 C 194.304 1038.742 193.714 1036.857 193.001 1035.442 C 192.303 1034.057 192.808 1035.068 192.711 1034.899 C 192.928 1036.838 193.104 1038.684 192.8 1040.902 Z" style="fill: none;" transform="matrix(1, 0, 0, 1, 0, -1.1368683094535245e-13)"/>
  <ellipse style="" cx="158.884" cy="996.041" rx="4.027" ry="6.97" transform="matrix(1, 0, 0, 1, 0, -1.1368683772161603e-13)"/>
  <path d="M 163.411 996.041 C 163.411 998.028 162.927 999.9 162.164 1001.22 C 161.388 1002.563 160.149 1003.511 158.884 1003.511 C 157.619 1003.511 156.38 1002.563 155.604 1001.22 C 154.842 999.901 154.357 998.029 154.357 996.041 C 154.357 994.054 154.841 992.182 155.604 990.862 C 156.38 989.519 157.619 988.571 158.884 988.571 C 160.149 988.571 161.388 989.519 162.164 990.862 C 162.926 992.181 163.411 994.053 163.411 996.041 Z M 161.299 991.363 C 160.618 990.184 159.843 989.571 158.884 989.571 C 157.925 989.571 157.151 990.183 156.469 991.363 C 155.774 992.566 155.357 994.179 155.357 996.041 C 155.357 997.903 155.774 999.516 156.469 1000.719 C 157.15 1001.898 157.925 1002.511 158.884 1002.511 C 159.843 1002.511 160.617 1001.899 161.299 1000.719 C 161.994 999.516 162.411 997.903 162.411 996.041 C 162.411 994.179 161.994 992.566 161.299 991.363 Z" style="" transform="matrix(1, 0, 0, 1, 0, -1.1368683094535245e-13)"/>
  <ellipse style="stroke-width: 1;" cx="187.848" cy="996.971" rx="4.027" ry="6.97" transform="matrix(1, 0, 0, 1, 0, -1.1368683772161603e-13)"/>
  <path d="M 192.375 996.971 C 192.375 998.958 191.891 1000.83 191.128 1002.15 C 190.352 1003.493 189.113 1004.441 187.848 1004.441 C 186.583 1004.441 185.344 1003.493 184.568 1002.15 C 183.806 1000.831 183.321 998.959 183.321 996.971 C 183.321 994.984 183.805 993.112 184.568 991.792 C 185.344 990.449 186.583 989.501 187.848 989.501 C 189.113 989.501 190.352 990.449 191.128 991.792 C 191.89 993.111 192.375 994.983 192.375 996.971 Z M 190.263 992.293 C 189.582 991.114 188.807 990.501 187.848 990.501 C 186.889 990.501 186.115 991.113 185.433 992.293 C 184.738 993.496 184.321 995.109 184.321 996.971 C 184.321 998.833 184.738 1000.446 185.433 1001.649 C 186.114 1002.828 186.889 1003.441 187.848 1003.441 C 188.807 1003.441 189.581 1002.829 190.263 1001.649 C 190.958 1000.446 191.375 998.833 191.375 996.971 C 191.375 995.109 190.958 993.496 190.263 992.293 Z" style="" transform="matrix(1, 0, 0, 1, 0, -1.1368683094535245e-13)"/>
  <path style="" d="M 160.979 955.913 L 166.11 961.64 C 161.51 971.667 148.837 980.644 139.621 976.674 L 137.831 965.339 C 147.753 970.013 157.893 960.874 160.979 955.913 Z" transform="matrix(1, 0, 0, 1, 0, -1.1368683772161603e-13)"/>
  <path d="M 166.702 961.551 L 166.565 961.848 C 164.223 966.925 159.813 971.794 154.858 974.832 C 149.895 977.875 144.186 979.132 139.423 977.133 L 139.17 977.027 L 137.187 964.473 L 138.043 964.887 C 142.843 967.206 147.625 966.089 151.724 963.803 C 155.819 961.519 159.04 958.091 160.553 955.649 L 160.904 955.082 Z M 152.212 964.676 C 147.989 967.031 143.314 968.019 138.465 966.149 L 140.072 976.323 C 144.47 978.138 149.508 976.939 154.335 973.98 C 159.171 971.015 163.228 966.567 165.518 961.729 L 161.041 956.732 C 159.344 959.207 156.44 962.319 152.213 964.677 Z" style="" transform="matrix(1, 0, 0, 1, 0, -1.1368683094535245e-13)"/>
  <path style="" d="M 186.514 959.015 L 183.054 965.935 C 185.826 970.448 204.914 986.082 208.23 987.055 L 213.48 976.674 C 208.942 977.216 188.949 961.967 186.514 959.015 Z" transform="matrix(1, 0, 0, 1, 0, -1.1368683772161603e-13)"/>
  <path d="M 208.487 987.654 L 208.089 987.535 C 204.685 986.516 185.454 970.772 182.628 966.197 L 182.482 965.961 L 186.411 958.103 L 186.899 958.697 C 189.293 961.609 209.063 976.769 213.42 976.178 L 214.355 976.051 Z M 186.64 959.882 L 183.629 965.904 C 186.784 970.603 203.867 984.6 207.986 986.43 L 212.688 977.133 C 206.947 976.238 190.622 963.844 186.64 959.882 Z" style="" transform="matrix(1, 0, 0, 1, 0, -1.1368683094535245e-13)"/>
  <path style="fill: rgb(156, 230, 247); stroke-width: 2px;" d="M 151.834 1017.262 C 154.077 1016.729 158.147 1016.581 161.454 1017.114 C 163.276 1017.03 165.825 1021.861 162.49 1023.627 C 160.219 1024.3 157.021 1024.741 154.498 1023.479 C 150.991 1021.895 145.493 1021.3 142.805 1022.294 C 140.211 1023.146 138.16 1021.526 136.884 1019.778 C 134.911 1017.798 135.763 1014.885 138.069 1015.042 C 141.563 1015.106 146.106 1017.334 148.725 1017.41 L 151.834 1017.262 Z" transform="matrix(1, 0, 0, 1, 0, -1.1368683772161603e-13)"/>
  <path d="M 151.698 1016.267 C 154.057 1015.738 158.208 1015.587 161.613 1016.126 L 161.622 1016.127 L 161.408 1016.114 C 162.135 1016.158 163.037 1016.586 163.58 1017.16 C 164.099 1017.709 164.601 1018.558 164.859 1019.375 C 165.117 1020.19 165.202 1021.259 164.952 1022.129 C 164.702 1022.996 163.96 1023.924 162.958 1024.511 L 162.886 1024.553 L 162.774 1024.586 C 160.429 1025.275 156.901 1025.701 154.086 1024.391 C 150.731 1022.848 145.577 1022.279 143.117 1023.245 C 141.582 1023.689 140.024 1023.488 138.89 1022.9 C 137.757 1022.312 136.781 1021.318 136.096 1020.395 C 135.037 1019.172 134.591 1017.534 134.906 1016.353 C 135.072 1015.73 135.518 1015.029 136.031 1014.641 C 136.538 1014.258 137.327 1014.026 138.087 1014.044 C 141.792 1014.159 146.283 1016.359 148.708 1016.412 Z M 151.977 1018.256 L 148.773 1018.409 C 145.948 1018.282 141.334 1016.055 138.051 1016.042 C 137.658 1015.981 137.476 1016.055 137.237 1016.235 C 137.004 1016.411 136.928 1016.533 136.839 1016.866 C 136.644 1017.597 136.74 1018.323 137.593 1019.072 L 137.635 1019.109 L 137.692 1019.188 C 138.282 1020.005 138.951 1020.677 139.811 1021.123 C 140.67 1021.569 141.433 1021.751 142.492 1021.344 C 145.418 1020.338 151.251 1020.942 154.91 1022.567 C 157.141 1023.781 159.953 1023.334 162.141 1022.687 C 162.711 1022.404 162.878 1022.108 163.031 1021.575 C 163.184 1021.045 163.144 1020.58 162.953 1019.977 C 162.763 1019.376 162.495 1018.922 162.127 1018.534 C 161.784 1018.171 161.685 1018.026 161.5 1018.112 L 161.465 1018.128 L 161.295 1018.1 C 158.086 1017.573 154.211 1017.714 152.065 1018.234 Z" style="" transform="matrix(1, 0, 0, 1, 0, -1.1368683094535245e-13)"/>
  <path style="fill: rgb(156, 230, 247); stroke-width: 2px;" d="M 197.882 1023.39 C 200.125 1023.92 204.195 1024.08 207.502 1023.54 C 209.324 1023.63 211.873 1018.79 208.538 1017.03 C 206.267 1016.36 203.069 1015.91 200.546 1017.17 C 197.039 1018.76 191.541 1019.36 188.853 1018.37 C 186.259 1017.51 184.208 1019.13 182.932 1020.88 C 180.959 1022.86 181.811 1025.78 184.117 1025.62 C 187.611 1025.56 192.154 1023.33 194.773 1023.25 L 197.882 1023.39 Z" transform="matrix(-1, 0, 0, -1, 391.99197387, 2042)"/>
  <path d="M 194.758 1024.25 C 192.333 1024.306 187.892 1026.506 184.186 1026.617 C 183.425 1026.635 182.586 1026.406 182.078 1026.022 C 181.565 1025.634 181.119 1024.932 180.953 1024.308 C 180.638 1023.125 181.081 1021.487 182.143 1020.263 C 182.829 1019.339 183.804 1018.344 184.938 1017.757 C 186.072 1017.169 187.663 1016.981 189.198 1017.43 C 191.659 1018.392 196.744 1017.822 200.099 1016.274 C 202.915 1014.966 206.478 1015.384 208.821 1016.07 L 208.933 1016.103 L 209.005 1016.145 C 210.008 1016.731 210.751 1017.658 211.001 1018.525 C 211.252 1019.395 211.166 1020.464 210.908 1021.279 C 210.65 1022.096 210.148 1022.945 209.629 1023.494 C 209.086 1024.068 208.181 1024.495 207.454 1024.537 L 207.669 1024.524 L 207.665 1024.525 C 204.258 1025.071 200.107 1024.909 197.75 1024.383 Z M 197.927 1022.391 L 198.023 1022.395 L 198.112 1022.416 C 200.26 1022.933 204.134 1023.086 207.341 1022.552 L 207.516 1022.523 L 207.552 1022.54 C 207.735 1022.628 207.832 1022.483 208.176 1022.12 C 208.543 1021.732 208.811 1021.278 209.001 1020.676 C 209.192 1020.073 209.232 1019.607 209.079 1019.078 C 208.925 1018.545 208.764 1018.25 208.192 1017.969 C 206.002 1017.324 203.224 1016.851 200.994 1018.063 C 197.335 1019.695 191.461 1020.321 188.537 1019.317 C 187.479 1018.907 186.718 1019.088 185.86 1019.533 C 185.001 1019.978 184.332 1020.65 183.742 1021.468 L 183.685 1021.548 L 183.643 1021.585 C 182.79 1022.334 182.694 1023.062 182.889 1023.795 C 182.978 1024.129 183.054 1024.251 183.287 1024.427 C 183.526 1024.608 183.658 1024.684 184.05 1024.622 C 187.332 1024.613 191.921 1022.381 194.745 1022.25 Z" style="" transform="matrix(-1, 0, 0, -1, 391.9919738769531, 2042)"/>
</svg>