<?xml version="1.0" encoding="utf-8"?>
<svg xmlns="http://www.w3.org/2000/svg" viewBox="258.0547 265.6659 113.2885 151.6871" width="113.288px" height="151.687px">
  <path style="stroke-width: 3; fill: rgb(158, 255, 46);" d="M 370.622 407.642 C 354.276 420.815 298.993 420.363 276.736 407.642 C 281.318 391.926 284.253 306.88 279.429 286.148 C 290.957 274.848 337.366 268.711 353.052 281.801 C 358.055 293.839 375.022 374.872 370.622 407.642 Z"/>
  <path d="M 371.563 408.81 C 363.051 415.551 344.67 418.909 325.891 418.852 C 307.122 418.795 287.367 415.393 275.992 408.944 L 274.963 408.36 L 275.297 407.221 C 279.849 391.689 282.774 307.023 277.969 286.487 L 277.775 285.657 L 278.38 285.076 C 284.453 279.243 299.395 274.657 314.552 273.333 C 329.703 272.01 345.774 273.934 354.014 280.648 L 354.294 280.876 L 354.438 281.224 C 359.483 293.396 376.5 374.817 372.11 407.84 L 372.03 408.44 Z M 351.802 282.711 C 344.263 276.538 329.668 275.025 314.812 276.323 C 299.96 277.62 286.905 281.469 281.076 286.657 C 285.66 308.853 282.916 388.385 278.483 406.896 C 289.504 412.8 307.378 415.796 325.901 415.852 C 344.414 415.908 361.17 413.022 369.214 406.845 C 373.344 373.967 356.929 295.713 351.803 282.711 Z" style=""/>
  <path style="stroke-width: 3; fill: rgb(158, 255, 46);" d="M 334.25 282.818 C 324.413 289.828 301.257 287.131 296.176 282.678 L 298.517 271.538 C 308.592 266.098 320.753 266.328 331.935 271.538 L 334.25 282.818 Z" transform="matrix(0.99485701, -0.10129001, 0.10129001, 0.99485701, -26.46934253, 33.35421751)"/>
  <path d="M 335.121 284.04 C 329.864 287.678 321.146 288.906 313.361 288.545 C 305.557 288.183 298.039 286.196 295.188 283.806 L 294.524 283.249 L 297.194 270.541 L 297.805 270.218 C 308.251 264.688 321.085 264.898 332.569 270.178 L 333.252 270.492 L 335.919 283.487 Z M 330.618 272.581 C 319.962 267.75 309.415 267.52 299.842 272.529 L 297.837 282.072 C 300.54 283.878 305.996 285.2 313.5 285.548 C 321.022 285.897 327.929 285.07 332.581 282.141 Z" style="" transform="matrix(0.9948570132255554, -0.1012900173664093, 0.1012900173664093, 0.9948570132255554, -26.469343185424805, 33.354217529296875)"/>
  <path style="" d="M 339.742 306.88 L 345.838 321.336 C 334.953 320.149 325.828 326.102 316.229 332.831 L 311.701 326.038 C 318.059 315.66 329.322 310.032 339.742 306.88 Z"/>
  <path d="M 346.631 321.93 L 345.784 321.833 C 335.063 320.607 326.108 326.516 316.516 333.24 L 316.097 333.534 L 311.107 326.048 L 311.275 325.776 C 317.734 315.305 329.138 309.568 339.598 306.401 L 340.029 306.271 Z M 312.295 326.027 L 316.362 332.128 C 325.806 325.523 334.372 319.996 345.055 320.765 L 339.457 307.49 C 329.206 310.646 318.581 315.917 312.295 326.027 Z" style=""/>
  <path style="" d="M 295.967 309.782 L 295.322 317.121 C 288.361 313.195 275.343 312.342 267.978 318.166 L 265.365 302.317 C 275.008 301.518 289.785 305.714 295.967 309.782 Z"/>
  <path d="M 295.752 317.94 L 295.076 317.557 C 291.66 315.619 286.789 314.464 281.804 314.488 C 276.817 314.512 271.875 315.694 268.288 318.559 L 267.623 319.09 L 264.783 301.863 L 265.323 301.819 C 275.055 301.029 289.99 305.265 296.241 309.365 L 296.49 309.529 Z M 265.947 302.775 L 268.338 317.277 C 272.053 314.669 276.696 313.512 281.799 313.487 C 286.904 313.463 291.387 314.549 294.89 316.324 L 295.443 310.037 C 289.204 306.056 275.504 302.162 265.948 302.774 Z" style=""/>
  <path style="stroke-linecap: round; stroke-linejoin: round;" d="M 343.891 344.247 C 335.138 348.202 323.856 350.662 321.455 350 C 319.537 347.413 318.291 339.06 317.236 333.988 C 315.394 336.473 320.222 351.878 315.894 353.355 C 327.771 352.44 336.456 348.794 343.891 344.247 Z"/>
  <path d="M 315.733 352.882 C 316.177 352.758 316.422 352.475 316.673 351.976 C 316.933 351.46 317.085 350.816 317.174 350.001 C 317.354 348.353 317.217 346.264 317 344.099 C 316.566 339.769 315.868 335.122 316.835 333.69 C 316.952 333.532 317.152 333.457 317.344 333.499 C 317.536 333.541 317.686 333.693 317.726 333.886 C 318.784 338.972 319.941 346.919 321.753 349.557 C 324.361 350.068 334.983 347.73 343.686 343.791 C 343.927 343.682 344.21 343.779 344.334 344.013 C 344.457 344.246 344.378 344.536 344.153 344.673 C 336.684 349.237 327.888 352.919 315.934 353.853 C 315.683 353.872 315.457 353.702 315.406 353.455 C 315.355 353.208 315.496 352.962 315.734 352.881 Z M 317.508 352.732 C 317.533 352.749 317.572 352.74 317.601 352.725 C 327.85 351.957 329.503 351.98 336.851 347.483 C 329.913 349.754 323.843 351.147 321.322 350.482 C 321.214 350.452 321.12 350.387 321.053 350.298 C 319.089 347.599 318.302 341.683 317.249 336.625 C 317.301 338.527 317.557 339.637 317.994 344 C 318.213 346.182 318.356 348.376 318.167 350.11 C 318.071 350.986 317.877 351.807 317.565 352.426 C 317.489 352.577 317.474 352.66 317.487 352.703 C 317.456 352.713 317.419 352.726 317.375 352.743 C 317.419 352.74 317.464 352.736 317.508 352.733 Z" style=""/>
  <path d="M 339.709 320.938 C 340.439 321.987 341.121 323.204 341.64 324.647 C 341.897 325.361 341.429 332.303 341.431 332.316 C 341.431 332.316 340.825 329.396 340.756 328.945 C 340.687 328.495 340.448 327.867 340.362 327.464 C 340.19 326.661 339.993 325.977 339.759 325.325 C 339.295 324.035 338.747 323.048 338.07 322.084 L 339.709 320.938 Z" style=""/>
  <path d="M 340.119 320.652 C 340.862 321.722 341.574 322.997 342.11 324.477 C 342.381 325.293 341.925 332.281 341.925 332.239 L 340.941 332.417 C 340.941 332.417 340.333 329.485 340.261 329.02 C 340.205 328.621 339.969 328.007 339.872 327.568 C 339.704 326.782 339.517 326.131 339.287 325.494 C 338.84 324.241 338.322 323.313 337.659 322.371 L 337.371 321.961 L 339.832 320.24 Z M 338.76 322.211 C 339.328 323.078 339.748 323.829 340.229 325.155 C 340.468 325.822 340.674 326.539 340.85 327.359 C 340.906 327.63 341.053 328.053 341.159 328.457 C 341.238 326.763 341.283 325.102 341.169 324.816 C 340.667 323.411 340.185 322.562 339.579 321.638 Z" style="fill: none;"/>
  <ellipse style="stroke-width: 1;" cx="290.024" cy="345.044" rx="23.372" ry="27.07" transform="matrix(1, 0, 0.197376, 1, -71.357742, -1.77506)"/>
  <path d="M 313.896 345.044 C 313.896 352.609 311.213 359.55 306.929 364.512 C 302.639 369.481 296.593 372.614 290.024 372.614 C 283.455 372.614 277.409 369.481 273.119 364.512 C 268.834 359.55 266.152 352.609 266.152 345.044 C 266.152 337.479 268.835 330.538 273.119 325.576 C 277.409 320.607 283.455 317.474 290.024 317.474 C 296.593 317.474 302.639 320.607 306.929 325.576 C 311.214 330.538 313.896 337.479 313.896 345.044 Z M 306.172 326.229 C 302.003 321.401 296.363 318.474 290.024 318.474 C 283.685 318.474 278.045 321.401 273.876 326.229 C 269.702 331.064 267.152 337.659 267.152 345.044 C 267.152 352.429 269.701 359.024 273.876 363.859 C 278.045 368.687 283.685 371.614 290.024 371.614 C 296.363 371.614 302.003 368.687 306.172 363.859 C 310.346 359.024 312.896 352.429 312.896 345.044 C 312.896 337.659 310.347 331.064 306.172 326.229 Z" style="" transform="matrix(1, 0, 0.19737601280212402, 1, -71.35774230957031, -1.7750599384307861)"/>
  <ellipse style="fill: rgb(216, 216, 216); stroke-width: 1;" cx="290.024" cy="345.044" rx="19.221" ry="22.262" transform="matrix(1, 0, 0.197376, 1, -72.316689, -1.406246)"/>
  <path d="M 309.745 345.044 C 309.745 351.282 307.527 357.02 303.994 361.112 C 300.455 365.211 295.447 367.806 290.024 367.806 C 284.601 367.806 279.593 365.211 276.054 361.112 C 272.521 357.02 270.303 351.281 270.303 345.044 C 270.303 338.806 272.521 333.068 276.054 328.976 C 279.593 324.877 284.601 322.282 290.024 322.282 C 295.447 322.282 300.455 324.877 303.994 328.976 C 307.527 333.068 309.745 338.807 309.745 345.044 Z M 303.237 329.629 C 299.819 325.671 295.217 323.282 290.024 323.282 C 284.831 323.282 280.229 325.671 276.811 329.629 C 273.388 333.594 271.303 338.987 271.303 345.044 C 271.303 351.101 273.388 356.494 276.811 360.459 C 280.229 364.417 284.831 366.806 290.024 366.806 C 295.217 366.806 299.819 364.417 303.237 360.459 C 306.66 356.494 308.745 351.101 308.745 345.044 C 308.745 338.987 306.66 333.594 303.237 329.629 Z" style="" transform="matrix(1, 0, 0.19737601280212402, 1, -72.31668853759766, -1.4062459468841553)"/>
  <path style="" d="M 297.52 368.199 L 312.522 399.814 C 315.087 403.113 324.719 398.82 322.564 393.615 L 302.728 365.72 L 297.52 368.199 Z"/>
  <path d="M 323.007 393.376 L 323.025 393.424 C 323.58 394.86 323.381 396.336 322.694 397.498 C 322.013 398.651 320.824 399.664 319.547 400.345 C 318.271 401.026 316.777 401.448 315.483 401.469 C 314.172 401.49 312.888 401.03 312.126 400.121 L 312.096 400.085 L 296.853 367.962 L 302.891 365.088 Z M 298.186 368.436 L 312.955 399.559 C 313.48 400.259 314.319 400.488 315.469 400.469 C 316.635 400.45 317.896 400.093 319.079 399.462 C 320.261 398.831 321.237 398.001 321.836 396.989 C 322.429 395.985 322.62 395.006 322.129 393.863 L 302.566 366.351 Z" style=""/>
  <ellipse style="" cx="282.671" cy="346.185" rx="4.415" ry="6.711"/>
  <path d="M 287.586 346.185 C 287.586 348.109 287.05 349.93 286.211 351.205 C 285.36 352.499 284.031 353.396 282.671 353.396 C 281.311 353.396 279.983 352.499 279.131 351.205 C 278.292 349.93 277.756 348.109 277.756 346.185 C 277.756 344.261 278.292 342.44 279.131 341.165 C 279.982 339.871 281.311 338.974 282.671 338.974 C 284.031 338.974 285.359 339.871 286.211 341.165 C 287.05 342.44 287.586 344.261 287.586 346.185 Z M 285.375 341.714 C 284.628 340.579 283.749 339.974 282.671 339.974 C 281.592 339.974 280.713 340.58 279.967 341.714 C 279.208 342.868 278.756 344.402 278.756 346.185 C 278.756 347.968 279.208 349.502 279.967 350.656 C 280.714 351.791 281.593 352.396 282.671 352.396 C 283.75 352.396 284.629 351.79 285.375 350.656 C 286.134 349.502 286.586 347.968 286.586 346.185 C 286.586 344.402 286.134 342.868 285.375 341.714 Z" style=""/>
  <path style="fill: none; stroke-width: 2px;" d="M 316.12 380.19 C 326.307 384.268 338.456 369.29 347.056 373.288"/>
  <path d="M 316.393 381.152 C 316.393 381.152 321.508 382.029 324.315 381.232 C 327.109 380.439 329.939 379.03 332.636 377.661 C 338.029 374.922 342.779 372.185 346.635 374.195 L 347.478 372.381 C 342.733 370.393 337.109 373.146 331.731 375.877 C 329.042 377.243 326.387 378.564 323.77 379.307 C 322.467 379.677 321.256 379.889 320.014 379.9 C 319.394 379.905 318.829 379.862 318.228 379.756 C 317.625 379.649 316.296 379.205 316.296 379.205 C 316.344 379.216 316.29 381.17 316.395 381.152 Z" style="fill: none;"/>
  <path d="M 314.772 379.167 C 314.972 380.016 321.698 381.8 324.505 381.003 C 327.299 380.21 329.939 379.03 332.636 377.661 C 338.029 374.922 343.846 372.109 347.702 374.119 L 347.478 372.381 C 342.733 370.393 337.109 373.146 331.731 375.877 C 329.042 377.243 326.387 378.564 323.77 379.307 C 322.467 379.677 321.256 379.889 320.014 379.9 C 319.394 379.905 318.829 379.862 318.228 379.756 C 317.625 379.649 314.772 379.167 314.772 379.167 Z" style=""/>
  <path d="M 318.315 379.264 C 318.892 379.367 319.411 379.406 320.01 379.4 C 321.211 379.393 322.356 379.19 323.634 378.826 C 326.208 378.1 328.818 376.796 331.505 375.431 C 336.886 372.698 342.72 369.938 347.672 371.92 L 347.937 372.026 L 348.325 375.034 L 347.472 374.563 C 343.84 372.556 338.252 375.371 332.863 378.107 C 330.155 379.481 327.47 380.679 324.642 381.484 C 323.144 381.891 320.639 381.649 318.554 381.191 C 317.509 380.961 316.524 380.672 315.801 380.39 C 315.061 380.101 314.452 379.652 314.286 379.282 L 313.944 378.52 L 314.856 378.674 C 314.856 378.674 317.711 379.156 318.316 379.264 Z M 319.678 380.397 C 321.445 380.72 323.252 380.854 324.369 380.522 C 327.129 379.741 329.724 378.579 332.41 377.215 C 337.807 374.474 343.055 372.034 347.097 373.337 L 347.019 372.731 C 342.536 370.955 337.332 373.593 331.957 376.323 C 329.266 377.69 326.566 379.029 323.906 379.788 C 322.578 380.164 321.301 380.385 320.018 380.4 C 319.904 380.401 319.79 380.4 319.677 380.397 Z" style="fill: none;"/>
  <path style="fill: none; stroke-width: 2px;" d="M 345.453 369.837 C 346.787 371.514 348.96 373.967 347.795 377.725"/>
  <path d="M 346.236 369.214 C 346.893 370.04 347.856 371.175 348.478 372.6 C 348.787 373.307 349.037 374.181 349.106 375.065 C 349.173 375.936 348.793 377.647 348.793 377.647 C 348.792 377.734 346.81 377.565 346.803 377.61 C 346.803 377.61 347.047 376.646 347.092 376.261 C 347.136 375.881 347.14 375.567 347.113 375.22 C 347.06 374.535 346.902 373.987 346.647 373.401 C 346.14 372.24 345.35 371.311 344.673 370.46 Z" style="fill: none;"/>
  <path d="M 343.797 369.317 C 343.797 369.317 347.856 371.175 348.478 372.6 C 348.787 373.307 349.037 374.181 349.106 375.065 C 349.173 375.936 346.772 379.241 346.765 379.286 C 346.765 379.286 347.047 376.646 347.092 376.261 C 347.136 375.881 347.14 375.567 347.113 375.22 C 347.06 374.535 346.902 373.987 346.647 373.401 C 346.14 372.24 344.474 370.168 343.797 369.317 Z" style=""/>
  <path d="M 344.005 368.862 C 344.005 368.862 348.189 370.847 348.936 372.4 C 349.256 373.138 349.526 374.093 349.604 375.027 C 349.624 376.064 347.221 379.427 347.259 379.363 L 346.034 381.423 L 346.268 379.233 C 346.268 379.233 346.55 376.591 346.595 376.204 C 346.637 375.85 346.64 375.584 346.614 375.259 C 346.57 374.624 346.432 374.157 346.188 373.601 C 345.715 372.497 344.083 370.48 343.405 369.628 L 342.063 367.941 Z M 347.105 373.201 C 347.371 373.817 347.549 374.446 347.611 375.181 C 347.639 375.551 347.634 375.913 347.588 376.318 C 347.543 376.701 347.523 376.905 347.468 377.413 C 348.071 376.48 348.721 375.808 348.607 375.103 C 348.547 374.268 348.317 373.475 348.019 372.8 C 347.522 371.502 346.61 371.358 345.544 370.757 C 346.173 371.606 346.564 371.983 347.105 373.2 Z" style="fill: none;"/>
  <path style="fill: none;" d="M 288.527 293.713 C 301.646 301.726 337.326 296.529 345.529 289.746"/>
  <path d="M 288.304 294.161 C 288.304 294.161 289.137 294.644 289.598 294.874 C 290.059 295.103 290.549 295.323 291.05 295.527 C 292.049 295.934 293.138 296.295 294.275 296.604 C 296.545 297.222 299.088 297.657 301.765 297.925 C 307.112 298.462 313.109 298.35 318.921 297.776 C 330.548 296.626 341.653 293.572 345.848 290.132 L 345.211 289.361 C 341.203 292.704 330.367 295.639 318.823 296.781 C 313.05 297.352 307.154 297.461 301.865 296.931 C 299.223 296.666 296.762 296.245 294.538 295.64 C 293.428 295.338 292.396 294.996 291.428 294.601 C 290.944 294.404 290.488 294.199 290.045 293.979 C 289.602 293.759 288.751 293.266 288.751 293.266 C 288.76 293.271 288.297 294.157 288.306 294.161 Z" style=""/>
  <path style="fill: none;" d="M 302.307 274.295 C 305.422 275.586 321.111 277.907 329.451 272.102"/>
  <path d="M 302.232 274.789 C 302.232 274.789 304.553 275.495 306.615 275.807 C 308.669 276.118 311.219 276.351 313.918 276.359 C 319.309 276.375 325.46 275.457 329.737 272.512 L 329.166 271.691 C 325.103 274.551 319.239 275.375 313.922 275.359 C 311.267 275.351 308.79 275.125 306.765 274.818 C 305.755 274.665 304.875 274.495 304.141 274.322 C 303.413 274.15 302.422 273.807 302.422 273.807 C 302.437 273.811 302.21 274.783 302.232 274.788 Z" style=""/>
</svg>