<?xml version="1.0" encoding="utf-8"?>
<svg xmlns="http://www.w3.org/2000/svg" viewBox="-43.977 452.6724 85.482 158.1716" width="85.482px" height="158.172px">
  <path style="stroke-width: 3; fill: rgb(158, 255, 46);" d="M 15.083 467.946 L -19.577 467.805 L -19.577 456.673 C -10.407 451.224 4.923 451.455 15.113 456.673 L 15.083 467.946"/>
  <path d="M 15.077 469.446 L -19.583 469.305 L -21.077 469.299 L -21.077 467.805 L -21.077 456.673 L -21.077 455.81 L -20.343 455.384 C -10.779 449.83 5.276 450.038 15.797 455.338 L 16.616 455.751 L 16.614 456.678 L 16.584 467.951 L 13.584 467.943 L 13.612 457.598 C 3.819 452.864 -9.237 452.637 -18.076 457.537 L -18.076 466.312 L 15.09 466.447 Z" style=""/>
  <path style="stroke-width: 3; fill: rgb(158, 255, 46);" d="M 41.505 601.133 C 26.623 614.306 -23.717 613.854 -43.977 601.133 L -36.657 471.281 C -26.157 459.975 19.143 458.187 33.423 471.281 L 41.505 601.133 Z"/>
  <path d="M 42.499 602.256 C 34.704 609.017 17.899 612.4 0.776 612.343 C -16.337 612.286 -34.383 608.866 -44.774 602.403 L -45.524 601.937 L -38.123 470.644 L -37.756 470.261 C -32.128 464.388 -17.64 460.858 -3.058 460.632 C 11.516 460.406 26.929 463.445 34.436 470.176 L 34.881 470.575 L 43.047 601.78 Z M 31.964 471.983 C 25.021 465.913 11.26 463.41 -3.011 463.631 C -17.274 463.852 -30.038 466.724 -35.19 471.913 L -42.429 600.325 C -32.452 606.278 -16.057 609.288 0.786 609.344 C 17.618 609.4 32.631 606.571 39.962 600.486 Z" style=""/>
  <path style="fill: none; stroke-linecap: round;" d="M -20.588 530.534 L -16.387 537.956"/>
  <path d="M -16.633 537.521 C -16.873 537.657 -16.958 537.962 -16.822 538.202 L -21.023 530.78 C -20.887 531.02 -20.582 531.105 -20.342 530.969 C -20.102 530.833 -20.017 530.528 -20.153 530.288 L -15.952 537.71 C -16.088 537.47 -16.393 537.385 -16.633 537.521 Z" style="fill: rgb(43, 11, 104);"/>
  <path style="fill: none; stroke-linecap: round;" d="M -17.089 529.555 L -11.778 538.935"/>
  <path d="M -17.335 529.12 C -17.095 528.984 -16.79 529.068 -16.654 529.309 L -11.343 538.689 C -11.207 538.929 -11.291 539.234 -11.532 539.37 C -11.772 539.506 -12.077 539.422 -12.213 539.181 L -17.524 529.801 C -17.66 529.561 -17.576 529.256 -17.335 529.12 Z" style="fill: rgb(43, 11, 104);"/>
  <path style="fill: none; stroke-linecap: round;" d="M -13.716 528.352 L -7.043 540.139"/>
  <path d="M -7.289 539.704 C -7.529 539.84 -7.614 540.145 -7.478 540.385 L -14.151 528.598 C -14.015 528.838 -13.71 528.923 -13.47 528.787 C -13.23 528.651 -13.145 528.346 -13.281 528.106 L -6.608 539.893 C -6.744 539.653 -7.049 539.568 -7.289 539.704 Z" style="fill: rgb(43, 11, 104);"/>
  <path style="fill: none; stroke-linecap: round;" d="M -9.875 527.977 L -2.776 540.515"/>
  <path d="M -3.022 540.08 C -3.262 540.216 -3.347 540.521 -3.211 540.761 L -10.31 528.223 C -10.174 528.463 -9.869 528.548 -9.629 528.412 C -9.389 528.276 -9.304 527.971 -9.44 527.731 L -2.341 540.269 C -2.477 540.029 -2.782 539.944 -3.022 540.08 Z" style="fill: rgb(43, 11, 104);"/>
  <path style="fill: none; stroke-linecap: round;" d="M -6.603 526.595 L 2.06 541.896"/>
  <path d="M 1.814 541.461 C 1.574 541.597 1.489 541.902 1.625 542.142 L -7.038 526.841 C -6.902 527.081 -6.597 527.166 -6.357 527.03 C -6.117 526.894 -6.032 526.589 -6.168 526.349 L 2.495 541.65 C 2.359 541.41 2.054 541.325 1.814 541.461 Z" style="fill: rgb(43, 11, 104);"/>
  <path style="fill: none; stroke-linecap: round;" d="M -2.55 526.595 L 6.112 541.895"/>
  <path d="M 5.866 541.46 C 5.626 541.596 5.541 541.901 5.677 542.141 L -2.985 526.841 C -2.849 527.081 -2.544 527.166 -2.304 527.03 C -2.064 526.894 -1.979 526.589 -2.115 526.349 L 6.547 541.649 C 6.411 541.409 6.106 541.324 5.866 541.46 Z" style="fill: rgb(43, 11, 104);"/>
  <path style="fill: none; stroke-linecap: round;" d="M 2.286 527.975 L 9.385 540.515"/>
  <path d="M 2.04 527.54 C 2.28 527.404 2.585 527.488 2.721 527.729 L 9.82 540.269 C 9.956 540.509 9.872 540.814 9.631 540.95 C 9.391 541.086 9.086 541.002 8.95 540.761 L 1.851 528.221 C 1.715 527.981 1.799 527.676 2.04 527.54 Z" style="fill: rgb(43, 11, 104);"/>
  <path style="fill: none; stroke-linecap: round;" d="M 6.553 528.352 L 13.226 540.139"/>
  <path d="M 6.307 527.917 C 6.547 527.781 6.852 527.865 6.988 528.106 L 13.661 539.893 C 13.797 540.133 13.713 540.438 13.472 540.574 C 13.232 540.71 12.927 540.626 12.791 540.385 L 6.118 528.598 C 5.982 528.358 6.066 528.053 6.307 527.917 Z" style="fill: rgb(43, 11, 104);"/>
  <path style="fill: none; stroke-linecap: round;" d="M 11.287 529.555 L 16.598 538.935"/>
  <path d="M 11.041 529.12 C 11.281 528.984 11.586 529.068 11.722 529.309 L 17.033 538.689 C 17.169 538.929 17.085 539.234 16.844 539.37 C 16.604 539.506 16.299 539.422 16.163 539.181 L 10.852 529.801 C 10.716 529.561 10.8 529.256 11.041 529.12 Z" style="fill: rgb(43, 11, 104);"/>
  <path style="fill: none; stroke-linecap: round;" d="M 15.898 530.534 L 20.1 537.956"/>
  <path d="M 15.652 530.099 C 15.892 529.963 16.197 530.047 16.333 530.288 L 20.535 537.71 C 20.671 537.95 20.587 538.255 20.346 538.391 C 20.106 538.527 19.801 538.443 19.665 538.202 L 15.463 530.78 C 15.327 530.54 15.411 530.235 15.652 530.099 Z" style="fill: rgb(43, 11, 104);"/>
  <ellipse style="fill: rgb(216, 216, 216); stroke-width: 2;" cx="-20.948" cy="514.542" rx="14.136" ry="21.053" transform="matrix(1, 0, -0.082691, 1, 42.29528, 1.262084)"/>
  <path d="M -5.812 514.542 C -5.812 520.5 -7.482 526.054 -10.122 529.986 C -12.786 533.954 -16.767 536.595 -20.948 536.595 C -25.129 536.595 -29.109 533.954 -31.774 529.986 C -34.414 526.054 -36.084 520.499 -36.084 514.542 C -36.084 508.584 -34.414 503.03 -31.774 499.098 C -29.11 495.13 -25.129 492.489 -20.948 492.489 C -16.767 492.489 -12.787 495.13 -10.122 499.098 C -7.482 503.03 -5.812 508.585 -5.812 514.542 Z M -11.783 500.213 C -14.235 496.562 -17.322 494.489 -20.948 494.489 C -24.574 494.489 -27.662 496.561 -30.113 500.213 C -32.589 503.9 -34.084 508.873 -34.084 514.542 C -34.084 520.212 -32.589 525.184 -30.113 528.871 C -27.661 532.522 -24.574 534.595 -20.948 534.595 C -17.322 534.595 -14.234 532.523 -11.783 528.871 C -9.307 525.184 -7.812 520.211 -7.812 514.542 C -7.812 508.872 -9.307 503.9 -11.783 500.213 Z" style="" transform="matrix(1, 0, -0.0826910063624382, 1, 42.29528045654297, 1.2620840072631836)"/>
  <ellipse style="fill: rgb(216, 216, 216); stroke-width: 2;" cx="-20.948" cy="514.542" rx="14.136" ry="21.053" transform="matrix(-1, 0, 0.082691, 1, -46.0173, 1.262084)"/>
  <path d="M -5.812 514.542 C -5.812 520.5 -7.482 526.054 -10.122 529.986 C -12.786 533.954 -16.767 536.595 -20.948 536.595 C -25.129 536.595 -29.109 533.954 -31.774 529.986 C -34.414 526.054 -36.084 520.499 -36.084 514.542 C -36.084 508.584 -34.414 503.03 -31.774 499.098 C -29.11 495.13 -25.129 492.489 -20.948 492.489 C -16.767 492.489 -12.787 495.13 -10.122 499.098 C -7.482 503.03 -5.812 508.585 -5.812 514.542 Z M -11.783 500.213 C -14.235 496.562 -17.322 494.489 -20.948 494.489 C -24.574 494.489 -27.662 496.561 -30.113 500.213 C -32.589 503.9 -34.084 508.873 -34.084 514.542 C -34.084 520.212 -32.589 525.184 -30.113 528.871 C -27.661 532.522 -24.574 534.595 -20.948 534.595 C -17.322 534.595 -14.234 532.523 -11.783 528.871 C -9.307 525.184 -7.812 520.211 -7.812 514.542 C -7.812 508.872 -9.307 503.9 -11.783 500.213 Z" style="" transform="matrix(-1, 0, 0.0826910063624382, 1, -46.01729965209961, 1.2620840072631836)"/>
  <ellipse style="" cx="-15.858" cy="526.234" rx="1.462" ry="1.634"/>
  <path d="M -13.896 526.234 C -13.896 526.778 -14.13 527.363 -14.452 527.723 C -14.778 528.087 -15.343 528.368 -15.858 528.368 C -16.374 528.368 -16.938 528.087 -17.264 527.723 C -17.586 527.364 -17.82 526.778 -17.82 526.234 C -17.82 525.69 -17.586 525.105 -17.264 524.745 C -16.938 524.381 -16.373 524.1 -15.858 524.1 C -15.342 524.1 -14.778 524.381 -14.452 524.745 C -14.13 525.104 -13.896 525.69 -13.896 526.234 Z M -15.197 525.412 C -15.4 525.185 -15.566 525.1 -15.858 525.1 C -16.15 525.1 -16.316 525.185 -16.519 525.412 C -16.727 525.644 -16.82 525.876 -16.82 526.234 C -16.82 526.592 -16.727 526.824 -16.519 527.056 C -16.316 527.283 -16.15 527.368 -15.858 527.368 C -15.566 527.368 -15.4 527.283 -15.197 527.056 C -14.989 526.824 -14.896 526.592 -14.896 526.234 C -14.896 525.876 -14.989 525.644 -15.197 525.412 Z" style=""/>
  <ellipse style="stroke-width: 1;" cx="11.475" cy="526.234" rx="1.462" ry="1.634"/>
  <path d="M 13.437 526.234 C 13.437 526.778 13.203 527.363 12.881 527.723 C 12.555 528.087 11.99 528.368 11.475 528.368 C 10.959 528.368 10.395 528.087 10.069 527.723 C 9.747 527.364 9.513 526.778 9.513 526.234 C 9.513 525.69 9.747 525.105 10.069 524.745 C 10.395 524.381 10.96 524.1 11.475 524.1 C 11.991 524.1 12.555 524.381 12.881 524.745 C 13.203 525.104 13.437 525.69 13.437 526.234 Z M 12.136 525.412 C 11.933 525.185 11.767 525.1 11.475 525.1 C 11.183 525.1 11.017 525.185 10.814 525.412 C 10.606 525.644 10.513 525.876 10.513 526.234 C 10.513 526.592 10.606 526.824 10.814 527.056 C 11.017 527.283 11.183 527.368 11.475 527.368 C 11.767 527.368 11.933 527.283 12.136 527.056 C 12.344 526.824 12.437 526.592 12.437 526.234 C 12.437 525.876 12.344 525.644 12.136 525.412 Z" style=""/>
  <path style="" d="M -12.646 482.365 L -13.058 490.595 C -19.287 487.326 -33.214 482.133 -40.319 485.04 L -41.451 473.209 C -34.523 472.364 -21.136 476.007 -12.646 482.365 Z"/>
  <path d="M -12.598 491.401 L -13.291 491.037 C -19.491 487.781 -33.207 482.598 -40.13 485.502 L -40.752 485.763 L -41.995 472.77 L -41.511 472.712 C -34.487 471.874 -20.92 475.565 -12.346 481.964 L -12.133 482.123 Z M -40.906 473.653 L -39.882 484.351 C -32.49 481.938 -20.074 486.513 -13.518 489.797 L -13.158 482.606 C -21.562 476.391 -33.949 473.021 -40.905 473.653 Z" style=""/>
  <path style="stroke-width: 1;" d="M 4.601 484.413 L 5.923 492.027 C 11.753 489.632 25.022 486.223 32.407 489.597 L 32.221 478.821 C 25.241 477.362 12.337 479.397 4.601 484.413 Z" transform="matrix(0.99759507, 0.069318, -0.069318, 0.99759507, 33.68871437, -0.1401798)"/>
  <path d="M 32.921 490.388 L 32.2 490.052 C 24.981 486.693 11.911 490.106 6.114 492.49 L 5.538 492.727 L 4.053 484.173 L 4.33 483.994 C 12.163 478.941 25.254 476.871 32.324 478.332 L 32.715 478.413 Z M 5.15 484.654 L 6.31 491.333 C 12.391 488.962 24.234 485.963 31.894 488.845 L 31.728 479.232 C 24.768 477.927 12.817 479.806 5.15 484.654 Z" style="" transform="matrix(0.9975951313972473, 0.0693180039525032, -0.0693180039525032, 0.9975951313972473, 33.68871307373047, -0.1401798129081726)"/>
  <path style="stroke-width: 2px;" d="M 15.994 550.706 C 10.462 547.193 -7.603 546.326 -12.899 548.14 C -16.62 548.951 -19.969 551.801 -20.374 553.83 C -21.474 557.068 -22.54 564.256 -19.928 563.758 C -5.333 560.605 6.807 561.495 16.775 563.87 C 18.878 564.851 20.042 562.369 19.564 559.742 C 18.451 556.311 18.853 552.681 15.994 550.706 Z"/>
  <path d="M 20.548 559.563 C 20.791 561.033 20.591 562.677 19.996 563.672 C 19.676 564.208 19.076 564.754 18.489 564.954 C 17.911 565.151 17.169 565.077 16.493 564.83 C 6.614 562.476 -5.287 561.597 -19.74 564.74 C -20.265 564.8 -20.941 564.692 -21.32 564.422 C -21.684 564.163 -22.023 563.659 -22.187 563.229 C -22.487 562.444 -22.582 561.287 -22.541 560.159 C -22.46 557.936 -21.888 555.199 -21.323 553.52 C -21.026 552.298 -19.947 550.887 -18.498 549.743 C -17.071 548.617 -15.132 547.632 -13.167 547.176 C -7.685 545.336 10.788 546.293 16.564 549.883 C 19.636 552.324 19.425 556.212 20.517 559.433 L 20.539 559.498 Z M 15.426 551.529 C 10.138 548.093 -7.465 547.299 -12.575 549.086 L -12.631 549.106 L -12.686 549.117 C -14.423 549.478 -15.982 550.304 -17.261 551.313 C -18.518 552.305 -19.285 553.218 -19.394 554.025 L -19.4 554.07 L -19.428 554.151 C -19.962 555.711 -20.47 558.175 -20.545 560.231 C -20.582 561.242 -20.522 561.991 -20.322 562.515 C -20.236 562.739 -20.238 562.74 -20.165 562.792 C -20.161 562.795 -20.159 562.797 -20.156 562.799 C -20.147 562.793 -20.134 562.785 -20.116 562.776 C -5.379 559.613 6.959 560.51 17.006 562.898 L 17.135 562.929 L 17.197 562.965 C 17.542 563.164 17.624 563.137 17.841 563.063 C 18.049 562.992 18.105 562.937 18.278 562.647 C 18.671 561.99 18.81 561.116 18.592 559.989 C 17.484 556.373 18.07 553.039 15.424 551.53 Z" style=""/>
  <path style="fill: rgb(211, 60, 60);" d="M -12.116 561.146 C -11.674 558.193 -9.063 556.218 -5.426 555.216 C -2.461 554.531 1.645 554.303 4.762 555.748 C 8.34 557.407 10.303 559.321 11.225 561.678 L -12.116 561.146 Z"/>
  <path d="M -12.61 561.072 C -12.354 559.501 -11.513 558.106 -10.292 557.068 C -9.08 556.038 -7.397 555.245 -5.538 554.728 C -2.531 554.037 1.737 553.826 4.973 555.294 C 8.62 557.001 10.711 559.051 11.691 561.495 L 11.971 562.194 L -12.702 561.632 Z M 10.454 561.16 C 9.491 559.219 8.06 557.813 4.552 556.201 C 1.554 554.779 -2.382 555.023 -5.303 555.7 C -7.076 556.186 -8.531 556.883 -9.645 557.83 C -10.749 558.768 -11.238 559.54 -11.515 560.659 Z" style=""/>
  <path style="fill: rgb(255, 255, 255);" d="M -11.432 548.944 L -10.216 552.327 C -5.684 553.604 7.949 553.83 10.54 552.631 L 11.453 550.122 C 6.435 547.847 -5.35 546.618 -11.432 548.944 Z"/>
  <path d="M 10.938 553 L 10.75 553.085 C 8.05 554.307 -5.756 554.095 -10.352 552.808 L -10.6 552.739 L -12.07 548.65 L -11.612 548.477 C -5.415 546.136 6.563 547.371 11.658 549.667 L 12.08 549.857 Z M -10.793 549.243 L -9.834 551.912 C -5.157 553.121 7.243 553.341 10.144 552.254 L 10.822 550.392 C 5.699 548.261 -4.709 547.162 -10.793 549.243 Z" style=""/>
</svg>