<?xml version="1.0" encoding="utf-8"?>
<svg xmlns="http://www.w3.org/2000/svg" viewBox="398.8159 2.8196 107.0997 159.828" width="107.1px" height="159.828px">
  <path style="stroke-width: 3; fill: rgb(158, 255, 46);" d="M 505.047 152.501 C 489.496 166.265 421.771 165.793 400.6 152.501 C 394.128 121.532 406.316 40.089 420.241 15.967 C 431.208 4.154 482.822 11.422 498.601 27.959 C 491.849 56.109 496.946 127.722 505.047 152.501 Z"/>
  <path d="M 506.041 153.624 C 497.887 160.685 476.568 164.206 454.927 164.147 C 433.293 164.088 410.672 160.523 399.803 153.771 L 399.263 153.435 L 399.133 152.807 C 392.653 121.574 404.926 39.602 418.943 15.216 L 419.035 15.056 L 419.143 14.945 C 425.122 8.801 441.429 7.415 457.838 9.847 C 474.227 12.276 491.506 18.465 499.688 26.923 L 500.254 27.508 L 500.061 28.308 C 493.328 56.23 498.408 127.435 506.474 152.034 L 506.784 152.981 Z M 496.955 28.418 C 489.133 20.643 473.501 15.202 457.396 12.815 C 441.311 10.431 426.567 11.304 421.461 16.852 C 407.661 40.875 395.767 120.399 401.939 151.565 C 412.45 157.883 433.525 161.088 454.934 161.146 C 476.335 161.205 495.373 158.274 503.314 152 C 495.359 126.231 490.467 57.332 496.954 28.417 Z" style=""/>
  <path style="stroke-width: 3; fill: rgb(158, 255, 46);" d="M 483.225 23.305 C 475.13 29.167 445.713 27.855 438.2 22.891 L 441.769 11.403 C 452.01 5.537 467.644 5.061 480.54 11.403 L 483.225 23.305 Z" transform="matrix(0.98260599, 0.185702, -0.185702, 0.98260599, 11.17118152, -85.25947597)"/>
  <path d="M 484.105 24.52 C 479.708 27.588 469.872 28.876 460.46 28.657 C 451.046 28.439 441.418 26.738 437.374 24.142 L 436.43 23.536 L 440.515 10.388 L 441.025 10.101 C 451.616 4.136 467.954 3.638 481.204 10.057 L 481.846 10.368 L 484.912 23.958 Z M 479.235 12.434 C 466.845 6.5 452.915 6.923 443.026 12.413 L 439.985 22.202 C 443.946 24.234 451.333 25.444 460.529 25.658 C 469.727 25.871 477.452 25.012 481.534 22.627 Z" style="" transform="matrix(0.9826059937477112, 0.18570199608802795, -0.18570199608802795, 0.9826059937477112, 11.171181678771973, -85.25947570800781)"/>
  <path style="fill: none; stroke-width: 2; stroke-linecap: round;" d="M 424.216 21.89 C 432.423 30.404 477.807 41.245 492.935 34.017"/>
  <path d="M 424.786 21.068 C 424.482 20.881 424.101 20.872 423.787 21.042 C 423.473 21.213 423.275 21.538 423.266 21.895 C 423.257 22.252 423.44 22.586 423.745 22.772 C 423.745 22.772 423.698 22.743 423.745 22.772 C 423.745 22.772 426.329 24.911 428.434 26.034 C 430.525 27.15 433.091 28.27 435.94 29.33 C 441.625 31.445 448.616 33.394 455.783 34.837 C 470.114 37.722 485.557 38.581 493.366 34.919 C 493.864 34.681 494.075 34.084 493.837 33.586 C 493.599 33.088 493.002 32.877 492.504 33.115 C 485.185 36.681 470.373 35.734 456.178 32.877 C 449.082 31.449 442.243 29.542 436.638 27.456 C 433.841 26.415 431.398 25.348 429.376 24.27 C 428.37 23.733 427.504 23.214 426.744 22.687 C 425.991 22.165 424.786 21.068 424.786 21.068 C 424.819 21.093 424.786 21.068 424.786 21.068 Z" style=""/>
  <path style="fill: none; stroke-width: 2; stroke-linecap: round;" d="M 447.735 11.061 C 451.312 14.771 471.092 19.496 477.685 16.346"/>
  <path d="M 448.206 10.179 C 447.872 10.055 447.498 10.12 447.225 10.349 C 446.953 10.578 446.824 10.936 446.889 11.286 C 446.954 11.636 447.201 11.924 447.538 12.041 C 447.538 12.041 447.467 12.021 447.538 12.041 C 447.538 12.041 455.094 15.99 461.382 17.256 C 467.666 18.521 474.575 18.871 478.116 17.248 C 478.614 17.01 478.825 16.413 478.587 15.915 C 478.349 15.417 477.752 15.206 477.254 15.444 C 474.203 16.971 467.925 16.534 461.776 15.296 C 458.704 14.678 455.766 13.859 453.345 12.958 C 452.141 12.51 451.11 12.06 450.249 11.601 C 449.402 11.149 448.206 10.18 448.206 10.18 C 448.253 10.209 448.206 10.18 448.206 10.18 Z" style=""/>
  <path style="fill: rgb(255, 255, 255); stroke-width: 2; stroke-linecap: round;" d="M 453.608 96.739 C 458.198 90.882 459.556 82.424 456.394 74.725 C 452.771 67.185 444.133 66.412 438.56 69.988 C 433.777 72.627 428.859 80.29 431.455 88.24"/>
  <path d="M 452.744 96.235 C 452.584 96.554 452.608 96.935 452.805 97.232 C 453.002 97.53 453.343 97.699 453.7 97.677 C 454.056 97.654 454.373 97.443 454.532 97.123 C 454.532 97.123 454.503 97.182 454.532 97.123 C 454.532 97.123 456.6 94.093 457.348 92.295 C 458.096 90.498 458.632 88.526 458.899 86.557 C 459.433 82.627 458.935 78.329 457.319 74.345 C 455.337 70.378 451.907 67.936 448.412 67.209 C 444.912 66.481 441.009 67.27 438.049 69.128 C 435.543 70.547 432.902 73.319 431.333 76.701 C 429.771 80.069 429.187 84.346 430.504 88.55 C 430.675 89.075 431.24 89.362 431.765 89.19 C 432.29 89.019 432.577 88.454 432.405 87.929 C 431.126 84.183 431.704 80.654 433.147 77.543 C 434.583 74.447 436.831 72.054 439.1 70.829 C 441.713 69.111 444.886 68.517 448.004 69.166 C 451.127 69.816 453.833 71.573 455.476 75.123 C 457.016 78.832 457.418 82.599 456.916 86.287 C 456.666 88.127 456.199 89.848 455.5 91.526 C 455.151 92.364 454.763 93.145 454.31 93.923 C 453.857 94.701 452.743 96.235 452.743 96.235 C 452.761 96.206 452.743 96.235 452.743 96.235 Z" style=""/>
  <ellipse style="stroke-width: 1;" cx="654.483" cy="156.455" rx="3.344" ry="4.946" transform="matrix(0.95945007, 0.28187901, -0.28187901, 0.95945007, -129.95529484, -246.8439032)"/>
  <path d="M 658.327 156.455 C 658.327 157.893 657.908 159.276 657.262 160.232 C 656.603 161.206 655.545 161.901 654.483 161.901 C 653.422 161.901 652.363 161.206 651.704 160.232 C 651.057 159.276 650.639 157.893 650.639 156.455 C 650.639 155.017 651.058 153.634 651.704 152.678 C 652.363 151.704 653.421 151.009 654.483 151.009 C 655.544 151.009 656.603 151.704 657.262 152.678 C 657.909 153.634 658.327 155.017 658.327 156.455 Z M 656.433 153.238 C 655.881 152.422 655.268 152.009 654.483 152.009 C 653.698 152.009 653.084 152.422 652.533 153.238 C 651.969 154.072 651.639 155.162 651.639 156.455 C 651.639 157.748 651.969 158.839 652.533 159.672 C 653.085 160.488 653.698 160.901 654.483 160.901 C 655.268 160.901 655.882 160.488 656.433 159.672 C 656.997 158.838 657.327 157.748 657.327 156.455 C 657.327 155.162 656.997 154.071 656.433 153.238 Z" style="" transform="matrix(0.9594501256942749, 0.2818790078163147, -0.2818790078163147, 0.9594501256942749, -129.95529174804688, -246.84390258789062)"/>
  <path style="fill: rgb(158, 255, 46); stroke-width: 2; stroke-linecap: round;" d="M 425.464 88.518 C 433.903 87.671 452.599 94.714 456.116 99.665"/>
  <path d="M 424.469 88.618 C 424.414 88.068 424.815 87.578 425.364 87.523 C 429.745 87.11 436.753 88.683 442.981 90.979 C 449.216 93.277 456.461 98.727 456.461 98.727 C 456.526 98.756 456.461 98.727 456.461 98.727 C 456.765 98.91 456.947 99.242 456.936 99.597 C 456.925 99.952 456.723 100.272 456.408 100.435 C 456.093 100.598 455.714 100.578 455.419 100.382 C 455.419 100.382 455.392 100.354 455.419 100.382 C 455.419 100.382 454.892 99.728 454.588 99.432 C 454.279 99.131 453.938 98.84 453.526 98.523 C 452.695 97.884 451.702 97.244 450.538 96.587 C 448.199 95.266 445.342 93.981 442.29 92.856 C 436.182 90.604 429.622 89.08 425.564 89.513 C 425.014 89.568 424.524 89.167 424.469 88.618 Z" style=""/>
  <path style="stroke-width: 2; fill: rgb(255, 255, 255);" d="M 472.442 91.948 C 474.39 100.656 489.36 105.268 494.458 95.769 C 496.536 85.58 495.451 75.392 490.819 67.022 C 487.665 60.472 480.932 56.651 475.171 65.748 C 471.901 71.698 469.865 80.664 472.442 91.948 Z"/>
  <path d="M 474.326 65.213 C 475.839 62.849 477.513 61.195 479.121 60.312 C 480.777 59.402 482.633 59.187 484.194 59.543 C 487.261 60.241 490.039 63.17 491.706 66.562 C 496.398 75.121 497.522 85.628 495.437 95.97 L 495.407 96.12 L 495.338 96.243 C 493.933 98.774 491.777 100.526 489.476 101.347 C 487.175 102.168 484.473 102.216 482.045 101.662 C 477.213 100.56 472.618 96.805 471.465 92.168 C 468.889 80.664 471.006 71.294 474.325 65.214 Z M 473.417 91.725 C 474.212 95.795 478.077 98.704 482.491 99.711 C 484.686 100.211 486.805 100.176 488.805 99.462 C 490.805 98.748 492.367 97.566 493.507 95.43 C 495.54 85.442 494.517 75.687 489.944 67.506 C 488.456 64.359 486.279 62.068 483.751 61.492 C 482.514 61.21 481.41 61.337 480.085 62.064 C 478.712 62.818 477.395 64.087 476.034 66.255 C 472.822 72.075 470.841 80.663 473.418 91.725 Z" style=""/>
  <ellipse style="stroke-width: 1;" cx="654.483" cy="156.455" rx="3.344" ry="4.946" transform="matrix(0.95945007, 0.28187901, -0.28187901, 0.95945007, -91.56740116, -245.19456543)"/>
  <path d="M 658.327 156.455 C 658.327 157.893 657.908 159.276 657.262 160.232 C 656.603 161.206 655.545 161.901 654.483 161.901 C 653.422 161.901 652.363 161.206 651.704 160.232 C 651.057 159.276 650.639 157.893 650.639 156.455 C 650.639 155.017 651.058 153.634 651.704 152.678 C 652.363 151.704 653.421 151.009 654.483 151.009 C 655.544 151.009 656.603 151.704 657.262 152.678 C 657.909 153.634 658.327 155.017 658.327 156.455 Z M 656.433 153.238 C 655.881 152.422 655.268 152.009 654.483 152.009 C 653.698 152.009 653.084 152.422 652.533 153.238 C 651.969 154.072 651.639 155.162 651.639 156.455 C 651.639 157.748 651.969 158.839 652.533 159.672 C 653.085 160.488 653.698 160.901 654.483 160.901 C 655.268 160.901 655.882 160.488 656.433 159.672 C 656.997 158.838 657.327 157.748 657.327 156.455 C 657.327 155.162 656.997 154.071 656.433 153.238 Z" style="" transform="matrix(0.9594501256942749, 0.2818790078163147, -0.2818790078163147, 0.9594501256942749, -91.56739807128906, -245.19456481933594)"/>
  <path style="fill: none; stroke-width: 2;" d="M 441.511 103.229 C 444.589 111.448 453.614 114.739 461.889 112.508"/>
  <path d="M 440.799 103.931 C 440.799 103.931 442.64 107.662 444.118 109.162 C 445.598 110.665 447.438 111.886 449.358 112.707 C 453.188 114.344 457.851 114.606 462.149 113.474 L 461.628 111.543 C 457.651 112.642 453.664 112.373 450.144 110.868 C 448.39 110.118 446.878 109.115 445.542 107.758 C 444.873 107.079 444.302 106.367 443.773 105.54 C 443.508 105.126 443.276 104.716 443.05 104.265 C 442.824 103.813 442.405 102.782 442.405 102.782 C 442.416 102.806 440.736 103.853 440.798 103.931 Z" style="fill: none;"/>
  <path d="M 440.799 103.931 C 440.799 103.931 442.64 107.662 444.118 109.162 C 445.598 110.665 447.438 111.886 449.358 112.707 C 456.768 115.332 461.628 111.543 461.628 111.543 C 457.651 112.642 453.664 112.373 450.144 110.868 C 448.39 110.118 446.878 109.115 445.542 107.758 C 444.873 107.079 444.302 106.367 443.773 105.54 C 443.508 105.126 443.276 104.716 443.05 104.265 C 442.824 103.813 442.405 102.782 442.405 102.782 C 442.416 102.806 440.736 103.853 440.798 103.931 L 440.799 103.931 Z" style="stroke-width: 1;"/>
  <path d="M 440.407 104.242 C 440.351 104.101 440.292 103.861 440.321 103.769 C 440.338 103.715 440.383 103.637 440.405 103.607 C 440.434 103.568 440.483 103.518 440.515 103.489 C 440.568 103.441 440.648 103.378 440.728 103.319 C 440.884 103.204 441.097 103.059 441.304 102.92 C 441.511 102.782 441.719 102.646 441.873 102.544 C 441.9 102.526 441.925 102.51 441.948 102.494 L 442.007 100.472 L 442.869 102.593 C 442.872 102.601 443.281 103.608 443.498 104.041 C 443.718 104.481 443.937 104.868 444.195 105.27 C 444.708 106.075 445.247 106.747 445.899 107.407 C 447.195 108.731 448.627 109.68 450.341 110.408 C 453.78 111.893 457.602 112.151 461.495 111.061 L 464.009 110.357 L 461.935 111.937 C 461.935 111.937 460.641 112.944 458.41 113.589 C 456.224 114.221 452.973 114.492 449.161 113.166 C 447.201 112.323 445.281 111.048 443.761 109.512 C 442.438 108.154 440.841 105.114 440.443 104.336 Z M 459.664 112.474 L 459.43 112.661 C 459.43 112.661 460.364 112.365 459.664 112.474 Z" style="fill: none;"/>
  <path style="fill: none; stroke-linecap: round; stroke-width: 2;" d="M 438.259 104.586 C 441.032 102.036 444.026 102.369 446.826 103.505"/>
  <path d="M 437.523 105.263 C 437.149 104.856 437.176 104.224 437.582 103.85 C 439.128 102.476 440.874 101.769 442.468 101.665 C 444.067 101.562 446.762 102.507 446.762 102.507 C 446.917 102.521 446.762 102.507 446.762 102.507 C 447.117 102.529 447.434 102.74 447.59 103.06 C 447.747 103.38 447.719 103.759 447.519 104.054 C 447.318 104.348 446.975 104.512 446.62 104.484 C 446.62 104.484 446.567 104.47 446.62 104.484 C 446.62 104.484 445.154 103.955 444.49 103.815 C 443.827 103.676 443.24 103.62 442.597 103.662 C 441.3 103.746 440.163 104.147 438.936 105.323 C 438.529 105.697 437.897 105.67 437.523 105.264 Z" style=""/>
  <path style="stroke-width: 1;" d="M 457.603 57.25 C 441.431 65.257 431.861 47.632 427.305 43.863 L 423.923 56.122 C 426.249 59.172 438.824 70.437 456.475 65.141 L 457.603 57.25 Z" transform="matrix(0.998972, -0.045335, 0.045335, 0.998972, -2.01780601, 20.0352541)"/>
  <path d="M 456.619 65.62 C 447.673 68.274 439.94 66.776 434.247 64.217 C 428.529 61.647 424.714 57.979 423.525 56.425 L 423.375 56.228 L 427.029 42.982 L 427.623 43.477 C 429.95 45.416 433.484 50.75 438.404 54.577 C 440.865 56.491 443.611 58.002 446.775 58.573 C 449.948 59.146 453.421 58.778 457.38 56.801 L 458.232 56.376 L 456.924 65.529 Z M 456.977 58.094 C 453.179 59.779 449.911 60.156 446.598 59.558 C 443.277 58.959 440.314 57.329 437.791 55.367 C 432.744 51.441 429.816 46.961 427.572 44.777 L 424.473 56.012 C 425.758 57.598 429.094 60.805 434.658 63.306 C 440.247 65.818 447.454 67.27 456.026 64.754 Z" style="" transform="matrix(0.9989719986915588, -0.04533500224351883, 0.04533500224351883, 0.9989719986915588, -2.017806053161621, 20.035253524780273)"/>
  <path style="stroke-width: 1;" d="M 504.768 53.539 C 493.526 54.121 497.344 37.714 486.635 30.872 L 478.937 38.036 C 493.281 45.658 492.313 66.906 503.64 61.43 L 504.768 53.539 Z" transform="matrix(-0.85150504, 0.52434695, -0.52434695, -0.85150504, 929.92031104, -161.7717784)"/>
  <path d="M 503.858 61.88 C 500.881 63.271 498.536 62.968 496.712 61.551 C 494.912 60.153 493.467 57.678 491.978 54.879 C 489.005 49.287 485.764 42.172 478.702 38.477 L 478.079 38.151 L 486.581 30.239 L 486.905 30.45 C 492.365 34.011 494.188 39.947 495.972 44.817 C 496.863 47.25 497.737 49.371 499.072 50.872 C 500.399 52.365 502.055 53.21 504.743 53.039 L 505.351 53 L 504.098 61.767 Z M 504.19 54.047 C 501.572 54.017 499.777 53.171 498.324 51.537 C 496.879 49.912 495.93 47.613 495.032 45.161 C 493.237 40.262 491.683 34.812 486.691 31.502 L 479.779 37.934 C 486.647 41.932 489.901 48.841 492.861 54.409 C 494.34 57.19 495.672 59.477 497.325 60.761 C 498.954 62.026 500.627 62.308 503.182 61.096 Z" style="" transform="matrix(-0.8515051007270813, 0.5243469476699829, -0.5243469476699829, -0.8515051007270813, 929.9202880859375, -161.7717742919922)"/>
  <path style="fill: none; stroke-linecap: round; stroke-width: 2;" d="M 463.387 50.531 C 464.034 53.652 463.687 57.951 462.069 60.586"/>
  <path d="M 463.184 49.552 C 463.725 49.44 464.254 49.787 464.366 50.328 C 465.022 53.591 463.048 60.383 463.048 60.383 C 463.057 60.525 463.048 60.383 463.048 60.383 C 463.029 60.734 462.818 61.047 462.499 61.196 C 462.18 61.345 461.805 61.306 461.524 61.096 C 461.242 60.885 461.099 60.537 461.152 60.189 C 461.152 60.189 461.166 60.16 461.152 60.189 C 461.152 60.189 461.55 59.475 461.7 59.128 C 461.851 58.78 461.975 58.438 462.092 58.052 C 462.328 57.277 462.485 56.484 462.584 55.626 C 462.783 53.909 462.721 52.214 462.408 50.734 C 462.296 50.193 462.643 49.664 463.184 49.552 Z" style="fill: none;"/>
  <path d="M 462.738 49.329 C 464.576 53.368 463.048 60.383 463.048 60.383 C 463.057 60.525 463.048 60.383 463.048 60.383 C 463.029 60.734 462.818 61.047 462.499 61.196 C 462.18 61.345 461.805 61.306 461.524 61.096 C 461.242 60.885 461.099 60.537 461.152 60.189 C 461.152 60.189 461.166 60.16 461.152 60.189 C 461.152 60.189 461.55 59.475 461.7 59.128 C 461.851 58.78 461.975 58.438 462.092 58.052 C 462.328 57.277 462.485 56.484 462.584 55.626 C 463.039 51.716 462.643 50.481 462.738 49.329 Z" style="stroke-width: 1;"/>
  <path d="M 463.551 60.42 L 463.545 60.447 L 463.551 60.447 C 463.551 60.45 463.551 60.43 463.55 60.421 Z" style="fill: none;"/>
  <g transform="matrix(1, 0, 0, 1, -204.915817, -70.37513)">
    <path style="fill: none; stroke: rgb(216, 81, 100); stroke-width: 2px; stroke-linecap: round;" d="M 623.626 168.802 L 628.589 163.064"/>
    <path style="fill: none; stroke: rgb(216, 81, 100); stroke-width: 2px; stroke-linecap: round;" d="M 626.924 171.076 L 634.462 162.103"/>
    <path style="fill: none; stroke: rgb(216, 81, 100); stroke-width: 2px; stroke-linecap: round;" d="M 631.411 172.333 L 638.949 163.36"/>
    <path style="fill: none; stroke: rgb(216, 81, 100); stroke-width: 2px; stroke-linecap: round;" d="M 637.114 172.06 L 642.341 165.596"/>
  </g>
  <g transform="matrix(1, 0, 0, 1, -142.936661, -60.859707)">
    <path style="fill: none; stroke: rgb(216, 81, 100); stroke-width: 2px; stroke-linecap: round;" d="M 623.626 168.802 L 628.589 163.064"/>
    <path style="fill: none; stroke: rgb(216, 81, 100); stroke-width: 2px; stroke-linecap: round;" d="M 626.924 171.076 L 634.462 162.103"/>
    <path style="fill: none; stroke: rgb(216, 81, 100); stroke-width: 2px; stroke-linecap: round;" d="M 631.411 172.333 L 638.949 163.36"/>
    <path style="fill: none; stroke: rgb(216, 81, 100); stroke-width: 2px; stroke-linecap: round;" d="M 637.114 172.06 L 642.341 165.596"/>
  </g>
</svg>