<?xml version="1.0" encoding="utf-8"?>
<svg xmlns="http://www.w3.org/2000/svg" viewBox="282.544 715.3944 98.551 158.1716" width="98.551px" height="158.172px" xmlns:bx="https://boxy-svg.com">
  <defs>
    <linearGradient id="gradient-1-0" href="#gradient-1" gradientUnits="userSpaceOnUse" x1="328.926" y1="760.482" x2="328.926" y2="807.776" gradientTransform="matrix(1.152676, 0, 0, 0.913462, -50.218746, 67.857063)"/>
    <linearGradient id="gradient-1" bx:pinned="true">
      <stop offset="0.257" style="stop-color: rgb(125, 6, 166);"/>
      <stop offset="1" style="stop-color: rgba(162, 73, 171, 0);"/>
    </linearGradient>
  </defs>
  <path style="stroke-width: 3; fill: rgb(158, 255, 46);" d="M 350.636 730.668 L 310.669 730.527 L 310.669 719.395 C 321.245 713.946 338.925 714.177 350.663 719.395 L 350.636 730.668"/>
  <path d="M 350.631 732.168 L 310.664 732.027 L 309.169 732.022 L 309.169 730.527 L 309.169 719.395 L 309.169 718.473 L 309.982 718.061 C 320.911 712.529 339.239 712.741 351.272 718.024 L 352.165 718.416 L 352.163 719.398 L 352.136 730.671 L 349.136 730.664 L 349.161 720.377 C 337.783 715.603 322.463 715.379 312.169 720.32 L 312.169 729.032 L 350.641 729.168 Z" style=""/>
  <path style="stroke-width: 3; fill: rgb(158, 255, 46);" d="M 381.095 863.855 C 363.936 877.028 305.904 876.576 282.544 863.855 L 290.984 734.003 C 303.085 722.697 355.311 720.909 371.777 734.003 L 381.095 863.855 Z"/>
  <path d="M 382.008 865.045 C 373.097 871.776 353.84 875.122 334.14 875.065 C 314.449 875.008 293.745 871.614 281.826 865.172 L 280.984 864.717 L 289.526 733.301 L 289.96 732.906 C 296.373 727.066 312.956 723.578 329.724 723.352 C 346.483 723.127 364.133 726.128 372.711 732.828 L 373.226 733.23 L 382.65 864.559 Z M 370.328 734.774 C 362.245 728.671 346.259 726.131 329.763 726.353 C 313.275 726.575 298.456 729.485 292.441 734.704 L 284.103 862.987 C 295.665 868.969 314.693 872.01 334.149 872.066 C 353.595 872.122 371.01 869.258 379.54 863.146 Z" style=""/>
  <ellipse style="stroke-opacity: 0.8; fill-opacity: 0.71; fill: url(&quot;#gradient-1-0&quot;); stroke-width: 1;" cx="328.926" cy="784.129" rx="34.334" ry="21.601" transform="matrix(1, 0.000005, 0, 1, 3.865366, -6.595371)"/>
  <path d="M 363.76 784.129 C 363.76 790.239 359.764 795.867 353.47 799.826 C 347.197 803.773 338.475 806.23 328.926 806.23 C 319.377 806.23 310.655 803.773 304.382 799.826 C 298.088 795.866 294.092 790.238 294.092 784.129 C 294.092 778.019 298.088 772.391 304.382 768.432 C 310.655 764.485 319.377 762.028 328.926 762.028 C 338.475 762.028 347.197 764.485 353.47 768.432 C 359.764 772.392 363.76 778.02 363.76 784.129 Z M 352.938 769.278 C 346.785 765.407 338.34 763.028 328.926 763.028 C 319.513 763.028 311.068 765.407 304.914 769.278 C 298.781 773.136 295.092 778.309 295.092 784.129 C 295.092 789.949 298.782 795.122 304.914 798.98 C 311.067 802.851 319.512 805.23 328.926 805.23 C 338.339 805.23 346.784 802.851 352.938 798.98 C 359.071 795.122 362.76 789.949 362.76 784.129 C 362.76 778.309 359.07 773.136 352.938 769.278 Z" style="fill: none;" transform="matrix(1, 0.000005000000783184078, 0, 1, 3.865365982055664, -6.595371246337891)"/>
  <path style="stroke-width: 2px; fill: rgb(255, 255, 255);" d="M 317.559 760.841 C 324.087 766.77 324.357 787.883 317.341 793.1 L 299.904 786.343 C 296.028 783.139 294.493 770.325 297.506 765.854 L 317.559 760.841 Z"/>
  <path d="M 318.231 760.101 C 321.644 763.314 323.522 770.444 323.529 777.237 C 323.536 784.033 321.632 791.017 317.938 793.903 L 317.509 794.238 L 299.38 787.213 L 299.267 787.114 C 297.174 785.287 295.632 780.957 295.129 776.691 C 294.626 772.428 295.087 767.768 296.677 765.295 L 296.88 764.98 L 317.847 759.739 Z M 298.129 766.729 C 296.886 768.812 296.635 772.394 297.114 776.456 C 297.594 780.516 298.701 784.015 300.411 785.467 L 317.176 791.964 C 320.193 789.416 321.535 783.786 321.528 777.239 C 321.522 770.689 320.127 764.836 317.271 761.944 Z" style=""/>
  <path style="stroke-width: 2; fill: rgb(255, 255, 255);" d="M 362.993 795.606 C 369.521 789.677 369.791 768.564 362.775 763.347 L 345.338 770.104 C 341.462 773.308 339.927 786.122 342.94 790.593 L 362.993 795.606 Z" transform="matrix(-1, 0, 0, -1, 709.31415395, 1558.95300693)"/>
  <path d="M 342.111 791.152 C 340.521 788.68 340.059 784.019 340.563 779.756 C 341.067 775.49 342.608 771.161 344.701 769.333 L 344.814 769.234 L 362.943 762.209 L 363.372 762.544 C 367.066 765.43 368.97 772.414 368.963 779.21 C 368.956 786.003 367.078 793.133 363.665 796.346 L 363.28 796.708 L 342.313 791.467 Z M 362.706 794.503 C 365.562 791.611 366.957 785.758 366.963 779.208 C 366.969 772.661 365.629 767.031 362.611 764.483 L 345.846 770.98 C 344.136 772.432 343.029 775.931 342.549 779.991 C 342.069 784.054 342.32 787.635 343.564 789.718 Z" style="" transform="matrix(-1, 0, 0, -1, 709.3141479492188, 1558.9530029296875)"/>
  <path style="" d="M 320.638 754.834 L 324.378 763.304 C 320.643 765.94 302.191 769.864 291.268 768.144 L 288.518 756.374 C 292.368 757.429 315.908 757.77 320.638 754.834 Z"/>
  <path d="M 325.001 763.478 L 324.666 763.712 C 320.839 766.388 302.204 770.355 291.19 768.637 L 290.858 768.585 L 287.84 755.667 L 288.651 755.891 C 292.439 756.937 315.781 757.307 320.375 754.408 L 320.862 754.101 Z M 289.183 757.021 L 291.678 767.701 C 302.527 769.298 319.427 765.705 323.749 763.117 L 320.398 755.528 C 314.723 758.213 294.796 757.944 289.183 757.021 Z" style=""/>
  <path style="" d="M 340.327 756.704 L 337.357 764.184 C 348.206 771.396 366.748 777.41 373.987 776.834 L 375.087 761.544 C 368.539 763.638 343.665 758.947 340.327 756.704 Z"/>
  <path d="M 374.455 777.299 L 374.027 777.332 C 366.691 777.897 347.991 771.842 337.081 764.6 L 336.743 764.376 L 340.093 755.94 L 340.607 756.289 C 343.852 758.494 368.51 763.154 374.936 761.068 L 375.64 760.839 Z M 340.583 757.414 L 337.972 763.99 C 348.787 771.068 366.096 776.69 373.52 776.362 L 374.539 762.205 C 367.091 763.842 345.526 759.779 340.584 757.414 Z" style=""/>
  <path style="fill: none; stroke-width: 2px;" d="M 319.146 805.262 C 325.826 802.165 337.638 802.165 345.159 805.926"/>
  <path d="M 318.725 804.355 C 322.193 802.767 327.035 801.938 331.854 802.023 C 334.263 802.065 336.748 802.331 339.067 802.822 C 340.228 803.068 341.388 803.379 342.473 803.743 C 343.559 804.107 345.476 804.978 345.476 804.978 C 345.506 804.989 344.762 806.844 344.778 806.851 C 344.778 806.851 343.805 806.389 343.32 806.19 C 342.835 805.991 342.35 805.811 341.837 805.639 C 340.81 805.295 339.761 805.013 338.653 804.779 C 336.433 804.309 334.138 804.063 331.819 804.023 C 327.182 803.942 322.778 804.661 319.566 806.17 Z" style=""/>
  <path style="stroke-width: 2px; fill: rgb(158, 255, 46);" d="M 296.317 786.681 C 302.528 784.867 317.6 789.909 320.075 798.095 C 322.412 804.625 321.418 810.577 319.013 815.482"/>
  <path d="M 296.037 785.721 C 299.358 784.8 305.02 785.612 309.988 787.717 C 314.953 789.821 319.586 793.433 321.018 797.761 C 322.213 801.141 322.584 804.472 322.319 807.485 C 322.186 808.996 321.89 810.501 321.483 811.894 C 321.075 813.289 319.974 815.762 319.974 815.762 C 319.959 815.806 318.091 815.096 318.083 815.116 C 318.083 815.116 318.67 813.853 318.915 813.228 C 319.16 812.603 319.373 811.985 319.563 811.332 C 319.945 810.026 320.203 808.715 320.327 807.309 C 320.575 804.488 320.277 801.581 319.134 798.431 C 318.074 794.593 313.949 791.567 309.207 789.558 C 304.467 787.549 299.488 786.748 296.598 787.64 Z" style="fill: none;"/>
  <path d="M 293.701 786.803 C 293.701 786.803 300.449 784.775 309.988 787.717 C 315.141 789.306 319.586 793.433 321.018 797.761 C 322.213 801.141 322.584 804.472 322.319 807.485 C 322.186 808.996 321.826 809.342 321.419 810.735 C 321.011 812.13 318.091 815.096 318.083 815.116 C 318.083 815.116 318.67 813.853 318.915 813.228 C 319.16 812.603 319.373 811.985 319.563 811.332 C 319.945 810.026 320.203 808.715 320.327 807.309 C 320.575 804.488 320.277 801.581 319.134 798.431 C 318.074 794.593 313.949 791.567 309.207 789.558 C 304.467 787.549 296.656 787.134 293.701 786.803 Z" style=""/>
  <path d="M 293.557 786.324 C 293.557 786.324 300.451 784.297 310.135 787.239 C 315.384 788.884 319.988 793.167 321.49 797.597 C 322.698 801.033 323.081 804.466 322.817 807.529 C 322.608 809.198 322.239 809.593 321.899 810.876 C 321.43 812.375 318.496 815.382 318.527 815.346 L 316.161 818.065 L 317.629 814.906 C 317.634 814.896 318.21 813.655 318.449 813.046 C 318.69 812.431 318.896 811.833 319.083 811.192 C 319.46 809.908 319.709 808.645 319.829 807.266 C 320.077 804.492 319.781 801.655 318.652 798.565 C 317.685 794.862 313.703 792 309.012 790.019 C 304.356 788.029 296.615 787.633 293.645 787.301 L 291.178 787.025 Z M 309.402 789.098 C 314.194 791.136 318.456 794.303 319.609 798.276 C 320.761 801.48 321.072 804.485 320.825 807.353 C 320.697 808.785 320.43 810.145 320.043 811.473 C 319.933 811.851 319.814 812.221 319.687 812.586 C 320.28 811.851 320.804 811.099 320.94 810.595 C 321.414 809.092 321.765 808.794 321.822 807.441 C 322.088 804.478 321.73 801.252 320.548 797.928 C 319.183 793.705 314.899 789.728 309.842 788.195 C 300.449 785.254 300.452 786.466 297.607 786.68 C 301.227 787.05 304.579 787.069 309.403 789.098 Z" style="fill: none;"/>
  <path style="stroke-width: 2px; fill: rgb(158, 255, 46);" d="M 366.926 789.468 C 361.873 788.521 351.037 788.717 345.031 797.488 C 341.304 803.726 343.806 810.25 344.23 816.278"/>
  <path d="M 366.914 788.468 C 366.914 788.468 364.083 788.065 362.206 788.088 C 360.34 788.111 358.207 788.333 356.093 788.864 C 351.885 789.92 347.387 792.379 344.206 796.923 C 340.441 803.596 342.84 810.464 343.233 816.348 L 345.228 816.208 C 344.772 810.036 342.213 803.833 345.863 798.043 C 348.688 793.816 352.605 791.802 356.579 790.804 C 358.556 790.308 360.455 790.11 362.23 790.088 C 363.113 790.077 363.926 790.111 364.695 790.177 C 365.46 790.243 366.84 790.464 366.84 790.464 C 366.814 790.461 366.97 788.47 366.914 788.468 Z" style="fill: none;"/>
  <path d="M 368.965 790.722 C 367.587 789.109 364.083 788.065 362.206 788.088 C 360.34 788.111 358.207 788.333 356.093 788.864 C 351.885 789.92 347.387 792.379 344.206 796.923 C 338.96 806.493 345.228 816.208 345.228 816.208 C 344.386 810.036 342.213 803.833 345.863 798.043 C 348.688 793.816 352.605 791.802 356.579 790.804 C 358.556 790.308 360.455 790.11 362.23 790.088 C 363.113 790.077 363.926 790.111 364.695 790.177 C 365.46 790.243 368.965 790.722 368.965 790.722 Z" style=""/>
  <path d="M 364.652 790.675 C 363.894 790.61 363.105 790.577 362.236 790.588 C 360.484 790.609 358.643 790.799 356.701 791.289 C 352.78 792.267 349.018 794.166 346.286 798.31 C 342.66 803.884 344.87 809.92 345.723 816.141 L 346.033 818.397 L 344.808 816.479 C 344.808 816.479 343.196 813.979 342.265 810.276 C 341.342 806.604 341.114 801.601 343.768 796.683 L 343.781 796.659 L 343.797 796.636 C 347.063 792.016 351.705 789.458 355.972 788.379 C 358.121 787.842 360.312 787.612 362.201 787.588 C 364.152 787.575 367.85 788.707 369.346 790.397 L 370.234 791.4 L 368.898 791.217 C 368.898 791.217 365.406 790.739 364.653 790.675 Z M 367.28 789.992 C 365.735 789.088 364.015 788.555 362.212 788.588 C 360.369 788.61 358.294 788.824 356.215 789.349 C 352.066 790.382 347.726 792.734 344.631 797.188 C 342.053 801.831 342.335 806.454 343.235 810.033 C 344.127 813.58 343.871 812.202 344.218 813.061 C 343.335 807.948 341.766 803.783 345.44 797.777 C 348.359 793.467 352.43 791.338 356.457 790.32 C 358.469 789.818 360.426 789.612 362.224 789.589 C 363.121 789.578 363.958 789.613 364.738 789.68 C 365.515 789.747 367.28 789.993 367.28 789.993 Z" style="fill: none;"/>
  <ellipse style="" cx="319.489" cy="776.188" rx="3.115" ry="5.156"/>
  <path d="M 323.104 776.188 C 323.104 777.677 322.719 779.1 322.12 780.092 C 321.507 781.106 320.498 781.844 319.489 781.844 C 318.48 781.844 317.471 781.107 316.858 780.092 C 316.259 779.1 315.874 777.677 315.874 776.188 C 315.874 774.699 316.259 773.276 316.858 772.284 C 317.471 771.27 318.48 770.532 319.489 770.532 C 320.498 770.532 321.507 771.269 322.12 772.284 C 322.719 773.276 323.104 774.699 323.104 776.188 Z M 321.264 772.801 C 320.749 771.949 320.201 771.532 319.489 771.532 C 318.778 771.532 318.229 771.949 317.714 772.801 C 317.186 773.675 316.874 774.83 316.874 776.188 C 316.874 777.547 317.186 778.701 317.714 779.575 C 318.229 780.427 318.777 780.844 319.489 780.844 C 320.2 780.844 320.749 780.427 321.264 779.575 C 321.792 778.701 322.104 777.546 322.104 776.188 C 322.104 774.829 321.792 773.675 321.264 772.801 Z" style=""/>
  <ellipse style="stroke-width: 1;" cx="344.627" cy="778.551" rx="3.115" ry="5.156"/>
  <path d="M 348.242 778.551 C 348.242 780.04 347.857 781.463 347.258 782.455 C 346.645 783.469 345.636 784.207 344.627 784.207 C 343.618 784.207 342.609 783.47 341.996 782.455 C 341.397 781.463 341.012 780.04 341.012 778.551 C 341.012 777.062 341.397 775.639 341.996 774.647 C 342.609 773.633 343.618 772.895 344.627 772.895 C 345.636 772.895 346.645 773.632 347.258 774.647 C 347.857 775.639 348.242 777.062 348.242 778.551 Z M 346.402 775.164 C 345.887 774.312 345.339 773.895 344.627 773.895 C 343.916 773.895 343.367 774.312 342.852 775.164 C 342.324 776.038 342.012 777.193 342.012 778.551 C 342.012 779.91 342.324 781.064 342.852 781.938 C 343.367 782.79 343.915 783.207 344.627 783.207 C 345.338 783.207 345.887 782.79 346.402 781.938 C 346.93 781.064 347.242 779.909 347.242 778.551 C 347.242 777.192 346.93 776.038 346.402 775.164 Z" style=""/>
</svg>