<?xml version="1.0" encoding="utf-8"?>
<svg xmlns="http://www.w3.org/2000/svg" viewBox="105.507 435.0179 106.062 181.4431" width="106.062px" height="181.443px">
  <path style="stroke-width: 3; fill: rgb(158, 255, 46);" d="M 195.564 477.034 L 160.898 476.893 L 165.543 464.795 C 174.716 459.346 185.406 460.543 195.587 465.761 L 195.564 477.034" transform="matrix(0.990439, 0.13794796, -0.13794796, 0.990439, 66.45664366, -20.10023146)"/>
  <path d="M 195.558 478.534 L 160.892 478.393 L 158.719 478.384 L 159.498 476.355 L 164.143 464.257 L 164.334 463.76 L 164.778 463.505 C 174.417 457.955 185.833 459.13 196.272 464.426 L 197.09 464.841 L 197.088 465.764 L 197.065 477.037 L 194.065 477.031 L 194.086 466.681 C 184.453 461.896 175.358 460.779 166.759 465.815 L 163.078 475.402 L 195.571 475.534 Z" style="" transform="matrix(0.9904389977455139, 0.1379479467868805, -0.1379479467868805, 0.9904389977455139, 66.4566421508789, -20.100231170654297)"/>
  <path style="stroke-width: 3; fill: rgb(158, 255, 46);" d="M 211.569 606.75 C 196.686 619.923 146.351 619.471 126.089 606.75 C 114.361 568.652 128.859 524.607 146.98 476.898 C 157.337 466.146 200.878 472.34 207.905 487.628 C 203.958 506.681 207.449 581.341 211.569 606.75 Z"/>
  <path d="M 212.563 607.873 C 204.768 614.634 187.964 618.017 170.841 617.96 C 153.729 617.903 135.684 614.483 125.291 608.02 L 124.818 607.726 L 124.655 607.191 C 112.931 568.638 127.445 524.106 145.577 476.365 L 145.692 476.062 L 145.899 475.857 C 151.554 470.254 165.693 468.872 178.93 471.017 C 192.165 473.161 205.365 478.98 209.267 487.001 L 209.477 487.433 L 209.373 487.932 C 205.441 506.798 208.938 581.186 213.049 606.51 L 213.183 607.335 Z M 206.339 487.812 C 202.922 480.787 191.332 476.065 178.451 473.979 C 165.572 471.893 153.143 472.763 148.275 477.712 C 130.215 525.277 115.624 568.13 127.357 605.773 C 137.298 611.837 154.009 614.905 170.851 614.961 C 187.682 615.017 202.869 612.572 209.957 606.16 C 205.888 579.933 202.532 507.8 206.34 487.813 Z" style=""/>
  <path style="" d="M 187.249 480.838 L 181.168 490.865 C 189.569 491.379 198.529 500.325 204.015 507.303 L 206.974 501.549 C 203.375 494.242 196.191 483.818 187.249 480.838 Z"/>
  <path d="M 204.103 508.225 L 203.622 507.612 C 198.156 500.656 189.377 491.805 181.138 491.364 L 180.308 491.32 L 187.03 480.236 L 187.408 480.364 C 196.477 483.439 203.806 493.99 207.423 501.328 L 207.534 501.554 Z M 187.468 481.441 L 182.007 490.445 C 190.3 491.488 198.377 499.481 203.924 506.386 L 206.413 501.545 C 202.803 494.29 196.106 484.491 187.467 481.441 Z" style=""/>
  <path style="" d="M 159.799 477.222 L 159.964 487.578 C 148.738 485.695 141.803 491.125 136.787 494.975 L 137.773 485.77 C 142.878 481.544 152.082 476.115 159.799 477.222 Z"/>
  <path d="M 160.474 488.175 L 159.882 488.071 C 148.851 486.138 142.11 491.52 137.092 495.372 L 136.166 496.083 L 137.298 485.515 L 137.455 485.385 C 142.592 481.136 151.991 475.652 159.871 476.727 L 160.293 476.785 Z M 138.248 486.026 L 137.408 493.87 C 142.34 490.118 148.378 485.442 159.454 486.996 L 159.305 477.66 C 151.846 476.773 143.347 481.843 138.248 486.026 Z" style=""/>
  <path style="fill: none; stroke-width: 2px;" d="M 144.841 499.741 C 141.205 505.361 139.871 511.817 141.225 518.48"/>
  <path d="M 143.916 499.361 C 143.916 499.361 142.26 502.18 141.627 503.723 C 140.994 505.267 140.5 506.903 140.181 508.526 C 139.544 511.771 139.559 515.248 140.246 518.679 L 142.206 518.281 C 141.539 515.048 141.544 511.966 142.144 508.912 C 142.444 507.386 142.881 505.938 143.478 504.482 C 143.777 503.754 144.102 503.058 144.473 502.351 C 144.844 501.644 145.728 500.206 145.728 500.206 C 145.717 500.226 143.937 499.319 143.917 499.362 Z" style="fill: none;"/>
  <path d="M 146.553 498.625 C 146.542 498.645 142.673 501.08 141.627 503.723 C 140.581 506.366 140.5 506.903 140.181 508.526 C 139.544 511.771 139.559 515.248 140.246 518.679 L 142.206 518.281 C 141.539 515.048 141.544 511.966 142.144 508.912 C 142.444 507.386 142.881 505.938 143.478 504.482 C 143.777 503.754 144.102 503.058 144.473 502.351 C 144.844 501.644 146.553 498.625 146.553 498.625 Z" style=""/>
  <path d="M 146.988 498.871 C 146.985 498.877 145.283 501.884 144.916 502.583 C 144.55 503.28 144.235 503.954 143.941 504.671 C 143.352 506.104 142.929 507.506 142.635 509.008 C 142.04 512.014 142.034 514.998 142.696 518.18 L 142.798 518.671 L 139.854 519.269 L 139.756 518.777 C 139.064 515.298 139.049 511.724 139.691 508.429 C 140.008 506.817 140.096 506.234 141.163 503.538 C 142.263 500.758 146.193 498.307 146.122 498.373 L 148.52 496.167 Z M 142.092 503.907 C 141.067 506.498 140.993 506.988 140.672 508.622 C 140.04 511.818 140.055 514.87 140.642 518.088 L 141.621 517.889 C 141.047 514.779 141.049 511.917 141.654 508.815 C 141.96 507.265 142.411 505.77 143.016 504.292 C 143.32 503.553 143.654 502.836 144.031 502.118 C 144.405 501.405 144.974 500.411 144.977 500.405 C 143.864 501.346 143.084 501.401 142.093 503.906 Z" style="fill: none;"/>
  <path style="fill: none; stroke-width: 2px;" d="M 178.209 503.686 C 174.404 509.504 172.586 513.964 174.1 522.096"/>
  <path d="M 177.348 503.177 C 177.348 503.177 176.435 504.598 176.017 505.305 C 175.599 506.012 175.204 506.726 174.854 507.426 C 174.153 508.828 173.577 510.283 173.191 511.772 C 172.422 514.741 172.351 518.109 173.116 522.279 L 175.082 521.913 C 174.333 517.951 174.414 515.023 175.127 512.274 C 175.482 510.904 175.98 509.645 176.642 508.321 C 176.974 507.658 177.334 507.005 177.737 506.323 C 178.141 505.64 179.068 504.195 179.068 504.195 C 179.061 504.207 177.354 503.165 177.347 503.177 Z" style="fill: none;"/>
  <path d="M 179.068 504.195 C 179.061 504.207 176.469 506.023 175.182 507.754 C 174.247 509.012 173.577 510.283 173.191 511.772 C 172.422 514.741 172.351 518.109 173.116 522.279 L 175.082 521.913 C 174.333 517.951 174.414 515.023 175.127 512.274 C 175.482 510.904 175.98 509.645 176.642 508.321 C 176.974 507.658 177.334 507.005 177.737 506.323 C 178.141 505.64 179.068 504.195 179.068 504.195 Z" style=""/>
  <path d="M 179.489 504.465 C 179.485 504.471 178.566 505.903 178.168 506.577 C 177.769 507.253 177.417 507.89 177.09 508.544 C 176.437 509.848 175.957 511.058 175.612 512.399 C 174.907 515.092 174.83 517.911 175.574 521.82 L 175.668 522.313 L 172.715 522.863 L 172.625 522.37 C 171.856 518.15 171.931 514.674 172.708 511.647 C 173.115 510.104 173.826 508.747 174.782 507.456 C 176.126 505.67 178.711 503.862 178.658 503.911 L 181.585 501.2 Z M 177.102 506.418 C 176.54 506.934 175.988 507.501 175.583 508.052 C 174.669 509.277 174.04 510.462 173.675 511.897 C 172.914 514.809 172.853 517.807 173.52 521.695 L 174.502 521.512 C 173.846 517.739 173.923 514.953 174.644 512.148 C 175.009 510.749 175.525 509.441 176.196 508.097 C 176.475 507.54 176.777 506.984 177.104 506.418 Z" style="fill: none;"/>
  <path style="fill: none; stroke-width: 2px;" d="M 196.29 513.384 C 197.506 518.717 197.387 522.318 196.947 527.685"/>
  <path d="M 197.265 513.162 C 197.882 515.879 198.17 518.208 198.239 520.492 C 198.273 521.634 198.255 522.792 198.2 523.982 C 198.173 524.577 198.136 525.19 198.093 525.817 C 198.05 526.444 197.945 527.754 197.945 527.754 C 197.945 527.758 195.95 527.612 195.95 527.616 C 195.95 527.616 196.055 526.298 196.098 525.679 C 196.141 525.061 196.176 524.471 196.203 523.89 C 196.256 522.729 196.274 521.647 196.241 520.551 C 196.175 518.359 195.915 516.222 195.316 513.606 Z" style="fill: none;"/>
  <path d="M 195.316 513.606 C 195.316 513.606 198.17 518.208 198.239 520.492 C 198.273 521.634 198.255 522.792 198.2 523.982 C 198.173 524.577 198.136 525.19 198.093 525.817 C 198.05 526.444 197.945 527.754 197.945 527.754 C 197.945 527.758 195.95 527.612 195.95 527.616 C 195.95 527.616 196.055 526.298 196.098 525.679 C 196.141 525.061 196.176 524.471 196.203 523.89 C 196.256 522.729 196.274 521.647 196.241 520.551 C 196.175 518.359 195.915 516.222 195.316 513.606 Z" style=""/>
  <path d="M 195.741 513.342 C 195.741 513.342 198.632 518.068 198.739 520.477 C 198.773 521.63 198.755 522.807 198.7 524.005 C 198.673 524.604 198.635 525.223 198.592 525.852 C 198.549 526.482 198.445 527.755 198.445 527.755 C 198.418 527.868 198.351 528.059 198.29 528.117 C 198.252 528.153 198.177 528.199 198.146 528.213 C 198.111 528.228 198.055 528.243 198.035 528.247 C 198.014 528.251 197.983 528.254 197.972 528.254 C 197.961 528.255 197.945 528.255 197.939 528.255 C 197.933 528.255 197.923 528.255 197.919 528.254 C 197.913 528.254 197.903 528.253 197.894 528.253 C 197.878 528.252 197.855 528.251 197.827 528.249 C 197.772 528.245 197.693 528.24 197.599 528.233 C 197.412 528.22 197.162 528.202 196.913 528.184 C 196.664 528.166 196.415 528.149 196.228 528.135 C 196.215 528.134 196.203 528.133 196.191 528.132 L 195.283 529.699 L 195.452 527.575 C 195.452 527.573 195.557 526.259 195.6 525.643 C 195.643 525.028 195.677 524.443 195.704 523.866 C 195.757 522.712 195.774 521.649 195.742 520.565 C 195.677 518.396 195.424 516.307 194.829 513.717 L 194.143 510.73 Z M 196.741 520.536 C 196.774 521.644 196.756 522.745 196.703 523.913 C 196.678 524.445 196.647 524.987 196.609 525.548 C 196.609 525.548 195.994 527.117 196.002 527.118 C 196.018 527.119 196.041 527.12 196.069 527.122 C 196.124 527.126 196.203 527.131 196.297 527.138 C 196.355 527.142 196.42 527.147 196.488 527.151 C 196.465 527.444 196.488 527.151 196.488 527.151 C 196.639 527.162 196.811 527.174 196.983 527.186 C 197.158 527.198 197.333 527.211 197.486 527.222 C 197.521 526.775 197.568 526.152 197.594 525.783 C 197.637 525.158 197.674 524.551 197.7 523.96 C 197.755 522.778 197.773 521.638 197.739 520.508 C 197.707 518.348 197.064 517.894 196.384 516.539 C 196.592 517.928 196.674 518.322 196.741 520.537 Z" style="fill: none;"/>
  <path style="fill: none; stroke-width: 2px;" d="M 160.38 516.291 C 160.32 518.169 160.231 518.973 159.754 520.404"/>
  <path d="M 161.379 516.323 C 161.316 518.24 160.753 520.436 160.753 520.436 C 160.75 520.475 158.774 520.209 158.764 520.26 C 158.764 520.26 159.151 518.935 159.233 518.371 C 159.316 517.8 159.35 517.186 159.38 516.259 Z" style="fill: none;"/>
  <path d="M 160.068 514.265 L 160.753 520.436 C 160.75 520.475 158.774 520.209 158.764 520.26 C 158.764 520.26 159.151 518.935 159.233 518.371 C 159.316 517.8 160.038 515.192 160.068 514.265 Z" style=""/>
  <path d="M 160.565 514.21 L 161.259 520.459 L 161.252 520.475 C 161.181 520.632 161.043 520.854 160.963 520.891 C 160.923 520.91 160.856 520.928 160.83 520.932 C 160.801 520.937 160.757 520.94 160.737 520.94 C 160.709 520.94 160.668 520.939 160.635 520.937 C 160.574 520.933 160.488 520.925 160.393 520.916 C 160.205 520.897 159.955 520.869 159.708 520.841 C 159.461 520.813 159.218 520.787 159.035 520.77 C 158.997 520.766 158.963 520.764 158.933 520.761 L 157.708 522.088 L 158.282 520.12 C 158.289 520.095 158.662 518.824 158.736 518.299 C 158.825 517.697 159.545 515.117 159.566 514.249 Z M 159.728 518.443 C 159.724 518.468 159.72 518.495 159.715 518.523 C 159.715 518.523 159.032 519.765 159.129 519.774 C 159.213 519.782 159.309 519.791 159.411 519.802 C 159.321 520.135 159.419 519.803 159.419 519.803 C 159.547 519.817 159.685 519.832 159.821 519.847 C 159.948 519.861 160.073 519.875 160.19 519.888 L 159.928 517.528 C 159.828 517.949 159.805 517.903 159.729 518.443 Z" style="fill: none;"/>
  <path style="" d="M 160.436 520.303 C 161.389 519.27 147.133 515.326 141.723 515.929 L 136.62 519.25 L 160.436 520.303 Z"/>
  <path d="M 141.55 515.445 L 141.667 515.432 C 144.442 515.132 149.447 515.973 153.587 517.018 C 155.66 517.541 157.552 518.121 158.857 518.634 C 159.516 518.893 160.064 519.152 160.403 519.378 C 160.587 519.5 160.774 519.668 160.865 519.813 C 160.923 519.906 160.983 520.088 160.98 520.209 C 160.977 520.34 160.878 520.538 160.802 520.642 L 160.676 520.814 L 135.04 519.681 Z M 158.911 519.735 C 158.781 519.68 158.642 519.623 158.492 519.564 C 157.223 519.065 155.392 518.504 153.343 517.987 C 149.241 516.952 144.555 516.146 141.895 516.413 L 138.198 518.819 Z" style=""/>
  <path style="" d="M 171.777 522.895 L 176.637 521.437 C 183.549 522.22 194.728 525.137 202.154 531.239 C 195.158 529.963 174.67 523.528 171.777 522.895 Z"/>
  <path d="M 176.592 520.929 L 176.694 520.941 C 183.641 521.731 194.951 524.703 202.472 530.854 L 203.972 532.081 L 202.065 531.733 C 195.039 530.45 174.542 524.013 171.671 523.386 L 169.784 522.974 Z M 200.102 530.297 C 192.863 525.152 183.566 522.738 176.683 521.945 L 173.631 522.861 C 178.978 524.347 191.796 528.387 200.103 530.297 Z" style=""/>
  <path style="stroke-width: 2px;" d="M 150.84 566.413 C 152.855 567.115 158.466 577.323 168.972 581.424 C 176.088 583.121 184.042 579.612 185.916 575.182 C 188.041 566.367 179.897 555.061 172.391 549.469 C 165.314 544.387 147.382 538.394 142.219 538.768"/>
  <path d="M 150.145 567.132 C 150.145 567.132 150.746 567.495 151.072 567.81 C 151.414 568.14 151.81 568.58 152.291 569.133 C 153.257 570.244 154.488 571.729 155.994 573.328 C 158.993 576.513 163.205 580.212 168.609 582.354 L 168.674 582.38 L 168.74 582.395 C 172.474 583.254 176.545 582.795 179.774 581.53 C 183.027 580.256 185.753 577.979 186.837 575.57 L 186.869 575.498 L 186.888 575.415 C 187.943 570.747 186.396 565.34 183.628 560.61 C 180.865 555.89 176.809 551.523 172.988 548.665 C 165.778 543.515 147.504 537.419 142.146 537.769 L 142.29 539.764 C 147.258 539.366 164.85 545.262 171.799 550.274 C 175.482 553.009 179.247 557.086 181.901 561.62 C 184.55 566.145 185.995 570.742 184.962 574.87 C 184.146 576.856 182.016 578.503 179.044 579.667 C 176.049 580.84 172.632 581.281 169.271 580.466 C 164.2 578.503 160.386 575.076 157.449 571.956 C 155.987 570.403 154.781 568.948 153.799 567.819 C 152.812 566.683 151.593 565.754 151.593 565.754 C 151.579 565.738 150.187 567.166 150.144 567.129 Z" style="fill: none;"/>
  <path d="M 142.515 561.11 C 142.436 560.9 149.883 566.461 151.072 567.81 C 151.682 568.502 151.81 568.58 152.291 569.133 C 153.257 570.244 154.488 571.729 155.994 573.328 C 158.993 576.513 163.205 580.212 168.609 582.354 L 168.674 582.38 L 168.74 582.395 C 172.474 583.254 176.545 582.795 179.774 581.53 C 183.027 580.256 185.753 577.979 186.837 575.57 L 186.869 575.498 L 186.888 575.415 C 187.943 570.747 186.396 565.34 183.628 560.61 C 180.865 555.89 176.809 551.523 172.988 548.665 C 165.778 543.515 148.261 538.138 142.789 538.488 C 140.025 538.449 137.659 539.755 137.71 539.84 C 142.678 539.442 164.85 545.262 171.799 550.274 C 175.482 553.009 179.247 557.086 181.901 561.62 C 184.55 566.145 185.995 570.742 184.962 574.87 C 184.146 576.856 182.016 578.503 179.044 579.667 C 176.049 580.84 172.632 581.281 169.271 580.466 C 164.2 578.503 160.386 575.076 157.449 571.956 C 155.987 570.403 154.781 568.948 153.799 567.819 C 152.812 566.683 151.593 565.754 151.593 565.754 C 148.024 563.181 142.13 560.839 142.515 561.11 Z" style=""/>
  <path d="M 151.896 565.356 C 151.896 565.356 153.152 566.32 154.176 567.491 C 155.162 568.625 156.361 570.072 157.813 571.613 C 160.735 574.718 164.442 578.07 169.421 579.988 C 172.68 580.787 175.926 580.359 178.862 579.201 C 181.772 578.072 183.737 576.582 184.486 574.715 C 185.523 570.723 184.096 566.346 181.47 561.873 C 178.848 557.382 175.152 553.382 171.504 550.678 C 164.634 545.706 142.635 539.934 137.75 540.339 L 137.331 540.374 L 137.281 540.098 C 137.249 539.918 137.238 539.646 137.287 539.567 C 137.312 539.526 137.362 539.47 137.387 539.447 C 137.421 539.415 137.477 539.373 137.522 539.342 C 137.6 539.29 137.724 539.217 137.864 539.145 C 138.134 539.005 138.542 538.821 139.027 538.648 C 139.981 538.307 141.339 537.98 142.777 537.989 C 148.338 537.649 166.007 543.08 173.289 548.266 C 177.143 551.154 181.265 555.595 184.061 560.359 C 186.854 565.146 188.428 570.736 187.377 575.528 L 187.347 575.658 L 187.327 575.702 L 187.294 575.776 C 186.142 578.274 183.279 580.681 179.957 581.996 C 176.665 583.277 172.448 583.747 168.63 582.883 L 168.526 582.859 L 168.489 582.844 L 168.425 582.819 C 162.948 580.632 158.646 576.872 155.63 573.671 C 154.114 572.06 152.876 570.568 151.914 569.461 C 151.492 568.957 151.365 568.881 150.697 568.14 C 150.134 567.495 148.01 565.801 146.014 564.272 C 145.016 563.508 144.061 562.794 143.358 562.283 C 143.338 562.269 143.319 562.254 143.299 562.24 L 143.342 562.416 L 142.228 561.518 C 142.183 561.482 141.999 561.274 141.998 561.096 C 141.997 560.98 142.109 560.758 142.196 560.692 C 142.256 560.647 142.373 560.603 142.419 560.595 C 142.47 560.586 142.548 560.589 142.578 560.592 C 142.636 560.599 142.728 560.625 142.805 560.65 C 142.946 560.696 143.173 560.781 143.456 560.894 C 144.016 561.118 144.841 561.471 145.784 561.911 C 147.665 562.789 150.082 564.049 151.897 565.355 Z M 146.43 563.331 C 146.494 563.38 146.558 563.429 146.622 563.478 C 148.627 565.014 150.821 566.774 151.447 567.479 C 152 568.123 152.129 568.202 152.668 568.804 C 153.638 569.919 154.862 571.397 156.358 572.984 C 159.34 576.153 163.462 579.791 168.793 581.888 L 168.823 581.9 L 168.851 581.906 C 172.501 582.76 176.426 582.312 179.592 581.063 C 182.776 579.83 185.365 577.683 186.381 575.363 L 186.392 575.337 L 186.4 575.301 C 187.458 570.757 185.939 565.533 183.196 560.86 C 180.466 556.184 176.479 551.894 172.692 549.066 C 165.551 543.953 148.203 538.624 142.82 538.984 C 141.729 538.962 140.697 539.166 139.859 539.421 C 147.35 540.201 165.815 545.358 172.091 549.866 C 175.809 552.632 179.646 556.788 182.332 561.365 C 185.004 565.941 186.476 570.725 185.447 574.989 L 185.438 575.026 L 185.424 575.058 C 184.53 577.147 182.26 578.932 179.226 580.131 C 176.172 581.319 172.605 581.77 169.153 580.95 L 169.121 580.942 L 169.09 580.93 C 163.942 578.92 160.036 575.431 157.084 572.296 C 155.612 570.731 154.399 569.269 153.421 568.144 C 152.471 567.043 151.294 566.153 151.294 566.153 C 149.864 565.12 148.057 564.13 146.429 563.329 Z" style="fill: none;"/>
  <path style="fill: rgb(255, 255, 255);" d="M 148.298 540.768 L 147.559 547.914 C 160.696 549.991 169.702 552.294 178.856 558.675 C 173.875 549.813 161.968 545.048 148.298 540.768 Z"/>
  <path d="M 178.57 559.085 C 169.497 552.741 160.595 550.48 147.481 548.408 L 147.013 548.334 L 147.864 540.108 L 148.448 540.291 C 162.136 544.577 174.186 549.459 179.292 558.43 L 180.388 560.356 Z M 148.732 541.429 L 148.105 547.495 C 161.014 549.559 168.591 551.515 177.172 556.957 C 171.777 549.469 162.135 545.653 148.732 541.429 Z" style=""/>
  <path style="fill: rgb(211, 60, 60);" d="M 152.405 564.261 C 150.733 560.845 156.971 557.226 163.495 556.457 C 174.169 556.235 176.797 558.45 182.634 562.782 C 183.96 564.507 186.343 570.75 185.427 574.036 C 185.54 574.206 181.789 576.466 179.266 577.158 C 173.587 578.118 169.504 577.648 162.837 573.708 C 156.684 569.657 156.511 570.918 152.405 564.261 Z"/>
  <path d="M 151.956 564.481 C 151.514 563.495 151.577 562.389 152.076 561.47 C 152.564 560.572 153.481 559.688 154.602 558.949 C 156.82 557.487 160.171 556.354 163.485 555.957 C 174.325 555.794 177.108 558.058 182.932 562.38 L 182.989 562.422 L 183.031 562.477 C 184.379 564.247 186.77 570.599 185.935 574.066 L 185.844 573.759 C 185.889 573.911 185.926 574.159 185.889 574.25 C 185.867 574.304 185.817 574.379 185.788 574.413 C 185.747 574.462 185.677 574.527 185.617 574.577 C 185.507 574.667 185.338 574.788 185.143 574.916 C 184.759 575.169 184.203 575.499 183.575 575.841 C 182.323 576.521 180.701 577.28 179.4 577.641 L 179.376 577.648 L 179.351 577.652 C 173.602 578.614 169.329 578.1 162.564 574.127 C 159.524 572.121 157.923 571.419 156.55 570.359 C 155.177 569.299 154.028 567.835 151.958 564.482 Z M 157.159 569.566 C 158.437 570.553 159.996 571.244 163.102 573.284 C 169.664 577.185 173.549 577.627 179.158 576.669 C 180.375 576.335 181.87 575.628 183.096 574.962 C 183.707 574.63 184.226 574.321 184.592 574.081 C 184.764 573.968 184.887 573.881 184.97 573.813 C 185.825 570.66 183.557 564.788 182.279 563.142 C 176.471 558.829 174.017 556.68 163.531 556.957 C 160.329 557.332 157.266 558.391 155.152 559.785 C 154.107 560.474 153.37 561.183 152.955 561.948 C 152.551 562.692 152.464 563.3 152.836 564.008 C 154.869 567.306 155.881 568.581 157.159 569.567 Z" style=""/>
  <path style="fill: rgb(255, 255, 255);" d="M 157.909 570.668 C 165.515 573.458 176.477 575.75 183.332 575.327 L 177.788 579.622 C 172.531 581.319 168.834 580.347 161.77 575.926 L 157.909 570.668 Z"/>
  <path d="M 158.081 570.199 C 165.652 572.979 176.513 575.256 183.301 574.828 L 184.924 574.726 L 178.023 580.072 L 177.941 580.098 C 172.544 581.799 168.637 580.801 161.504 576.35 L 161.423 576.3 L 156.523 569.628 Z M 162.117 575.553 C 169.057 579.9 172.48 580.829 177.55 579.174 L 181.809 575.875 C 174.869 575.91 166.801 574.226 159.271 571.678 Z" style=""/>
  <path style="fill: rgb(13, 184, 221); stroke-width: 2px;" d="M 168.952 581.506 L 170.443 592.649 C 171.183 595.833 172.993 596.447 174.914 596.198 C 177.847 596.033 178.274 594.968 179.031 592.294 L 180.166 580.868 C 177.177 582.62 171.996 582.953 168.952 581.506 Z"/>
  <path d="M 180.017 592.481 L 179.993 592.566 C 179.61 593.918 179.236 595.085 178.526 595.861 C 177.802 596.652 176.598 597.077 175.006 597.193 C 173.933 597.319 172.663 597.193 171.683 596.544 C 170.738 595.918 169.894 594.539 169.452 592.781 L 167.711 579.766 L 169.382 580.602 C 172.179 582.002 176.893 581.689 179.661 580.004 L 181.36 578.97 Z M 170.156 582.96 L 171.43 592.481 C 171.728 593.866 172.164 594.463 172.789 594.877 C 173.379 595.268 173.939 595.329 174.786 595.206 C 176.109 595.153 176.639 594.963 177.051 594.512 C 177.477 594.046 177.687 593.376 178.045 592.107 L 178.998 582.513 C 176.14 583.593 173.462 583.763 170.156 582.96 Z" style=""/>
  <path style="fill: none; stroke-width: 2px; stroke-linecap: round;" d="M 108.798 504.965 L 118.459 499.826 L 115.376 514.01 L 124.832 508.46"/>
  <path d="M 107.915 505.435 C 108.174 505.923 108.78 506.108 109.267 505.848 L 117.023 501.722 L 114.398 513.797 L 113.913 516.027 L 115.881 514.872 L 125.337 509.322 C 125.813 509.042 125.973 508.43 125.693 507.953 C 125.413 507.477 124.801 507.317 124.324 507.597 L 116.836 511.992 L 119.434 500.038 L 119.892 497.929 L 117.987 498.942 L 108.326 504.081 C 107.838 504.34 107.653 504.946 107.913 505.433 Z" style=""/>
  <path style="fill: none; stroke-width: 2; stroke-linecap: round;" d="M 107.564 469.686 L 119.885 463.132 L 115.953 481.222 L 128.013 474.144" transform="matrix(0.38457909, 0.92309225, -0.92309225, 0.38457909, 508.35213641, 181.85842785)"/>
  <path d="M 106.681 470.156 C 106.94 470.644 107.546 470.829 108.033 470.569 L 118.449 465.028 L 114.975 481.009 L 114.49 483.239 L 116.458 482.084 L 128.518 475.006 C 128.994 474.726 129.154 474.114 128.874 473.637 C 128.594 473.161 127.982 473.001 127.505 473.281 L 117.413 479.204 L 120.86 463.344 L 121.318 461.235 L 119.413 462.248 L 107.092 468.802 C 106.604 469.061 106.419 469.667 106.679 470.154 Z" style="" transform="matrix(0.3845791220664978, 0.9230923056602478, -0.9230923056602478, 0.3845791220664978, 508.3521423339844, 181.85842895507812)"/>
  <path style="fill: none; stroke-width: 2; stroke-linecap: round;" d="M 122.837 445.846 L 138.195 437.677 L 133.293 460.226 L 148.326 451.403" transform="matrix(0.97247499, 0.23300605, -0.23300605, 0.97247499, 108.3401552, -19.23380889)"/>
  <path d="M 121.954 446.316 C 122.213 446.804 122.819 446.989 123.306 446.729 L 136.759 439.573 L 132.315 460.013 L 131.83 462.243 L 133.798 461.088 L 148.831 452.265 C 149.307 451.985 149.467 451.373 149.187 450.896 C 148.907 450.42 148.295 450.26 147.818 450.54 L 134.753 458.208 L 139.17 437.889 L 139.628 435.78 L 137.723 436.793 L 122.365 444.962 C 121.877 445.221 121.692 445.827 121.952 446.314 Z" style="" transform="matrix(0.972474992275238, 0.2330060601234436, -0.2330060601234436, 0.972474992275238, 108.34015655517578, -19.233808517456055)"/>
</svg>