<?xml version="1.0" encoding="utf-8"?>
<svg xmlns="http://www.w3.org/2000/svg" viewBox="174.1503 226.7212 100.3609 170.2618" width="100.361px" height="170.262px">
  <path style="stroke-width: 3; fill: rgb(158, 255, 46);" d="M 269.444 386.53 C 253.423 400.71 199.241 400.223 177.43 386.53 C 166.339 362.432 187.078 259.102 185.311 246.752 C 196.609 234.582 245.37 232.658 260.744 246.752 C 271.203 277.65 280.673 331.133 269.444 386.53 Z"/>
  <path d="M 270.438 387.653 C 262.074 394.918 244.024 398.543 225.603 398.482 C 207.193 398.421 187.799 394.749 176.632 387.8 L 176.251 387.563 L 176.067 387.157 C 164.922 362.598 185.6 259.061 183.826 246.964 L 183.721 246.245 L 184.212 245.731 C 190.239 239.426 205.792 235.646 221.476 235.403 C 237.151 235.16 253.704 238.415 261.758 245.646 L 262.039 245.899 L 262.165 246.271 C 272.652 277.279 282.147 331.151 270.914 386.828 L 270.813 387.327 Z M 259.446 247.597 C 252.014 240.923 236.895 238.165 221.522 238.403 C 206.158 238.641 192.482 241.728 186.868 247.292 C 187.837 262.729 167.987 361.115 178.61 385.499 C 189.313 392.085 207.474 395.422 225.613 395.483 C 243.741 395.543 260.245 392.426 268.074 385.737 C 279.143 330.8 269.828 278.439 259.446 247.597 Z" style=""/>
  <path style="stroke-width: 3; fill: rgb(158, 255, 46);" d="M 241.005 243.163 C 229.86 247.544 214.835 247.187 203.69 243.011 L 203.69 231.028 C 213.564 225.162 230.071 225.411 241.03 231.028 L 241.005 243.163 Z"/>
  <path d="M 241.554 244.559 C 230.117 248.992 214.554 248.639 203.164 244.416 L 202.19 244.055 L 202.19 230.166 L 202.924 229.739 C 213.192 223.768 230.425 223.994 241.714 229.694 L 242.532 230.107 L 242.503 244.192 Z M 239.528 231.952 C 228.96 226.819 214.734 226.574 205.19 231.891 L 205.19 241.962 C 215.967 245.752 228.77 246.072 239.507 242.13 Z" style=""/>
  <path style="fill: none; stroke-width: 2;" d="M 201.52 331.087 C 200.735 334.63 199.709 337.037 197.065 340.529 C 204.046 340.797 215.197 344.969 225.601 357.502"/>
  <path d="M 200.567 330.784 C 200.567 330.784 200.151 332.51 199.912 333.263 C 199.673 334.014 199.411 334.698 199.082 335.408 C 198.423 336.833 197.564 338.218 196.268 339.926 L 195.103 341.462 L 197.027 341.529 C 203.852 341.766 214.637 345.757 224.832 358.141 L 226.371 356.864 C 215.757 344.182 206.088 340.584 198.908 339.684 C 200.256 337.9 200.187 337.785 200.897 336.248 C 201.611 334.705 202.427 331.508 202.427 331.508 C 202.452 331.444 200.559 330.811 200.567 330.785 Z" style="fill: none;"/>
  <path d="M 200.567 330.784 C 200.567 330.784 200.151 332.51 199.912 333.263 C 199.673 334.014 199.411 334.698 199.082 335.408 C 198.423 336.833 197.564 338.218 196.268 339.926 L 195.103 341.462 L 197.027 341.529 C 213.341 342.966 226.371 356.864 226.371 356.864 C 215.757 344.182 206.088 340.584 198.908 339.684 C 199.734 338.476 199.86 337.458 200.57 335.921 C 201.284 334.378 200.559 330.811 200.567 330.785 L 200.567 330.784 Z" style="stroke-width: 1;"/>
  <path d="M 201.024 336.131 C 200.335 337.594 200.257 338.264 199.719 339.291 C 206.877 340.363 216.036 343.787 226.755 356.543 L 226.007 357.206 C 226.007 357.206 213.145 343.394 196.998 342.028 L 194.123 341.928 L 195.871 339.624 C 197.154 337.935 197.985 336.596 198.63 335.198 C 198.952 334.504 199.203 333.849 199.437 333.112 C 199.671 332.376 200.082 330.667 200.082 330.667 L 201.068 326.569 L 201.068 331.025 C 201.182 331.598 201.677 334.618 201.025 336.131 Z" style="fill: none;"/>
  <path style="stroke-width: 2; fill: rgb(255, 255, 255);" d="M 186.588 296.812 C 183.064 300.843 183.102 313.16 188.366 319.737 C 192.314 324.071 205.223 326.336 211.598 321.434 C 217.549 315.682 216.658 302.525 214.462 303.93 L 186.588 296.812 Z"/>
  <path d="M 214.473 302.901 C 214.666 302.86 214.704 302.794 215.019 302.845 C 215.328 302.896 215.738 303.141 215.942 303.357 C 216.276 303.711 216.574 304.363 216.745 305.006 C 217.068 306.219 217.212 308.075 217.084 310.062 C 216.831 313.992 215.405 319.046 212.294 322.153 L 212.254 322.193 L 212.208 322.227 C 208.783 324.777 203.602 325.552 198.963 325.043 C 194.316 324.534 189.747 322.658 187.585 320.362 C 184.862 316.896 183.415 311.887 183.183 307.371 C 182.949 302.837 183.961 298.394 185.835 296.154 L 186.225 295.688 Z M 214.652 305.011 L 186.961 297.94 C 185.58 299.865 184.96 302.993 185.181 307.269 C 185.402 311.564 186.59 315.981 189.131 319.092 C 190.929 321.116 194.794 322.574 199.182 323.055 C 203.579 323.537 207.995 323.028 210.946 320.676 C 213.755 318.026 214.848 313.669 215.089 309.934 C 215.208 308.088 215.089 306.559 214.813 305.52 C 214.753 305.293 214.702 305.131 214.653 305.01 Z" style=""/>
  <path style="stroke-width: 2; fill: rgb(255, 255, 255);" d="M 225.389 306.583 C 225.967 313.774 232.08 323.464 240.347 325.889 C 248.851 329.125 258.185 324.244 259.76 316.554 C 261.466 307.476 256.442 294.114 251.591 290.988 L 225.389 306.583 Z"/>
  <path d="M 252.133 290.147 C 254.717 291.873 257.399 296.252 259.082 301.218 C 260.76 306.169 261.596 312.05 260.74 316.755 C 259.84 320.827 256.862 324.353 253.095 326.215 C 249.341 328.072 244.494 328.47 240.029 326.837 C 235.714 325.527 231.88 322.332 229.176 318.611 C 226.469 314.886 224.715 310.403 224.393 306.663 L 224.34 306.044 L 251.623 289.806 Z M 226.445 307.118 C 226.832 310.419 228.233 313.911 230.794 317.435 C 233.357 320.962 236.677 323.814 240.629 324.929 C 244.657 326.516 248.777 326.119 252.209 324.422 C 255.629 322.731 258.105 319.971 258.781 316.353 C 259.631 311.979 258.808 306.641 257.188 301.86 C 255.573 297.094 253.647 293.801 251.55 292.177 Z" style=""/>
  <path style="stroke-width: 2; fill: rgb(158, 255, 46);" d="M 182.425 295.165 C 186.986 298.589 211.837 305.529 216.69 304.337 C 216.965 301.769 216.907 299.568 215.948 298.589"/>
  <path d="M 182.082 296.104 C 182.082 296.104 185.598 298.024 188.678 299.149 C 191.747 300.271 195.473 301.434 199.186 302.446 C 206.612 304.47 214.289 305.909 216.929 305.307 L 217.61 305.152 L 217.685 304.442 C 217.963 301.808 217.765 299.203 216.663 297.888 L 215.234 299.288 C 216.05 299.93 215.976 301.367 215.774 303.473 C 213.562 304.064 207.065 302.52 199.711 300.516 C 196.034 299.514 192.389 298.375 189.364 297.27 C 187.855 296.719 186.528 296.186 185.424 295.681 C 184.33 295.18 182.841 294.255 182.841 294.255 C 182.872 294.27 182.049 296.09 182.082 296.104 Z" style="fill: none;"/>
  <path d="M 181.961 295.491 C 181.961 295.491 183.87 298.535 188.719 299.993 C 191.8 300.92 195.508 301.974 199.218 302.851 C 206.64 304.606 214.285 305.854 216.898 305.333 L 217.595 305.194 L 217.682 304.478 C 217.961 302.174 217.738 299.829 216.61 298.621 C 216.61 298.621 216.95 302.263 215.788 303.472 C 213.548 303.985 207.035 302.645 199.677 300.906 C 195.998 300.036 192.349 299.047 189.322 298.088 C 187.812 297.609 186.482 297.146 185.376 296.707 C 184.28 296.272 181.931 295.48 181.961 295.491 Z" style="stroke-width: 1;"/>
  <path d="M 185.56 296.242 C 186.656 296.677 187.969 297.134 189.473 297.611 C 192.49 298.567 196.121 299.551 199.792 300.419 C 207.143 302.156 213.267 303.438 215.533 303.015 C 216.494 301.885 216.112 298.667 216.112 298.667 L 215.925 297.087 L 216.976 298.279 C 218.17 299.634 218.459 302.18 218.179 304.538 L 218.048 305.613 L 216.996 305.823 C 214.294 306.346 206.542 305.096 199.103 303.337 C 195.382 302.457 191.66 301.399 188.575 300.471 C 184.235 299.11 182.12 296.549 181.643 295.905 L 181.788 295.959 C 181.785 295.958 181.776 295.954 181.769 295.952 C 181.759 295.948 181.708 295.919 181.666 295.895 C 181.625 295.858 181.523 295.639 181.461 295.458 C 181.483 295.371 181.552 295.214 181.599 295.145 C 181.649 295.105 181.74 295.044 181.78 295.024 C 181.832 295.01 181.914 294.994 181.943 294.991 C 181.988 294.994 182.048 294.999 182.063 295.002 C 182.084 295.006 182.108 295.014 182.111 295.015 C 182.114 295.016 182.118 295.017 182.12 295.018 C 182.124 295.019 182.131 295.022 182.139 295.024 C 182.155 295.029 182.18 295.038 182.212 295.049 C 182.276 295.071 182.37 295.103 182.487 295.142 C 182.721 295.222 183.047 295.334 183.409 295.46 C 184.131 295.712 185.002 296.022 185.559 296.243 Z M 183.526 296.56 C 184.527 297.515 186.238 298.761 188.863 299.515 C 191.94 300.441 195.634 301.491 199.333 302.365 C 206.738 304.117 214.276 305.363 216.8 304.843 L 217.142 304.775 L 217.185 304.418 C 217.463 302.168 218.155 301.669 217.094 300.608 C 217.012 301.757 217.379 302.413 216.148 303.818 L 216.054 303.925 L 215.899 303.959 C 213.553 304.473 206.926 303.133 199.561 301.392 C 195.874 300.52 192.207 299.526 189.17 298.564 C 187.653 298.083 186.307 297.614 185.191 297.171 C 184.759 297 184.129 296.771 183.525 296.559 Z" style="fill: none;"/>
  <path style="stroke-width: 2; fill: rgb(158, 255, 46);" d="M 247.666 283.456 C 250.545 284.253 256.66 288.357 256.683 293.11 C 249.183 291.892 231.347 301.499 223.479 308.067"/>
  <path d="M 247.933 282.492 C 249.478 282.933 251.939 284.26 253.918 286.059 C 255.893 287.854 257.582 290.446 257.683 293.105 L 257.729 294.312 L 256.523 294.096 C 253.01 293.468 246.975 295.526 240.653 298.569 C 237.489 300.092 234.336 301.844 231.461 303.636 C 230.025 304.531 228.678 305.424 227.435 306.304 C 226.814 306.744 226.23 307.172 225.673 307.598 C 225.116 308.023 224.086 308.862 224.086 308.862 C 224.094 308.856 222.887 307.261 222.902 307.251 C 222.902 307.251 225.01 305.572 226.28 304.673 C 227.548 303.775 228.944 302.85 230.404 301.94 C 233.321 300.121 236.57 298.316 239.787 296.768 C 246.225 293.67 251.607 291.437 255.595 292.027 C 255.261 290.377 254.383 289.184 252.575 287.54 C 250.771 285.9 248.735 284.776 247.401 284.42 Z" style="fill: none;"/>
  <path d="M 247.417 283.118 C 248.962 283.559 251.939 284.26 253.918 286.059 C 255.893 287.854 257.582 290.446 257.683 293.105 L 257.729 294.312 L 256.523 294.096 C 253.01 293.468 246.975 295.526 240.653 298.569 C 237.489 300.092 234.336 301.844 231.461 303.636 C 230.025 304.531 228.678 305.424 227.435 306.304 C 226.814 306.744 226.23 307.172 225.673 307.598 C 225.116 308.023 222.059 306.983 222.059 306.983 C 222.067 306.977 225.01 305.572 226.28 304.673 C 227.548 303.775 228.944 302.85 230.404 301.94 C 233.321 300.121 236.57 298.316 239.787 296.768 C 246.225 293.67 251.607 291.437 255.595 292.027 C 255.261 290.377 254.383 289.184 252.575 287.54 C 250.771 285.9 247.417 283.118 247.417 283.118 Z" style="stroke-width: 1;"/>
  <path d="M 247.554 282.637 C 249.088 283.075 252.164 283.831 254.254 285.689 C 256.27 287.533 258.041 290.3 258.182 293.086 L 258.252 294.914 L 257.641 294.804 L 256.435 294.588 C 253.047 293.951 247.164 295.988 240.87 299.019 C 237.719 300.535 234.59 302.274 231.726 304.06 C 230.296 304.951 228.961 305.836 227.725 306.712 C 227.107 307.15 226.53 307.573 225.977 307.996 C 225.505 308.256 224.389 308.147 223.537 307.936 C 222.683 307.724 221.898 307.457 221.898 307.457 L 220.906 307.12 L 221.759 306.584 C 221.809 306.552 224.758 305.143 225.991 304.266 C 227.265 303.364 228.674 302.431 230.139 301.517 C 233.067 299.692 236.34 297.873 239.57 296.319 C 246.021 293.215 250.905 291.224 254.939 291.462 C 254.553 290.248 254.013 289.518 252.238 287.911 C 250.443 286.278 247.097 283.504 247.097 283.504 L 245.265 281.985 Z M 252.911 287.17 C 254.752 288.851 255.707 290.179 256.085 291.928 L 256.238 292.634 L 255.522 292.521 C 251.666 291.915 246.429 294.126 240.004 297.218 C 236.8 298.759 233.575 300.551 230.669 302.364 C 229.215 303.27 227.831 304.187 226.569 305.081 C 225.262 306.002 224.372 306.38 223.407 306.868 C 223.527 306.901 222.965 306.763 223.778 306.964 C 224.594 307.166 225.285 307.365 225.37 307.2 C 225.931 306.771 226.522 306.338 227.146 305.896 C 228.395 305.012 229.755 304.11 231.197 303.212 C 234.083 301.414 237.26 299.649 240.437 298.119 C 246.787 295.065 252.974 292.986 256.612 293.604 L 257.207 293.711 L 257.185 293.125 C 257.124 290.593 255.517 288.176 253.583 286.43 C 251.715 284.689 250.923 284.711 249.559 284.262 C 250.642 285.178 251.1 285.524 252.913 287.171 Z" style="fill: none;"/>
  <path style="fill: none; stroke-width: 2;" d="M 192.317 248.944 C 205.537 254.424 240.386 254.882 251.621 249.452"/>
  <path d="M 192.023 249.9 C 192.023 249.9 193.74 250.559 194.744 250.868 C 195.746 251.177 196.836 251.469 197.971 251.735 C 200.237 252.267 202.773 252.722 205.444 253.089 C 210.78 253.822 216.79 254.228 222.703 254.289 C 234.531 254.41 246.275 253.114 252.056 250.352 L 251.186 248.551 C 245.732 251.219 234.434 252.409 222.724 252.289 C 216.868 252.229 210.984 251.832 205.717 251.108 C 203.086 250.746 200.643 250.309 198.429 249.788 C 197.324 249.528 196.299 249.254 195.333 248.956 C 194.369 248.659 192.612 247.988 192.612 247.988 C 192.632 247.995 192.003 249.893 192.023 249.899 Z" style=""/>
  <path style="fill: none; stroke-width: 2; stroke-linecap: round;" d="M 207.302 233.197 C 213.144 236.668 229.779 236.922 237.271 233.705"/>
  <path d="M 207.698 232.279 C 207.358 232.173 206.986 232.258 206.726 232.501 C 206.465 232.744 206.355 233.108 206.436 233.455 C 206.518 233.802 206.779 234.079 207.121 234.18 C 207.121 234.18 207.063 234.166 207.121 234.18 C 207.121 234.18 210.658 235.704 213.215 236.176 C 215.759 236.646 218.703 236.91 221.652 236.958 C 227.547 237.054 233.784 236.268 237.666 234.623 C 238.173 234.405 238.408 233.817 238.19 233.31 C 237.972 232.803 237.384 232.568 236.877 232.786 C 233.267 234.358 227.441 235.053 221.685 234.959 C 218.809 234.912 216.031 234.663 213.578 234.21 C 212.357 233.984 211.262 233.718 210.268 233.396 C 209.774 233.236 209.336 233.073 208.915 232.892 C 208.497 232.712 207.698 232.279 207.698 232.279 C 207.724 232.291 207.698 232.279 207.698 232.279 Z" style=""/>
  <path style="stroke-width: 1;" d="M 211.492 288.819 L 208.318 295.041 C 194.107 292.98 186.932 287.867 176.316 279.04 C 176.316 279.04 180.258 273.557 185.587 270.151 C 188.147 274.068 204.991 287.7 211.492 288.819 Z"/>
  <path d="M 208.6 295.588 L 208.246 295.536 C 193.926 293.431 186.627 288.263 175.996 279.425 L 175.637 279.126 L 175.91 278.748 C 175.91 278.748 179.92 273.2 185.318 269.73 L 185.735 269.462 L 186.005 269.878 C 188.513 273.737 205.19 287.26 211.576 288.327 L 212.247 288.439 Z M 185.458 270.829 C 180.463 274.104 177.976 277.677 177 278.958 C 187.397 287.585 194.169 292.443 208.035 294.494 L 210.753 289.165 C 203.753 287.31 188.069 274.803 185.457 270.828 Z" style=""/>
  <path style="stroke-width: 1;" d="M 238.541 288.692 L 234.224 282.342 C 238.443 273.246 247.546 265.251 258.225 261.516 L 263.812 274.977 C 255.356 275.656 245.064 281.095 238.541 288.692 Z"/>
  <path d="M 233.651 282.388 L 233.771 282.131 C 238.052 272.952 247.299 264.827 258.061 261.043 L 258.507 260.886 L 264.54 275.421 L 263.854 275.474 C 255.495 276.125 245.372 281.477 238.922 289.016 L 238.497 289.513 Z M 263.091 274.545 L 257.945 262.146 C 247.548 265.892 239.005 273.39 234.797 282.296 L 238.591 287.876 C 245.182 280.488 254.67 275.478 263.091 274.544 Z" style=""/>
  <ellipse style="stroke-width: 1;" cx="211.619" cy="308.756" rx="3.556" ry="4.826"/>
  <path d="M 215.675 308.756 C 215.675 310.167 215.226 311.529 214.536 312.465 C 213.836 313.415 212.731 314.082 211.619 314.082 C 210.507 314.082 209.402 313.415 208.702 312.465 C 208.012 311.529 207.563 310.167 207.563 308.756 C 207.563 307.345 208.012 305.983 208.702 305.047 C 209.402 304.097 210.507 303.43 211.619 303.43 C 212.731 303.43 213.836 304.097 214.536 305.047 C 215.226 305.983 215.675 307.345 215.675 308.756 Z M 213.731 305.64 C 213.144 304.843 212.471 304.43 211.619 304.43 C 210.767 304.43 210.094 304.843 209.507 305.64 C 208.91 306.451 208.563 307.502 208.563 308.756 C 208.563 310.01 208.91 311.061 209.507 311.872 C 210.094 312.669 210.767 313.082 211.619 313.082 C 212.471 313.082 213.144 312.669 213.731 311.872 C 214.328 311.061 214.675 310.01 214.675 308.756 C 214.675 307.502 214.328 306.451 213.731 305.64 Z" style=""/>
  <ellipse style="stroke-width: 1;" cx="252.891" cy="300.501" rx="3.556" ry="4.826"/>
  <path d="M 256.947 300.501 C 256.947 301.912 256.498 303.274 255.808 304.21 C 255.108 305.16 254.003 305.827 252.891 305.827 C 251.779 305.827 250.674 305.16 249.974 304.21 C 249.284 303.274 248.835 301.912 248.835 300.501 C 248.835 299.09 249.284 297.728 249.974 296.792 C 250.674 295.842 251.779 295.175 252.891 295.175 C 254.003 295.175 255.108 295.842 255.808 296.792 C 256.498 297.728 256.947 299.09 256.947 300.501 Z M 255.003 297.385 C 254.416 296.588 253.743 296.175 252.891 296.175 C 252.039 296.175 251.366 296.588 250.779 297.385 C 250.182 298.196 249.835 299.247 249.835 300.501 C 249.835 301.755 250.182 302.806 250.779 303.617 C 251.366 304.414 252.039 304.827 252.891 304.827 C 253.743 304.827 254.416 304.414 255.003 303.617 C 255.6 302.806 255.947 301.755 255.947 300.501 C 255.947 299.247 255.6 298.196 255.003 297.385 Z" style=""/>
</svg>