<?xml version="1.0" encoding="utf-8"?>
<svg xmlns="http://www.w3.org/2000/svg" viewBox="38.8381 466.4798 128.501 158.1692" width="128.501px" height="158.169px">
  <path style="stroke-width: 3; fill: rgb(158, 255, 46);" d="M 98.871 481.754 L 64.205 481.614 L 64.205 470.474 C 73.378 465.034 88.713 465.264 98.894 470.474 L 98.871 481.754" transform="matrix(1, 0, 0, 1, 0, -2.842170943040401e-14)"/>
  <path d="M 98.865 483.254 L 64.199 483.114 L 62.705 483.108 L 62.705 481.614 L 62.705 470.474 L 62.705 469.61 L 63.44 469.184 C 73.007 463.639 89.066 463.847 99.577 469.139 L 100.396 469.551 L 100.394 470.477 L 100.371 481.757 L 97.371 481.751 L 97.392 471.399 C 87.607 466.673 74.547 466.447 65.705 471.338 L 65.705 480.12 L 98.877 480.254 Z" style="" transform="matrix(1, 0, 0, 1, 0, -2.842170943040401e-14)"/>
  <path style="stroke-width: 3; fill: rgb(158, 255, 46);" d="M 125.29 614.938 C 110.407 628.111 60.072 627.659 39.807 614.938 C 36.582 588.238 42.02 503.567 47.131 485.084 C 57.627 473.784 102.926 471.994 117.208 485.084 C 123.975 499.113 127.848 579.959 125.29 614.938 Z" transform="matrix(1, 0, 0, 1, 0, -2.842170943040401e-14)"/>
  <path d="M 126.284 616.061 C 118.489 622.822 101.685 626.205 84.562 626.148 C 67.45 626.091 49.403 622.671 39.01 616.208 L 38.404 615.831 L 38.318 615.117 C 35.089 588.279 40.549 503.318 45.685 484.683 L 45.785 484.319 L 46.031 484.062 C 51.657 478.192 66.144 474.663 80.726 474.437 C 95.299 474.211 110.713 477.248 118.221 483.977 L 118.432 484.166 L 118.559 484.431 C 125.4 498.75 129.345 579.976 126.786 615.046 L 126.741 615.664 Z M 115.976 485.989 C 109.115 479.774 95.043 477.216 80.773 477.438 C 66.511 477.659 53.549 480.574 48.482 485.835 C 43.426 504.848 38.171 586.718 41.214 614.045 C 51.175 620.054 67.73 623.093 84.573 623.149 C 101.404 623.205 116.545 620.352 123.839 614.215 C 126.308 579.017 122.596 500.434 115.977 485.99 Z" style="" transform="matrix(1, 0, 0, 1, 0, -2.842170943040401e-14)"/>
  <path style="stroke-width: 2px; fill: rgb(255, 255, 255);" d="M 68.997 551.583 C 75.622 559.605 91.194 556.124 92.108 546.146 C 93.462 531.361 91.589 525.759 89.518 519.522 C 86 508.93 73.177 512.131 69.609 520.746 C 67.579 525.646 64.238 546.824 68.997 551.583 Z" transform="matrix(1, 0, 0, 1, 0, -2.842170943040401e-14)"/>
  <path d="M 68.685 520.363 C 70.639 515.841 75.123 512.525 79.448 511.94 C 81.636 511.644 84.027 512.025 85.94 513.176 C 87.837 514.318 89.5 516.399 90.467 519.206 C 92.538 525.442 94.434 531.247 93.104 546.236 C 92.816 548.925 91.534 551.348 89.731 553.058 C 87.934 554.762 85.451 556.004 82.919 556.588 C 77.881 557.749 71.834 556.404 68.235 552.229 C 65.71 549.523 65.261 542.707 65.76 536.14 C 66.259 529.575 67.642 522.902 68.685 520.362 Z M 67.754 536.293 C 67.265 542.73 67.47 548.822 69.704 550.876 C 72.731 554.716 77.836 555.708 82.469 554.64 C 84.772 554.109 86.768 553.111 88.354 551.607 C 89.935 550.108 90.942 548.354 91.111 546.054 C 92.489 531.473 90.639 526.074 88.568 519.836 C 87.776 517.347 86.517 515.857 84.908 514.889 C 83.316 513.931 81.618 513.664 79.715 513.921 C 75.857 514.443 72.146 517.034 70.532 521.127 C 69.545 523.486 68.243 529.853 67.753 536.292 Z" style="" transform="matrix(1, 0, 0, 1, 0, -2.842170943040401e-14)"/>
  <path style="stroke-width: 2px; fill: rgb(255, 255, 255);" d="M 104.285 550.582 C 109.682 558.314 120.204 554.819 121.006 545.342 C 120.706 532.25 119.905 531.687 116.261 521.007 C 111.967 509.149 104.444 512.704 102.352 521.007 C 101.162 525.73 100.471 545.995 104.285 550.582 Z" transform="matrix(1, 0, 0, 1, 0, -2.842170943040401e-14)"/>
  <path d="M 101.382 520.763 C 101.94 518.591 102.889 516.611 104.027 515.207 C 105.186 513.777 106.773 512.716 108.317 512.46 C 109.869 512.202 111.735 512.743 113.238 514.093 C 114.68 515.387 116.085 517.621 117.207 520.684 C 120.665 531.116 121.493 531.829 122.005 545.319 L 122.007 545.37 L 122.002 545.426 C 121.767 547.941 120.871 550.21 119.606 551.855 C 118.33 553.515 116.515 554.776 114.673 555.367 C 112.827 555.959 110.647 555.968 108.732 555.302 C 106.834 554.642 104.941 553.214 103.481 551.177 C 99.59 546.176 100.177 525.59 101.382 520.762 Z M 105.054 549.943 C 106.29 551.76 107.772 552.851 109.39 553.414 C 110.991 553.971 112.504 553.964 114.063 553.464 C 115.626 552.963 116.93 552.057 118.021 550.638 C 119.123 549.204 119.84 547.531 120.006 545.308 C 119.916 532.671 119.145 532.26 115.32 521.346 C 114.295 518.482 113.144 516.697 111.903 515.582 C 110.723 514.523 109.772 514.247 108.645 514.434 C 107.51 514.622 106.555 515.266 105.581 516.467 C 104.586 517.694 103.81 519.272 103.322 521.252 C 102.147 525.87 101.355 545.693 105.054 549.943 Z" style="" transform="matrix(1, 0, 0, 1, 0, -2.842170943040401e-14)"/>
  <path style="" d="M 82.786 493.904 L 84.922 503.032 C 75.806 502.994 68.327 505.838 60.84 514.296 L 53.849 501.866 C 59.452 495.626 74.37 493.404 82.786 493.904 Z" transform="matrix(1, 0, 0, 1, 0, -2.842170943040401e-14)"/>
  <path d="M 85.553 503.536 L 84.92 503.532 C 75.894 503.478 68.603 506.237 61.214 514.627 L 60.749 515.155 L 53.236 501.796 L 53.477 501.531 C 59.229 495.211 74.348 492.906 82.816 493.404 L 83.188 493.426 Z M 54.462 501.936 L 60.934 513.444 C 68.353 505.324 75.365 502.647 84.292 502.535 L 82.384 494.382 C 73.974 493.962 60.097 495.979 54.462 501.936 Z" style="" transform="matrix(1, 0, 0, 1, 0, -2.842170943040401e-14)"/>
  <path style="" d="M 106.479 496.433 L 105.702 504.391 C 112.298 504.759 118.849 506.469 123.957 513.13 L 127.259 503.032 C 124.02 498.714 114.149 495.694 106.479 496.433 Z" transform="matrix(1, 0, 0, 1, 0, -2.842170943040401e-14)"/>
  <path d="M 124.135 514.194 L 123.56 513.434 C 118.587 506.863 112.221 505.25 105.674 504.89 L 105.154 504.861 L 106.022 495.973 L 106.432 495.935 C 114.199 495.206 124.294 498.325 127.66 502.732 L 127.817 502.938 Z M 106.936 496.894 L 106.25 503.924 C 112.7 504.358 118.614 505.944 123.768 512.099 L 126.702 503.126 C 123.444 499.012 114.444 496.287 106.936 496.893 Z" style="" transform="matrix(1, 0, 0, 1, 0, -2.842170943040401e-14)"/>
  <path style="fill: none; stroke-width: 2px;" d="M 64.354 566.083 C 74.533 570.983 103.15 574.862 114.592 573.242" transform="matrix(1, 0, 0, 1, 0, -2.842170943040401e-14)"/>
  <path d="M 64.048 567.035 C 64.048 567.035 66.855 568.236 68.66 568.816 C 70.46 569.395 72.494 569.952 74.656 570.469 C 78.975 571.503 83.911 572.405 88.861 573.098 C 98.759 574.483 108.913 575.046 114.732 574.232 L 114.452 572.252 C 108.829 573.058 98.954 572.491 89.138 571.117 C 84.23 570.43 79.388 569.545 75.122 568.524 C 72.991 568.014 71.03 567.477 69.272 566.912 C 68.395 566.63 67.587 566.347 66.83 566.056 C 66.075 565.765 64.714 565.15 64.714 565.15 C 64.731 565.157 64.023 567.026 64.049 567.035 Z" style="" transform="matrix(1, 0, 0, 1, 0, -2.842170943040401e-14)"/>
  <path style="fill: none; stroke-width: 2px;" d="M 64.99 562.674 C 65.621 564.036 64.791 568.025 62.092 570.003" transform="matrix(1, 0, 0, 1, 0, -2.842170943040401e-14)"/>
  <path d="M 65.897 562.254 C 66.258 563.164 66.249 564.874 65.739 566.421 C 65.488 567.183 65.094 568.032 64.605 568.769 C 64.117 569.503 62.925 570.557 62.925 570.557 C 62.88 570.615 61.391 569.292 61.36 569.323 C 61.36 569.323 62.035 568.765 62.285 568.496 C 62.535 568.227 62.736 567.968 62.94 567.662 C 63.346 567.052 63.626 566.448 63.841 565.795 C 64.264 564.512 64.353 563.547 64.084 563.095 Z" style="fill: none;" transform="matrix(1, 0, 0, 1, 0, -2.842170943040401e-14)"/>
  <path d="M 64.864 560.9 C 65.225 561.81 66.249 564.874 65.739 566.421 C 65.488 567.183 64.952 567.996 64.249 568.555 C 63.761 569.289 60.643 570.111 60.612 570.142 C 60.612 570.142 62.035 568.765 62.285 568.496 C 62.535 568.227 62.736 567.968 62.94 567.662 C 63.346 567.052 63.626 566.448 63.841 565.795 C 64.264 564.512 64.864 560.9 64.864 560.9 Z" style="" transform="matrix(1, 0, 0, 1, 0, -2.842170943040401e-14)"/>
  <path d="M 65.329 560.716 C 65.695 561.639 66.724 564.873 66.214 566.578 C 65.934 567.399 65.327 568.314 64.58 568.931 C 63.791 569.736 60.881 570.535 60.954 570.507 L 58.599 571.395 L 60.264 569.783 C 60.273 569.774 61.678 568.414 61.918 568.156 C 62.153 567.903 62.33 567.677 62.523 567.385 C 62.91 566.808 63.161 566.265 63.365 565.638 C 63.779 564.392 64.37 560.818 64.37 560.818 L 64.664 559.04 Z M 64.316 565.951 C 64.09 566.631 63.781 567.295 63.356 567.939 C 63.141 568.26 62.916 568.551 62.651 568.836 C 62.393 569.114 62.525 568.967 62.422 569.07 C 63.091 568.819 63.489 568.908 63.833 568.278 L 63.864 568.22 L 63.938 568.163 C 64.588 567.662 65.042 566.967 65.264 566.264 C 65.774 564.875 65.328 564.07 65.01 562.913 C 64.802 564.003 64.748 564.63 64.316 565.951 Z" style="fill: none;" transform="matrix(1, 0, 0, 1, 0, -2.842170943040401e-14)"/>
  <ellipse style="" cx="75.839" cy="528.156" rx="4.162" ry="6.709" transform="matrix(1, 0, 0, 1, 0, -2.842170943040401e-14)"/>
  <path d="M 80.501 528.156 C 80.501 530.076 79.997 531.89 79.207 533.164 C 78.404 534.459 77.135 535.365 75.839 535.365 C 74.543 535.365 73.274 534.458 72.471 533.164 C 71.681 531.89 71.177 530.076 71.177 528.156 C 71.177 526.236 71.681 524.422 72.471 523.148 C 73.274 521.853 74.543 520.947 75.839 520.947 C 77.135 520.947 78.404 521.854 79.207 523.148 C 79.997 524.422 80.501 526.236 80.501 528.156 Z M 78.357 523.676 C 77.654 522.543 76.842 521.947 75.839 521.947 C 74.836 521.947 74.024 522.542 73.321 523.676 C 72.605 524.83 72.177 526.371 72.177 528.156 C 72.177 529.942 72.605 531.482 73.321 532.636 C 74.024 533.769 74.836 534.365 75.839 534.365 C 76.842 534.365 77.654 533.77 78.357 532.636 C 79.073 531.482 79.501 529.941 79.501 528.156 C 79.501 526.37 79.073 524.83 78.357 523.676 Z" style="" transform="matrix(1, 0, 0, 1, 0, -2.842170943040401e-14)"/>
  <ellipse style="stroke-width: 1;" cx="107.584" cy="529.522" rx="4.162" ry="6.709" transform="matrix(1, 0, 0, 1, 0, -2.842170943040401e-14)"/>
  <path d="M 112.246 529.522 C 112.246 531.442 111.742 533.256 110.952 534.53 C 110.149 535.825 108.88 536.731 107.584 536.731 C 106.288 536.731 105.019 535.824 104.216 534.53 C 103.426 533.256 102.922 531.442 102.922 529.522 C 102.922 527.602 103.426 525.788 104.216 524.514 C 105.019 523.219 106.288 522.313 107.584 522.313 C 108.88 522.313 110.149 523.22 110.952 524.514 C 111.742 525.788 112.246 527.602 112.246 529.522 Z M 110.102 525.042 C 109.399 523.909 108.587 523.313 107.584 523.313 C 106.581 523.313 105.769 523.908 105.066 525.042 C 104.35 526.196 103.922 527.737 103.922 529.522 C 103.922 531.308 104.35 532.848 105.066 534.002 C 105.769 535.135 106.581 535.731 107.584 535.731 C 108.587 535.731 109.399 535.136 110.102 534.002 C 110.818 532.848 111.246 531.307 111.246 529.522 C 111.246 527.736 110.818 526.196 110.102 525.042 Z" style="" transform="matrix(1, 0, 0, 1, 0, -2.842170943040401e-14)"/>
  <path style="fill: rgb(234, 109, 109); stroke-width: 2px;" d="M 95.098 556.005 L 91.356 552.546 C 87.687 552.42 84.606 557.787 84.508 560.665 L 89.477 564.464 L 95.098 556.005 Z" transform="matrix(1, 0, 0, 1, 0, -2.842170943040401e-14)"/>
  <path d="M 83.482 561.14 L 83.508 560.631 C 83.59 559.029 84.468 556.678 85.787 554.886 C 87.109 553.091 89.231 551.588 91.39 551.546 L 91.74 551.539 L 96.402 555.848 L 89.718 565.906 Z M 93.794 556.161 L 90.947 553.53 C 89.602 553.568 88.558 554.496 87.398 556.072 C 86.235 557.652 85.705 558.981 85.545 560.199 L 89.236 563.021 Z" style="" transform="matrix(1, 0, 0, 1, 0, -2.842170943040401e-14)"/>
  <path style="fill: rgb(233, 138, 21); stroke-width: 2px;" d="M 98.438 558.824 L 105.818 565.422 L 99.276 572.634 L 91.785 566.54 L 92.288 559.551 L 98.438 558.824 Z" transform="matrix(1, 0, 0, 1, 0, -2.842170943040401e-14)"/>
  <path d="M 107.235 565.348 L 99.38 574.008 L 90.75 566.988 L 91.35 558.656 L 98.768 557.779 Z M 93.226 560.447 L 92.82 566.093 L 99.172 571.261 L 104.401 565.497 L 98.108 559.871 Z" style="" transform="matrix(1, 0, 0, 1, 0, -2.842170943040401e-14)"/>
  <path style="fill: rgb(113, 113, 113); stroke-width: 2px;" d="M 93.965 554.967 L 98.494 558.936 C 95.065 559.23 91.637 563.985 91.673 566.54 L 86.976 562.57 C 87.771 559.003 89.988 555.722 93.965 554.967 Z" transform="matrix(1, 0, 0, 1, 0, -2.842170943040401e-14)"/>
  <path d="M 101.049 559.845 L 98.579 559.932 C 97.118 559.983 95.758 561.076 94.553 562.528 C 93.353 563.975 92.608 565.465 92.672 566.525 L 92.811 568.811 L 85.865 562.94 L 85.999 562.352 C 86.427 560.476 87.27 558.537 88.513 557.068 C 89.756 555.598 91.61 554.434 93.778 553.984 L 94.249 553.886 Z M 90.041 558.36 C 88.982 559.612 88.476 560.751 88.092 562.204 L 91.049 564.703 C 91.451 563.545 91.652 562.894 93.014 561.251 C 94.372 559.613 95.182 559.133 96.498 558.516 L 93.678 556.044 C 92.121 556.41 91.099 557.108 90.041 558.359 Z" style="" transform="matrix(1, 0, 0, 1, 0, -2.842170943040401e-14)"/>
  <rect x="85.117" y="551.752" width="52.608" height="43.787" style="fill: rgb(71, 57, 41); stroke-width: 2;" rx="1.575" ry="1.575" transform="matrix(1, 0, -0.7483170032501221, 1, 442.4995422363282, -0.315017014741926)"/>
  <path d="M 86.692 550.752 L 136.15 550.752 C 136.789 550.796 137.56 551.095 137.971 551.506 C 138.382 551.917 138.682 552.688 138.725 553.327 L 138.725 593.964 C 138.681 594.603 138.382 595.374 137.971 595.785 C 137.56 596.196 136.789 596.496 136.15 596.539 L 86.692 596.539 C 86.053 596.495 85.282 596.196 84.871 595.785 C 84.46 595.374 84.16 594.603 84.117 593.964 L 84.117 553.327 C 84.161 552.688 84.46 551.917 84.871 551.506 C 85.282 551.095 86.053 550.795 86.692 550.752 Z M 86.285 552.92 C 86.126 553.079 86.073 553.096 86.117 553.327 L 86.117 593.964 C 86.073 594.195 86.126 594.212 86.285 594.371 C 86.444 594.53 86.461 594.583 86.692 594.539 L 136.15 594.539 C 136.381 594.583 136.398 594.53 136.557 594.371 C 136.716 594.212 136.769 594.195 136.725 593.964 L 136.725 553.327 C 136.769 553.096 136.716 553.079 136.557 552.92 C 136.398 552.761 136.381 552.708 136.15 552.752 L 86.692 552.752 C 86.461 552.708 86.444 552.761 86.285 552.92 Z" style="" transform="matrix(1, 0, -0.7483170032501221, 1, 442.4995422363281, -0.3150170147418976)"/>
  <path d="M 146.471 549.13 C 146.43 549.205 146.387 549.278 146.341 549.351 L 151.694 549.351 L 149.156 554.087 L 133.517 554.087 L 136.055 549.351 L 141.407 549.351 C 141.439 549.278 141.474 549.205 141.515 549.13 C 142.199 547.853 143.863 546.817 145.232 546.817 C 146.601 546.817 147.155 547.853 146.471 549.13 Z" style="fill: rgb(64, 64, 64); stroke-width: 2px;" transform="matrix(1, 0, 0, 1, 0, -2.842170943040401e-14)"/>
  <path d="M 147.348 549.61 C 147.299 549.699 147.24 549.799 147.187 549.884 L 148.148 548.351 L 153.364 548.351 L 149.754 555.087 L 131.846 555.087 L 135.456 548.351 L 140.755 548.351 L 140.491 548.95 C 140.53 548.862 140.582 548.755 140.634 548.658 C 141.495 547.193 143.599 545.818 145.232 545.818 C 146.154 545.818 147.149 546.362 147.503 547.024 C 147.85 547.672 147.749 548.765 147.348 549.611 Z M 145.74 547.967 C 145.646 547.792 145.68 547.817 145.232 547.817 C 144.127 547.817 142.904 548.514 142.397 549.602 C 142.368 549.653 142.348 549.695 142.323 549.752 L 142.064 550.351 L 136.654 550.351 L 135.188 553.087 L 148.558 553.087 L 150.024 550.351 L 144.523 550.351 L 145.496 548.818 C 145.534 548.758 145.561 548.712 145.595 548.65 C 145.879 548.22 145.842 548.155 145.741 547.966 Z" style="" transform="matrix(1, 0, 0, 1, 0, -2.842170943040401e-14)"/>
</svg>