<?xml version="1.0" encoding="utf-8"?>
<svg xmlns="http://www.w3.org/2000/svg" viewBox="-52.111 699.8464 89.621 158.1716" width="89.621px" height="158.172px">
  <path style="stroke-width: 3; fill: rgb(158, 255, 46);" d="M 9.811 715.12 L -26.539 714.979 L -26.539 703.847 C -16.917 698.398 -0.839 698.629 9.835 703.847 L 9.811 715.12"/>
  <path d="M 9.805 716.62 L -26.545 716.479 L -28.039 716.473 L -28.039 714.979 L -28.039 703.847 L -28.039 702.964 L -27.278 702.542 C -17.276 696.996 -0.499 697.206 10.494 702.5 L 11.337 702.906 L 11.335 703.851 L 11.311 715.124 L 8.311 715.118 L 8.333 704.792 C -1.957 700.045 -15.732 699.819 -25.039 704.733 L -25.039 713.486 L 9.817 713.621 Z" style=""/>
  <path style="stroke-width: 3; fill: rgb(158, 255, 46);" d="M 37.51 848.307 C 21.906 861.48 -30.869 861.028 -52.111 848.307 L -44.436 718.455 C -33.428 707.149 14.062 705.361 29.036 718.455 L 37.51 848.307 Z"/>
  <path d="M 38.478 849.453 C 30.329 856.204 12.748 859.574 -5.191 859.517 C -23.12 859.46 -42.007 856.049 -52.882 849.594 L -53.663 849.131 L -45.9 717.797 L -45.511 717.409 C -39.633 711.547 -24.483 708.031 -9.21 707.806 C 6.055 707.58 22.176 710.606 30.023 717.327 L 30.491 717.728 L 39.056 848.975 Z M 27.58 719.18 C 20.275 713.099 5.811 710.583 -9.165 710.805 C -24.132 711.026 -37.546 713.911 -42.972 719.109 L -50.559 847.478 C -40.079 853.44 -22.852 856.461 -5.181 856.517 C 12.479 856.573 28.252 853.732 35.964 847.638 Z" style=""/>
  <path style="" d="M -3.446 756.007 L -0.641 762.43 C 6.179 756.29 21.326 755.223 26.816 758.621 L 26.657 747.353 C 13.702 740.33 2.52 751.757 -3.446 756.007 Z"/>
  <path d="M 27.329 759.535 L 26.553 759.046 C 23.912 757.383 18.913 756.842 13.643 757.445 C 8.368 758.049 3.014 759.783 -0.307 762.801 L -0.821 763.268 L -4.067 755.834 L -3.736 755.599 C -0.777 753.493 3.542 749.543 8.766 747.002 C 13.987 744.462 20.254 743.375 26.895 746.912 L 27.152 747.049 Z M 9.203 747.902 C 4.106 750.381 0.157 753.991 -2.827 756.176 L -0.452 761.613 C 3.069 758.758 8.154 757.067 13.529 756.452 C 18.91 755.836 23.329 756.365 26.304 757.779 L 26.161 747.652 C 19.947 744.337 14.303 745.421 9.203 747.901 Z" style=""/>
  <path style="" d="M -17.464 752.59 L -20.162 759.256 C -24.312 755.166 -39.85 748.696 -47.301 748.464 L -44.444 738.148 C -37.024 735.778 -22.024 747.737 -17.464 752.59 Z"/>
  <path d="M -19.98 760.14 L -20.512 759.612 C -24.583 755.575 -39.953 749.177 -47.316 748.964 L -47.953 748.946 L -44.852 737.75 L -44.596 737.672 C -40.712 736.495 -34.896 738.916 -29.615 742.237 C -24.336 745.557 -19.399 749.803 -17.099 752.247 L -16.88 752.48 Z M -30.148 743.084 C -35.362 739.805 -40.499 737.545 -44.035 738.545 L -46.653 747.998 C -38.962 748.544 -25.253 754.257 -20.357 758.405 L -18.048 752.701 C -20.393 750.265 -24.931 746.364 -30.147 743.084 Z" style=""/>
  <path style="" d="M -3.204 765.826 C -3.617 766.172 -4.254 772.81 -3.598 775.958 C 1.971 773.502 15.611 771.221 20.699 773.204 L 19.027 769.761 C 14.207 769.016 2.698 771.99 -2.319 774.384 C -3.135 772.515 -3.543 767.108 -3.204 765.826 Z"/>
  <path d="M -2.04 773.705 C 3.251 771.339 14.183 768.527 19.103 769.267 L 19.361 769.306 L 21.711 774.145 L 20.517 773.671 C 15.561 771.702 2.113 773.978 -3.397 776.417 L -3.964 776.668 L -4.088 776.062 C -4.748 772.839 -4.027 765.958 -3.526 765.445 L -2.207 764.093 L -2.722 765.956 C -3.053 767.155 -2.715 771.603 -2.041 773.707 Z M -2.102 774.834 C 3.965 772.685 14.243 771.122 19.753 772.4 L 18.693 770.218 C 13.831 769.609 2.871 772.456 -2.102 774.834 Z M -2.593 775.013 L -2.777 774.584 C -3.129 773.763 -3.359 773.42 -3.482 773.197 C -3.455 773.544 -3.381 774.138 -3.215 775.255 C -3.014 775.174 -2.806 775.093 -2.593 775.014 Z" style=""/>
  <path style="" d="M -20.222 764.055 C -20.174 765.406 -20.427 772.352 -20.222 774.777 C -25.749 771.854 -36.12 768.054 -40.585 767.695 L -39.798 764.252 C -37.654 764.922 -29.532 767.961 -21.6 772.712 C -21.759 770.722 -20.565 764.617 -20.222 764.055 Z"/>
  <path d="M -19.722 764.037 C -19.674 765.406 -19.928 772.34 -19.723 774.735 L -19.645 775.648 L -20.455 775.219 C -25.951 772.31 -36.225 768.538 -40.624 768.193 L -41.2 768.148 L -40.163 763.613 L -39.647 763.774 C -37.49 764.448 -29.824 767.321 -22.096 771.836 C -21.966 769.26 -21.022 764.438 -20.647 763.794 L -19.781 762.306 Z M -21.102 772.672 L -21.02 773.643 L -21.858 773.141 C -29.749 768.41 -36.722 765.812 -39.434 764.897 L -39.973 767.257 C -35.251 767.851 -26.48 771.06 -20.771 773.932 C -20.878 770.995 -20.731 770.216 -20.779 768.883 C -21.011 770.387 -21.265 770.75 -21.103 772.672 Z" style=""/>
  <path style="fill: none; stroke-linecap: round; stroke-width: 2px;" d="M -32.551 797.782 C -25.361 791.963 -1.661 792.318 9.967 799.025"/>
  <path d="M -33.328 798.411 C -33.675 797.982 -33.609 797.352 -33.18 797.005 C -29.358 793.992 -21.308 792.505 -12.932 792.707 C -8.748 792.808 -4.374 793.31 -0.353 794.207 C 1.659 794.656 3.628 795.215 5.436 795.867 C 7.247 796.52 10.307 798.085 10.307 798.085 C 10.343 798.099 10.307 798.085 10.307 798.085 C 10.638 798.219 10.872 798.52 10.921 798.874 C 10.97 799.228 10.826 799.581 10.544 799.8 C 10.262 800.019 9.884 800.071 9.554 799.936 C 9.554 799.936 9.534 799.926 9.554 799.936 C 9.554 799.936 8.033 799.113 7.239 798.753 C 6.444 798.392 5.627 798.062 4.757 797.749 C 3.015 797.121 1.168 796.597 -0.789 796.16 C -4.707 795.286 -8.887 794.806 -12.981 794.707 C -21.159 794.51 -28.555 795.755 -31.923 798.56 C -32.352 798.907 -32.982 798.841 -33.329 798.412 Z" style=""/>
  <path style="fill: none; stroke-linecap: round; stroke-width: 2px;" d="M -33.35 795.031 C -34.02 797.507 -33.338 798.393 -31.93 800.09"/>
  <path d="M -32.35 795.049 C -32.34 794.497 -32.78 794.041 -33.332 794.031 C -33.884 794.021 -34.34 794.461 -34.35 795.013 C -34.35 795.013 -34.344 794.943 -34.35 795.013 C -34.35 795.013 -34.599 796.082 -34.609 796.609 C -34.619 797.158 -34.523 797.733 -34.362 798.186 C -34.044 799.087 -33.407 799.875 -32.7 800.729 C -32.347 801.154 -31.717 801.213 -31.292 800.86 C -30.867 800.507 -30.808 799.877 -31.161 799.452 C -31.861 798.608 -32.27 798.106 -32.477 797.52 C -32.58 797.23 -32.616 797.012 -32.609 796.646 C -32.602 796.258 -32.35 795.05 -32.35 795.05 C -32.356 795.12 -32.35 795.05 -32.35 795.05 Z" style=""/>
  <path style="fill: none; stroke-linecap: round; stroke-width: 2px;" d="M 10.5 797.161 C 10.826 798.019 10.116 800.06 9.169 801.51"/>
  <path d="M 10.145 796.226 C 10.661 796.03 11.239 796.289 11.435 796.806 C 11.626 797.478 11.547 798.535 11.265 799.418 C 10.99 800.28 10.122 801.815 10.122 801.815 C 10.097 801.877 10.122 801.815 10.122 801.815 C 9.991 802.147 9.693 802.384 9.34 802.437 C 8.987 802.489 8.633 802.349 8.411 802.069 C 8.189 801.789 8.134 801.412 8.266 801.08 C 8.266 801.08 8.28 801.052 8.266 801.08 C 8.266 801.08 8.738 800.29 8.919 799.909 C 9.1 799.529 9.242 799.174 9.359 798.809 C 9.587 798.094 9.7 797.702 9.565 797.516 C 9.369 797 9.628 796.422 10.145 796.226 Z" style=""/>
  <path style="fill: rgb(211, 60, 60); stroke-width: 2px;" d="M -1.086 796.291 C -1.669 795.327 -1.499 795.199 -3.367 794.245 C -6.69 792.549 -10.396 792.331 -14.54 793.931 C -16.743 792.646 -20.127 793.196 -22.881 794.403 C -25.776 796.311 -27.77 798.617 -28.546 803.923 C -29.088 806.492 -28.85 810.954 -25.005 815.726 C -22.137 819.285 -13.903 818.931 -10.606 817.299 C -7.145 814.871 -7.174 809.336 -6.357 806.52 C -5.177 801.957 -1.401 798.337 -1.086 796.291 Z"/>
  <path d="M -5.397 806.799 C -6.194 809.473 -6.358 815.278 -10.032 818.118 L -10.082 818.157 L -10.163 818.196 C -11.948 819.057 -15.081 819.617 -18.021 819.458 C -20.963 819.3 -24.1 818.3 -25.785 816.354 C -29.74 811.295 -30.076 806.447 -29.531 803.743 C -28.638 798.182 -26.431 795.567 -23.433 793.569 L -23.362 793.522 L -23.284 793.488 C -20.41 792.245 -17.017 791.785 -14.494 792.851 C -10.292 791.382 -6.435 791.605 -2.914 793.355 C -1.939 793.856 -1.373 794.214 -1.029 794.568 C -0.627 794.982 -0.484 795.374 -0.232 795.774 L -0.03 796.095 L -0.099 796.444 C -0.562 798.775 -4.356 802.472 -5.398 806.799 Z M -2.139 796.466 C -2.307 796.171 -2.336 796.09 -2.462 795.96 C -2.646 795.771 -2.929 795.588 -3.822 795.135 C -6.947 793.493 -10.246 793.296 -14.18 794.863 L -14.651 795.051 L -15.044 794.794 C -16.915 793.571 -19.789 794.136 -22.402 795.284 C -25.153 797.089 -26.897 799.016 -27.556 804.067 C -28.088 806.506 -27.961 810.613 -24.226 815.098 C -23.043 816.711 -20.629 817.314 -17.912 817.46 C -15.194 817.606 -12.609 817.182 -11.091 816.424 C -7.935 814.368 -8.153 809.199 -7.317 806.241 C -5.999 801.442 -2.673 798.322 -2.139 796.466 Z" style=""/>
  <path style="fill: none; stroke-width: 2px;" d="M -19.882 806.048 C -19.865 800.661 -15.907 793.771 -14.478 794.088"/>
  <path d="M -20.882 806.045 C -20.849 803.199 -19.808 799.907 -18.605 797.484 C -17.998 796.261 -17.305 795.161 -16.69 794.424 C -16.371 794.041 -16 793.682 -15.686 793.465 C -15.327 793.218 -15.044 793.263 -15.044 793.263 C -14.919 793.201 -14.035 794.973 -13.91 794.911 C -13.91 794.911 -14.421 795.023 -14.552 795.113 C -14.728 795.234 -14.901 795.403 -15.154 795.706 C -15.684 796.34 -16.25 797.24 -16.813 798.374 C -17.95 800.664 -18.897 803.51 -18.881 806.051 Z" style="fill: none;"/>
  <path d="M -19.322 807.904 C -19.322 807.904 -20.514 802.731 -18.605 797.484 C -18.138 796.201 -17.305 795.161 -16.69 794.424 C -16.371 794.041 -16 793.682 -15.686 793.465 C -15.327 793.218 -15.044 793.263 -15.044 793.263 C -14.919 793.201 -13.947 794.355 -13.822 794.293 C -13.822 794.293 -14.421 795.023 -14.552 795.113 C -14.728 795.234 -14.901 795.403 -15.154 795.706 C -15.684 796.34 -16.25 797.24 -16.813 798.374 C -17.95 800.664 -19.073 804.746 -19.322 807.904 Z" style=""/>
  <path d="M -19.809 808.016 C -19.809 808.016 -20.992 802.701 -19.075 797.313 C -18.568 795.959 -17.693 794.845 -17.074 794.104 C -16.737 793.701 -16.315 793.296 -15.969 793.053 C -15.429 792.765 -14.965 792.769 -14.965 792.769 L -14.699 792.771 L -15.266 792.815 C -15.048 792.798 -14.768 792.82 -14.686 792.874 C -14.626 792.914 -14.549 792.976 -14.485 793.033 C -14.364 793.141 -14.217 793.287 -14.08 793.424 C -13.943 793.56 -13.816 793.687 -13.715 793.776 C -13.673 793.814 -13.652 793.831 -13.636 793.842 L -12.788 793.836 L -13.435 794.609 C -13.435 794.609 -14.086 795.386 -14.268 795.524 C -14.411 795.618 -14.534 795.741 -14.77 796.026 C -15.28 796.633 -15.814 797.484 -16.365 798.596 C -17.485 800.841 -18.583 804.832 -18.823 807.943 L -19.081 811.282 Z M -17.261 798.152 C -16.686 796.996 -16.088 796.047 -15.538 795.386 C -15.268 795.064 -15.045 794.85 -14.836 794.702 C -14.8 794.683 -14.671 794.535 -14.538 794.378 C -14.619 794.3 -14.704 794.215 -14.786 794.134 C -14.923 793.998 -15.05 793.871 -15.151 793.782 C -15.17 793.765 -15.185 793.752 -15.197 793.742 C -15.245 793.747 -15.314 793.777 -15.403 793.879 C -15.685 794.07 -16.005 794.383 -16.306 794.746 C -16.918 795.479 -17.708 796.445 -18.135 797.657 C -20.035 802.762 -19.216 802.219 -19.209 804.031 C -18.708 801.81 -18.415 800.488 -17.261 798.153 Z M -14.533 794.381 L -14.902 794.841 C -14.902 794.841 -14.097 794.736 -14.18 794.682 C -14.24 794.642 -14.317 794.58 -14.381 794.523 C -14.429 794.481 -14.48 794.432 -14.534 794.381 Z" style="fill: none;"/>
</svg>