<?xml version="1.0" encoding="utf-8"?>
<svg xmlns="http://www.w3.org/2000/svg" viewBox="111.8413 703.2024 109.1137 157.7916" width="109.114px" height="157.792px">
  <path style="stroke-width: 3; fill: rgb(158, 255, 46);" d="M 191.853 718.476 L 157.187 718.335 L 157.187 707.203 C 166.36 701.754 181.695 701.985 191.876 707.203 L 191.853 718.476"/>
  <path d="M 191.847 719.976 L 157.181 719.835 L 155.687 719.829 L 155.687 718.335 L 155.687 707.203 L 155.687 706.339 L 156.421 705.913 C 165.988 700.359 182.048 700.567 192.56 705.868 L 193.378 706.28 L 193.376 707.206 L 193.353 718.479 L 190.353 718.473 L 190.374 708.127 C 180.589 703.393 167.528 703.166 158.687 708.066 L 158.687 716.841 L 191.859 716.976 Z" style=""/>
  <path style="stroke-width: 3; fill: rgb(158, 255, 46);" d="M 220.955 850.896 C 206.072 864.069 153.054 864.384 132.792 851.663 C 123.259 808.736 132.701 751.707 140.113 721.811 C 150.609 710.505 195.908 708.717 210.19 721.811 C 209.175 735.402 216.596 836.695 220.955 850.896 Z"/>
  <path d="M 221.949 852.019 C 214.157 858.78 196.69 862.353 178.902 862.489 C 161.124 862.625 142.399 859.397 131.994 852.933 L 131.463 852.603 L 131.327 851.988 C 121.786 808.776 131.232 751.404 138.656 721.45 L 138.752 721.062 L 139.013 720.79 C 144.639 714.917 159.126 711.387 173.708 711.161 C 188.281 710.935 203.695 713.974 211.203 720.705 L 211.741 721.187 L 211.686 721.922 C 210.671 735.402 218.061 836.419 222.389 850.455 L 222.677 851.387 Z M 208.651 722.444 C 201.679 716.424 188.026 713.94 173.755 714.161 C 159.493 714.382 146.552 717.293 141.476 722.549 C 134.089 752.48 124.595 808.08 134.12 850.722 C 144.08 856.754 161.362 859.625 178.879 859.49 C 196.386 859.356 211.819 856.385 219.254 850.376 C 214.846 833.076 207.922 738.71 208.65 722.444 Z" style=""/>
  <path style="" d="M 163.877 722.839 L 164.18 729.5 C 155.753 729.299 145.308 732.781 138.749 739.34 L 134.813 727.835 C 142.331 723.849 153.987 722.334 163.877 722.839 Z"/>
  <path d="M 164.704 730.014 L 164.168 730 C 155.826 729.786 145.564 733.195 139.102 739.694 L 138.536 740.263 L 134.201 727.592 L 134.578 727.393 C 142.181 723.38 153.967 721.836 163.902 722.339 L 164.355 722.362 Z M 135.425 728.079 L 138.967 738.433 C 145.625 732.177 155.238 728.961 163.656 728.993 L 163.398 723.316 C 153.666 722.876 142.867 724.268 135.425 728.079 Z" style=""/>
  <path style="" d="M 191.125 724.656 L 189.157 730.862 C 195.943 732.557 207.148 740.326 210.199 749.028 L 215.951 739.34 C 210.35 731.872 200.208 726.876 191.125 724.656 Z"/>
  <path d="M 210.078 750.211 L 209.727 749.193 C 206.769 740.614 195.74 733.005 189.036 731.347 L 188.519 731.219 L 190.79 724.059 L 191.244 724.17 C 200.378 726.409 210.661 731.497 216.351 739.04 L 216.552 739.307 Z M 191.46 725.254 L 189.792 730.515 C 196.661 732.472 206.696 739.463 210.292 747.893 L 215.35 739.373 C 209.807 732.132 200.371 727.507 191.46 725.254 Z" style=""/>
  <path style="stroke-width: 2px; fill: rgb(255, 255, 255);" d="M 154.901 746.114 C 163.18 740.138 167.443 745.597 169.454 752.263 C 170.864 762.568 168.027 777.456 160.845 782.804 C 153.079 787.191 146.291 781.534 144.037 774.4 C 142.999 764.369 146.76 754.305 154.901 746.114 Z"/>
  <path d="M 154.316 745.303 C 156.481 743.755 158.521 742.869 160.246 742.626 C 162.023 742.376 163.745 742.789 165.054 743.597 C 167.625 745.183 169.372 748.556 170.412 751.975 L 170.435 752.05 L 170.445 752.128 C 171.851 762.594 168.817 777.951 161.442 783.607 L 161.391 783.646 L 161.337 783.675 C 157.165 785.931 152.999 785.651 149.862 783.782 C 146.738 781.92 144.279 778.407 143.083 774.702 L 143.052 774.606 L 143.042 774.504 C 142.033 764.247 145.937 753.779 154.191 745.41 L 154.249 745.351 Z M 145.021 774.196 C 146.088 777.582 148.111 780.41 150.886 782.063 C 153.649 783.709 156.726 784.06 160.296 781.967 C 167.25 776.896 169.864 762.616 168.475 752.476 C 167.505 749.262 166.137 746.614 164.004 745.298 C 162.96 744.654 161.939 744.407 160.525 744.606 C 159.059 744.812 157.497 745.469 155.553 746.876 C 147.566 754.878 143.99 764.425 145.021 774.195 Z" style=""/>
  <path style="stroke-width: 2; fill: rgb(255, 255, 255);" d="M 188.422 749.505 C 196.701 743.529 200.964 748.988 202.975 755.654 C 204.385 765.959 201.548 780.847 194.366 786.195 C 186.6 790.582 179.812 784.925 177.558 777.791 C 176.52 767.76 180.281 757.696 188.422 749.505 Z" transform="matrix(0.88458902, -0.46637201, 0.46637201, 0.88458902, -335.89519413, 177.33629606)"/>
  <path d="M 187.837 748.694 C 190.002 747.146 192.042 746.26 193.767 746.017 C 195.544 745.767 197.266 746.18 198.575 746.988 C 201.146 748.574 202.893 751.947 203.933 755.366 L 203.956 755.441 L 203.966 755.519 C 205.372 765.985 202.338 781.342 194.963 786.998 L 194.912 787.037 L 194.858 787.066 C 190.686 789.322 186.52 789.042 183.383 787.173 C 180.259 785.311 177.8 781.798 176.604 778.093 L 176.573 777.997 L 176.563 777.895 C 175.554 767.638 179.458 757.17 187.712 748.801 L 187.77 748.742 Z M 178.542 777.587 C 179.609 780.973 181.632 783.801 184.407 785.454 C 187.17 787.1 190.223 787.489 193.817 785.358 C 200.771 780.287 203.385 766.007 201.996 755.867 C 201.026 752.653 199.658 750.005 197.525 748.689 C 196.481 748.045 195.46 747.798 194.046 747.997 C 192.58 748.203 191.018 748.86 189.074 750.267 C 181.087 758.269 177.475 767.782 178.542 777.586 Z" style="" transform="matrix(0.8845890164375305, -0.466372013092041, 0.466372013092041, 0.8845890164375305, -335.89520263671875, 177.3363037109375)"/>
  <ellipse style="" cx="163.923" cy="754.478" rx="3.218" ry="5.547"/>
  <path d="M 167.641 754.478 C 167.641 756.073 167.247 757.589 166.631 758.651 C 166.001 759.737 164.964 760.525 163.923 760.525 C 162.882 760.525 161.845 759.737 161.215 758.651 C 160.599 757.589 160.205 756.072 160.205 754.478 C 160.205 752.883 160.599 751.367 161.215 750.305 C 161.845 749.219 162.882 748.431 163.923 748.431 C 164.964 748.431 166.001 749.219 166.631 750.305 C 167.247 751.367 167.641 752.884 167.641 754.478 Z M 165.766 750.807 C 165.231 749.885 164.659 749.431 163.923 749.431 C 163.187 749.431 162.615 749.885 162.08 750.807 C 161.531 751.753 161.205 753.01 161.205 754.478 C 161.205 755.947 161.531 757.204 162.08 758.149 C 162.615 759.071 163.187 759.525 163.923 759.525 C 164.659 759.525 165.231 759.071 165.766 758.149 C 166.315 757.203 166.641 755.946 166.641 754.478 C 166.641 753.009 166.315 751.752 165.766 750.807 Z" style=""/>
  <ellipse style="stroke-width: 1;" cx="194.944" cy="757.149" rx="3.218" ry="5.547" transform="matrix(0.98723, -0.15929905, 0.15929905, 0.98723, -118.39829603, 39.76358178)"/>
  <path d="M 198.662 757.149 C 198.662 758.744 198.268 760.26 197.652 761.322 C 197.022 762.408 195.985 763.196 194.944 763.196 C 193.903 763.196 192.866 762.408 192.236 761.322 C 191.62 760.26 191.226 758.743 191.226 757.149 C 191.226 755.554 191.62 754.038 192.236 752.976 C 192.866 751.89 193.903 751.102 194.944 751.102 C 195.985 751.102 197.022 751.89 197.652 752.976 C 198.268 754.038 198.662 755.555 198.662 757.149 Z M 196.787 753.478 C 196.252 752.556 195.68 752.102 194.944 752.102 C 194.208 752.102 193.636 752.556 193.101 753.478 C 192.552 754.424 192.226 755.681 192.226 757.149 C 192.226 758.618 192.552 759.875 193.101 760.82 C 193.636 761.742 194.208 762.196 194.944 762.196 C 195.68 762.196 196.252 761.742 196.787 760.82 C 197.336 759.874 197.662 758.617 197.662 757.149 C 197.662 755.68 197.336 754.423 196.787 753.478 Z" style="" transform="matrix(0.9872300028800964, -0.1592990607023239, 0.1592990607023239, 0.9872300028800964, -118.3982925415039, 39.763580322265625)"/>
  <path style="fill: none; stroke-width: 2px; stroke-linecap: round;" d="M 179.246 793.212 C 173.634 797.663 176.706 809.838 181.007 812.171"/>
  <path d="M 180.007 793.86 C 180.214 793.57 180.251 793.191 180.102 792.866 C 179.953 792.542 179.643 792.321 179.287 792.289 C 178.932 792.256 178.586 792.416 178.381 792.708 C 178.381 792.708 178.429 792.639 178.381 792.708 C 178.381 792.708 177.156 793.869 176.669 794.705 C 176.183 795.539 175.807 796.526 175.576 797.49 C 175.115 799.406 175.106 801.615 175.42 803.639 C 176.048 807.684 178.171 811.67 180.529 813.05 C 181.014 813.313 181.621 813.133 181.885 812.648 C 182.148 812.163 181.968 811.556 181.483 811.292 C 179.54 810.338 177.977 807.07 177.396 803.332 C 177.106 801.464 177.113 799.649 177.52 797.958 C 177.722 797.118 177.993 796.405 178.397 795.712 C 178.598 795.367 178.799 795.08 179.054 794.781 C 179.308 794.482 180.006 793.86 180.006 793.86 C 179.974 793.894 180.006 793.86 180.006 793.86 Z" style=""/>
  <path style="fill: none; stroke-width: 2px;" d="M 169.429 786.679 C 169.656 791.479 165.108 796.556 161.379 797.153 C 162.955 800.279 164.463 800.449 166.748 801.767 C 165.447 802.143 162.873 802.086 161.631 806.8 C 163.557 806.724 166.204 806.346 168.854 809.971"/>
  <path d="M 168.445 786.499 C 168.445 786.499 168.418 787.755 168.317 788.303 C 168.216 788.852 168.07 789.355 167.859 789.894 C 167.437 790.976 166.853 791.946 166.11 792.864 C 164.625 794.697 162.881 795.95 161.22 796.167 L 159.763 796.357 L 160.485 797.604 C 162.451 801.002 162.953 800.763 164.201 801.493 C 164.011 801.585 164.783 801.068 163.623 801.818 C 162.534 802.523 161.381 804 160.663 806.546 L 160.294 807.856 L 161.67 807.8 C 162.663 807.76 163.641 807.661 164.698 807.961 C 165.802 808.273 166.863 808.881 168.046 810.562 L 169.661 809.382 C 168.194 807.438 166.607 806.423 165.243 806.037 C 163.833 805.638 163.677 805.754 162.993 805.754 C 163.469 804.506 163.877 804.037 164.71 803.498 C 165.473 803.004 166.277 802.935 167.025 802.729 L 169.368 802.084 L 167.247 800.902 C 164.768 799.52 163.862 799.577 162.798 797.777 C 164.866 797.397 165.999 796.177 167.663 794.123 C 168.494 793.097 169.238 791.86 169.721 790.621 C 170.206 789.379 170.359 787.043 170.359 787.043 C 170.384 786.959 168.437 786.551 168.444 786.499 Z" style=""/>
  <path style="fill: none; stroke-width: 2px;" d="M 113.317 776.189 L 113.317 811.183"/>
  <path d="M 112.317 811.183 L 112.317 776.189 L 114.317 776.189 L 114.317 811.183 Z" style="fill: none;"/>
  <path d="M 137.237 781.012 L 138.133 781.012 L 138.133 796.683 L 138.119 796.7 C 137.967 797.69 136.737 798.596 135.458 798.926 C 133.861 799.337 132.306 798.667 131.987 797.428 C 131.668 796.189 132.704 794.85 134.302 794.439 C 135.45 794.143 136.576 794.406 137.237 795.038 L 137.237 781.012 Z" style=""/>
  <path d="M 138.633 780.512 L 138.633 796.862 L 138.584 796.922 L 138.613 796.776 C 138.492 797.38 138.061 798.018 137.524 798.45 C 136.995 798.876 136.269 799.227 135.582 799.41 C 134.701 799.623 133.746 799.557 133.045 799.255 C 132.33 798.947 131.693 798.293 131.503 797.553 C 131.312 796.813 131.554 795.933 132.03 795.317 C 132.498 794.713 133.302 794.194 134.177 793.955 C 135.444 793.658 135.991 793.843 136.737 794.155 L 136.737 780.512 Z M 137.633 796.174 L 136.891 795.4 C 136.346 794.831 135.455 794.629 134.426 794.924 C 133.703 795.096 133.19 795.452 132.82 795.93 C 132.459 796.396 132.342 796.806 132.47 797.304 C 132.598 797.802 132.899 798.104 133.44 798.337 C 133.995 798.576 134.616 798.641 135.332 798.442 C 135.923 798.295 136.452 798.028 136.896 797.671 C 137.332 797.32 137.592 797.01 137.623 796.624 L 137.633 796.502 L 137.631 796.504 Z" style="fill: none;"/>
  <path d="M 116.579 761.552 L 126.035 763.113 L 126.035 766.729 L 126.007 766.725 L 126.007 780.273 L 125.995 780.289 C 125.859 781.176 124.756 781.989 123.61 782.284 C 122.177 782.653 120.783 782.052 120.497 780.941 C 120.211 779.831 121.14 778.63 122.573 778.261 C 123.602 777.996 124.612 778.232 125.204 778.799 L 125.204 766.592 L 117.404 765.305 L 117.404 778.692 L 117.391 778.708 C 117.255 779.596 116.152 780.408 115.006 780.703 C 113.573 781.073 112.179 780.471 111.893 779.361 C 111.607 778.25 112.536 777.049 113.969 776.68 C 114.999 776.415 116.008 776.651 116.6 777.218 L 116.6 765.173 L 116.579 765.169 L 116.579 761.552 Z" style=""/>
  <path d="M 126.535 762.689 L 126.535 767.306 L 126.507 767.302 L 126.507 780.44 L 126.461 780.501 L 126.489 780.365 C 126.376 780.918 125.981 781.506 125.495 781.898 C 125.016 782.283 124.356 782.603 123.735 782.768 C 122.936 782.96 122.062 782.901 121.426 782.626 C 120.776 782.346 120.22 781.733 120.013 781.065 C 119.871 780.381 120.062 779.576 120.495 779.016 C 120.92 778.468 121.656 777.994 122.448 777.776 C 123.596 777.51 124.037 777.673 124.704 777.933 L 124.704 767.015 L 117.904 765.893 L 117.904 778.868 L 117.856 778.928 L 117.886 778.782 C 117.773 779.335 117.378 779.924 116.891 780.316 C 116.412 780.701 115.752 781.02 115.131 781.186 C 114.332 781.378 113.458 781.32 112.821 781.045 C 112.171 780.765 111.615 780.152 111.408 779.485 C 111.266 778.8 111.457 777.995 111.89 777.436 C 112.315 776.888 113.051 776.414 113.843 776.196 C 114.992 775.93 115.432 776.093 116.099 776.353 L 116.099 765.587 L 116.078 765.583 L 116.078 760.963 Z M 117.079 764.745 L 125.535 766.14 L 125.535 763.537 L 117.079 762.141 Z M 125.507 779.847 L 124.858 779.16 C 124.382 778.656 123.607 778.481 122.698 778.745 C 122.058 778.896 121.613 779.207 121.286 779.629 C 120.968 780.039 120.837 780.39 120.981 780.816 C 121.06 781.259 121.345 781.503 121.821 781.708 C 122.311 781.919 122.851 781.977 123.485 781.799 C 124.01 781.669 124.474 781.435 124.867 781.118 C 125.252 780.808 125.477 780.546 125.5 780.212 L 125.507 780.103 L 125.506 780.105 Z M 116.904 778.267 L 116.254 777.579 C 115.778 777.075 115.004 776.9 114.093 777.164 C 113.453 777.315 113.008 777.626 112.681 778.048 C 112.363 778.459 112.232 778.81 112.376 779.236 C 112.455 779.678 112.74 779.922 113.216 780.128 C 113.706 780.339 114.246 780.397 114.88 780.219 C 115.405 780.089 115.869 779.855 116.263 779.538 C 116.648 779.228 116.873 778.967 116.896 778.632 L 116.904 778.513 L 116.903 778.514 Z" style="fill: none;"/>
  <path d="M 117.807 737.425 L 118.703 737.425 L 118.703 753.096 L 118.689 753.113 C 118.537 754.103 117.307 755.009 116.028 755.339 C 114.431 755.75 112.876 755.08 112.557 753.841 C 112.238 752.602 113.274 751.263 114.872 750.852 C 116.02 750.556 117.146 750.819 117.807 751.451 L 117.807 737.425 Z" style="stroke-width: 1;"/>
  <path d="M 119.203 736.925 L 119.203 753.275 L 119.154 753.335 L 119.183 753.189 C 119.062 753.793 118.631 754.431 118.094 754.863 C 117.565 755.289 116.839 755.64 116.152 755.823 C 115.271 756.036 114.316 755.97 113.615 755.668 C 112.9 755.36 112.263 754.706 112.073 753.966 C 111.882 753.226 112.124 752.346 112.6 751.73 C 113.068 751.126 113.872 750.607 114.747 750.368 C 116.014 750.071 116.561 750.256 117.307 750.568 L 117.307 736.925 Z M 118.203 752.587 L 117.461 751.813 C 116.916 751.244 116.025 751.042 114.996 751.337 C 114.273 751.509 113.76 751.865 113.39 752.343 C 113.029 752.809 112.912 753.219 113.04 753.717 C 113.168 754.215 113.469 754.517 114.01 754.75 C 114.565 754.989 115.186 755.054 115.902 754.855 C 116.493 754.708 117.022 754.441 117.466 754.084 C 117.902 753.733 118.162 753.423 118.193 753.037 L 118.203 752.915 L 118.201 752.917 Z" style="fill: none;"/>
</svg>