<?xml version="1.0" encoding="utf-8"?>
<svg xmlns="http://www.w3.org/2000/svg" viewBox="188.3991 -5.6097 89.8424 160.0156" width="89.8424px" height="160.016px">
  <path style="fill: rgb(158, 255, 46); stroke-width: 3;" d="M 250.623 9.664 L 215.957 9.523 L 215.957 -1.609 C 225.13 -7.058 240.465 -6.827 250.646 -1.609 L 250.623 9.664"/>
  <path d="M 250.617 11.164 L 215.951 11.023 L 214.457 11.017 L 214.457 9.523 L 214.457 -1.609 L 214.457 -2.473 L 215.191 -2.899 C 224.758 -8.453 240.818 -8.245 251.33 -2.944 L 252.148 -2.532 L 252.146 -1.606 L 252.123 9.667 L 249.123 9.661 L 249.144 -0.685 C 239.359 -5.419 226.298 -5.646 217.457 -0.746 L 217.457 8.029 L 250.629 8.164 Z" style="fill: none;"/>
  <path d="M 250.617 11.164 L 215.951 11.023 L 214.457 11.017 L 214.457 9.523 L 214.457 -1.609 L 214.457 -2.473 L 215.191 -2.899 C 224.758 -8.453 240.818 -8.245 251.33 -2.944 L 252.148 -2.532 L 252.146 -1.606 L 252.123 9.667 L 249.123 9.661 L 249.144 -0.685 C 239.359 -5.419 226.298 -5.646 217.457 -0.746 L 217.457 8.029 L 250.629 8.164 Z" style=""/>
  <path d="M 215.949 11.523 L 213.957 11.515 L 213.957 -2.761 L 214.94 -3.331 C 224.636 -8.919 240.934 -8.718 251.555 -3.39 L 252.649 -2.839 L 252.646 -1.604 L 252.622 10.169 L 251.121 10.166 L 251.115 11.667 Z M 250.125 9.163 L 251.624 9.166 L 251.646 -1.607 L 251.647 -2.224 L 251.105 -2.497 C 240.702 -7.771 224.88 -7.986 215.442 -2.466 L 214.957 -2.184 L 214.957 10.52 L 215.953 10.524 L 250.119 10.663 Z M 216.957 8.527 L 216.957 -1.042 L 217.215 -1.184 C 226.182 -6.115 239.473 -5.895 249.362 -1.136 L 249.645 -1 L 249.625 8.659 Z M 248.643 -0.371 C 239.001 -4.948 226.666 -5.173 217.957 -0.451 L 217.957 7.53 L 248.627 7.655 Z" style="fill: none;"/>
  <path style="stroke-width: 3; fill: rgb(158, 255, 46);" d="M 277.042 144.695 C 262.159 157.868 211.824 157.416 191.562 144.695 C 185.945 146.942 191.81 44.324 198.883 14.843 C 209.379 3.537 254.678 1.749 268.96 14.843 C 277.157 39.26 280.142 119.864 277.042 144.695 Z"/>
  <path d="M 278.036 145.818 C 270.241 152.579 253.437 155.962 236.314 155.905 C 219.202 155.848 201.279 152.451 190.871 146.031 C 190.577 145.966 190.534 146.114 190.103 145.751 C 189.775 145.475 189.436 144.94 189.256 144.506 C 188.942 143.749 188.678 142.558 188.488 141.173 C 188.116 138.462 187.907 134.43 187.842 129.519 C 187.712 119.72 188.141 106.13 188.966 91.582 C 190.616 62.493 193.871 29.335 197.424 14.493 L 197.518 14.099 L 197.783 13.822 C 203.409 7.949 217.896 4.419 232.478 4.193 C 247.051 3.967 262.465 7.006 269.973 13.737 L 270.256 13.991 L 270.381 14.365 C 278.616 38.993 281.635 119.929 278.529 144.88 L 278.458 145.45 Z M 267.659 15.685 C 260.772 9.513 246.796 6.971 232.525 7.193 C 218.263 7.414 205.33 10.323 200.251 15.576 C 196.767 30.399 193.608 62.724 191.962 91.753 C 191.139 106.264 190.713 119.749 190.842 129.481 C 190.906 134.335 191.106 138.182 191.46 140.767 C 191.633 142.031 191.813 142.843 192.026 143.357 C 192.039 143.389 192.049 143.415 192.056 143.434 L 192.447 143.482 L 192.359 143.426 C 202.229 149.684 219.482 152.851 236.324 152.907 C 253.155 152.963 268.341 150.101 275.622 143.946 C 278.604 118.612 275.726 40.325 267.659 15.687 Z" style="fill: none;"/>
  <path d="M 278.036 145.818 C 270.241 152.579 253.437 155.962 236.314 155.905 C 219.202 155.848 201.279 152.451 190.871 146.031 C 190.577 145.966 190.534 146.114 190.103 145.751 C 189.775 145.475 189.436 144.94 189.256 144.506 C 188.942 143.749 188.678 142.558 188.488 141.173 C 188.116 138.462 187.907 134.43 187.842 129.519 C 187.712 119.72 188.141 106.13 188.966 91.582 C 190.616 62.493 193.871 29.335 197.424 14.493 L 197.518 14.099 L 197.783 13.822 C 203.409 7.949 217.896 4.419 232.478 4.193 C 247.051 3.967 262.465 7.006 269.973 13.737 L 270.256 13.991 L 270.381 14.365 C 278.616 38.993 281.635 119.929 278.529 144.88 L 278.458 145.45 Z M 267.659 15.685 C 260.772 9.513 246.796 6.971 232.525 7.193 C 218.263 7.414 205.33 10.323 200.251 15.576 C 196.767 30.399 193.608 62.724 191.962 91.753 C 191.139 106.264 190.713 119.749 190.842 129.481 C 190.906 134.335 191.106 138.182 191.46 140.767 C 191.633 142.031 191.813 142.843 192.026 143.357 C 192.039 143.389 192.049 143.415 192.056 143.434 L 192.447 143.482 L 192.359 143.426 C 202.229 149.684 219.482 152.851 236.324 152.907 C 253.155 152.963 268.341 150.101 275.622 143.946 C 278.604 118.612 275.726 40.325 267.659 15.687 Z" style=""/>
  <path d="M 278.364 146.196 C 270.455 153.013 253.486 156.457 236.313 156.405 C 219.155 156.344 201.182 152.925 190.68 146.5 C 190.633 146.5 190.657 146.529 190.459 146.497 C 190.293 146.47 190.055 146.352 189.782 146.134 C 189.404 145.801 188.995 145.17 188.795 144.698 C 188.468 143.899 188.187 142.647 187.993 141.241 C 187.619 138.509 187.408 134.446 187.342 129.526 C 187.212 119.716 187.641 106.108 188.467 91.554 C 190.118 62.455 193.379 29.253 196.938 14.377 L 197.063 13.851 L 197.157 13.753 L 197.422 13.476 C 203.169 7.533 217.833 3.926 232.47 3.693 C 247.095 3.472 262.68 6.575 270.307 13.365 L 270.688 13.707 L 270.73 13.832 L 270.855 14.206 C 279.103 38.904 282.133 119.95 279.025 144.941 L 278.93 145.701 L 278.786 145.827 Z M 277.985 145.199 L 278.032 144.819 C 281.136 119.908 278.128 39.082 269.906 14.524 L 269.823 14.275 L 269.638 14.109 C 262.249 7.437 247.005 4.462 232.485 4.693 C 217.958 4.912 203.648 8.365 198.143 14.168 L 197.972 14.347 L 197.909 14.609 C 194.362 29.417 191.113 62.532 189.464 91.61 C 188.639 106.152 188.211 119.724 188.341 129.512 C 188.406 134.413 188.612 138.415 188.982 141.105 C 189.168 142.47 189.416 143.599 189.716 144.314 C 189.876 144.71 190.145 145.149 190.423 145.368 C 190.581 145.513 190.58 145.503 190.617 145.509 C 190.622 145.51 190.716 145.511 190.977 145.543 L 191.043 145.551 L 191.132 145.606 C 201.455 151.993 219.248 155.353 236.314 155.406 C 253.387 155.468 270.026 152.146 277.707 145.441 Z M 268.134 15.531 C 276.213 40.238 279.102 118.632 276.118 144.004 L 276.095 144.201 L 275.944 144.327 C 268.548 150.537 253.2 153.458 236.322 153.406 C 219.54 153.346 202.265 150.18 192.277 143.964 L 191.692 143.892 L 191.587 143.606 C 191.581 143.59 191.576 143.575 191.564 143.548 C 191.338 142.992 191.141 142.119 190.965 140.834 C 190.609 138.228 190.407 134.35 190.342 129.487 C 190.213 119.744 190.639 106.241 191.463 91.724 C 193.11 62.685 196.275 30.317 199.764 15.461 L 199.796 15.325 L 199.891 15.227 C 205.095 9.904 218.204 6.919 232.517 6.692 C 246.837 6.474 260.983 9.08 267.992 15.312 L 268.158 15.46 L 268.158 15.607 Z M 267.224 15.967 C 260.423 9.921 246.684 7.468 232.532 7.693 C 218.321 7.908 205.727 10.705 200.706 15.825 C 197.24 30.675 194.106 62.763 192.461 91.782 C 191.638 106.287 191.213 119.754 191.342 129.475 C 191.406 134.319 191.603 138.136 191.955 140.7 C 192.103 141.788 192.247 142.498 192.414 142.975 L 192.501 143.201 C 192.51 143.225 192.519 143.247 192.524 143.262 L 192.501 143.2 L 192.625 143.004 C 202.406 149.227 219.526 152.355 236.324 152.407 C 253.108 152.467 267.922 149.703 275.147 143.691 C 278.085 118.233 275.247 40.673 267.223 15.967 Z" style="fill: none;"/>
  <path style="stroke-width: 1;" d="M 224.816 18.213 C 213.256 17.869 199.074 27.831 194.518 31.6 L 191.136 19.341 C 192.583 18.725 206.333 11.558 223.688 10.322 L 224.816 18.213 Z" transform="matrix(0.73225397, 0.68103099, -0.68103099, 0.73225397, 69.9598409, -136.02587981)"/>
  <path d="M 224.801 18.713 C 213.392 18.324 199.377 28.228 194.837 31.985 L 194.242 32.478 L 190.538 19.052 L 190.941 18.881 C 192.37 18.273 206.201 11.087 223.653 9.823 L 224.118 9.789 L 225.396 18.732 Z M 223.259 10.855 C 206.251 12.142 194.468 18.332 191.731 19.619 L 194.797 30.731 C 199.92 26.647 212.641 17.75 224.239 17.708 Z" style="fill: none;" transform="matrix(0.732253909111023, 0.6810309886932373, -0.6810309886932373, 0.732253909111023, 69.9598388671875, -136.02587890625)"/>
  <path d="M 224.801 18.713 C 213.392 18.324 199.377 28.228 194.837 31.985 L 194.242 32.478 L 190.538 19.052 L 190.941 18.881 C 192.37 18.273 206.201 11.087 223.653 9.823 L 224.118 9.789 L 225.396 18.732 Z M 223.259 10.855 C 206.251 12.142 194.468 18.332 191.731 19.619 L 194.797 30.731 C 199.92 26.647 212.641 17.75 224.239 17.708 Z" style="" transform="matrix(0.732253909111023, 0.6810309886932373, -0.6810309886932373, 0.732253909111023, 69.9598388671875, -136.02587890625)"/>
  <path d="M 224.784 19.213 C 213.528 18.778 199.681 28.625 195.156 32.37 L 193.966 33.356 L 189.94 18.762 L 190.746 18.42 C 192.16 17.819 206.068 10.615 223.617 9.324 L 224.547 9.256 L 225.975 19.25 L 225.38 19.231 Z M 224.817 18.213 L 223.689 10.321 L 223.689 10.321 C 223.688 10.321 223.688 10.321 223.687 10.321 L 224.815 18.207 L 224.602 18.207 C 224.674 18.208 224.745 18.21 224.817 18.212 Z M 191.137 19.341 L 190.734 19.512 L 191.137 19.341 L 191.138 19.345 L 191.42 19.212 C 191.299 19.268 191.205 19.311 191.137 19.34 Z M 194.518 31.6 L 194.518 31.6 C 194.624 31.512 194.736 31.421 194.852 31.327 L 194.517 31.594 Z M 222.83 11.39 C 206.188 12.717 195.653 18.285 192.324 19.89 L 195.078 29.873 C 200.559 25.605 212.08 17.585 223.663 17.22 Z M 195.896 30.503 C 201.145 26.462 212.707 18.904 222.846 18.25 C 212.335 18.879 201.189 26.4 195.896 30.503 Z" style="fill: none;" transform="matrix(0.7322538495063782, 0.6810309290885925, -0.6810309290885925, 0.7322538495063782, 69.9598388671875, -136.02587890625)"/>
  <path style="fill: rgb(255, 255, 255); stroke-width: 2;" d="M 224.826 56.494 C 224.316 65.951 221.154 72.568 214.026 72.228 C 209.702 72.306 204.725 69.947 200.826 65.561 C 193.83 55.9 204.163 37.438 207.093 33.694 C 211.449 27.694 218.382 27.561 221.893 34.094 C 224.343 38.315 225.074 51.294 224.826 56.494 Z" transform="matrix(0.99740207, 0.072032, -0.072032, 0.99740207, 4.20311418, -15.11424727)"/>
  <path d="M 225.825 56.548 C 225.558 61.361 224.588 65.632 222.756 68.565 C 220.892 71.549 217.851 73.31 214.025 73.228 C 209.478 73.258 204.075 70.653 200.016 66.148 C 196.426 60.965 197.181 53.482 199.288 47.096 C 201.397 40.701 204.798 35.015 206.301 33.085 C 208.645 29.939 211.862 28.159 214.823 28.195 C 217.796 28.232 220.824 30.137 222.759 33.593 C 225.276 38.037 226.073 51.297 225.826 56.549 Z M 221.028 34.596 C 219.452 31.519 217.258 30.224 214.797 30.194 C 212.324 30.164 209.914 31.427 207.902 34.281 C 206.473 36.101 203.228 41.534 201.187 47.721 C 199.143 53.918 198.236 60.449 201.6 64.926 C 205.335 69.173 209.907 71.353 214.008 71.227 C 217.288 71.47 219.433 70.108 221.06 67.504 C 222.718 64.849 223.584 61.085 223.828 56.443 C 224.076 51.293 223.412 38.593 221.029 34.595 Z" style="" transform="matrix(0.9974021315574646, 0.07203200459480286, -0.07203200459480286, 0.9974021315574646, 4.203114032745361, -15.11424732208252)"/>
  <ellipse style="stroke-width: 2;" cx="421.422" cy="126.33" rx="4.067" ry="5.067" transform="matrix(0.99740207, 0.072032, -0.072032, 0.99740207, -195.6759555, -99.83372831)"/>
  <path d="M 426.489 126.33 C 426.489 127.898 425.915 129.495 425.078 130.539 C 424.224 131.603 422.789 132.397 421.422 132.397 C 420.055 132.397 418.62 131.602 417.766 130.539 C 416.928 129.495 416.355 127.898 416.355 126.33 C 416.355 124.762 416.929 123.165 417.766 122.121 C 418.62 121.057 420.055 120.263 421.422 120.263 C 422.789 120.263 424.224 121.058 425.078 122.121 C 425.916 123.165 426.489 124.762 426.489 126.33 Z M 423.518 123.373 C 422.9 122.603 422.302 122.263 421.422 122.263 C 420.542 122.263 419.944 122.603 419.326 123.373 C 418.692 124.163 418.355 125.1 418.355 126.33 C 418.355 127.56 418.692 128.497 419.326 129.287 C 419.944 130.057 420.542 130.397 421.422 130.397 C 422.302 130.397 422.9 130.057 423.518 129.287 C 424.152 128.497 424.489 127.56 424.489 126.33 C 424.489 125.1 424.152 124.163 423.518 123.373 Z" style="" transform="matrix(0.9974021315574646, 0.07203200459480286, -0.07203200459480286, 0.9974021315574646, -195.6759490966797, -99.83372497558594)"/>
  <path style="fill: none; stroke-linecap: round; stroke-width: 2;" d="M 259.773 87.123 C 255.577 86.418 253.785 83.524 254.443 80.277" transform="matrix(-0.96897203, 0.24717101, -0.24717101, -0.96897203, 526.79672562, 101.26962769)"/>
  <path d="M 260.759 87.289 C 260.667 87.834 260.152 88.201 259.607 88.109 C 257.334 87.692 255.485 86.617 254.48 85.243 C 253.968 84.543 253.586 83.648 253.425 82.804 C 253.265 81.966 253.46 80.464 253.46 80.464 C 253.451 80.363 253.46 80.464 253.46 80.464 C 253.427 80.109 253.587 79.763 253.879 79.558 C 254.171 79.353 254.55 79.32 254.873 79.471 C 255.196 79.622 255.413 79.935 255.442 80.291 C 255.442 80.291 255.439 80.338 255.442 80.291 C 255.442 80.291 255.315 81.144 255.31 81.488 C 255.305 81.83 255.329 82.11 255.39 82.429 C 255.511 83.063 255.716 83.545 256.095 84.062 C 256.871 85.123 258.015 85.848 259.939 86.136 C 260.484 86.228 260.851 86.743 260.759 87.288 Z" style="fill: none;" transform="matrix(-0.9689720869064331, 0.24717102944850922, -0.24717102944850922, -0.9689720869064331, 526.7967529296875, 101.2696304321289)"/>
  <path d="M 260.759 87.289 C 260.667 87.834 260.152 88.201 259.607 88.109 C 257.334 87.692 255.485 86.617 254.48 85.243 C 253.968 84.543 253.586 83.648 253.425 82.804 C 253.265 81.966 253.46 80.464 253.46 80.464 C 253.451 80.363 253.46 80.464 253.46 80.464 C 253.427 80.109 253.587 79.763 253.879 79.558 C 254.171 79.353 254.55 79.32 254.873 79.471 C 255.196 79.622 255.413 79.935 255.442 80.291 C 255.442 80.291 255.439 80.338 255.442 80.291 C 255.442 80.291 255.315 81.144 255.31 81.488 C 255.305 81.83 255.329 82.11 255.39 82.429 C 255.511 83.063 255.716 83.545 256.095 84.062 C 256.871 85.123 258.015 85.848 259.939 86.136 C 260.484 86.228 260.851 86.743 260.759 87.288 Z" style="" transform="matrix(-0.9689720869064331, 0.24717102944850922, -0.24717102944850922, -0.9689720869064331, 526.7967529296875, 101.2696304321289)"/>
  <path d="M 261.252 87.372 C 261.168 87.741 260.924 88.145 260.643 88.345 C 260.362 88.545 259.894 88.642 259.517 88.601 C 257.163 88.154 255.158 86.981 254.077 85.538 C 253.537 84.789 253.111 83.793 252.934 82.898 C 252.79 82.086 252.925 80.754 252.958 80.459 L 252.963 80.511 C 252.963 80.508 252.962 80.504 252.962 80.501 C 252.96 80.483 252.96 80.473 252.959 80.468 C 252.959 80.466 252.959 80.464 252.959 80.464 C 252.959 80.464 252.959 80.466 252.959 80.466 C 252.959 80.467 252.959 80.463 252.958 80.459 L 252.961 80.459 C 252.961 80.445 252.962 80.43 252.962 80.415 C 252.963 80.405 252.964 80.4 252.964 80.4 L 252.962 80.415 C 252.982 79.952 253.222 79.409 253.591 79.149 C 253.986 78.872 254.648 78.814 255.084 79.018 C 255.521 79.222 255.867 79.772 255.94 80.25 L 255.944 80.274 L 255.941 80.322 C 255.941 80.322 255.94 80.334 255.94 80.34 C 255.94 80.341 255.94 80.343 255.94 80.343 C 255.94 80.343 255.94 80.343 255.94 80.343 C 255.94 80.343 255.94 80.342 255.94 80.342 C 255.94 80.342 255.941 80.332 255.941 80.332 L 255.393 80.306 L 255.937 80.364 C 255.937 80.364 255.813 81.184 255.81 81.495 C 255.804 81.812 255.824 82.042 255.881 82.335 C 255.986 82.918 256.148 83.3 256.498 83.767 C 257.206 84.764 258.194 85.391 260.022 85.643 C 260.391 85.727 260.795 85.971 260.995 86.252 C 261.195 86.533 261.293 86.994 261.252 87.371 L 261.259 87.308 L 261.259 87.342 Z M 260.259 87.277 L 260.259 87.228 L 260.266 87.205 C 260.317 87.037 260.277 86.968 260.181 86.832 C 260.084 86.696 260.032 86.636 259.856 86.629 C 257.84 86.304 256.536 85.482 255.692 84.357 C 255.285 83.79 255.036 83.207 254.899 82.522 C 254.834 82.177 254.806 81.847 254.81 81.48 C 254.817 81.141 254.923 80.389 254.944 80.242 C 254.932 80.075 254.841 80.007 254.661 79.923 C 254.451 79.825 254.355 79.833 254.166 79.966 C 253.988 80.091 253.913 80.178 253.95 80.378 L 253.954 80.378 C 253.954 80.374 253.953 80.371 253.953 80.371 C 253.953 80.372 253.953 80.373 253.953 80.373 C 253.953 80.373 253.953 80.373 253.953 80.373 L 253.953 80.373 C 253.953 80.373 253.953 80.373 253.953 80.373 C 253.953 80.373 253.953 80.374 253.953 80.377 C 253.953 80.382 253.954 80.392 253.956 80.41 C 253.956 80.411 253.956 80.411 253.956 80.412 C 253.956 80.412 253.956 80.412 253.956 80.412 L 253.956 80.412 C 253.956 80.413 253.956 80.415 253.956 80.416 L 253.961 80.473 L 253.954 80.526 C 253.954 80.526 253.757 81.949 253.914 82.708 C 254.059 83.501 254.398 84.295 254.881 84.946 C 255.81 86.251 257.502 87.228 259.695 87.615 C 259.863 87.666 259.925 87.625 260.061 87.528 C 260.176 87.446 260.237 87.395 260.257 87.274 Z" style="fill: none;" transform="matrix(-0.9689720869064331, 0.2471710443496704, -0.2471710443496704, -0.9689720869064331, 526.7967529296875, 101.2696304321289)"/>
  <path style="fill: none; stroke-linecap: round; stroke-width: 2;" d="M 258.393 82.608 C 246.985 95.598 223.375 98.809 215.356 96.68"/>
  <path d="M 259.053 81.857 C 259.468 82.221 259.509 82.853 259.145 83.268 C 253.275 89.887 244.273 94.099 235.855 96.282 C 231.639 97.375 227.482 97.998 223.918 98.205 C 220.337 98.413 215.415 97.679 215.415 97.679 C 215.353 97.679 215.415 97.679 215.415 97.679 C 215.059 97.665 214.737 97.462 214.572 97.146 C 214.407 96.83 214.423 96.45 214.616 96.149 C 214.808 95.849 215.146 95.674 215.503 95.691 C 215.503 95.691 215.528 95.695 215.503 95.691 C 215.503 95.691 216.592 95.94 217.182 96.027 C 217.777 96.114 218.406 96.178 219.104 96.222 C 220.507 96.311 222.071 96.309 223.803 96.208 C 227.277 96.006 231.24 95.413 235.354 94.346 C 243.598 92.208 252.105 88.32 257.643 81.948 C 258.007 81.533 258.639 81.492 259.054 81.856 Z" style="fill: none;"/>
  <path d="M 259.053 81.857 C 259.468 82.221 259.509 82.853 259.145 83.268 C 253.275 89.887 244.273 94.099 235.855 96.282 C 231.639 97.375 227.482 97.998 223.918 98.205 C 220.337 98.413 215.415 97.679 215.415 97.679 C 215.353 97.679 215.415 97.679 215.415 97.679 C 215.059 97.665 214.737 97.462 214.572 97.146 C 214.407 96.83 214.423 96.45 214.616 96.149 C 214.808 95.849 215.146 95.674 215.503 95.691 C 215.503 95.691 215.528 95.695 215.503 95.691 C 215.503 95.691 216.592 95.94 217.182 96.027 C 217.777 96.114 218.406 96.178 219.104 96.222 C 220.507 96.311 222.071 96.309 223.803 96.208 C 227.277 96.006 231.24 95.413 235.354 94.346 C 243.598 92.208 252.105 88.32 257.643 81.948 C 258.007 81.533 258.639 81.492 259.054 81.856 Z" style="fill: none;"/>
  <path d="M 259.383 81.481 C 259.653 81.747 259.868 82.167 259.89 82.511 C 259.912 82.855 259.752 83.301 259.519 83.6 C 253.568 90.28 244.442 94.568 235.98 96.766 C 231.738 97.864 227.533 98.495 223.947 98.704 C 220.499 98.899 215.84 98.246 215.376 98.179 L 215.378 98.179 L 215.341 98.174 C 215.341 98.174 215.354 98.176 215.379 98.179 C 215.382 98.179 215.386 98.179 215.388 98.179 C 215.388 98.179 215.388 98.179 215.388 98.179 C 215.388 98.179 215.388 98.179 215.388 98.179 C 215.388 98.179 215.388 98.179 215.388 98.179 C 215.388 98.179 215.388 98.179 215.388 98.179 L 215.388 98.178 C 214.91 98.123 214.351 97.803 214.129 97.378 C 213.906 96.951 213.963 96.305 214.195 95.88 C 214.483 95.493 215.043 95.203 215.527 95.192 L 215.544 95.192 C 215.544 95.192 215.588 95.199 215.591 95.2 C 215.592 95.2 215.592 95.2 215.593 95.2 C 215.593 95.2 215.593 95.2 215.593 95.2 C 215.593 95.2 215.593 95.2 215.593 95.2 C 215.593 95.2 215.591 95.2 215.592 95.2 C 215.594 95.2 215.585 95.199 215.585 95.199 L 215.469 95.955 L 215.615 95.205 C 215.615 95.205 216.684 95.45 217.255 95.534 C 217.839 95.62 218.448 95.682 219.136 95.725 C 220.523 95.813 222.057 95.811 223.774 95.711 C 227.226 95.511 231.14 94.926 235.229 93.864 C 243.432 91.741 251.814 87.929 257.268 81.62 C 257.534 81.35 257.954 81.135 258.298 81.113 C 258.642 81.091 259.086 81.249 259.385 81.482 L 259.808 81.812 L 259.763 81.857 Z M 258.546 82.113 C 258.495 82.102 258.437 82.104 258.361 82.109 C 258.195 82.12 258.116 82.133 258.018 82.278 C 252.395 88.712 243.764 92.678 235.479 94.83 C 231.339 95.902 227.328 96.503 223.832 96.707 C 222.086 96.808 220.491 96.81 219.072 96.721 C 218.364 96.676 217.715 96.61 217.109 96.522 C 216.5 96.431 215.391 96.179 215.391 96.179 L 215.391 96.179 C 215.217 96.166 215.12 96.236 215.037 96.419 C 214.883 96.596 214.908 96.71 215.015 96.915 C 215.114 97.105 215.19 97.192 215.387 97.183 L 215.387 97.179 C 215.387 97.179 215.387 97.179 215.387 97.179 C 215.387 97.179 215.387 97.179 215.387 97.179 C 215.387 97.179 215.387 97.179 215.387 97.179 C 215.387 97.179 215.387 97.179 215.387 97.179 C 215.387 97.179 215.387 97.179 215.387 97.179 C 215.387 97.179 215.387 97.179 215.387 97.179 C 215.387 97.179 215.387 97.179 215.387 97.179 C 215.387 97.179 215.388 97.179 215.388 97.179 C 215.391 97.179 215.436 97.179 215.452 97.179 L 215.488 97.184 C 215.488 97.184 220.359 97.916 223.888 97.705 C 227.429 97.5 231.538 96.885 235.729 95.797 C 244.104 93.63 252.981 89.494 258.77 82.935 C 258.901 82.819 258.902 82.741 258.891 82.575 C 258.88 82.409 258.867 82.33 258.722 82.232 Z" style="fill: none;"/>
  <path d="M 259.053 81.857 C 259.468 82.221 259.509 82.853 259.145 83.268 C 253.275 89.887 244.273 94.099 235.855 96.282 C 231.639 97.375 227.482 97.998 223.918 98.205 C 221.001 98.226 217.707 97.691 214.616 95.735 C 216.434 95.949 216.592 95.94 217.182 96.027 C 217.777 96.114 218.406 96.178 219.104 96.222 C 220.507 96.311 222.071 96.309 223.803 96.208 C 227.277 96.006 231.24 95.413 235.354 94.346 C 243.598 92.208 252.105 88.32 257.643 81.948 C 258.007 81.533 258.639 81.492 259.054 81.856 L 259.053 81.857 Z" style="stroke-width: 1;"/>
  <path d="M 259.383 81.481 C 259.653 81.747 259.868 82.167 259.89 82.511 C 259.912 82.855 259.752 83.301 259.519 83.6 C 253.568 90.28 244.442 94.568 235.98 96.766 C 231.738 97.864 227.508 98.496 223.921 98.705 C 220.962 98.723 217.533 98.149 214.348 96.158 L 212.453 94.973 L 214.674 95.239 C 216.449 95.452 216.613 95.444 217.254 95.533 C 217.838 95.619 218.447 95.681 219.135 95.724 C 220.522 95.812 222.056 95.81 223.773 95.71 C 227.225 95.51 231.139 94.925 235.228 93.863 C 243.431 91.74 251.813 87.928 257.267 81.619 C 257.533 81.349 257.953 81.134 258.297 81.112 C 258.641 81.09 259.085 81.248 259.384 81.481 L 259.807 81.811 L 259.762 81.856 Z M 258.546 82.113 C 258.495 82.102 258.437 82.104 258.361 82.109 C 258.195 82.12 258.116 82.133 258.018 82.278 C 252.395 88.712 243.764 92.678 235.479 94.83 C 231.339 95.902 227.328 96.503 223.832 96.707 C 222.086 96.808 220.491 96.81 219.072 96.721 C 218.422 96.68 217.821 96.621 217.258 96.543 C 219.509 97.457 221.781 97.722 223.901 97.705 C 227.44 97.5 231.539 96.886 235.729 95.798 C 244.104 93.631 252.981 89.495 258.77 82.936 C 258.901 82.82 258.902 82.742 258.891 82.576 C 258.88 82.41 258.867 82.331 258.722 82.233 Z" style="fill: none;"/>
  <path d="M 259.383 81.481 C 259.653 81.747 259.868 82.167 259.89 82.511 C 259.912 82.855 259.752 83.301 259.519 83.6 C 253.568 90.28 244.442 94.568 235.98 96.766 C 231.738 97.864 227.508 98.496 223.921 98.705 C 220.962 98.723 217.533 98.149 214.348 96.158 L 212.453 94.973 L 214.674 95.239 C 216.449 95.452 216.613 95.444 217.254 95.533 C 217.838 95.619 218.447 95.681 219.135 95.724 C 220.522 95.812 222.056 95.81 223.773 95.71 C 227.225 95.51 231.139 94.925 235.228 93.863 C 243.431 91.74 251.813 87.928 257.267 81.619 C 257.533 81.349 257.953 81.134 258.297 81.112 C 258.641 81.09 259.085 81.248 259.384 81.481 L 259.807 81.811 L 259.762 81.856 Z M 258.546 82.113 C 258.495 82.102 258.437 82.104 258.361 82.109 C 258.195 82.12 258.116 82.133 258.018 82.278 C 252.395 88.712 243.764 92.678 235.479 94.83 C 231.339 95.902 227.328 96.503 223.832 96.707 C 222.086 96.808 220.491 96.81 219.072 96.721 C 218.422 96.68 217.821 96.621 217.258 96.543 C 219.509 97.457 221.781 97.722 223.901 97.705 C 227.44 97.5 231.539 96.886 235.729 95.798 C 244.104 93.631 252.981 89.495 258.77 82.936 C 258.901 82.82 258.902 82.742 258.891 82.576 C 258.88 82.41 258.867 82.331 258.722 82.233 Z" style="fill: none;"/>
  <path d="M 260.389 82.479 C 260.417 82.922 260.163 83.564 259.892 83.933 C 253.861 90.673 244.61 95.037 236.105 97.25 C 231.837 98.353 227.533 98.994 223.924 99.205 C 220.922 99.22 217.359 98.608 214.083 96.582 L 210.291 94.21 L 214.734 94.742 C 216.467 94.954 216.64 94.947 217.327 95.038 C 217.9 95.123 218.489 95.182 219.167 95.225 C 220.538 95.312 222.042 95.31 223.744 95.211 C 227.174 95.013 231.04 94.436 235.103 93.379 C 243.265 91.27 251.543 87.513 256.911 81.268 C 257.241 80.951 257.822 80.641 258.265 80.613 C 258.707 80.585 259.323 80.815 259.691 81.087 L 260.56 81.765 L 260.288 82.037 C 260.343 82.19 260.379 82.342 260.388 82.48 Z M 259.046 81.85 C 259.005 81.817 258.963 81.788 258.919 81.762 L 259.002 81.819 C 259.254 82.084 259.377 82.353 259.39 82.543 C 259.402 82.729 259.317 83.01 259.102 83.31 L 259.082 83.337 C 253.21 89.916 244.243 94.107 235.855 96.281 C 235.825 96.289 235.796 96.296 235.766 96.304 C 235.796 96.296 235.825 96.289 235.855 96.281 C 244.273 94.099 253.274 89.887 259.144 83.268 C 259.326 83.043 259.407 82.787 259.391 82.542 C 259.376 82.303 259.26 82.05 259.046 81.849 Z M 257.644 81.947 C 257.623 81.971 257.602 81.995 257.581 82.02 L 257.604 81.998 C 257.85 81.764 258.1 81.642 258.287 81.615 C 258.057 81.64 257.831 81.75 257.644 81.948 Z M 223.905 98.205 C 224.632 98.163 225.385 98.103 226.158 98.026 C 225.385 98.103 224.633 98.163 223.906 98.205 C 223.813 98.206 223.719 98.206 223.625 98.205 C 223.719 98.206 223.813 98.205 223.906 98.205 Z M 258.439 82.562 L 258.437 82.559 L 258.436 82.56 C 258.417 82.531 258.388 82.529 258.392 82.608 C 258.384 82.604 258.377 82.601 258.369 82.599 L 258.385 82.61 C 258.387 82.61 258.39 82.61 258.392 82.61 C 258.392 82.61 258.392 82.61 258.392 82.611 C 258.391 82.612 258.39 82.613 258.389 82.614 L 258.39 82.614 C 258.391 82.613 258.391 82.613 258.392 82.612 C 258.392 82.613 258.392 82.615 258.392 82.616 L 258.404 82.624 L 258.404 82.624 L 258.392 82.616 C 258.403 82.755 258.484 82.631 258.438 82.564 Z M 235.43 95.359 C 231.332 96.407 227.343 97.001 223.877 97.205 C 223.879 97.205 223.882 97.205 223.884 97.205 C 227.349 97.004 231.327 96.413 235.43 95.359 Z M 235.73 95.281 C 242.848 93.427 250.261 90.18 255.809 85.21 C 250.26 90.177 242.845 93.414 235.73 95.281 Z M 217.16 96.025 C 217.099 96.016 217.043 96.008 216.988 96.001 Z" style="fill: none;"/>
  <path style="stroke-width: 1;" d="M 272.47 47.38 C 260.91 47.724 246.728 37.762 242.172 33.993 L 238.79 46.252 C 240.986 47.312 253.987 54.035 271.342 55.271 L 272.47 47.38 Z" transform="matrix(-0.81149101, 0.58436501, -0.58436501, -0.81149101, 489.04233115, -68.49511663)"/>
  <path d="M 271.306 55.77 C 253.854 54.507 240.762 47.759 238.572 46.703 L 238.196 46.522 L 241.894 33.116 L 242.489 33.609 C 247.029 37.366 261.045 47.271 272.453 46.881 L 273.047 46.861 L 271.769 55.804 Z M 271.892 47.887 C 260.331 47.869 247.573 38.948 242.45 34.863 L 239.382 45.985 C 242.416 47.475 253.888 53.444 270.913 54.738 Z" style="fill: none;" transform="matrix(-0.8114910125732422, 0.5843650102615356, -0.5843650102615356, -0.8114910125732422, 489.0423278808594, -68.4951171875)"/>
  <path d="M 271.306 55.77 C 253.854 54.507 240.762 47.759 238.572 46.703 L 238.196 46.522 L 241.894 33.116 L 242.489 33.609 C 247.029 37.366 261.045 47.271 272.453 46.881 L 273.047 46.861 L 271.769 55.804 Z M 271.892 47.887 C 260.331 47.869 247.573 38.948 242.45 34.863 L 239.382 45.985 C 242.416 47.475 253.888 53.444 270.913 54.738 Z" style="" transform="matrix(-0.8114910125732422, 0.5843650102615356, -0.5843650102615356, -0.8114910125732422, 489.0423278808594, -68.4951171875)"/>
  <path d="M 271.27 56.269 C 253.722 54.979 240.54 48.207 238.355 47.154 L 237.603 46.792 L 241.618 32.238 L 242.808 33.224 C 247.333 36.97 261.181 46.817 272.436 46.381 L 273.626 46.341 L 272.198 56.337 L 271.732 56.303 Z M 271.806 55.305 L 271.342 55.271 L 271.342 55.271 C 271.342 55.271 271.342 55.271 271.342 55.271 Z M 272.468 47.381 L 272.47 47.381 C 272.394 47.383 272.318 47.385 272.242 47.386 L 272.467 47.385 Z M 242.17 33.994 L 242.17 33.994 L 238.789 46.252 L 238.789 46.252 C 238.93 46.32 239.117 46.412 239.346 46.524 C 239.281 46.492 239.22 46.462 239.162 46.433 L 238.79 46.25 L 242.17 33.998 L 242.444 34.216 C 242.349 34.139 242.258 34.064 242.171 33.992 Z M 270.875 55.237 C 270.746 55.227 270.618 55.217 270.489 55.206 C 270.657 55.22 270.826 55.233 270.994 55.246 Z M 271.317 48.377 C 259.798 48.052 248.216 39.992 242.732 35.721 L 239.974 45.719 C 243.491 47.462 253.813 52.863 270.484 54.203 Z M 271.121 47.375 C 260.914 47.004 249.083 39.33 243.669 35.183 C 249.118 39.39 260.541 47.037 271.121 47.375 Z" style="fill: none;" transform="matrix(-0.8114910125732422, 0.5843650102615356, -0.5843650102615356, -0.8114910125732422, 489.0423278808594, -68.4951171875)"/>
  <path style="fill: none; stroke-linecap: round; stroke-width: 2;" d="M 257.662 46.505 C 263.478 52.244 266.038 58.127 266.064 67.447 C 253.082 65.488 244.729 66.987 237.694 69.274"/>
  <path d="M 256.95 45.803 C 257.338 45.41 257.971 45.406 258.364 45.794 C 264.287 51.689 266.996 57.927 267.064 67.445 L 267.072 68.612 L 265.915 68.437 C 259.488 67.463 254.274 67.355 249.739 67.765 C 247.479 67.97 245.431 68.3 243.482 68.726 C 242.509 68.939 241.581 69.17 240.666 69.423 C 239.751 69.676 237.96 70.238 237.96 70.238 C 237.972 70.234 237.96 70.238 237.96 70.238 C 237.428 70.385 236.877 70.073 236.73 69.54 C 236.583 69.008 236.895 68.457 237.428 68.31 C 237.428 68.31 237.416 68.314 237.428 68.31 C 237.428 68.31 239.195 67.754 240.134 67.495 C 241.073 67.236 242.053 66.991 243.056 66.772 C 245.058 66.335 247.229 65.984 249.559 65.773 C 254.205 65.352 258.498 65.307 265.053 66.292 C 264.866 57.853 262.669 52.8 256.96 47.218 C 256.567 46.83 256.563 46.197 256.951 45.804 Z" style="fill: none;"/>
  <path d="M 256.95 45.803 C 257.338 45.41 257.971 45.406 258.364 45.794 C 264.287 51.689 266.996 57.927 267.064 67.445 L 267.072 68.612 L 265.915 68.437 C 259.488 67.463 254.274 67.355 249.739 67.765 C 247.479 67.97 245.431 68.3 243.482 68.726 C 242.509 68.939 241.581 69.17 240.666 69.423 C 239.751 69.676 237.96 70.238 237.96 70.238 C 237.972 70.234 237.96 70.238 237.96 70.238 C 237.428 70.385 236.877 70.073 236.73 69.54 C 236.583 69.008 236.895 68.457 237.428 68.31 C 237.428 68.31 237.416 68.314 237.428 68.31 C 237.428 68.31 239.195 67.754 240.134 67.495 C 241.073 67.236 242.053 66.991 243.056 66.772 C 245.058 66.335 247.229 65.984 249.559 65.773 C 254.205 65.352 258.498 65.307 265.053 66.292 C 264.866 57.853 262.669 52.8 256.96 47.218 C 256.567 46.83 256.563 46.197 256.951 45.804 Z" style="fill: none;"/>
  <path d="M 256.594 45.452 C 256.875 45.198 257.307 45.008 257.652 45.006 C 257.997 45.004 258.432 45.19 258.717 45.44 C 264.693 51.413 267.476 57.826 267.564 67.442 L 267.576 69.194 L 266.997 69.106 L 265.84 68.931 C 259.445 67.96 254.291 67.854 249.784 68.263 C 247.541 68.466 245.524 68.791 243.589 69.214 C 242.623 69.425 241.708 69.653 240.799 69.904 C 239.892 70.155 238.109 70.714 238.109 70.714 L 238.109 70.714 C 238.101 70.716 238.093 70.719 238.093 70.719 C 237.723 70.799 237.254 70.748 236.954 70.578 C 236.654 70.408 236.37 70.031 236.248 69.672 C 236.168 69.302 236.219 68.833 236.389 68.533 C 236.553 68.244 236.909 67.969 237.256 67.841 L 237.256 67.84 C 237.258 67.839 237.262 67.838 237.265 67.837 C 237.265 67.837 237.265 67.837 237.265 67.837 C 237.266 67.837 237.275 67.834 237.278 67.833 C 237.278 67.833 239.054 67.274 240.001 67.013 C 240.946 66.752 241.939 66.504 242.949 66.284 C 244.964 65.844 247.166 65.489 249.514 65.276 C 254.18 64.854 258.27 64.814 264.538 65.712 C 264.284 57.726 262.263 53.078 256.609 47.575 C 256.355 47.294 256.165 46.862 256.163 46.517 C 256.161 46.172 256.345 45.738 256.596 45.454 L 256.267 45.828 L 256.225 45.786 Z M 257.475 46.023 L 257.307 46.155 C 257.169 46.263 257.162 46.343 257.163 46.509 C 257.164 46.676 257.173 46.755 257.312 46.861 C 263.075 52.522 265.346 57.747 265.554 66.28 L 265.568 66.874 L 264.979 66.785 C 258.464 65.803 254.23 65.85 249.604 66.27 C 247.291 66.479 245.151 66.825 243.163 67.26 C 242.167 67.477 241.2 67.719 240.267 67.977 C 239.337 68.234 237.675 68.756 237.582 68.786 C 237.582 68.786 237.582 68.786 237.581 68.786 C 237.581 68.786 237.581 68.786 237.581 68.786 C 237.581 68.786 237.581 68.786 237.581 68.786 C 237.581 68.786 237.581 68.786 237.581 68.786 L 237.581 68.786 C 237.581 68.786 237.581 68.786 237.581 68.786 L 237.59 68.783 L 237.561 68.792 C 237.387 68.817 237.341 68.882 237.259 69.027 C 237.177 69.172 237.145 69.245 237.212 69.407 C 237.237 69.581 237.302 69.627 237.447 69.709 C 237.586 69.788 237.658 69.82 237.806 69.764 L 237.881 69.982 L 237.81 69.763 C 237.815 69.761 237.821 69.759 237.826 69.757 C 237.826 69.757 237.815 69.76 237.809 69.762 L 237.809 69.762 C 237.809 69.762 239.608 69.197 240.531 68.942 C 241.452 68.687 242.393 68.453 243.373 68.238 C 245.336 67.809 247.415 67.475 249.692 67.267 C 254.255 66.856 259.529 66.966 265.988 67.943 L 266.566 68.03 L 266.562 67.448 C 266.515 58.028 263.881 51.967 258.011 46.149 C 257.903 46.011 257.823 46.004 257.657 46.005 C 257.581 46.005 257.524 46.007 257.473 46.023 Z M 237.59 68.783 L 237.59 68.783 C 237.592 68.782 237.591 68.782 237.59 68.783 C 237.59 68.783 237.59 68.783 237.59 68.783 C 237.59 68.783 237.59 68.783 237.59 68.783 Z" style="fill: none;"/>
  <path d="M 256.95 45.803 C 257.338 45.41 257.971 45.406 258.364 45.794 C 264.287 51.689 266.996 57.927 267.064 67.445 L 267.072 68.612 L 265.915 68.437 C 259.488 67.463 256.792 67.097 252.257 67.507 C 249.997 67.712 247.949 68.042 246 68.468 C 245.027 68.681 244.104 68.934 243.184 69.165 C 240.009 69.963 238.857 70.381 238.159 70.684 C 238.857 69.454 241.666 67.496 242.605 67.237 C 243.544 66.978 244.571 66.733 245.574 66.514 C 247.576 66.077 249.747 65.726 252.077 65.515 C 256.723 65.094 258.498 65.307 265.053 66.292 C 264.866 57.853 262.669 52.8 256.96 47.218 C 256.567 46.83 256.563 46.197 256.951 45.804 L 256.95 45.803 Z" style="stroke-width: 1;"/>
  <path d="M 256.594 45.452 C 256.875 45.198 257.307 45.008 257.652 45.006 C 257.997 45.004 258.432 45.19 258.717 45.44 C 264.693 51.413 267.476 57.826 267.564 67.442 L 267.576 69.194 L 266.997 69.106 L 265.84 68.931 C 259.417 67.958 256.781 67.593 252.302 68.005 C 250.059 68.208 248.042 68.533 246.107 68.956 C 245.147 69.166 244.231 69.417 243.306 69.649 C 240.155 70.44 239.042 70.844 238.358 71.142 L 236.947 71.755 L 237.724 70.436 C 238.496 69.124 241.453 67.035 242.472 66.754 C 243.419 66.493 244.46 66.245 245.467 66.025 C 247.482 65.585 249.684 65.23 252.032 65.017 C 256.73 64.597 258.45 64.799 264.538 65.709 C 264.283 57.724 262.263 53.077 256.609 47.574 C 256.355 47.293 256.165 46.861 256.163 46.516 C 256.161 46.171 256.345 45.737 256.596 45.453 L 256.267 45.827 L 256.225 45.785 Z M 257.475 46.023 L 257.307 46.155 C 257.169 46.263 257.162 46.343 257.163 46.509 C 257.164 46.676 257.173 46.755 257.312 46.861 C 263.075 52.522 265.346 57.747 265.554 66.28 L 265.568 66.874 L 264.979 66.786 C 258.431 65.802 256.716 65.591 252.122 66.013 C 249.809 66.222 247.669 66.568 245.681 67.003 C 244.683 67.221 243.669 67.463 242.738 67.72 C 241.879 67.957 240.873 68.684 239.849 69.556 C 240.612 69.324 239.863 69.486 243.062 68.681 C 243.977 68.451 244.907 68.197 245.893 67.98 C 247.856 67.551 249.935 67.217 252.212 67.009 C 256.803 66.6 259.559 66.968 265.99 67.943 L 266.568 68.03 L 266.564 67.448 C 266.517 58.028 263.883 51.967 258.013 46.149 C 257.905 46.011 257.825 46.004 257.659 46.005 C 257.583 46.005 257.526 46.007 257.475 46.023 Z" style="fill: none;"/>
  <path d="M 256.594 45.452 C 256.875 45.198 257.307 45.008 257.652 45.006 C 257.997 45.004 258.432 45.19 258.717 45.44 C 264.693 51.413 267.476 57.826 267.564 67.442 L 267.576 69.194 L 266.997 69.106 L 265.84 68.931 C 259.417 67.958 256.781 67.593 252.302 68.005 C 250.059 68.208 248.042 68.533 246.107 68.956 C 245.147 69.166 244.231 69.417 243.306 69.649 C 240.155 70.44 239.042 70.844 238.358 71.142 L 236.947 71.755 L 237.724 70.436 C 238.496 69.124 241.453 67.035 242.472 66.754 C 243.419 66.493 244.46 66.245 245.467 66.025 C 247.482 65.585 249.684 65.23 252.032 65.017 C 256.73 64.597 258.45 64.799 264.538 65.709 C 264.283 57.724 262.263 53.077 256.609 47.574 C 256.355 47.293 256.165 46.861 256.163 46.516 C 256.161 46.171 256.345 45.737 256.596 45.453 L 256.267 45.827 L 256.225 45.785 Z M 257.475 46.023 L 257.307 46.155 C 257.169 46.263 257.162 46.343 257.163 46.509 C 257.164 46.676 257.173 46.755 257.312 46.861 C 263.075 52.522 265.346 57.747 265.554 66.28 L 265.568 66.874 L 264.979 66.786 C 258.431 65.802 256.716 65.591 252.122 66.013 C 249.809 66.222 247.669 66.568 245.681 67.003 C 244.683 67.221 243.669 67.463 242.738 67.72 C 241.879 67.957 240.873 68.684 239.849 69.556 C 240.612 69.324 239.863 69.486 243.062 68.681 C 243.977 68.451 244.907 68.197 245.893 67.98 C 247.856 67.551 249.935 67.217 252.212 67.009 C 256.803 66.6 259.559 66.968 265.99 67.943 L 266.568 68.03 L 266.564 67.448 C 266.517 58.028 263.883 51.967 258.013 46.149 C 257.905 46.011 257.825 46.004 257.659 46.005 C 257.583 46.005 257.526 46.007 257.475 46.023 Z" style="fill: none;"/>
  <path d="M 256.259 45.081 C 256.607 44.784 257.205 44.509 257.649 44.506 C 258.094 44.503 258.719 44.794 259.07 45.086 C 265.099 51.136 267.955 57.725 268.064 67.438 L 268.08 69.776 L 266.922 69.6 L 265.765 69.425 C 259.345 68.452 256.769 68.089 252.347 68.503 C 250.121 68.704 248.135 69.024 246.214 69.444 C 245.267 69.651 244.358 69.9 243.428 70.134 C 240.301 70.918 239.227 71.308 238.557 71.601 L 235.735 72.827 L 236.516 71.502 L 237.293 70.183 C 238.136 68.794 241.242 66.59 242.339 66.273 C 243.294 66.01 244.349 65.759 245.36 65.538 C 247.389 65.095 249.622 64.736 251.987 64.52 C 256.736 64.101 258.394 64.292 264.016 65.127 C 263.701 57.603 261.836 53.334 256.237 47.91 C 255.94 47.562 255.665 46.964 255.662 46.52 C 255.661 46.365 255.693 46.192 255.747 46.016 L 255.498 45.767 L 255.889 45.414 Z M 256.967 45.787 L 256.967 45.787 C 256.761 46.004 256.661 46.268 256.662 46.513 C 256.663 46.759 256.76 47.006 256.957 47.216 C 257.377 47.627 257.778 48.034 258.16 48.438 C 257.779 48.033 257.379 47.626 256.96 47.217 L 257.034 47.29 L 257.007 47.258 C 256.771 46.982 256.664 46.705 256.661 46.511 C 256.661 46.322 256.763 46.044 256.996 45.761 L 257.079 45.695 C 257.04 45.722 257.002 45.753 256.965 45.786 Z M 252.077 65.515 C 249.746 65.726 247.576 66.076 245.574 66.513 C 244.572 66.732 243.544 66.977 242.605 67.236 C 242.539 67.253 242.464 67.279 242.381 67.312 C 242.457 67.284 242.531 67.26 242.605 67.238 C 243.544 66.979 244.571 66.734 245.574 66.515 C 247.576 66.077 249.746 65.727 252.076 65.516 C 256.289 65.134 258.141 65.273 263.332 66.036 C 258.155 65.272 256.42 65.122 252.076 65.516 Z M 238.155 70.69 L 238.159 70.684 L 238.159 70.684 C 238.483 70.543 238.904 70.378 239.578 70.162 L 238.225 70.575 C 238.2 70.614 238.176 70.653 238.155 70.69 Z M 252.257 67.507 C 252.525 67.483 252.786 67.461 253.042 67.442 C 252.786 67.461 252.525 67.482 252.258 67.506 C 252.196 67.512 252.134 67.517 252.073 67.523 C 252.134 67.517 252.196 67.512 252.258 67.506 Z M 267.072 68.612 L 267.072 68.612 L 267.072 68.612 L 266.85 68.579 Z M 267.064 67.445 C 267.05 65.506 266.927 63.703 266.689 62.011 C 266.927 63.702 267.05 65.505 267.064 67.444 L 267.069 68.193 Z M 258.366 45.796 C 258.165 45.614 257.933 45.518 257.703 45.507 C 257.89 45.522 258.146 45.626 258.407 45.841 L 258.43 45.86 C 258.409 45.839 258.387 45.817 258.366 45.796 Z M 240.681 69.814 C 240.539 69.855 240.473 69.878 240.386 69.908 C 240.337 69.925 240.283 69.943 240.21 69.967 C 240.792 69.794 241.519 69.592 242.447 69.352 C 241.389 69.62 240.931 69.741 240.681 69.814 Z M 265.068 66.886 L 265.054 66.292 C 265.054 66.292 265.054 66.292 265.054 66.292 L 265.054 66.292 Z M 262.58 66.935 C 257.884 66.253 256.117 66.143 252.168 66.511 C 250.013 66.705 248.022 67.018 246.153 67.413 C 248.023 67.019 250.014 66.708 252.167 66.511 C 255.88 66.185 258.424 66.356 262.58 66.935 Z M 245.691 67.513 C 244.729 67.724 243.763 67.956 242.871 68.202 C 242.8 68.22 242.728 68.242 242.655 68.268 C 242.746 68.245 242.841 68.221 242.94 68.196 C 243.821 67.975 244.728 67.728 245.691 67.512 Z M 241.909 68.457 L 241.995 68.383 C 241.995 68.383 241.43 68.578 241.909 68.457 Z" style="fill: none;"/>
  <path style="fill: none; stroke-width: 2;" d="M 240.853 50.988 C 238.335 55.727 237.891 57.948 238.188 62.982"/>
  <path d="M 239.928 50.608 C 239.928 50.608 238.811 52.791 238.408 53.773 C 238.002 54.763 237.693 55.725 237.489 56.66 C 237.08 58.532 237.042 60.484 237.191 63.04 L 239.188 62.922 C 239.04 60.445 239.076 58.769 239.444 57.087 C 239.628 56.245 239.884 55.449 240.26 54.532 C 240.449 54.071 240.66 53.603 240.907 53.091 C 241.155 52.577 241.757 51.421 241.757 51.421 C 241.752 51.431 239.944 50.578 239.931 50.607 Z" style="fill: none;"/>
  <path d="M 239.928 50.608 C 239.928 50.608 238.811 52.791 238.408 53.773 C 238.002 54.763 237.693 55.725 237.489 56.66 C 237.08 58.532 237.042 60.484 237.191 63.04 L 239.188 62.922 C 239.04 60.445 239.076 58.769 239.444 57.087 C 239.628 56.245 239.884 55.449 240.26 54.532 C 240.449 54.071 240.66 53.603 240.907 53.091 C 241.155 52.577 241.757 51.421 241.757 51.421 C 241.752 51.431 239.944 50.578 239.931 50.607 Z" style="fill: none;"/>
  <path d="M 239.475 50.402 C 239.545 50.311 239.681 50.166 239.756 50.138 C 239.804 50.12 239.887 50.107 239.919 50.106 C 239.957 50.105 240.014 50.112 240.036 50.116 C 240.06 50.121 240.095 50.131 240.112 50.137 C 240.136 50.145 240.171 50.158 240.201 50.17 C 240.257 50.193 240.336 50.227 240.423 50.265 C 240.597 50.342 240.828 50.447 241.055 50.551 C 241.275 50.652 241.494 50.753 241.661 50.83 L 243.77 48.637 L 242.2 51.651 C 242.2 51.651 241.601 52.8 241.357 53.307 C 241.113 53.813 240.908 54.267 240.722 54.72 C 240.353 55.619 240.11 56.373 239.932 57.192 C 239.57 58.826 239.539 60.434 239.687 62.89 L 239.717 63.389 L 236.721 63.566 L 236.692 63.066 C 236.543 60.491 236.586 58.471 237.001 56.55 C 237.211 55.592 237.533 54.588 237.946 53.58 C 238.358 52.579 239.483 50.377 239.483 50.377 L 239.576 50.195 L 239.65 50.17 Z" style="fill: none;"/>
  <path d="M 239.928 50.608 C 239.928 50.608 238.811 52.791 238.408 53.773 C 238.002 54.763 237.693 55.725 237.489 56.66 C 236.372 63.04 237.6 64.788 237.6 64.788 C 238.307 60.756 239.076 58.769 239.444 57.087 C 239.628 56.245 239.884 55.449 240.26 54.532 C 240.449 54.071 240.66 53.603 240.907 53.091 C 241.155 52.577 241.757 51.421 241.757 51.421 C 241.752 51.431 239.944 50.578 239.931 50.607 L 239.928 50.608 Z" style="stroke-width: 1;"/>
  <path d="M 239.475 50.402 C 239.545 50.311 239.681 50.166 239.756 50.138 C 239.804 50.12 239.887 50.107 239.919 50.106 C 239.957 50.105 240.014 50.112 240.036 50.116 C 240.06 50.121 240.095 50.131 240.112 50.137 C 240.136 50.145 240.171 50.158 240.201 50.17 C 240.257 50.193 240.336 50.227 240.423 50.265 C 240.597 50.342 240.828 50.447 241.055 50.551 C 241.275 50.652 241.494 50.753 241.661 50.83 L 243.77 48.637 L 242.2 51.651 C 242.2 51.651 241.601 52.8 241.357 53.307 C 241.113 53.813 240.908 54.267 240.722 54.72 C 240.353 55.619 240.11 56.373 239.932 57.192 C 239.553 58.911 238.786 60.888 238.092 64.872 L 237.875 66.117 L 237.19 65.073 C 237.19 65.073 235.924 63.118 237 56.551 C 237.21 55.593 237.532 54.589 237.945 53.581 C 238.357 52.58 239.482 50.378 239.482 50.378 L 239.575 50.196 L 239.649 50.171 Z M 240.165 51.246 C 239.825 51.921 239.158 53.261 238.87 53.963 C 238.471 54.935 238.176 55.851 237.978 56.76 C 236.823 62.939 237.52 62.586 237.52 62.586 C 238.105 59.875 238.597 58.626 238.954 56.98 C 239.144 56.115 239.413 55.277 239.796 54.342 C 239.843 54.228 239.891 54.114 239.94 53.998 C 239.94 53.998 241.498 51.855 241.472 51.844 C 241.42 51.821 241.347 51.788 241.261 51.748 C 241.203 51.721 241.138 51.691 241.068 51.659 C 241.207 51.388 241.067 51.658 241.067 51.658 C 240.934 51.597 240.785 51.528 240.636 51.46 C 240.47 51.384 240.305 51.309 240.163 51.245 Z" style="fill: none;"/>
  <path d="M 239.475 50.402 C 239.545 50.311 239.681 50.166 239.756 50.138 C 239.804 50.12 239.887 50.107 239.919 50.106 C 239.957 50.105 240.014 50.112 240.036 50.116 C 240.06 50.121 240.095 50.131 240.112 50.137 C 240.136 50.145 240.171 50.158 240.201 50.17 C 240.257 50.193 240.336 50.227 240.423 50.265 C 240.597 50.342 240.828 50.447 241.055 50.551 C 241.275 50.652 241.494 50.753 241.661 50.83 L 243.77 48.637 L 242.2 51.651 C 242.2 51.651 241.601 52.8 241.357 53.307 C 241.113 53.813 240.908 54.267 240.722 54.72 C 240.353 55.619 240.11 56.373 239.932 57.192 C 239.553 58.911 238.786 60.888 238.092 64.872 L 237.875 66.117 L 237.19 65.073 C 237.19 65.073 235.924 63.118 237 56.551 C 237.21 55.593 237.532 54.589 237.945 53.581 C 238.357 52.58 239.482 50.378 239.482 50.378 L 239.575 50.196 L 239.649 50.171 Z M 240.165 51.246 C 239.825 51.921 239.158 53.261 238.87 53.963 C 238.471 54.935 238.176 55.851 237.978 56.76 C 236.823 62.939 237.52 62.586 237.52 62.586 C 238.105 59.875 238.597 58.626 238.954 56.98 C 239.144 56.115 239.413 55.277 239.796 54.342 C 239.843 54.228 239.891 54.114 239.94 53.998 C 239.94 53.998 241.498 51.855 241.472 51.844 C 241.42 51.821 241.347 51.788 241.261 51.748 C 241.203 51.721 241.138 51.691 241.068 51.659 C 241.207 51.388 241.067 51.658 241.067 51.658 C 240.934 51.597 240.785 51.528 240.636 51.46 C 240.47 51.384 240.305 51.309 240.163 51.245 Z" style="fill: none;"/>
  <path d="M 240.625 49.808 C 240.801 49.886 241.036 49.993 241.263 50.097 C 241.483 50.198 241.455 50.185 241.547 50.227 L 245.82 45.784 L 242.644 51.882 C 242.644 51.882 242.048 53.024 241.808 53.524 C 241.567 54.024 241.368 54.465 241.185 54.91 C 240.823 55.791 240.592 56.504 240.421 57.3 C 240.031 59.056 239.266 61.022 238.585 64.958 L 238.151 67.448 L 237.457 66.391 L 236.77 65.344 C 236.77 65.344 235.472 63.186 236.511 56.443 C 236.727 55.462 237.062 54.416 237.482 53.39 C 237.903 52.37 239.036 50.15 239.036 50.15 L 239.222 49.787 L 241.022 49.179 L 240.568 49.782 C 240.587 49.79 240.606 49.799 240.626 49.807 Z M 239.934 50.606 C 239.927 50.621 239.91 50.651 239.886 50.687 C 239.681 51.091 238.765 52.902 238.407 53.772 C 238.001 54.761 237.694 55.717 237.49 56.648 C 237.49 56.649 237.49 56.649 237.49 56.65 C 237.694 55.719 238.002 54.763 238.407 53.774 C 238.647 53.192 239.135 52.189 239.493 51.47 L 239.939 51.693 L 240.368 50.79 C 240.511 50.854 240.677 50.93 240.843 51.006 C 240.891 51.028 240.939 51.05 240.987 51.072 C 240.987 51.072 240.988 51.072 240.988 51.072 C 240.941 51.05 240.893 51.029 240.846 51.007 C 240.62 50.903 240.393 50.8 240.221 50.724 C 240.136 50.687 240.064 50.656 240.012 50.634 C 239.989 50.625 239.969 50.617 239.953 50.612 C 239.951 50.611 239.94 50.607 239.933 50.606 Z M 237.6 64.785 C 237.714 64.138 237.829 63.544 237.943 62.995 L 237.746 63.032 C 237.746 63.032 237.58 63.107 237.421 63.084 C 237.355 63.074 237.215 63.014 237.111 62.928 C 237.256 64.171 237.542 64.692 237.6 64.786 Z M 239.444 57.084 C 239.628 56.241 239.884 55.447 240.26 54.53 C 240.299 54.435 240.339 54.339 240.38 54.243 C 240.38 54.244 240.379 54.244 240.379 54.245 C 240.338 54.342 240.305 54.42 240.259 54.532 C 239.883 55.449 239.627 56.243 239.443 57.086 C 239.424 57.171 239.405 57.256 239.386 57.339 C 239.406 57.253 239.426 57.168 239.444 57.084 Z M 241.775 51.433 L 241.755 51.424 L 241.75 51.433 C 241.752 51.429 241.754 51.426 241.755 51.424 L 241.585 51.346 C 241.585 51.346 241.585 51.346 241.585 51.346 L 241.276 51.205 C 241.347 51.237 241.413 51.268 241.472 51.295 C 241.515 51.315 241.552 51.332 241.585 51.347 C 241.606 51.405 241.626 51.472 241.628 51.503 C 241.633 51.571 241.614 51.664 241.607 51.686 C 241.599 51.71 241.587 51.74 241.584 51.747 C 241.581 51.754 241.576 51.764 241.574 51.768 C 241.567 51.782 241.549 51.818 241.514 51.886 L 241.744 51.438 C 241.749 51.442 241.754 51.446 241.759 51.45 Z M 239.958 51.701 C 240.087 51.759 240.235 51.826 240.385 51.895 L 240.384 51.896 L 240.395 51.901 C 240.395 51.901 240.395 51.9 240.396 51.9 C 240.407 51.905 240.417 51.91 240.428 51.915 C 240.528 51.961 240.629 52.007 240.725 52.052 C 240.725 52.052 240.725 52.052 240.725 52.053 L 240.86 52.115 C 240.929 52.147 240.993 52.176 241.05 52.203 C 241.138 52.244 241.196 52.055 241.056 52.035 C 241.04 52.033 241.023 52.028 241.005 52.021 C 240.987 51.965 240.973 51.896 240.972 51.863 C 240.97 51.812 240.984 51.732 240.992 51.706 C 241 51.679 241.016 51.636 240.998 51.663 C 240.96 51.72 240.904 51.8 240.834 51.9 C 240.832 51.903 240.829 51.907 240.827 51.91 C 240.772 51.867 240.724 51.821 240.695 51.788 C 240.669 51.724 240.634 51.618 240.631 51.576 C 240.626 51.509 239.958 51.703 239.958 51.703 Z M 240.725 52.052 L 240.395 51.901 C 240.119 52.455 239.765 53.176 239.514 53.732 L 239.535 53.703 C 239.535 53.703 239.924 53.168 240.309 52.632 C 240.456 52.428 240.601 52.225 240.725 52.051 Z M 237.563 62.094 C 237.616 62.102 237.894 59.922 238.465 56.875 C 238.133 58.42 237.438 62.076 237.563 62.094 Z" style="fill: none;"/>
</svg>